<svg xmlns="http://www.w3.org/2000/svg" xmlns:xlink="http://www.w3.org/1999/xlink" xmlns:lucid="lucid" width="1601" height="942.5"><g transform="translate(-139.5 -277)" lucid:page-tab-id="0_0"><path d="M960 566a6 6 0 0 1 6-6h188a6 6 0 0 1 6 6v292a6 6 0 0 1-6 6H966a6 6 0 0 1-6-6z" fill-opacity="0"/><path d="M960 600v-34a6 6 0 0 1 6-6h188a6 6 0 0 1 6 6v34" fill="#0c8ce9"/><path d="M960 566a6 6 0 0 1 6-6h188a6 6 0 0 1 6 6v292a6 6 0 0 1-6 6H966a6 6 0 0 1-6-6zM960 600h200" stroke="#0c8ce9" fill="none"/><use xlink:href="#a" transform="matrix(1,0,0,1,970,560) translate(0 27.04)"/><use xlink:href="#b" transform="matrix(1,0,0,1,965,602.5) translate(0 21.04)"/><use xlink:href="#c" transform="matrix(1,0,0,1,965,635.5) translate(0 21.04)"/><use xlink:href="#d" transform="matrix(1,0,0,1,965,668.5) translate(0 21.04)"/><use xlink:href="#e" transform="matrix(1,0,0,1,965,701.5) translate(0 21.04)"/><use xlink:href="#f" transform="matrix(1,0,0,1,965,734.5) translate(0 21.04)"/><use xlink:href="#g" transform="matrix(1,0,0,1,965,767.5) translate(0 21.04)"/><use xlink:href="#h" transform="matrix(1,0,0,1,965,800.5) translate(0 21.04)"/><use xlink:href="#i" transform="matrix(1,0,0,1,965,833.5) translate(0 21.04)"/><path d="M1500 366a6 6 0 0 1 6-6h208a6 6 0 0 1 6 6v556a6 6 0 0 1-6 6h-208a6 6 0 0 1-6-6z" fill-opacity="0"/><path d="M1500 400v-34a6 6 0 0 1 6-6h208a6 6 0 0 1 6 6v34" fill="#0c8ce9"/><path d="M1500 366a6 6 0 0 1 6-6h208a6 6 0 0 1 6 6v556a6 6 0 0 1-6 6h-208a6 6 0 0 1-6-6zM1500 400h220" stroke="#0c8ce9" fill="none"/><use xlink:href="#j" transform="matrix(1,0,0,1,1510,360) translate(0 27.04)"/><use xlink:href="#b" transform="matrix(1,0,0,1,1505,402.5) translate(0 21.04)"/><use xlink:href="#k" transform="matrix(1,0,0,1,1505,435.5) translate(0 21.04)"/><use xlink:href="#l" transform="matrix(1,0,0,1,1505,468.5) translate(0 21.04)"/><use xlink:href="#m" transform="matrix(1,0,0,1,1505,501.5) translate(0 21.04)"/><use xlink:href="#n" transform="matrix(1,0,0,1,1505,534.5) translate(0 21.04)"/><use xlink:href="#o" transform="matrix(1,0,0,1,1505,567.5) translate(0 21.04)"/><use xlink:href="#p" transform="matrix(1,0,0,1,1505,600.5) translate(0 21.04)"/><use xlink:href="#q" transform="matrix(1,0,0,1,1505,633.5) translate(0 21.04)"/><use xlink:href="#r" transform="matrix(1,0,0,1,1505,666.5) translate(0 21.04)"/><use xlink:href="#s" transform="matrix(1,0,0,1,1505,699.5) translate(0 21.04)"/><use xlink:href="#t" transform="matrix(1,0,0,1,1505,732.5) translate(0 21.04)"/><use xlink:href="#u" transform="matrix(1,0,0,1,1505,765.5) translate(0 21.04)"/><use xlink:href="#v" transform="matrix(1,0,0,1,1505,798.5) translate(0 21.04)"/><use xlink:href="#w" transform="matrix(1,0,0,1,1505,831.5) translate(0 21.04)"/><use xlink:href="#x" transform="matrix(1,0,0,1,1505,864.5) translate(0 21.04)"/><use xlink:href="#y" transform="matrix(1,0,0,1,1505,897.5) translate(0 21.04)"/><path d="M1259.98 666a6 6 0 0 1 6-6h188a6 6 0 0 1 6 6v226a6 6 0 0 1-6 6h-188a6 6 0 0 1-6-6z" fill-opacity="0"/><path d="M1259.98 700v-34a6 6 0 0 1 6-6h188a6 6 0 0 1 6 6v34" fill="#0c8ce9"/><path d="M1259.98 666a6 6 0 0 1 6-6h188a6 6 0 0 1 6 6v226a6 6 0 0 1-6 6h-188a6 6 0 0 1-6-6zM1259.98 700h200" stroke="#0c8ce9" fill="none"/><use xlink:href="#z" transform="matrix(1,0,0,1,1269.9853769095205,660) translate(0 27.04)"/><use xlink:href="#b" transform="matrix(1,0,0,1,1264.9853769095205,702.5) translate(0 21.04)"/><use xlink:href="#A" transform="matrix(1,0,0,1,1264.9853769095205,735.5) translate(0 21.04)"/><use xlink:href="#B" transform="matrix(1,0,0,1,1264.9853769095205,768.5) translate(0 21.04)"/><use xlink:href="#C" transform="matrix(1,0,0,1,1264.9853769095205,801.5) translate(0 21.04)"/><use xlink:href="#D" transform="matrix(1,0,0,1,1264.9853769095205,834.5) translate(0 21.04)"/><use xlink:href="#E" transform="matrix(1,0,0,1,1264.9853769095205,867.5) translate(0 21.04)"/><path d="M1479.5 582.06h-84.3a6 6 0 0 0-6 6v51.44" stroke="#0c8ce9" stroke-width="2" fill="none"/><path d="M1489.5 572.06v20M1499.5 582.06h-20M1479.5 572.06v20M1399.2 649.5h-20M1389.2 659.5v-20M1399.2 639.5h-20" stroke="#0c8ce9" stroke-width="2" fill="#fff"/><path d="M465 343a6 6 0 0 1 6-6h208a6 6 0 0 1 6 6v424a6 6 0 0 1-6 6H471a6 6 0 0 1-6-6z" fill-opacity="0"/><path d="M465 377v-34a6 6 0 0 1 6-6h208a6 6 0 0 1 6 6v34" fill="#0c8ce9"/><path d="M465 343a6 6 0 0 1 6-6h208a6 6 0 0 1 6 6v424a6 6 0 0 1-6 6H471a6 6 0 0 1-6-6zM465 377h220" stroke="#0c8ce9" fill="none"/><use xlink:href="#F" transform="matrix(1,0,0,1,475,337.0000000000002) translate(0 27.04)"/><use xlink:href="#b" transform="matrix(1,0,0,1,470,379.5000000000002) translate(0 21.04)"/><use xlink:href="#A" transform="matrix(1,0,0,1,470,412.5000000000002) translate(0 21.04)"/><use xlink:href="#B" transform="matrix(1,0,0,1,470,445.5000000000002) translate(0 21.04)"/><use xlink:href="#G" transform="matrix(1,0,0,1,470,478.5000000000002) translate(0 21.04)"/><use xlink:href="#H" transform="matrix(1,0,0,1,470,511.5000000000002) translate(0 21.04)"/><use xlink:href="#I" transform="matrix(1,0,0,1,470,544.5000000000002) translate(0 21.04)"/><use xlink:href="#J" transform="matrix(1,0,0,1,470,577.5000000000002) translate(0 21.04)"/><use xlink:href="#g" transform="matrix(1,0,0,1,470,610.5000000000002) translate(0 21.04)"/><use xlink:href="#K" transform="matrix(1,0,0,1,470,643.5000000000002) translate(0 21.04)"/><use xlink:href="#L" transform="matrix(1,0,0,1,470,676.5000000000002) translate(0 21.04)"/><use xlink:href="#C" transform="matrix(1,0,0,1,470,709.5000000000002) translate(0 21.04)"/><use xlink:href="#E" transform="matrix(1,0,0,1,470,742.5000000000002) translate(0 21.04)"/><path d="M1080 997a6 6 0 0 1 6-6h188a6 6 0 0 1 6 6v193a6 6 0 0 1-6 6h-188a6 6 0 0 1-6-6z" fill-opacity="0"/><path d="M1080 1031v-34a6 6 0 0 1 6-6h188a6 6 0 0 1 6 6v34" fill="#0c8ce9"/><path d="M1080 997a6 6 0 0 1 6-6h188a6 6 0 0 1 6 6v193a6 6 0 0 1-6 6h-188a6 6 0 0 1-6-6zM1080 1031h200" stroke="#0c8ce9" fill="none"/><use xlink:href="#M" transform="matrix(1,0,0,1,1090,991) translate(0 27.04)"/><use xlink:href="#b" transform="matrix(1,0,0,1,1085,1033.5) translate(0 21.04)"/><use xlink:href="#A" transform="matrix(1,0,0,1,1085,1066.5) translate(0 21.04)"/><use xlink:href="#C" transform="matrix(1,0,0,1,1085,1099.5) translate(0 21.04)"/><use xlink:href="#N" transform="matrix(1,0,0,1,1085,1132.5) translate(0 21.04)"/><use xlink:href="#E" transform="matrix(1,0,0,1,1085,1165.5) translate(0 21.04)"/><path d="M1400 997a6 6 0 0 1 6-6h188a6 6 0 0 1 6 6v193a6 6 0 0 1-6 6h-188a6 6 0 0 1-6-6z" fill-opacity="0"/><path d="M1400 1031v-34a6 6 0 0 1 6-6h188a6 6 0 0 1 6 6v34" fill="#0c8ce9"/><path d="M1400 997a6 6 0 0 1 6-6h188a6 6 0 0 1 6 6v193a6 6 0 0 1-6 6h-188a6 6 0 0 1-6-6zM1400 1031h200" stroke="#0c8ce9" fill="none"/><use xlink:href="#O" transform="matrix(1,0,0,1,1410,991) translate(0 27.04)"/><use xlink:href="#b" transform="matrix(1,0,0,1,1405,1033.5) translate(0 21.04)"/><use xlink:href="#P" transform="matrix(1,0,0,1,1405,1066.5) translate(0 21.04)"/><use xlink:href="#Q" transform="matrix(1,0,0,1,1405,1099.5) translate(0 21.04)"/><use xlink:href="#R" transform="matrix(1,0,0,1,1405,1132.5) translate(0 21.04)"/><use xlink:href="#S" transform="matrix(1,0,0,1,1405,1165.5) translate(0 21.04)"/><path d="M720 802a6 6 0 0 1 6-6h188a6 6 0 0 1 6 6v391a6 6 0 0 1-6 6H726a6 6 0 0 1-6-6z" fill-opacity="0"/><path d="M720 836v-34a6 6 0 0 1 6-6h188a6 6 0 0 1 6 6v34" fill="#0c8ce9"/><path d="M720 802a6 6 0 0 1 6-6h188a6 6 0 0 1 6 6v391a6 6 0 0 1-6 6H726a6 6 0 0 1-6-6zM720 836h200" stroke="#0c8ce9" fill="none"/><use xlink:href="#T" transform="matrix(1,0,0,1,730,796) translate(0 27.04)"/><use xlink:href="#b" transform="matrix(1,0,0,1,725,838.5) translate(0 21.04)"/><use xlink:href="#A" transform="matrix(1,0,0,1,725,871.5) translate(0 21.04)"/><use xlink:href="#U" transform="matrix(1,0,0,1,725,904.5) translate(0 21.04)"/><use xlink:href="#S" transform="matrix(1,0,0,1,725,937.5) translate(0 21.04)"/><use xlink:href="#V" transform="matrix(1,0,0,1,725,970.5) translate(0 21.04)"/><use xlink:href="#W" transform="matrix(1,0,0,1,725,1003.5) translate(0 21.04)"/><use xlink:href="#X" transform="matrix(1,0,0,1,725,1036.5) translate(0 21.04)"/><use xlink:href="#Y" transform="matrix(1,0,0,1,725,1069.5) translate(0 21.04)"/><use xlink:href="#Z" transform="matrix(1,0,0,1,725,1102.5) translate(0 21.04)"/><use xlink:href="#C" transform="matrix(1,0,0,1,725,1135.5) translate(0 21.04)"/><use xlink:href="#E" transform="matrix(1,0,0,1,725,1168.5) translate(0 21.04)"/><path d="M1379.5 1113.3H1346a6 6 0 0 1-6-6v-53.35a6 6 0 0 0-6-6h-33.5" stroke="#0c8ce9" stroke-width="2" fill="none"/><path d="M1399.05 1123.3l-20-10 20-10" stroke="#0c8ce9" stroke-width="2" fill="#fff" fill-opacity="0"/><path d="M1399.05 1113.3h-20M1379.05 1103.3v20M1290.5 1057.95v-20M1280.5 1047.95h20M1300.5 1057.95v-20" stroke="#0c8ce9" stroke-width="2" fill="#fff"/><path d="M680.5 885.5h-50.32a6 6 0 0 1-6-6v-65.94a.06.06 0 0 0-.05-.06.06.06 0 0 1-.06-.06V793.5" stroke="#0c8ce9" stroke-width="2" fill="none"/><path d="M719.05 895.5l-20-10 20-10" stroke="#0c8ce9" stroke-width="2" fill="#fff" fill-opacity="0"/><path d="M719.05 885.5h-20M699.05 885.5c0 5.52-4.47 10-10 10-5.52 0-10-4.48-10-10s4.48-10 10-10c5.53 0 10 4.48 10 10M614.07 783.5h20M624.07 773.5v20M614.07 793.5h20" stroke="#0c8ce9" stroke-width="2" fill="#fff"/><path d="M460 986a6 6 0 0 1 6-6h188a6 6 0 0 1 6 6v193a6 6 0 0 1-6 6H466a6 6 0 0 1-6-6z" fill-opacity="0"/><path d="M460 1020v-34a6 6 0 0 1 6-6h188a6 6 0 0 1 6 6v34" fill="#0c8ce9"/><path d="M460 986a6 6 0 0 1 6-6h188a6 6 0 0 1 6 6v193a6 6 0 0 1-6 6H466a6 6 0 0 1-6-6zM460 1020h200" stroke="#0c8ce9" fill="none"/><use xlink:href="#aa" transform="matrix(1,0,0,1,470,980) translate(0 27.04)"/><use xlink:href="#b" transform="matrix(1,0,0,1,465,1022.5) translate(0 21.04)"/><use xlink:href="#A" transform="matrix(1,0,0,1,465,1055.5) translate(0 21.04)"/><use xlink:href="#ab" transform="matrix(1,0,0,1,465,1088.5) translate(0 21.04)"/><use xlink:href="#ac" transform="matrix(1,0,0,1,465,1121.5) translate(0 21.04)"/><use xlink:href="#E" transform="matrix(1,0,0,1,465,1154.5) translate(0 21.04)"/><path d="M556.2 959.5v-83h.02v-64" stroke="#0c8ce9" stroke-width="2" fill="none"/><path d="M566.2 969.5h-20M556.2 979.5v-20M566.2 959.5h-20" stroke="#0c8ce9" stroke-width="2" fill="#fff"/><path d="M566.22 773.95l-10 20-10-20" stroke="#0c8ce9" stroke-width="2" fill="#fff" fill-opacity="0"/><path d="M556.22 773.95v20M566.22 803.95c0 5.52-4.48 10-10 10s-10-4.48-10-10c0-5.53 4.48-10 10-10s10 4.47 10 10" stroke="#0c8ce9" stroke-width="2" fill="#fff"/><path d="M1059.5 1080.63H1006a6 6 0 0 1-6-6V957.5a6 6 0 0 0-6-6h-34.5" stroke="#0c8ce9" stroke-width="2" fill="none"/><path d="M1069.5 1070.63v20M1079.5 1080.63h-20M1059.5 1070.63v20" stroke="#0c8ce9" stroke-width="2" fill="#fff"/><path d="M920.95 941.5l20 10-20 10" stroke="#0c8ce9" stroke-width="2" fill="#fff" fill-opacity="0"/><path d="M920.95 951.5h20M960.95 951.5c0 5.52-4.48 10-10 10-5.53 0-10-4.48-10-10s4.47-10 10-10c5.52 0 10 4.48 10 10" stroke="#0c8ce9" stroke-width="2" fill="#fff"/><path d="M1180 343a6 6 0 0 1 6-6h248a6 6 0 0 1 6 6v193a6 6 0 0 1-6 6h-248a6 6 0 0 1-6-6z" fill-opacity="0"/><path d="M1180 377v-34a6 6 0 0 1 6-6h248a6 6 0 0 1 6 6v34" fill="#0c8ce9"/><path d="M1180 343a6 6 0 0 1 6-6h248a6 6 0 0 1 6 6v193a6 6 0 0 1-6 6h-248a6 6 0 0 1-6-6zM1180 377h260" stroke="#0c8ce9" fill="none"/><use xlink:href="#ad" transform="matrix(1,0,0,1,1190,337) translate(0 27.04)"/><use xlink:href="#b" transform="matrix(1,0,0,1,1185,379.5) translate(0 21.04)"/><use xlink:href="#U" transform="matrix(1,0,0,1,1185,412.5) translate(0 21.04)"/><use xlink:href="#ae" transform="matrix(1,0,0,1,1185,445.5) translate(0 21.04)"/><use xlink:href="#af" transform="matrix(1,0,0,1,1185,478.5) translate(0 21.04)"/><use xlink:href="#u" transform="matrix(1,0,0,1,1185,511.5) translate(0 21.04)"/><path d="M160 802a6 6 0 0 1 6-6h248a6 6 0 0 1 6 6v259a6 6 0 0 1-6 6H166a6 6 0 0 1-6-6z" fill-opacity="0"/><path d="M160 836v-34a6 6 0 0 1 6-6h248a6 6 0 0 1 6 6v34" fill="#0c8ce9"/><path d="M160 802a6 6 0 0 1 6-6h248a6 6 0 0 1 6 6v259a6 6 0 0 1-6 6H166a6 6 0 0 1-6-6zM160 836h260" stroke="#0c8ce9" fill="none"/><use xlink:href="#ag" transform="matrix(1,0,0,1,170,796) translate(0 27.04)"/><use xlink:href="#b" transform="matrix(1,0,0,1,165,838.5) translate(0 21.04)"/><use xlink:href="#ah" transform="matrix(1,0,0,1,165,871.5) translate(0 21.04)"/><use xlink:href="#ai" transform="matrix(1,0,0,1,165,904.5) translate(0 21.04)"/><use xlink:href="#aj" transform="matrix(1,0,0,1,165,937.5) translate(0 21.04)"/><use xlink:href="#ak" transform="matrix(1,0,0,1,165,970.5) translate(0 21.04)"/><use xlink:href="#K" transform="matrix(1,0,0,1,165,1003.5) translate(0 21.04)"/><use xlink:href="#af" transform="matrix(1,0,0,1,165,1036.5) translate(0 21.04)"/><path d="M730 342.85a6 6 0 0 1 6-6h248a6 6 0 0 1 6 6v193a6 6 0 0 1-6 6H736a6 6 0 0 1-6-6z" fill-opacity="0"/><path d="M730 376.85v-34a6 6 0 0 1 6-6h248a6 6 0 0 1 6 6v34" fill="#0c8ce9"/><path d="M730 342.85a6 6 0 0 1 6-6h248a6 6 0 0 1 6 6v193a6 6 0 0 1-6 6H736a6 6 0 0 1-6-6zM730 376.85h260" stroke="#0c8ce9" fill="none"/><use xlink:href="#al" transform="matrix(1,0,0,1,740,336.8500059648441) translate(0 27.04)"/><use xlink:href="#b" transform="matrix(1,0,0,1,735,379.3500059648441) translate(0 21.04)"/><use xlink:href="#am" transform="matrix(1,0,0,1,735,412.3500059648441) translate(0 21.04)"/><use xlink:href="#an" transform="matrix(1,0,0,1,735,445.3500059648441) translate(0 21.04)"/><use xlink:href="#ao" transform="matrix(1,0,0,1,735,478.3500059648441) translate(0 21.04)"/><use xlink:href="#V" transform="matrix(1,0,0,1,735,511.3500059648441) translate(0 21.04)"/><path d="M1299.05 581.5v1.9a.1.1 0 0 0 .1.1.1.1 0 0 1 .1.1v55.9" stroke="#0c8ce9" stroke-width="2" fill="none"/><path d="M1309.05 542.95l-10 20-10-20" stroke="#0c8ce9" stroke-width="2" fill="#fff" fill-opacity="0"/><path d="M1299.05 542.95v20M1309.05 572.95c0 5.52-4.48 10-10 10-5.53 0-10-4.48-10-10 0-5.53 4.47-10 10-10 5.52 0 10 4.47 10 10M1309.25 649.5h-20M1299.25 659.5v-20M1309.25 639.5h-20" stroke="#0c8ce9" stroke-width="2" fill="#fff"/><path d="M290 775.5v-93" stroke="#0c8ce9" stroke-width="2" fill="none"/><path d="M280 795.05l10-20 10 20" stroke="#0c8ce9" stroke-width="2" fill="#fff" fill-opacity="0"/><path d="M290 795.05v-20M300 775.05h-20M280 672.5h20M290 662.5v20M280 682.5h20" stroke="#0c8ce9" stroke-width="2" fill="#fff"/><path d="M160 364a6 6 0 0 1 6-6h248a6 6 0 0 1 6 6v292a6 6 0 0 1-6 6H166a6 6 0 0 1-6-6z" fill-opacity="0"/><path d="M160 398v-34a6 6 0 0 1 6-6h248a6 6 0 0 1 6 6v34" fill="#0c8ce9"/><path d="M160 364a6 6 0 0 1 6-6h248a6 6 0 0 1 6 6v292a6 6 0 0 1-6 6H166a6 6 0 0 1-6-6zM160 398h260" stroke="#0c8ce9" fill="none"/><use xlink:href="#ap" transform="matrix(1,0,0,1,170,358) translate(0 27.04)"/><use xlink:href="#b" transform="matrix(1,0,0,1,165,400.5) translate(0 21.04)"/><use xlink:href="#c" transform="matrix(1,0,0,1,165,433.5) translate(0 21.04)"/><use xlink:href="#d" transform="matrix(1,0,0,1,165,466.5) translate(0 21.04)"/><use xlink:href="#e" transform="matrix(1,0,0,1,165,499.5) translate(0 21.04)"/><use xlink:href="#aq" transform="matrix(1,0,0,1,165,532.5) translate(0 21.04)"/><use xlink:href="#ar" transform="matrix(1,0,0,1,165,565.5) translate(0 21.04)"/><use xlink:href="#as" transform="matrix(1,0,0,1,165,598.5) translate(0 21.04)"/><use xlink:href="#h" transform="matrix(1,0,0,1,165,631.5) translate(0 21.04)"/><path d="M459.5 885.85h34.66a6 6 0 0 1 6 6v67.65" stroke="#0c8ce9" stroke-width="2" fill="none"/><path d="M420.95 875.85l20 10-20 10" stroke="#0c8ce9" stroke-width="2" fill="#fff" fill-opacity="0"/><path d="M420.95 885.85h20M460.95 885.85c0 5.52-4.48 10-10 10-5.53 0-10-4.48-10-10s4.47-10 10-10c5.52 0 10 4.48 10 10M510.16 969.5h-20M500.16 979.5v-20M510.16 959.5h-20" stroke="#0c8ce9" stroke-width="2" fill="#fff"/><path d="M860 581.35v16a6 6 0 0 1-6 6H705.5" stroke="#0c8ce9" stroke-width="2" fill="none"/><path d="M870 542.8l-10 20-10-20" stroke="#0c8ce9" stroke-width="2" fill="#fff" fill-opacity="0"/><path d="M860 542.8v20M870 572.8c0 5.52-4.48 10-10 10s-10-4.48-10-10c0-5.53 4.48-10 10-10s10 4.47 10 10M695.5 613.36v-20M685.5 603.36h20M705.5 613.36v-20" stroke="#0c8ce9" stroke-width="2" fill="#fff"/><path d="M1029.5 459.2h70.42a.07.07 0 0 1 .08.07.07.07 0 0 0 .08.08h59.42" stroke="#0c8ce9" stroke-width="2" fill="none"/><path d="M990.95 449.2l20 10-20 10" stroke="#0c8ce9" stroke-width="2" fill="#fff" fill-opacity="0"/><path d="M990.95 459.2h20M1030.95 459.2c0 5.52-4.48 10-10 10-5.53 0-10-4.48-10-10s4.47-10 10-10c5.52 0 10 4.48 10 10M1169.5 449.35v20M1179.5 459.35h-20M1159.5 449.35v20" stroke="#0c8ce9" stroke-width="2" fill="#fff"/><path d="M1180.5 715.47h23.5a6 6 0 0 1 6 6v87.67a6 6 0 0 0 6 6h4.48" stroke="#0c8ce9" stroke-width="2" fill="none"/><path d="M1170.5 725.47v-20M1160.5 715.47h20M1180.5 725.47v-20" stroke="#0c8ce9" stroke-width="2" fill="#fff"/><path d="M1259.04 825.14l-20-10 20-10" stroke="#0c8ce9" stroke-width="2" fill="#fff" fill-opacity="0"/><path d="M1259.04 815.14h-20M1239.04 815.14c0 5.52-4.48 10-10 10s-10-4.48-10-10 4.48-10 10-10 10 4.48 10 10" stroke="#0c8ce9" stroke-width="2" fill="#fff"/><path d="M1096.1 884.5v37a6 6 0 0 0 6 6h71.9a6 6 0 0 1 6 6v18" stroke="#0c8ce9" stroke-width="2" fill="none"/><path d="M1086.1 874.5h20M1096.1 864.5v20M1086.1 884.5h20" stroke="#0c8ce9" stroke-width="2" fill="#fff"/><path d="M1170 990.05l10-20 10 20" stroke="#0c8ce9" stroke-width="2" fill="#fff" fill-opacity="0"/><path d="M1180 990.05v-20M1190 960.05c0 5.53-4.48 10-10 10s-10-4.47-10-10c0-5.52 4.48-10 10-10s10 4.48 10 10" stroke="#0c8ce9" stroke-width="2" fill="#fff"/><path d="M939.5 715.52l-113.5.03a6 6 0 0 0-6 6v34.95" stroke="#0c8ce9" stroke-width="2" fill="none"/><path d="M949.5 705.52v20M959.5 715.52h-20M939.5 705.52v20" stroke="#0c8ce9" stroke-width="2" fill="#fff"/><path d="M810 795.05l10-20 10 20" stroke="#0c8ce9" stroke-width="2" fill="#fff" fill-opacity="0"/><path d="M820 795.05v-20M830 765.05c0 5.53-4.48 10-10 10s-10-4.47-10-10c0-5.52 4.48-10 10-10s10 4.48 10 10" stroke="#0c8ce9" stroke-width="2" fill="#fff"/><path d="M939.5 666.93h-215" stroke="#0c8ce9" stroke-width="2" fill="none"/><path d="M949.5 656.93v20M959.5 666.93h-20M939.5 656.93v20" stroke="#0c8ce9" stroke-width="2" fill="#fff"/><path d="M685.95 656.93l20 10-20 10" stroke="#0c8ce9" stroke-width="2" fill="#fff" fill-opacity="0"/><path d="M685.95 666.93h20M725.95 666.93c0 5.52-4.48 10-10 10-5.53 0-10-4.48-10-10s4.47-10 10-10c5.52 0 10 4.48 10 10" stroke="#0c8ce9" stroke-width="2" fill="#fff"/><path d="M1310 297.5V286a6 6 0 0 0-6-6H296a6 6 0 0 0-6 6v51.5" stroke="#0c8ce9" stroke-width="2" fill="none"/><path d="M1300 336.05l10-20 10 20" stroke="#0c8ce9" stroke-width="2" fill="#fff" fill-opacity="0"/><path d="M1310 336.05v-20M1320 306.05c0 5.53-4.48 10-10 10s-10-4.47-10-10c0-5.52 4.48-10 10-10s10 4.48 10 10M300 347.5h-20M290 357.5v-20M300 337.5h-20" stroke="#0c8ce9" stroke-width="2" fill="#fff"/><defs><path fill="#fff" d="M609-258C606-86 520 15 346 15S83-86 83-258v-435h97v424c-3 125 55 198 166 198 117 0 165-77 166-198v-424h97v435" id="at"/><path fill="#fff" d="M59-97c36 13 83 32 144 30 63-2 112-9 112-63 0-99-160-93-221-153-24-24-44-52-44-100 0-151 196-178 331-127l-17 80c-60-35-257-49-214 69 69 92 264 59 259 227-2 107-89 146-206 146C133 12 82-2 42-17" id="au"/><path fill="#fff" d="M315 12C141 9 53-87 53-259c0-164 81-274 237-274 163 0 227 118 216 298H150c9 108 58 165 175 165 54 0 101-11 133-25l13 78c-33 16-99 31-156 29zm95-322c8-101-82-177-178-132-47 22-73 71-80 132h258" id="av"/><path fill="#fff" d="M82-498c73-28 204-47 296-18l-16 81c-44-19-138-19-187-2V0H82v-498" id="aw"/><g id="a"><use transform="matrix(0.02,0,0,0.02,0,0)" xlink:href="#at"/><use transform="matrix(0.02,0,0,0.02,13.84,0)" xlink:href="#au"/><use transform="matrix(0.02,0,0,0.02,22.84,0)" xlink:href="#av"/><use transform="matrix(0.02,0,0,0.02,34.1,0)" xlink:href="#aw"/></g><path fill="#1d262b" d="M175 0H82v-520h93V0zm13-675c0 35-26 61-60 61s-60-26-60-61 26-61 60-61 60 26 60 61" id="ax"/><path fill="#1d262b" d="M315-70c41 0 75-4 103-11v-329c-24-19-73-42-119-40-110 2-147 80-149 190-2 113 59 189 165 190zm-28-462c51-2 103 18 131 35v-263l93-16v761C458-1 388 13 314 12 145 7 53-90 53-260c0-162 75-266 234-272" id="ay"/><g id="b"><use transform="matrix(0.02,0,0,0.02,0,0)" xlink:href="#ax"/><use transform="matrix(0.02,0,0,0.02,5.14,0)" xlink:href="#ay"/></g><path fill="#1d262b" d="M82-567C68-745 227-812 397-759l-17 80c-21-10-52-17-88-17-102 0-122 72-117 176h200v78H175V0H82v-567" id="az"/><path fill="#1d262b" d="M82-498c73-28 204-47 296-18l-16 81c-44-19-138-19-187-2V0H82v-498" id="aA"/><path fill="#1d262b" d="M59-97c36 13 83 32 144 30 63-2 112-9 112-63 0-99-160-93-221-153-24-24-44-52-44-100 0-151 196-178 331-127l-17 80c-60-35-257-49-214 69 69 92 264 59 259 227-2 107-89 146-206 146C133 12 82-2 42-17" id="aB"/><path fill="#1d262b" d="M257 11C121 11 76-66 76-201v-464l93-16v161h197v78H169v240c-1 80 17 131 96 131 43 0 79-13 103-23l18 77c-27 12-82 28-129 28" id="aC"/><path fill="#1d262b" d="M-2 106h500v79H-2v-79" id="aD"/><path fill="#1d262b" d="M279-449c-36 1-74 4-104 10V0H82v-505c55-13 130-26 207-26 153 0 213 87 213 239V0h-93v-272c1-107-22-180-130-177" id="aE"/><path fill="#1d262b" d="M139-156c0 106 132 93 220 82v-155c-78-22-220-23-220 73zm-94 1c-2-152 173-180 314-148 5-94-26-150-117-150-50 0-101 8-132 20l-11-77c32-13 99-23 151-23 135 0 201 66 200 199V-9C390 1 319 11 247 11 126 11 46-34 45-155" id="aF"/><path fill="#1d262b" d="M278-449c-36 0-74 4-103 10V0H82v-505c94-23 290-55 347 27 41-28 96-52 166-53 149-3 194 91 194 239V0h-93v-272c0-100-11-177-111-177-50 0-96 17-119 35 30 114 10 276 16 414h-93v-272c0-99-12-179-111-177" id="aG"/><path fill="#1d262b" d="M315 12C141 9 53-87 53-259c0-164 81-274 237-274 163 0 227 118 216 298H150c9 108 58 165 175 165 54 0 101-11 133-25l13 78c-33 16-99 31-156 29zm95-322c8-101-82-177-178-132-47 22-73 71-80 132h258" id="aH"/><g id="c"><use transform="matrix(0.02,0,0,0.02,0,0)" xlink:href="#az"/><use transform="matrix(0.02,0,0,0.02,7.8,0)" xlink:href="#ax"/><use transform="matrix(0.02,0,0,0.02,12.94,0)" xlink:href="#aA"/><use transform="matrix(0.02,0,0,0.02,20.740000000000002,0)" xlink:href="#aB"/><use transform="matrix(0.02,0,0,0.02,29.740000000000002,0)" xlink:href="#aC"/><use transform="matrix(0.02,0,0,0.02,37.86,0)" xlink:href="#aD"/><use transform="matrix(0.02,0,0,0.02,47.78,0)" xlink:href="#aE"/><use transform="matrix(0.02,0,0,0.02,59.34,0)" xlink:href="#aF"/><use transform="matrix(0.02,0,0,0.02,69.86,0)" xlink:href="#aG"/><use transform="matrix(0.02,0,0,0.02,87.16,0)" xlink:href="#aH"/></g><path fill="#1d262b" d="M173-151c-3 59 26 79 78 83l-13 78C129 7 80-30 80-136v-624l93-16v625" id="aI"/><g id="d"><use transform="matrix(0.02,0,0,0.02,0,0)" xlink:href="#aI"/><use transform="matrix(0.02,0,0,0.02,5.54,0)" xlink:href="#aF"/><use transform="matrix(0.02,0,0,0.02,16.06,0)" xlink:href="#aB"/><use transform="matrix(0.02,0,0,0.02,25.060000000000002,0)" xlink:href="#aC"/><use transform="matrix(0.02,0,0,0.02,33.18,0)" xlink:href="#aD"/><use transform="matrix(0.02,0,0,0.02,43.1,0)" xlink:href="#aE"/><use transform="matrix(0.02,0,0,0.02,54.660000000000004,0)" xlink:href="#aF"/><use transform="matrix(0.02,0,0,0.02,65.18,0)" xlink:href="#aG"/><use transform="matrix(0.02,0,0,0.02,82.48,0)" xlink:href="#aH"/></g><g id="e"><use transform="matrix(0.02,0,0,0.02,0,0)" xlink:href="#aH"/><use transform="matrix(0.02,0,0,0.02,11.26,0)" xlink:href="#aG"/><use transform="matrix(0.02,0,0,0.02,28.560000000000002,0)" xlink:href="#aF"/><use transform="matrix(0.02,0,0,0.02,39.08,0)" xlink:href="#ax"/><use transform="matrix(0.02,0,0,0.02,44.22,0)" xlink:href="#aI"/></g><path fill="#1d262b" d="M294-70c109-2 147-79 149-189 2-113-59-188-165-189-45 0-73 2-103 10v328c24 19 73 42 119 40zm-15-461c169 5 261 102 261 272C540-98 465 6 306 12c-51 2-103-18-131-35v208H82v-689c54-12 122-29 197-27" id="aJ"/><path fill="#1d262b" d="M761-520C714-334 656-153 588 0h-81c-40-105-86-236-117-357-31 122-76 252-116 357h-81C125-153 67-334 20-520h100c31 138 71 286 118 407 45-126 85-269 117-407h77c30 140 70 281 115 407 46-123 88-268 118-407h96" id="aK"/><path fill="#1d262b" d="M297-533c160 0 244 110 244 273S457 13 297 13 53-97 53-260s84-273 244-273zm0 464c98 0 147-85 147-191s-49-191-147-191-147 85-147 191S199-69 297-69" id="aL"/><path fill="#1d262b" d="M279-449c-38 1-76 8-104 17V0H82v-760l93-16v266c32-12 72-21 114-21 153-1 213 87 213 239V0h-93v-272c1-107-22-181-130-177" id="aM"/><g id="f"><use transform="matrix(0.02,0,0,0.02,0,0)" xlink:href="#aJ"/><use transform="matrix(0.02,0,0,0.02,11.86,0)" xlink:href="#aF"/><use transform="matrix(0.02,0,0,0.02,22.38,0)" xlink:href="#aB"/><use transform="matrix(0.02,0,0,0.02,31.38,0)" xlink:href="#aB"/><use transform="matrix(0.02,0,0,0.02,40.379999999999995,0)" xlink:href="#aK"/><use transform="matrix(0.02,0,0,0.02,55.75999999999999,0)" xlink:href="#aL"/><use transform="matrix(0.02,0,0,0.02,67.63999999999999,0)" xlink:href="#aA"/><use transform="matrix(0.02,0,0,0.02,75.43999999999998,0)" xlink:href="#ay"/><use transform="matrix(0.02,0,0,0.02,87.29999999999998,0)" xlink:href="#aD"/><use transform="matrix(0.02,0,0,0.02,97.21999999999998,0)" xlink:href="#aM"/><use transform="matrix(0.02,0,0,0.02,108.71999999999998,0)" xlink:href="#aF"/><use transform="matrix(0.02,0,0,0.02,119.23999999999998,0)" xlink:href="#aB"/><use transform="matrix(0.02,0,0,0.02,128.23999999999998,0)" xlink:href="#aM"/></g><path fill="#1d262b" d="M252 108c114 0 161-44 156-160-25 15-79 35-127 33-151-6-228-96-228-252 0-162 90-254 252-260 75-2 141 15 195 27v464c0 164-85 227-250 228-62 1-124-12-168-27l17-81c38 15 98 28 153 28zm38-207c46 2 92-16 117-35v-304c-29-7-58-11-101-11-102-1-157 76-156 179 2 102 44 167 140 171" id="aN"/><g id="g"><use transform="matrix(0.02,0,0,0.02,0,0)" xlink:href="#ax"/><use transform="matrix(0.02,0,0,0.02,5.14,0)" xlink:href="#aG"/><use transform="matrix(0.02,0,0,0.02,22.44,0)" xlink:href="#aF"/><use transform="matrix(0.02,0,0,0.02,32.96,0)" xlink:href="#aN"/><use transform="matrix(0.02,0,0,0.02,44.6,0)" xlink:href="#aH"/></g><path fill="#1d262b" d="M490-520c-69 78-147 159-220 234 93 75 176 181 240 286H401c-59-95-136-186-226-250V0H82v-760l93-16v474c70-69 142-144 206-218h109" id="aO"/><path fill="#1d262b" d="M266-100c50-137 84-270 119-420h96C435-330 371-148 306 16 261 129 164 226 4 172l17-75c41 21 118 16 149-11 20-17 39-42 56-79C145-149 66-333 18-520h100c37 148 89 293 148 420" id="aP"/><g id="h"><use transform="matrix(0.02,0,0,0.02,0,0)" xlink:href="#aI"/><use transform="matrix(0.02,0,0,0.02,5.54,0)" xlink:href="#aF"/><use transform="matrix(0.02,0,0,0.02,16.06,0)" xlink:href="#aE"/><use transform="matrix(0.02,0,0,0.02,27.619999999999997,0)" xlink:href="#aN"/><use transform="matrix(0.02,0,0,0.02,39.26,0)" xlink:href="#aD"/><use transform="matrix(0.02,0,0,0.02,49.18,0)" xlink:href="#aO"/><use transform="matrix(0.02,0,0,0.02,59.17999999999999,0)" xlink:href="#aH"/><use transform="matrix(0.02,0,0,0.02,70.44,0)" xlink:href="#aP"/></g><path fill="#1d262b" d="M447-14c-35 17-88 26-139 26C139 12 53-90 53-259c0-187 118-299 319-268 23 4 46 10 67 19l-21 79c-28-13-66-22-107-22-111 1-162 75-161 192 1 118 51 189 170 189 43 1 87-10 114-22" id="aQ"/><path fill="#1d262b" d="M255-109c52-125 101-269 137-411h96C441-339 364-151 295 0h-84C142-151 64-339 18-520h100c36 142 85 286 137 411" id="aR"/><g id="i"><use transform="matrix(0.02,0,0,0.02,0,0)" xlink:href="#aF"/><use transform="matrix(0.02,0,0,0.02,10.52,0)" xlink:href="#aQ"/><use transform="matrix(0.02,0,0,0.02,19.9,0)" xlink:href="#aC"/><use transform="matrix(0.02,0,0,0.02,28.02,0)" xlink:href="#ax"/><use transform="matrix(0.02,0,0,0.02,33.16,0)" xlink:href="#aR"/><use transform="matrix(0.02,0,0,0.02,43.28,0)" xlink:href="#aF"/><use transform="matrix(0.02,0,0,0.02,53.800000000000004,0)" xlink:href="#aC"/><use transform="matrix(0.02,0,0,0.02,61.72,0)" xlink:href="#aH"/><use transform="matrix(0.02,0,0,0.02,72.98,0)" xlink:href="#ay"/></g><path fill="#fff" d="M64-114c42 22 110 45 185 45 127 0 189-72 139-159-74-129-329-76-337-288-8-203 271-234 423-150l-31 79c-73-47-295-73-292 60 2 88 82 103 147 131 102 44 200 79 205 222C510 40 191 50 35-34" id="aS"/><path fill="#fff" d="M255-109c52-125 101-269 137-411h96C441-339 364-151 295 0h-84C142-151 64-339 18-520h100c36 142 85 286 137 411" id="aT"/><path fill="#fff" d="M175 0H82v-520h93V0zm13-675c0 35-26 61-60 61s-60-26-60-61 26-61 60-61 60 26 60 61" id="aU"/><path fill="#fff" d="M447-14c-35 17-88 26-139 26C139 12 53-90 53-259c0-187 118-299 319-268 23 4 46 10 67 19l-21 79c-28-13-66-22-107-22-111 1-162 75-161 192 1 118 51 189 170 189 43 1 87-10 114-22" id="aV"/><path fill="#fff" d="M88-683c49-13 125-17 184-17 175 0 303 59 303 221 0 202-179 229-390 222V0H88v-683zm385 203c0-140-156-141-288-132v272c146 2 288 4 288-140" id="aW"/><path fill="#fff" d="M297-533c160 0 244 110 244 273S457 13 297 13 53-97 53-260s84-273 244-273zm0 464c98 0 147-85 147-191s-49-191-147-191-147 85-147 191S199-69 297-69" id="aX"/><path fill="#fff" d="M315-70c41 0 75-4 103-11v-329c-24-19-73-42-119-40-110 2-147 80-149 190-2 113 59 189 165 190zm-28-462c51-2 103 18 131 35v-263l93-16v761C458-1 388 13 314 12 145 7 53-90 53-260c0-162 75-266 234-272" id="aY"/><g id="j"><use transform="matrix(0.02,0,0,0.02,0,0)" xlink:href="#aS"/><use transform="matrix(0.02,0,0,0.02,10.72,0)" xlink:href="#av"/><use transform="matrix(0.02,0,0,0.02,21.98,0)" xlink:href="#aw"/><use transform="matrix(0.02,0,0,0.02,30.2,0)" xlink:href="#aT"/><use transform="matrix(0.02,0,0,0.02,40.32000000000001,0)" xlink:href="#aU"/><use transform="matrix(0.02,0,0,0.02,45.46000000000001,0)" xlink:href="#aV"/><use transform="matrix(0.02,0,0,0.02,54.84000000000001,0)" xlink:href="#av"/><use transform="matrix(0.02,0,0,0.02,66.10000000000001,0)" xlink:href="#aW"/><use transform="matrix(0.02,0,0,0.02,78.34,0)" xlink:href="#aw"/><use transform="matrix(0.02,0,0,0.02,86.14,0)" xlink:href="#aX"/><use transform="matrix(0.02,0,0,0.02,97.74000000000001,0)" xlink:href="#aT"/><use transform="matrix(0.02,0,0,0.02,107.86,0)" xlink:href="#aU"/><use transform="matrix(0.02,0,0,0.02,113,0)" xlink:href="#aY"/><use transform="matrix(0.02,0,0,0.02,124.86,0)" xlink:href="#av"/><use transform="matrix(0.02,0,0,0.02,136.12,0)" xlink:href="#aw"/></g><g id="k"><use transform="matrix(0.02,0,0,0.02,0,0)" xlink:href="#aJ"/><use transform="matrix(0.02,0,0,0.02,11.86,0)" xlink:href="#aA"/><use transform="matrix(0.02,0,0,0.02,19.66,0)" xlink:href="#aL"/><use transform="matrix(0.02,0,0,0.02,31.259999999999994,0)" xlink:href="#aR"/><use transform="matrix(0.02,0,0,0.02,41.37999999999999,0)" xlink:href="#ax"/><use transform="matrix(0.02,0,0,0.02,46.51999999999999,0)" xlink:href="#ay"/><use transform="matrix(0.02,0,0,0.02,58.379999999999995,0)" xlink:href="#aH"/><use transform="matrix(0.02,0,0,0.02,69.64,0)" xlink:href="#aA"/><use transform="matrix(0.02,0,0,0.02,77.44,0)" xlink:href="#aD"/><use transform="matrix(0.02,0,0,0.02,87.36,0)" xlink:href="#ax"/><use transform="matrix(0.02,0,0,0.02,92.5,0)" xlink:href="#ay"/></g><g id="l"><use transform="matrix(0.02,0,0,0.02,0,0)" xlink:href="#aM"/><use transform="matrix(0.02,0,0,0.02,11.5,0)" xlink:href="#aL"/><use transform="matrix(0.02,0,0,0.02,23.38,0)" xlink:href="#aB"/><use transform="matrix(0.02,0,0,0.02,32.38,0)" xlink:href="#aC"/></g><g id="m"><use transform="matrix(0.02,0,0,0.02,0,0)" xlink:href="#aJ"/><use transform="matrix(0.02,0,0,0.02,11.86,0)" xlink:href="#aL"/><use transform="matrix(0.02,0,0,0.02,23.740000000000002,0)" xlink:href="#aA"/><use transform="matrix(0.02,0,0,0.02,31.54,0)" xlink:href="#aC"/></g><g id="n"><use transform="matrix(0.02,0,0,0.02,0,0)" xlink:href="#aH"/><use transform="matrix(0.02,0,0,0.02,11.26,0)" xlink:href="#aE"/><use transform="matrix(0.02,0,0,0.02,22.82,0)" xlink:href="#aQ"/><use transform="matrix(0.02,0,0,0.02,32.2,0)" xlink:href="#aA"/><use transform="matrix(0.02,0,0,0.02,40.42,0)" xlink:href="#aP"/><use transform="matrix(0.02,0,0,0.02,50.44,0)" xlink:href="#aJ"/><use transform="matrix(0.02,0,0,0.02,62.300000000000004,0)" xlink:href="#aC"/><use transform="matrix(0.02,0,0,0.02,70.42,0)" xlink:href="#ax"/><use transform="matrix(0.02,0,0,0.02,75.56,0)" xlink:href="#aL"/><use transform="matrix(0.02,0,0,0.02,87.44,0)" xlink:href="#aE"/></g><path fill="#1d262b" d="M300-71c36 0 74-3 103-10v-439h93v505C441-2 367 11 290 11 138 11 76-78 76-228v-292h93v272c2 116 24 177 131 177" id="aZ"/><g id="o"><use transform="matrix(0.02,0,0,0.02,0,0)" xlink:href="#aZ"/><use transform="matrix(0.02,0,0,0.02,11.56,0)" xlink:href="#aB"/><use transform="matrix(0.02,0,0,0.02,20.56,0)" xlink:href="#aH"/><use transform="matrix(0.02,0,0,0.02,31.82,0)" xlink:href="#aA"/><use transform="matrix(0.02,0,0,0.02,39.62,0)" xlink:href="#aE"/><use transform="matrix(0.02,0,0,0.02,51.18,0)" xlink:href="#aF"/><use transform="matrix(0.02,0,0,0.02,61.7,0)" xlink:href="#aG"/><use transform="matrix(0.02,0,0,0.02,79,0)" xlink:href="#aH"/></g><g id="p"><use transform="matrix(0.02,0,0,0.02,0,0)" xlink:href="#aJ"/><use transform="matrix(0.02,0,0,0.02,11.86,0)" xlink:href="#aF"/><use transform="matrix(0.02,0,0,0.02,22.38,0)" xlink:href="#aB"/><use transform="matrix(0.02,0,0,0.02,31.38,0)" xlink:href="#aB"/><use transform="matrix(0.02,0,0,0.02,40.379999999999995,0)" xlink:href="#aK"/><use transform="matrix(0.02,0,0,0.02,55.75999999999999,0)" xlink:href="#aL"/><use transform="matrix(0.02,0,0,0.02,67.63999999999999,0)" xlink:href="#aA"/><use transform="matrix(0.02,0,0,0.02,75.43999999999998,0)" xlink:href="#ay"/></g><g id="q"><use transform="matrix(0.02,0,0,0.02,0,0)" xlink:href="#az"/><use transform="matrix(0.02,0,0,0.02,7.8,0)" xlink:href="#aL"/><use transform="matrix(0.02,0,0,0.02,19.68,0)" xlink:href="#aA"/><use transform="matrix(0.02,0,0,0.02,27.48,0)" xlink:href="#aG"/></g><g id="r"><use transform="matrix(0.02,0,0,0.02,0,0)" xlink:href="#aF"/><use transform="matrix(0.02,0,0,0.02,10.52,0)" xlink:href="#aQ"/><use transform="matrix(0.02,0,0,0.02,19.9,0)" xlink:href="#aQ"/><use transform="matrix(0.02,0,0,0.02,29.019999999999996,0)" xlink:href="#aL"/><use transform="matrix(0.02,0,0,0.02,40.9,0)" xlink:href="#aZ"/><use transform="matrix(0.02,0,0,0.02,52.46,0)" xlink:href="#aE"/><use transform="matrix(0.02,0,0,0.02,64.02,0)" xlink:href="#aC"/><use transform="matrix(0.02,0,0,0.02,72.14,0)" xlink:href="#aD"/><use transform="matrix(0.02,0,0,0.02,82.06,0)" xlink:href="#ax"/><use transform="matrix(0.02,0,0,0.02,87.2,0)" xlink:href="#ay"/></g><g id="s"><use transform="matrix(0.02,0,0,0.02,0,0)" xlink:href="#aF"/><use transform="matrix(0.02,0,0,0.02,10.52,0)" xlink:href="#aZ"/><use transform="matrix(0.02,0,0,0.02,22.080000000000002,0)" xlink:href="#aC"/><use transform="matrix(0.02,0,0,0.02,30.2,0)" xlink:href="#aM"/><use transform="matrix(0.02,0,0,0.02,41.7,0)" xlink:href="#aD"/><use transform="matrix(0.02,0,0,0.02,51.620000000000005,0)" xlink:href="#aC"/><use transform="matrix(0.02,0,0,0.02,59.46000000000001,0)" xlink:href="#aL"/><use transform="matrix(0.02,0,0,0.02,71.34,0)" xlink:href="#aO"/><use transform="matrix(0.02,0,0,0.02,81.34,0)" xlink:href="#aH"/><use transform="matrix(0.02,0,0,0.02,92.60000000000001,0)" xlink:href="#aE"/></g><g id="t"><use transform="matrix(0.02,0,0,0.02,0,0)" xlink:href="#aG"/><use transform="matrix(0.02,0,0,0.02,17.3,0)" xlink:href="#aH"/><use transform="matrix(0.02,0,0,0.02,28.560000000000002,0)" xlink:href="#aB"/><use transform="matrix(0.02,0,0,0.02,37.56,0)" xlink:href="#aB"/><use transform="matrix(0.02,0,0,0.02,46.56,0)" xlink:href="#aF"/><use transform="matrix(0.02,0,0,0.02,57.08,0)" xlink:href="#aN"/><use transform="matrix(0.02,0,0,0.02,68.72,0)" xlink:href="#ax"/><use transform="matrix(0.02,0,0,0.02,73.86,0)" xlink:href="#aE"/><use transform="matrix(0.02,0,0,0.02,85.42,0)" xlink:href="#aN"/><use transform="matrix(0.02,0,0,0.02,97.06,0)" xlink:href="#aD"/><use transform="matrix(0.02,0,0,0.02,106.98,0)" xlink:href="#aB"/><use transform="matrix(0.02,0,0,0.02,115.98,0)" xlink:href="#aH"/><use transform="matrix(0.02,0,0,0.02,127.24000000000001,0)" xlink:href="#aA"/><use transform="matrix(0.02,0,0,0.02,135.46,0)" xlink:href="#aR"/><use transform="matrix(0.02,0,0,0.02,145.58,0)" xlink:href="#ax"/><use transform="matrix(0.02,0,0,0.02,150.72,0)" xlink:href="#aQ"/><use transform="matrix(0.02,0,0,0.02,160.1,0)" xlink:href="#aH"/></g><g id="u"><use transform="matrix(0.02,0,0,0.02,0,0)" xlink:href="#aQ"/><use transform="matrix(0.02,0,0,0.02,9.38,0)" xlink:href="#aM"/><use transform="matrix(0.02,0,0,0.02,20.88,0)" xlink:href="#aF"/><use transform="matrix(0.02,0,0,0.02,31.400000000000002,0)" xlink:href="#aE"/><use transform="matrix(0.02,0,0,0.02,42.96,0)" xlink:href="#aE"/><use transform="matrix(0.02,0,0,0.02,54.52,0)" xlink:href="#aH"/><use transform="matrix(0.02,0,0,0.02,65.78,0)" xlink:href="#aI"/><use transform="matrix(0.02,0,0,0.02,71.32000000000001,0)" xlink:href="#aD"/><use transform="matrix(0.02,0,0,0.02,81.24000000000001,0)" xlink:href="#ax"/><use transform="matrix(0.02,0,0,0.02,86.38,0)" xlink:href="#ay"/></g><g id="v"><use transform="matrix(0.02,0,0,0.02,0,0)" xlink:href="#aQ"/><use transform="matrix(0.02,0,0,0.02,9.38,0)" xlink:href="#aM"/><use transform="matrix(0.02,0,0,0.02,20.88,0)" xlink:href="#aF"/><use transform="matrix(0.02,0,0,0.02,31.400000000000002,0)" xlink:href="#aE"/><use transform="matrix(0.02,0,0,0.02,42.96,0)" xlink:href="#aE"/><use transform="matrix(0.02,0,0,0.02,54.52,0)" xlink:href="#aH"/><use transform="matrix(0.02,0,0,0.02,65.78,0)" xlink:href="#aI"/><use transform="matrix(0.02,0,0,0.02,71.32000000000001,0)" xlink:href="#aD"/><use transform="matrix(0.02,0,0,0.02,81.24000000000001,0)" xlink:href="#aB"/><use transform="matrix(0.02,0,0,0.02,90.24,0)" xlink:href="#aH"/><use transform="matrix(0.02,0,0,0.02,101.50000000000001,0)" xlink:href="#aQ"/><use transform="matrix(0.02,0,0,0.02,110.88,0)" xlink:href="#aA"/><use transform="matrix(0.02,0,0,0.02,118.68,0)" xlink:href="#aH"/><use transform="matrix(0.02,0,0,0.02,129.94,0)" xlink:href="#aC"/></g><path fill="#1d262b" d="M279 12C204 13 135-1 82-15v-745l93-16v279c28-17 80-37 131-35 159 6 234 110 234 272C540-90 448 7 279 12zm15-462c-46-2-95 21-119 40v329c28 7 62 11 103 11 106 0 167-77 165-190-2-110-39-188-149-190" id="ba"/><g id="w"><use transform="matrix(0.02,0,0,0.02,0,0)" xlink:href="#aJ"/><use transform="matrix(0.02,0,0,0.02,11.86,0)" xlink:href="#aM"/><use transform="matrix(0.02,0,0,0.02,23.36,0)" xlink:href="#aL"/><use transform="matrix(0.02,0,0,0.02,35.24,0)" xlink:href="#aE"/><use transform="matrix(0.02,0,0,0.02,46.800000000000004,0)" xlink:href="#aH"/><use transform="matrix(0.02,0,0,0.02,58.06,0)" xlink:href="#aD"/><use transform="matrix(0.02,0,0,0.02,67.98,0)" xlink:href="#aE"/><use transform="matrix(0.02,0,0,0.02,79.54,0)" xlink:href="#aZ"/><use transform="matrix(0.02,0,0,0.02,91.10000000000001,0)" xlink:href="#aG"/><use transform="matrix(0.02,0,0,0.02,108.4,0)" xlink:href="#ba"/><use transform="matrix(0.02,0,0,0.02,120.26,0)" xlink:href="#aH"/><use transform="matrix(0.02,0,0,0.02,131.52,0)" xlink:href="#aA"/><use transform="matrix(0.02,0,0,0.02,139.32000000000002,0)" xlink:href="#aD"/><use transform="matrix(0.02,0,0,0.02,149.24,0)" xlink:href="#ax"/><use transform="matrix(0.02,0,0,0.02,154.38,0)" xlink:href="#ay"/></g><g id="x"><use transform="matrix(0.02,0,0,0.02,0,0)" xlink:href="#aJ"/><use transform="matrix(0.02,0,0,0.02,11.86,0)" xlink:href="#aF"/><use transform="matrix(0.02,0,0,0.02,22.38,0)" xlink:href="#aN"/><use transform="matrix(0.02,0,0,0.02,34.019999999999996,0)" xlink:href="#aH"/><use transform="matrix(0.02,0,0,0.02,45.279999999999994,0)" xlink:href="#aD"/><use transform="matrix(0.02,0,0,0.02,55.19999999999999,0)" xlink:href="#ax"/><use transform="matrix(0.02,0,0,0.02,60.33999999999999,0)" xlink:href="#ay"/></g><g id="y"><use transform="matrix(0.02,0,0,0.02,0,0)" xlink:href="#aB"/><use transform="matrix(0.02,0,0,0.02,9,0)" xlink:href="#aH"/><use transform="matrix(0.02,0,0,0.02,20.259999999999998,0)" xlink:href="#aA"/><use transform="matrix(0.02,0,0,0.02,28.48,0)" xlink:href="#aR"/><use transform="matrix(0.02,0,0,0.02,38.6,0)" xlink:href="#ax"/><use transform="matrix(0.02,0,0,0.02,43.74,0)" xlink:href="#aQ"/><use transform="matrix(0.02,0,0,0.02,53.120000000000005,0)" xlink:href="#aH"/><use transform="matrix(0.02,0,0,0.02,64.38000000000001,0)" xlink:href="#aD"/><use transform="matrix(0.02,0,0,0.02,74.30000000000001,0)" xlink:href="#aF"/><use transform="matrix(0.02,0,0,0.02,84.82000000000001,0)" xlink:href="#aQ"/><use transform="matrix(0.02,0,0,0.02,94.2,0)" xlink:href="#aQ"/><use transform="matrix(0.02,0,0,0.02,103.32000000000001,0)" xlink:href="#aL"/><use transform="matrix(0.02,0,0,0.02,115.19999999999999,0)" xlink:href="#aZ"/><use transform="matrix(0.02,0,0,0.02,126.75999999999999,0)" xlink:href="#aE"/><use transform="matrix(0.02,0,0,0.02,138.32,0)" xlink:href="#aC"/></g><path fill="#fff" d="M597-29C545 0 469 15 386 15 168 15 67-125 60-347c-8-284 240-432 510-326 11 4 18 9 22 12l-28 80c-42-23-98-43-163-43-163 0-238 111-238 277 0 165 69 273 232 277 73 3 134-19 177-39" id="bb"/><path fill="#fff" d="M279-449c-38 1-76 8-104 17V0H82v-760l93-16v266c32-12 72-21 114-21 153-1 213 87 213 239V0h-93v-272c1-107-22-181-130-177" id="bc"/><path fill="#fff" d="M139-156c0 106 132 93 220 82v-155c-78-22-220-23-220 73zm-94 1c-2-152 173-180 314-148 5-94-26-150-117-150-50 0-101 8-132 20l-11-77c32-13 99-23 151-23 135 0 201 66 200 199V-9C390 1 319 11 247 11 126 11 46-34 45-155" id="bd"/><path fill="#fff" d="M279-449c-36 1-74 4-104 10V0H82v-505c55-13 130-26 207-26 153 0 213 87 213 239V0h-93v-272c1-107-22-180-130-177" id="be"/><path fill="#fff" d="M173-151c-3 59 26 79 78 83l-13 78C129 7 80-30 80-136v-624l93-16v625" id="bf"/><g id="z"><use transform="matrix(0.02,0,0,0.02,0,0)" xlink:href="#bb"/><use transform="matrix(0.02,0,0,0.02,12.48,0)" xlink:href="#bc"/><use transform="matrix(0.02,0,0,0.02,23.98,0)" xlink:href="#bd"/><use transform="matrix(0.02,0,0,0.02,34.5,0)" xlink:href="#be"/><use transform="matrix(0.02,0,0,0.02,46.06,0)" xlink:href="#be"/><use transform="matrix(0.02,0,0,0.02,57.620000000000005,0)" xlink:href="#av"/><use transform="matrix(0.02,0,0,0.02,68.88000000000001,0)" xlink:href="#bf"/></g><g id="A"><use transform="matrix(0.02,0,0,0.02,0,0)" xlink:href="#aE"/><use transform="matrix(0.02,0,0,0.02,11.56,0)" xlink:href="#aF"/><use transform="matrix(0.02,0,0,0.02,22.080000000000002,0)" xlink:href="#aG"/><use transform="matrix(0.02,0,0,0.02,39.379999999999995,0)" xlink:href="#aH"/></g><g id="B"><use transform="matrix(0.02,0,0,0.02,0,0)" xlink:href="#aQ"/><use transform="matrix(0.02,0,0,0.02,9.38,0)" xlink:href="#aM"/><use transform="matrix(0.02,0,0,0.02,20.88,0)" xlink:href="#aF"/><use transform="matrix(0.02,0,0,0.02,31.400000000000002,0)" xlink:href="#aE"/><use transform="matrix(0.02,0,0,0.02,42.96,0)" xlink:href="#aE"/><use transform="matrix(0.02,0,0,0.02,54.52,0)" xlink:href="#aH"/><use transform="matrix(0.02,0,0,0.02,65.78,0)" xlink:href="#aI"/><use transform="matrix(0.02,0,0,0.02,71.32000000000001,0)" xlink:href="#aD"/><use transform="matrix(0.02,0,0,0.02,81.24000000000001,0)" xlink:href="#aC"/><use transform="matrix(0.02,0,0,0.02,89.36000000000001,0)" xlink:href="#aP"/><use transform="matrix(0.02,0,0,0.02,99.38,0)" xlink:href="#aJ"/><use transform="matrix(0.02,0,0,0.02,111.24000000000001,0)" xlink:href="#aH"/></g><g id="C"><use transform="matrix(0.02,0,0,0.02,0,0)" xlink:href="#aQ"/><use transform="matrix(0.02,0,0,0.02,9.38,0)" xlink:href="#aA"/><use transform="matrix(0.02,0,0,0.02,17.18,0)" xlink:href="#aH"/><use transform="matrix(0.02,0,0,0.02,28.439999999999998,0)" xlink:href="#aF"/><use transform="matrix(0.02,0,0,0.02,38.959999999999994,0)" xlink:href="#aC"/><use transform="matrix(0.02,0,0,0.02,47.08,0)" xlink:href="#ax"/><use transform="matrix(0.02,0,0,0.02,52.22,0)" xlink:href="#aL"/><use transform="matrix(0.02,0,0,0.02,64.1,0)" xlink:href="#aE"/><use transform="matrix(0.02,0,0,0.02,75.66,0)" xlink:href="#aD"/><use transform="matrix(0.02,0,0,0.02,85.58,0)" xlink:href="#ay"/><use transform="matrix(0.02,0,0,0.02,97.44,0)" xlink:href="#aF"/><use transform="matrix(0.02,0,0,0.02,107.96000000000001,0)" xlink:href="#aC"/><use transform="matrix(0.02,0,0,0.02,115.88,0)" xlink:href="#aH"/></g><g id="D"><use transform="matrix(0.02,0,0,0.02,0,0)" xlink:href="#aB"/><use transform="matrix(0.02,0,0,0.02,9,0)" xlink:href="#aH"/><use transform="matrix(0.02,0,0,0.02,20.259999999999998,0)" xlink:href="#aA"/><use transform="matrix(0.02,0,0,0.02,28.48,0)" xlink:href="#aR"/><use transform="matrix(0.02,0,0,0.02,38.6,0)" xlink:href="#ax"/><use transform="matrix(0.02,0,0,0.02,43.74,0)" xlink:href="#aQ"/><use transform="matrix(0.02,0,0,0.02,53.120000000000005,0)" xlink:href="#aH"/><use transform="matrix(0.02,0,0,0.02,64.38000000000001,0)" xlink:href="#aD"/><use transform="matrix(0.02,0,0,0.02,74.30000000000001,0)" xlink:href="#aJ"/><use transform="matrix(0.02,0,0,0.02,86.16,0)" xlink:href="#aA"/><use transform="matrix(0.02,0,0,0.02,93.96000000000001,0)" xlink:href="#aL"/><use transform="matrix(0.02,0,0,0.02,105.56,0)" xlink:href="#aR"/><use transform="matrix(0.02,0,0,0.02,115.68,0)" xlink:href="#ax"/><use transform="matrix(0.02,0,0,0.02,120.82000000000001,0)" xlink:href="#ay"/><use transform="matrix(0.02,0,0,0.02,132.68,0)" xlink:href="#aH"/><use transform="matrix(0.02,0,0,0.02,143.94,0)" xlink:href="#aA"/><use transform="matrix(0.02,0,0,0.02,151.74,0)" xlink:href="#aD"/><use transform="matrix(0.02,0,0,0.02,161.66,0)" xlink:href="#ax"/><use transform="matrix(0.02,0,0,0.02,166.79999999999995,0)" xlink:href="#ay"/></g><g id="E"><use transform="matrix(0.02,0,0,0.02,0,0)" xlink:href="#aQ"/><use transform="matrix(0.02,0,0,0.02,9.38,0)" xlink:href="#aA"/><use transform="matrix(0.02,0,0,0.02,17.18,0)" xlink:href="#aH"/><use transform="matrix(0.02,0,0,0.02,28.439999999999998,0)" xlink:href="#aF"/><use transform="matrix(0.02,0,0,0.02,38.959999999999994,0)" xlink:href="#aC"/><use transform="matrix(0.02,0,0,0.02,46.800000000000004,0)" xlink:href="#aL"/><use transform="matrix(0.02,0,0,0.02,58.68,0)" xlink:href="#aA"/><use transform="matrix(0.02,0,0,0.02,66.48,0)" xlink:href="#aD"/><use transform="matrix(0.02,0,0,0.02,76.4,0)" xlink:href="#ax"/><use transform="matrix(0.02,0,0,0.02,81.54,0)" xlink:href="#ay"/></g><path fill="#fff" d="M551-693v84H333V0h-97v-609H18v-84h533" id="bg"/><path fill="#fff" d="M278-449c-36 0-74 4-103 10V0H82v-505c94-23 290-55 347 27 41-28 96-52 166-53 149-3 194 91 194 239V0h-93v-272c0-100-11-177-111-177-50 0-96 17-119 35 30 114 10 276 16 414h-93v-272c0-99-12-179-111-177" id="bh"/><path fill="#fff" d="M294-70c109-2 147-79 149-189 2-113-59-188-165-189-45 0-73 2-103 10v328c24 19 73 42 119 40zm-15-461c169 5 261 102 261 272C540-98 465 6 306 12c-51 2-103-18-131-35v208H82v-689c54-12 122-29 197-27" id="bi"/><path fill="#fff" d="M257 11C121 11 76-66 76-201v-464l93-16v161h197v78H169v240c-1 80 17 131 96 131 43 0 79-13 103-23l18 77c-27 12-82 28-129 28" id="bj"/><g id="F"><use transform="matrix(0.02,0,0,0.02,0,0)" xlink:href="#bg"/><use transform="matrix(0.02,0,0,0.02,10.28,0)" xlink:href="#av"/><use transform="matrix(0.02,0,0,0.02,21.54,0)" xlink:href="#bh"/><use transform="matrix(0.02,0,0,0.02,38.84,0)" xlink:href="#bi"/><use transform="matrix(0.02,0,0,0.02,50.7,0)" xlink:href="#bf"/><use transform="matrix(0.02,0,0,0.02,56.24,0)" xlink:href="#bd"/><use transform="matrix(0.02,0,0,0.02,66.76,0)" xlink:href="#bj"/><use transform="matrix(0.02,0,0,0.02,74.68,0)" xlink:href="#av"/></g><g id="G"><use transform="matrix(0.02,0,0,0.02,0,0)" xlink:href="#aC"/><use transform="matrix(0.02,0,0,0.02,8.120000000000001,0)" xlink:href="#ax"/><use transform="matrix(0.02,0,0,0.02,13.260000000000003,0)" xlink:href="#aC"/><use transform="matrix(0.02,0,0,0.02,21.38,0)" xlink:href="#aI"/><use transform="matrix(0.02,0,0,0.02,26.92,0)" xlink:href="#aH"/></g><g id="H"><use transform="matrix(0.02,0,0,0.02,0,0)" xlink:href="#aJ"/><use transform="matrix(0.02,0,0,0.02,11.86,0)" xlink:href="#aA"/><use transform="matrix(0.02,0,0,0.02,19.66,0)" xlink:href="#aH"/><use transform="matrix(0.02,0,0,0.02,30.92,0)" xlink:href="#aM"/><use transform="matrix(0.02,0,0,0.02,42.42,0)" xlink:href="#aH"/><use transform="matrix(0.02,0,0,0.02,53.68,0)" xlink:href="#aF"/><use transform="matrix(0.02,0,0,0.02,64.2,0)" xlink:href="#ay"/><use transform="matrix(0.02,0,0,0.02,76.06,0)" xlink:href="#aH"/><use transform="matrix(0.02,0,0,0.02,87.32000000000001,0)" xlink:href="#aA"/></g><path fill="#1d262b" d="M175-10c9 150-97 224-241 186l12-76C31 125 82 82 82-9v-511h93v510zm13-665c0 35-26 61-60 61s-60-26-60-61 26-61 60-61 60 26 60 61" id="bk"/><g id="I"><use transform="matrix(0.02,0,0,0.02,0,0)" xlink:href="#aB"/><use transform="matrix(0.02,0,0,0.02,9,0)" xlink:href="#aZ"/><use transform="matrix(0.02,0,0,0.02,20.56,0)" xlink:href="#ba"/><use transform="matrix(0.02,0,0,0.02,32.42,0)" xlink:href="#bk"/><use transform="matrix(0.02,0,0,0.02,37.56,0)" xlink:href="#aH"/><use transform="matrix(0.02,0,0,0.02,48.82,0)" xlink:href="#aQ"/><use transform="matrix(0.02,0,0,0.02,58.2,0)" xlink:href="#aC"/></g><g id="J"><use transform="matrix(0.02,0,0,0.02,0,0)" xlink:href="#ba"/><use transform="matrix(0.02,0,0,0.02,11.86,0)" xlink:href="#aL"/><use transform="matrix(0.02,0,0,0.02,23.740000000000002,0)" xlink:href="#ay"/><use transform="matrix(0.02,0,0,0.02,35.6,0)" xlink:href="#aP"/></g><g id="K"><use transform="matrix(0.02,0,0,0.02,0,0)" xlink:href="#aC"/><use transform="matrix(0.02,0,0,0.02,7.840000000000002,0)" xlink:href="#aL"/><use transform="matrix(0.02,0,0,0.02,19.720000000000002,0)" xlink:href="#aJ"/><use transform="matrix(0.02,0,0,0.02,31.580000000000002,0)" xlink:href="#ax"/><use transform="matrix(0.02,0,0,0.02,36.72,0)" xlink:href="#aQ"/><use transform="matrix(0.02,0,0,0.02,46.1,0)" xlink:href="#aD"/><use transform="matrix(0.02,0,0,0.02,56.02,0)" xlink:href="#ax"/><use transform="matrix(0.02,0,0,0.02,61.160000000000004,0)" xlink:href="#ay"/></g><g id="L"><use transform="matrix(0.02,0,0,0.02,0,0)" xlink:href="#aI"/><use transform="matrix(0.02,0,0,0.02,5.54,0)" xlink:href="#aF"/><use transform="matrix(0.02,0,0,0.02,16.06,0)" xlink:href="#aZ"/><use transform="matrix(0.02,0,0,0.02,27.619999999999997,0)" xlink:href="#aE"/><use transform="matrix(0.02,0,0,0.02,39.18,0)" xlink:href="#aQ"/><use transform="matrix(0.02,0,0,0.02,48.56,0)" xlink:href="#aM"/><use transform="matrix(0.02,0,0,0.02,60.06,0)" xlink:href="#aD"/><use transform="matrix(0.02,0,0,0.02,69.98,0)" xlink:href="#aZ"/><use transform="matrix(0.02,0,0,0.02,81.54,0)" xlink:href="#aA"/><use transform="matrix(0.02,0,0,0.02,89.34,0)" xlink:href="#aI"/></g><path fill="#fff" d="M10 0c89-244 173-472 279-693h89C484-472 568-243 657 0H551c-23-60-41-116-63-177H174L111 0H10zm450-257c-42-112-82-221-129-325-48 103-88 212-129 325h258" id="bl"/><path fill="#fff" d="M300-71c36 0 74-3 103-10v-439h93v505C441-2 367 11 290 11 138 11 76-78 76-228v-292h93v272c2 116 24 177 131 177" id="bm"/><g id="M"><use transform="matrix(0.02,0,0,0.02,0,0)" xlink:href="#bl"/><use transform="matrix(0.02,0,0,0.02,13.040000000000001,0)" xlink:href="#bm"/><use transform="matrix(0.02,0,0,0.02,24.6,0)" xlink:href="#aY"/><use transform="matrix(0.02,0,0,0.02,36.46,0)" xlink:href="#aU"/><use transform="matrix(0.02,0,0,0.02,41.6,0)" xlink:href="#av"/><use transform="matrix(0.02,0,0,0.02,52.86,0)" xlink:href="#be"/><use transform="matrix(0.02,0,0,0.02,64.42,0)" xlink:href="#aV"/><use transform="matrix(0.02,0,0,0.02,73.8,0)" xlink:href="#av"/></g><path fill="#1d262b" d="M427-450C332-341 227-207 149-78h286V0H38v-62c75-133 178-267 271-380H52v-78h375v70" id="bn"/><g id="N"><use transform="matrix(0.02,0,0,0.02,0,0)" xlink:href="#aB"/><use transform="matrix(0.02,0,0,0.02,9,0)" xlink:href="#ax"/><use transform="matrix(0.02,0,0,0.02,14.14,0)" xlink:href="#bn"/><use transform="matrix(0.02,0,0,0.02,23.259999999999994,0)" xlink:href="#aH"/><use transform="matrix(0.02,0,0,0.02,34.519999999999996,0)" xlink:href="#aD"/><use transform="matrix(0.02,0,0,0.02,44.44,0)" xlink:href="#aH"/><use transform="matrix(0.02,0,0,0.02,55.69999999999999,0)" xlink:href="#aB"/><use transform="matrix(0.02,0,0,0.02,64.69999999999999,0)" xlink:href="#aC"/><use transform="matrix(0.02,0,0,0.02,72.82,0)" xlink:href="#ax"/><use transform="matrix(0.02,0,0,0.02,77.96,0)" xlink:href="#aG"/><use transform="matrix(0.02,0,0,0.02,95.25999999999998,0)" xlink:href="#aF"/><use transform="matrix(0.02,0,0,0.02,105.77999999999999,0)" xlink:href="#aC"/><use transform="matrix(0.02,0,0,0.02,113.69999999999999,0)" xlink:href="#aH"/></g><g id="O"><use transform="matrix(0.02,0,0,0.02,0,0)" xlink:href="#bb"/><use transform="matrix(0.02,0,0,0.02,12.48,0)" xlink:href="#aw"/><use transform="matrix(0.02,0,0,0.02,20.28,0)" xlink:href="#aU"/><use transform="matrix(0.02,0,0,0.02,25.42,0)" xlink:href="#bj"/><use transform="matrix(0.02,0,0,0.02,33.34,0)" xlink:href="#av"/><use transform="matrix(0.02,0,0,0.02,44.6,0)" xlink:href="#aw"/><use transform="matrix(0.02,0,0,0.02,52.4,0)" xlink:href="#aU"/><use transform="matrix(0.02,0,0,0.02,57.54,0)" xlink:href="#bd"/></g><g id="P"><use transform="matrix(0.02,0,0,0.02,0,0)" xlink:href="#az"/><use transform="matrix(0.02,0,0,0.02,7.8,0)" xlink:href="#ax"/><use transform="matrix(0.02,0,0,0.02,12.94,0)" xlink:href="#aI"/><use transform="matrix(0.02,0,0,0.02,18.48,0)" xlink:href="#aC"/><use transform="matrix(0.02,0,0,0.02,26.400000000000002,0)" xlink:href="#aH"/><use transform="matrix(0.02,0,0,0.02,37.660000000000004,0)" xlink:href="#aA"/></g><g id="Q"><use transform="matrix(0.02,0,0,0.02,0,0)" xlink:href="#aL"/><use transform="matrix(0.02,0,0,0.02,11.88,0)" xlink:href="#aJ"/><use transform="matrix(0.02,0,0,0.02,23.740000000000002,0)" xlink:href="#aH"/><use transform="matrix(0.02,0,0,0.02,35,0)" xlink:href="#aA"/><use transform="matrix(0.02,0,0,0.02,42.800000000000004,0)" xlink:href="#aF"/><use transform="matrix(0.02,0,0,0.02,53.31999999999999,0)" xlink:href="#aC"/><use transform="matrix(0.02,0,0,0.02,61.15999999999999,0)" xlink:href="#aL"/><use transform="matrix(0.02,0,0,0.02,73.03999999999999,0)" xlink:href="#aA"/></g><g id="R"><use transform="matrix(0.02,0,0,0.02,0,0)" xlink:href="#aR"/><use transform="matrix(0.02,0,0,0.02,10.120000000000001,0)" xlink:href="#aF"/><use transform="matrix(0.02,0,0,0.02,20.64,0)" xlink:href="#aI"/><use transform="matrix(0.02,0,0,0.02,26.18,0)" xlink:href="#aZ"/><use transform="matrix(0.02,0,0,0.02,37.74,0)" xlink:href="#aH"/></g><g id="S"><use transform="matrix(0.02,0,0,0.02,0,0)" xlink:href="#aF"/><use transform="matrix(0.02,0,0,0.02,10.52,0)" xlink:href="#aZ"/><use transform="matrix(0.02,0,0,0.02,22.080000000000002,0)" xlink:href="#ay"/><use transform="matrix(0.02,0,0,0.02,33.94,0)" xlink:href="#ax"/><use transform="matrix(0.02,0,0,0.02,39.08,0)" xlink:href="#aH"/><use transform="matrix(0.02,0,0,0.02,50.33999999999999,0)" xlink:href="#aE"/><use transform="matrix(0.02,0,0,0.02,61.9,0)" xlink:href="#aQ"/><use transform="matrix(0.02,0,0,0.02,71.28,0)" xlink:href="#aH"/><use transform="matrix(0.02,0,0,0.02,82.54,0)" xlink:href="#aD"/><use transform="matrix(0.02,0,0,0.02,92.46000000000001,0)" xlink:href="#ax"/><use transform="matrix(0.02,0,0,0.02,97.60000000000001,0)" xlink:href="#ay"/></g><path fill="#fff" d="M563 0C450-189 321-377 183-541V0H88v-693h77c137 151 274 337 384 513v-513h95V0h-81" id="bo"/><path fill="#fff" d="M82-567C68-745 227-812 397-759l-17 80c-21-10-52-17-88-17-102 0-122 72-117 176h200v78H175V0H82v-567" id="bp"/><path fill="#fff" d="M252 108c114 0 161-44 156-160-25 15-79 35-127 33-151-6-228-96-228-252 0-162 90-254 252-260 75-2 141 15 195 27v464c0 164-85 227-250 228-62 1-124-12-168-27l17-81c38 15 98 28 153 28zm38-207c46 2 92-16 117-35v-304c-29-7-58-11-101-11-102-1-157 76-156 179 2 102 44 167 140 171" id="bq"/><g id="T"><use transform="matrix(0.02,0,0,0.02,0,0)" xlink:href="#bo"/><use transform="matrix(0.02,0,0,0.02,14.64,0)" xlink:href="#aX"/><use transform="matrix(0.02,0,0,0.02,26.520000000000007,0)" xlink:href="#bj"/><use transform="matrix(0.02,0,0,0.02,34.64,0)" xlink:href="#aU"/><use transform="matrix(0.02,0,0,0.02,39.78,0)" xlink:href="#bp"/><use transform="matrix(0.02,0,0,0.02,47.58,0)" xlink:href="#aU"/><use transform="matrix(0.02,0,0,0.02,52.72,0)" xlink:href="#aV"/><use transform="matrix(0.02,0,0,0.02,62.1,0)" xlink:href="#bd"/><use transform="matrix(0.02,0,0,0.02,72.62,0)" xlink:href="#bj"/><use transform="matrix(0.02,0,0,0.02,80.74000000000001,0)" xlink:href="#aU"/><use transform="matrix(0.02,0,0,0.02,85.88,0)" xlink:href="#aX"/><use transform="matrix(0.02,0,0,0.02,97.76,0)" xlink:href="#be"/><use transform="matrix(0.02,0,0,0.02,109.32000000000001,0)" xlink:href="#bg"/><use transform="matrix(0.02,0,0,0.02,119.9,0)" xlink:href="#aw"/><use transform="matrix(0.02,0,0,0.02,127.7,0)" xlink:href="#aU"/><use transform="matrix(0.02,0,0,0.02,132.84,0)" xlink:href="#bq"/><use transform="matrix(0.02,0,0,0.02,144.48000000000002,0)" xlink:href="#bq"/><use transform="matrix(0.02,0,0,0.02,156.12,0)" xlink:href="#av"/><use transform="matrix(0.02,0,0,0.02,167.38,0)" xlink:href="#aw"/></g><g id="U"><use transform="matrix(0.02,0,0,0.02,0,0)" xlink:href="#aH"/><use transform="matrix(0.02,0,0,0.02,11.26,0)" xlink:href="#aE"/><use transform="matrix(0.02,0,0,0.02,22.82,0)" xlink:href="#aF"/><use transform="matrix(0.02,0,0,0.02,33.34,0)" xlink:href="#ba"/><use transform="matrix(0.02,0,0,0.02,45.2,0)" xlink:href="#aI"/><use transform="matrix(0.02,0,0,0.02,50.74,0)" xlink:href="#aH"/><use transform="matrix(0.02,0,0,0.02,62,0)" xlink:href="#ay"/></g><g id="V"><use transform="matrix(0.02,0,0,0.02,0,0)" xlink:href="#aC"/><use transform="matrix(0.02,0,0,0.02,7.920000000000002,0)" xlink:href="#aH"/><use transform="matrix(0.02,0,0,0.02,19.18,0)" xlink:href="#aG"/><use transform="matrix(0.02,0,0,0.02,36.480000000000004,0)" xlink:href="#aJ"/><use transform="matrix(0.02,0,0,0.02,48.34,0)" xlink:href="#aI"/><use transform="matrix(0.02,0,0,0.02,53.88,0)" xlink:href="#aF"/><use transform="matrix(0.02,0,0,0.02,64.4,0)" xlink:href="#aC"/><use transform="matrix(0.02,0,0,0.02,72.32000000000001,0)" xlink:href="#aH"/><use transform="matrix(0.02,0,0,0.02,83.58000000000003,0)" xlink:href="#aD"/><use transform="matrix(0.02,0,0,0.02,93.50000000000001,0)" xlink:href="#ax"/><use transform="matrix(0.02,0,0,0.02,98.64000000000001,0)" xlink:href="#ay"/></g><g id="W"><use transform="matrix(0.02,0,0,0.02,0,0)" xlink:href="#ay"/><use transform="matrix(0.02,0,0,0.02,11.86,0)" xlink:href="#aH"/><use transform="matrix(0.02,0,0,0.02,23.119999999999997,0)" xlink:href="#aI"/><use transform="matrix(0.02,0,0,0.02,28.659999999999997,0)" xlink:href="#ax"/><use transform="matrix(0.02,0,0,0.02,33.8,0)" xlink:href="#aR"/><use transform="matrix(0.02,0,0,0.02,43.64,0)" xlink:href="#aH"/><use transform="matrix(0.02,0,0,0.02,54.9,0)" xlink:href="#aA"/><use transform="matrix(0.02,0,0,0.02,63.120000000000005,0)" xlink:href="#aP"/><use transform="matrix(0.02,0,0,0.02,73.14,0)" xlink:href="#aD"/><use transform="matrix(0.02,0,0,0.02,83.06,0)" xlink:href="#aC"/><use transform="matrix(0.02,0,0,0.02,91.18,0)" xlink:href="#aP"/><use transform="matrix(0.02,0,0,0.02,101.2,0)" xlink:href="#aJ"/><use transform="matrix(0.02,0,0,0.02,113.06,0)" xlink:href="#aH"/></g><path fill="#1d262b" d="M315-448c-106 1-167 76-165 189 2 110 40 187 149 189 46 2 95-21 119-40v-328c-30-8-58-10-103-10zM287 12C128 6 53-98 53-259c0-170 92-267 261-272 75-2 143 15 197 27v689h-93V-23c-28 17-80 37-131 35" id="br"/><g id="X"><use transform="matrix(0.02,0,0,0.02,0,0)" xlink:href="#az"/><use transform="matrix(0.02,0,0,0.02,7.8,0)" xlink:href="#aA"/><use transform="matrix(0.02,0,0,0.02,15.6,0)" xlink:href="#aH"/><use transform="matrix(0.02,0,0,0.02,26.86,0)" xlink:href="#br"/><use transform="matrix(0.02,0,0,0.02,38.72,0)" xlink:href="#aZ"/><use transform="matrix(0.02,0,0,0.02,50.28,0)" xlink:href="#aH"/><use transform="matrix(0.02,0,0,0.02,61.54,0)" xlink:href="#aE"/><use transform="matrix(0.02,0,0,0.02,73.1,0)" xlink:href="#aQ"/><use transform="matrix(0.02,0,0,0.02,82.69999999999999,0)" xlink:href="#aP"/></g><g id="Y"><use transform="matrix(0.02,0,0,0.02,0,0)" xlink:href="#aB"/><use transform="matrix(0.02,0,0,0.02,9,0)" xlink:href="#aC"/><use transform="matrix(0.02,0,0,0.02,17.12,0)" xlink:href="#aF"/><use transform="matrix(0.02,0,0,0.02,27.64,0)" xlink:href="#aA"/><use transform="matrix(0.02,0,0,0.02,35.44,0)" xlink:href="#aC"/><use transform="matrix(0.02,0,0,0.02,43.56,0)" xlink:href="#aD"/><use transform="matrix(0.02,0,0,0.02,53.480000000000004,0)" xlink:href="#aC"/><use transform="matrix(0.02,0,0,0.02,61.60000000000001,0)" xlink:href="#ax"/><use transform="matrix(0.02,0,0,0.02,66.74000000000001,0)" xlink:href="#aG"/><use transform="matrix(0.02,0,0,0.02,84.04,0)" xlink:href="#aH"/></g><g id="Z"><use transform="matrix(0.02,0,0,0.02,0,0)" xlink:href="#aH"/><use transform="matrix(0.02,0,0,0.02,11.26,0)" xlink:href="#aE"/><use transform="matrix(0.02,0,0,0.02,22.82,0)" xlink:href="#ay"/><use transform="matrix(0.02,0,0,0.02,34.68,0)" xlink:href="#aD"/><use transform="matrix(0.02,0,0,0.02,44.6,0)" xlink:href="#aC"/><use transform="matrix(0.02,0,0,0.02,52.72,0)" xlink:href="#ax"/><use transform="matrix(0.02,0,0,0.02,57.86,0)" xlink:href="#aG"/><use transform="matrix(0.02,0,0,0.02,75.16,0)" xlink:href="#aH"/></g><g id="aa"><use transform="matrix(0.02,0,0,0.02,0,0)" xlink:href="#bg"/><use transform="matrix(0.02,0,0,0.02,10.28,0)" xlink:href="#aX"/><use transform="matrix(0.02,0,0,0.02,22.160000000000004,0)" xlink:href="#bi"/><use transform="matrix(0.02,0,0,0.02,34.02,0)" xlink:href="#aU"/><use transform="matrix(0.02,0,0,0.02,39.160000000000004,0)" xlink:href="#aV"/></g><g id="ab"><use transform="matrix(0.02,0,0,0.02,0,0)" xlink:href="#ay"/><use transform="matrix(0.02,0,0,0.02,11.86,0)" xlink:href="#aH"/><use transform="matrix(0.02,0,0,0.02,23.119999999999997,0)" xlink:href="#aB"/><use transform="matrix(0.02,0,0,0.02,32.12,0)" xlink:href="#aQ"/><use transform="matrix(0.02,0,0,0.02,41.5,0)" xlink:href="#aA"/><use transform="matrix(0.02,0,0,0.02,49.300000000000004,0)" xlink:href="#ax"/><use transform="matrix(0.02,0,0,0.02,54.44,0)" xlink:href="#aJ"/><use transform="matrix(0.02,0,0,0.02,66.3,0)" xlink:href="#aC"/><use transform="matrix(0.02,0,0,0.02,74.42,0)" xlink:href="#ax"/><use transform="matrix(0.02,0,0,0.02,79.56,0)" xlink:href="#aL"/><use transform="matrix(0.02,0,0,0.02,91.44,0)" xlink:href="#aE"/></g><g id="ac"><use transform="matrix(0.02,0,0,0.02,0,0)" xlink:href="#aJ"/><use transform="matrix(0.02,0,0,0.02,11.86,0)" xlink:href="#aA"/><use transform="matrix(0.02,0,0,0.02,19.66,0)" xlink:href="#ax"/><use transform="matrix(0.02,0,0,0.02,24.8,0)" xlink:href="#aL"/><use transform="matrix(0.02,0,0,0.02,36.68,0)" xlink:href="#aA"/><use transform="matrix(0.02,0,0,0.02,44.480000000000004,0)" xlink:href="#ax"/><use transform="matrix(0.02,0,0,0.02,49.620000000000005,0)" xlink:href="#aC"/><use transform="matrix(0.02,0,0,0.02,57.739999999999995,0)" xlink:href="#aP"/></g><path fill="#fff" d="M279 12C204 13 135-1 82-15v-745l93-16v279c28-17 80-37 131-35 159 6 234 110 234 272C540-90 448 7 279 12zm15-462c-46-2-95 21-119 40v329c28 7 62 11 103 11 106 0 167-77 165-190-2-110-39-188-149-190" id="bs"/><g id="ad"><use transform="matrix(0.02,0,0,0.02,0,0)" xlink:href="#bo"/><use transform="matrix(0.02,0,0,0.02,14.64,0)" xlink:href="#aX"/><use transform="matrix(0.02,0,0,0.02,26.520000000000007,0)" xlink:href="#bj"/><use transform="matrix(0.02,0,0,0.02,34.64,0)" xlink:href="#aU"/><use transform="matrix(0.02,0,0,0.02,39.78,0)" xlink:href="#bp"/><use transform="matrix(0.02,0,0,0.02,47.58,0)" xlink:href="#aU"/><use transform="matrix(0.02,0,0,0.02,52.72,0)" xlink:href="#aV"/><use transform="matrix(0.02,0,0,0.02,62.1,0)" xlink:href="#bd"/><use transform="matrix(0.02,0,0,0.02,72.62,0)" xlink:href="#bj"/><use transform="matrix(0.02,0,0,0.02,80.74000000000001,0)" xlink:href="#aU"/><use transform="matrix(0.02,0,0,0.02,85.88,0)" xlink:href="#aX"/><use transform="matrix(0.02,0,0,0.02,97.76,0)" xlink:href="#be"/><use transform="matrix(0.02,0,0,0.02,109.32000000000001,0)" xlink:href="#aS"/><use transform="matrix(0.02,0,0,0.02,120.04,0)" xlink:href="#bm"/><use transform="matrix(0.02,0,0,0.02,131.6,0)" xlink:href="#bs"/><use transform="matrix(0.02,0,0,0.02,143.45999999999998,0)" xlink:href="#au"/><use transform="matrix(0.02,0,0,0.02,152.45999999999998,0)" xlink:href="#aV"/><use transform="matrix(0.02,0,0,0.02,161.83999999999997,0)" xlink:href="#aw"/><use transform="matrix(0.02,0,0,0.02,169.64000000000001,0)" xlink:href="#aU"/><use transform="matrix(0.02,0,0,0.02,174.77999999999997,0)" xlink:href="#bi"/><use transform="matrix(0.02,0,0,0.02,186.64000000000001,0)" xlink:href="#bj"/><use transform="matrix(0.02,0,0,0.02,194.76,0)" xlink:href="#aU"/><use transform="matrix(0.02,0,0,0.02,199.89999999999998,0)" xlink:href="#aX"/><use transform="matrix(0.02,0,0,0.02,211.77999999999997,0)" xlink:href="#be"/></g><g id="ae"><use transform="matrix(0.02,0,0,0.02,0,0)" xlink:href="#ay"/><use transform="matrix(0.02,0,0,0.02,11.86,0)" xlink:href="#aH"/><use transform="matrix(0.02,0,0,0.02,23.119999999999997,0)" xlink:href="#aR"/><use transform="matrix(0.02,0,0,0.02,33.239999999999995,0)" xlink:href="#ax"/><use transform="matrix(0.02,0,0,0.02,38.379999999999995,0)" xlink:href="#aQ"/><use transform="matrix(0.02,0,0,0.02,47.76,0)" xlink:href="#aH"/><use transform="matrix(0.02,0,0,0.02,59.01999999999999,0)" xlink:href="#aD"/><use transform="matrix(0.02,0,0,0.02,68.94,0)" xlink:href="#aC"/><use transform="matrix(0.02,0,0,0.02,76.78,0)" xlink:href="#aL"/><use transform="matrix(0.02,0,0,0.02,88.66,0)" xlink:href="#aO"/><use transform="matrix(0.02,0,0,0.02,98.66,0)" xlink:href="#aH"/><use transform="matrix(0.02,0,0,0.02,109.92,0)" xlink:href="#aE"/></g><g id="af"><use transform="matrix(0.02,0,0,0.02,0,0)" xlink:href="#aE"/><use transform="matrix(0.02,0,0,0.02,11.56,0)" xlink:href="#aL"/><use transform="matrix(0.02,0,0,0.02,23.44,0)" xlink:href="#aC"/><use transform="matrix(0.02,0,0,0.02,31.560000000000002,0)" xlink:href="#ax"/><use transform="matrix(0.02,0,0,0.02,36.7,0)" xlink:href="#az"/><use transform="matrix(0.02,0,0,0.02,44.5,0)" xlink:href="#ax"/><use transform="matrix(0.02,0,0,0.02,49.64,0)" xlink:href="#aQ"/><use transform="matrix(0.02,0,0,0.02,59.02,0)" xlink:href="#aF"/><use transform="matrix(0.02,0,0,0.02,69.54,0)" xlink:href="#aC"/><use transform="matrix(0.02,0,0,0.02,77.66000000000001,0)" xlink:href="#ax"/><use transform="matrix(0.02,0,0,0.02,82.80000000000003,0)" xlink:href="#aL"/><use transform="matrix(0.02,0,0,0.02,94.68,0)" xlink:href="#aE"/><use transform="matrix(0.02,0,0,0.02,106.24000000000001,0)" xlink:href="#aD"/><use transform="matrix(0.02,0,0,0.02,116.16,0)" xlink:href="#aZ"/><use transform="matrix(0.02,0,0,0.02,127.72000000000003,0)" xlink:href="#aB"/><use transform="matrix(0.02,0,0,0.02,136.72000000000003,0)" xlink:href="#aH"/><use transform="matrix(0.02,0,0,0.02,147.98000000000002,0)" xlink:href="#aA"/><use transform="matrix(0.02,0,0,0.02,155.78000000000003,0)" xlink:href="#aD"/><use transform="matrix(0.02,0,0,0.02,165.70000000000002,0)" xlink:href="#ax"/><use transform="matrix(0.02,0,0,0.02,170.84,0)" xlink:href="#ay"/></g><g id="ag"><use transform="matrix(0.02,0,0,0.02,0,0)" xlink:href="#bo"/><use transform="matrix(0.02,0,0,0.02,14.64,0)" xlink:href="#aX"/><use transform="matrix(0.02,0,0,0.02,26.520000000000007,0)" xlink:href="#bj"/><use transform="matrix(0.02,0,0,0.02,34.64,0)" xlink:href="#aU"/><use transform="matrix(0.02,0,0,0.02,39.78,0)" xlink:href="#bp"/><use transform="matrix(0.02,0,0,0.02,47.58,0)" xlink:href="#aU"/><use transform="matrix(0.02,0,0,0.02,52.72,0)" xlink:href="#aV"/><use transform="matrix(0.02,0,0,0.02,62.1,0)" xlink:href="#bd"/><use transform="matrix(0.02,0,0,0.02,72.62,0)" xlink:href="#bj"/><use transform="matrix(0.02,0,0,0.02,80.74000000000001,0)" xlink:href="#aU"/><use transform="matrix(0.02,0,0,0.02,85.88,0)" xlink:href="#aX"/><use transform="matrix(0.02,0,0,0.02,97.76,0)" xlink:href="#be"/><use transform="matrix(0.02,0,0,0.02,109.32000000000001,0)" xlink:href="#aW"/><use transform="matrix(0.02,0,0,0.02,121.56,0)" xlink:href="#aw"/><use transform="matrix(0.02,0,0,0.02,129.36,0)" xlink:href="#av"/><use transform="matrix(0.02,0,0,0.02,140.62,0)" xlink:href="#bp"/><use transform="matrix(0.02,0,0,0.02,148.42000000000002,0)" xlink:href="#av"/><use transform="matrix(0.02,0,0,0.02,159.68,0)" xlink:href="#aw"/><use transform="matrix(0.02,0,0,0.02,167.48,0)" xlink:href="#av"/><use transform="matrix(0.02,0,0,0.02,178.74,0)" xlink:href="#be"/><use transform="matrix(0.02,0,0,0.02,190.3,0)" xlink:href="#aV"/><use transform="matrix(0.02,0,0,0.02,199.68,0)" xlink:href="#av"/></g><g id="ah"><use transform="matrix(0.02,0,0,0.02,0,0)" xlink:href="#aF"/><use transform="matrix(0.02,0,0,0.02,10.52,0)" xlink:href="#aI"/><use transform="matrix(0.02,0,0,0.02,16.06,0)" xlink:href="#aI"/><use transform="matrix(0.02,0,0,0.02,21.599999999999994,0)" xlink:href="#aL"/><use transform="matrix(0.02,0,0,0.02,33.22,0)" xlink:href="#aK"/><use transform="matrix(0.02,0,0,0.02,48.84,0)" xlink:href="#aD"/><use transform="matrix(0.02,0,0,0.02,58.76,0)" xlink:href="#aH"/><use transform="matrix(0.02,0,0,0.02,70.02000000000001,0)" xlink:href="#aG"/><use transform="matrix(0.02,0,0,0.02,87.32000000000001,0)" xlink:href="#aF"/><use transform="matrix(0.02,0,0,0.02,97.84,0)" xlink:href="#ax"/><use transform="matrix(0.02,0,0,0.02,102.98,0)" xlink:href="#aI"/></g><g id="ai"><use transform="matrix(0.02,0,0,0.02,0,0)" xlink:href="#aF"/><use transform="matrix(0.02,0,0,0.02,10.52,0)" xlink:href="#aI"/><use transform="matrix(0.02,0,0,0.02,16.06,0)" xlink:href="#aI"/><use transform="matrix(0.02,0,0,0.02,21.599999999999994,0)" xlink:href="#aL"/><use transform="matrix(0.02,0,0,0.02,33.22,0)" xlink:href="#aK"/><use transform="matrix(0.02,0,0,0.02,48.84,0)" xlink:href="#aD"/><use transform="matrix(0.02,0,0,0.02,58.76,0)" xlink:href="#aJ"/><use transform="matrix(0.02,0,0,0.02,70.62,0)" xlink:href="#aZ"/><use transform="matrix(0.02,0,0,0.02,82.18,0)" xlink:href="#aB"/><use transform="matrix(0.02,0,0,0.02,91.18,0)" xlink:href="#aM"/></g><g id="aj"><use transform="matrix(0.02,0,0,0.02,0,0)" xlink:href="#aF"/><use transform="matrix(0.02,0,0,0.02,10.52,0)" xlink:href="#aI"/><use transform="matrix(0.02,0,0,0.02,16.06,0)" xlink:href="#aI"/><use transform="matrix(0.02,0,0,0.02,21.599999999999994,0)" xlink:href="#aL"/><use transform="matrix(0.02,0,0,0.02,33.22,0)" xlink:href="#aK"/><use transform="matrix(0.02,0,0,0.02,48.84,0)" xlink:href="#aD"/><use transform="matrix(0.02,0,0,0.02,58.76,0)" xlink:href="#aQ"/><use transform="matrix(0.02,0,0,0.02,68.14,0)" xlink:href="#aM"/><use transform="matrix(0.02,0,0,0.02,79.64,0)" xlink:href="#aF"/><use transform="matrix(0.02,0,0,0.02,90.16,0)" xlink:href="#aC"/></g><g id="ak"><use transform="matrix(0.02,0,0,0.02,0,0)" xlink:href="#aF"/><use transform="matrix(0.02,0,0,0.02,10.52,0)" xlink:href="#aI"/><use transform="matrix(0.02,0,0,0.02,16.06,0)" xlink:href="#aI"/><use transform="matrix(0.02,0,0,0.02,21.599999999999994,0)" xlink:href="#aL"/><use transform="matrix(0.02,0,0,0.02,33.22,0)" xlink:href="#aK"/><use transform="matrix(0.02,0,0,0.02,48.84,0)" xlink:href="#aD"/><use transform="matrix(0.02,0,0,0.02,58.76,0)" xlink:href="#aB"/><use transform="matrix(0.02,0,0,0.02,67.76,0)" xlink:href="#aG"/><use transform="matrix(0.02,0,0,0.02,85.06,0)" xlink:href="#aB"/></g><g id="al"><use transform="matrix(0.02,0,0,0.02,0,0)" xlink:href="#bo"/><use transform="matrix(0.02,0,0,0.02,14.64,0)" xlink:href="#aX"/><use transform="matrix(0.02,0,0,0.02,26.520000000000007,0)" xlink:href="#bj"/><use transform="matrix(0.02,0,0,0.02,34.64,0)" xlink:href="#aU"/><use transform="matrix(0.02,0,0,0.02,39.78,0)" xlink:href="#bp"/><use transform="matrix(0.02,0,0,0.02,47.58,0)" xlink:href="#aU"/><use transform="matrix(0.02,0,0,0.02,52.72,0)" xlink:href="#aV"/><use transform="matrix(0.02,0,0,0.02,62.1,0)" xlink:href="#bd"/><use transform="matrix(0.02,0,0,0.02,72.62,0)" xlink:href="#bj"/><use transform="matrix(0.02,0,0,0.02,80.74000000000001,0)" xlink:href="#aU"/><use transform="matrix(0.02,0,0,0.02,85.88,0)" xlink:href="#aX"/><use transform="matrix(0.02,0,0,0.02,97.76,0)" xlink:href="#be"/></g><g id="am"><use transform="matrix(0.02,0,0,0.02,0,0)" xlink:href="#aB"/><use transform="matrix(0.02,0,0,0.02,9,0)" xlink:href="#aC"/><use transform="matrix(0.02,0,0,0.02,17.12,0)" xlink:href="#aF"/><use transform="matrix(0.02,0,0,0.02,27.64,0)" xlink:href="#aC"/><use transform="matrix(0.02,0,0,0.02,35.760000000000005,0)" xlink:href="#aZ"/><use transform="matrix(0.02,0,0,0.02,47.32000000000001,0)" xlink:href="#aB"/></g><g id="an"><use transform="matrix(0.02,0,0,0.02,0,0)" xlink:href="#aB"/><use transform="matrix(0.02,0,0,0.02,9,0)" xlink:href="#aH"/><use transform="matrix(0.02,0,0,0.02,20.259999999999998,0)" xlink:href="#aE"/><use transform="matrix(0.02,0,0,0.02,31.82,0)" xlink:href="#ay"/><use transform="matrix(0.02,0,0,0.02,43.68,0)" xlink:href="#ax"/><use transform="matrix(0.02,0,0,0.02,48.82,0)" xlink:href="#aE"/><use transform="matrix(0.02,0,0,0.02,60.38,0)" xlink:href="#aN"/><use transform="matrix(0.02,0,0,0.02,72.02000000000001,0)" xlink:href="#aD"/><use transform="matrix(0.02,0,0,0.02,81.94000000000003,0)" xlink:href="#ay"/><use transform="matrix(0.02,0,0,0.02,93.80000000000003,0)" xlink:href="#aF"/><use transform="matrix(0.02,0,0,0.02,104.32000000000001,0)" xlink:href="#aC"/><use transform="matrix(0.02,0,0,0.02,112.24000000000001,0)" xlink:href="#aH"/></g><g id="ao"><use transform="matrix(0.02,0,0,0.02,0,0)" xlink:href="#aB"/><use transform="matrix(0.02,0,0,0.02,9,0)" xlink:href="#aZ"/><use transform="matrix(0.02,0,0,0.02,20.56,0)" xlink:href="#ba"/><use transform="matrix(0.02,0,0,0.02,32.42,0)" xlink:href="#aB"/><use transform="matrix(0.02,0,0,0.02,41.42,0)" xlink:href="#aQ"/><use transform="matrix(0.02,0,0,0.02,50.800000000000004,0)" xlink:href="#aA"/><use transform="matrix(0.02,0,0,0.02,58.6,0)" xlink:href="#ax"/><use transform="matrix(0.02,0,0,0.02,63.74,0)" xlink:href="#aJ"/><use transform="matrix(0.02,0,0,0.02,75.6,0)" xlink:href="#aC"/><use transform="matrix(0.02,0,0,0.02,83.72,0)" xlink:href="#ax"/><use transform="matrix(0.02,0,0,0.02,88.86,0)" xlink:href="#aL"/><use transform="matrix(0.02,0,0,0.02,100.74000000000001,0)" xlink:href="#aE"/><use transform="matrix(0.02,0,0,0.02,112.3,0)" xlink:href="#aD"/><use transform="matrix(0.02,0,0,0.02,122.22,0)" xlink:href="#ax"/><use transform="matrix(0.02,0,0,0.02,127.36,0)" xlink:href="#ay"/></g><g id="ap"><use transform="matrix(0.02,0,0,0.02,0,0)" xlink:href="#bo"/><use transform="matrix(0.02,0,0,0.02,14.64,0)" xlink:href="#aX"/><use transform="matrix(0.02,0,0,0.02,26.520000000000007,0)" xlink:href="#bj"/><use transform="matrix(0.02,0,0,0.02,34.64,0)" xlink:href="#aU"/><use transform="matrix(0.02,0,0,0.02,39.78,0)" xlink:href="#bp"/><use transform="matrix(0.02,0,0,0.02,47.58,0)" xlink:href="#aU"/><use transform="matrix(0.02,0,0,0.02,52.72,0)" xlink:href="#aV"/><use transform="matrix(0.02,0,0,0.02,62.1,0)" xlink:href="#bd"/><use transform="matrix(0.02,0,0,0.02,72.62,0)" xlink:href="#bj"/><use transform="matrix(0.02,0,0,0.02,80.74000000000001,0)" xlink:href="#aU"/><use transform="matrix(0.02,0,0,0.02,85.88,0)" xlink:href="#aX"/><use transform="matrix(0.02,0,0,0.02,97.76,0)" xlink:href="#be"/><use transform="matrix(0.02,0,0,0.02,109.32000000000001,0)" xlink:href="#at"/><use transform="matrix(0.02,0,0,0.02,123.16,0)" xlink:href="#au"/><use transform="matrix(0.02,0,0,0.02,132.16000000000003,0)" xlink:href="#av"/><use transform="matrix(0.02,0,0,0.02,143.42000000000002,0)" xlink:href="#aw"/></g><g id="aq"><use transform="matrix(0.02,0,0,0.02,0,0)" xlink:href="#aJ"/><use transform="matrix(0.02,0,0,0.02,11.86,0)" xlink:href="#aM"/><use transform="matrix(0.02,0,0,0.02,23.36,0)" xlink:href="#aL"/><use transform="matrix(0.02,0,0,0.02,35.24,0)" xlink:href="#aE"/><use transform="matrix(0.02,0,0,0.02,46.800000000000004,0)" xlink:href="#aH"/><use transform="matrix(0.02,0,0,0.02,58.06,0)" xlink:href="#aD"/><use transform="matrix(0.02,0,0,0.02,67.98,0)" xlink:href="#aE"/><use transform="matrix(0.02,0,0,0.02,79.54,0)" xlink:href="#aZ"/><use transform="matrix(0.02,0,0,0.02,91.10000000000001,0)" xlink:href="#aG"/><use transform="matrix(0.02,0,0,0.02,108.4,0)" xlink:href="#ba"/><use transform="matrix(0.02,0,0,0.02,120.26,0)" xlink:href="#aH"/><use transform="matrix(0.02,0,0,0.02,131.52,0)" xlink:href="#aA"/></g><g id="ar"><use transform="matrix(0.02,0,0,0.02,0,0)" xlink:href="#aQ"/><use transform="matrix(0.02,0,0,0.02,9.120000000000001,0)" xlink:href="#aL"/><use transform="matrix(0.02,0,0,0.02,21,0)" xlink:href="#aZ"/><use transform="matrix(0.02,0,0,0.02,32.56,0)" xlink:href="#aE"/><use transform="matrix(0.02,0,0,0.02,44.12,0)" xlink:href="#aC"/><use transform="matrix(0.02,0,0,0.02,52.24000000000001,0)" xlink:href="#aA"/><use transform="matrix(0.02,0,0,0.02,60.46000000000001,0)" xlink:href="#aP"/></g><g id="as"><use transform="matrix(0.02,0,0,0.02,0,0)" xlink:href="#ba"/><use transform="matrix(0.02,0,0,0.02,11.86,0)" xlink:href="#ax"/><use transform="matrix(0.02,0,0,0.02,17,0)" xlink:href="#aA"/><use transform="matrix(0.02,0,0,0.02,24.8,0)" xlink:href="#aC"/><use transform="matrix(0.02,0,0,0.02,32.92,0)" xlink:href="#aM"/><use transform="matrix(0.02,0,0,0.02,44.42,0)" xlink:href="#ay"/><use transform="matrix(0.02,0,0,0.02,56.28,0)" xlink:href="#aF"/><use transform="matrix(0.02,0,0,0.02,66.8,0)" xlink:href="#aC"/><use transform="matrix(0.02,0,0,0.02,74.72,0)" xlink:href="#aH"/></g></defs></g></svg>