<svg xmlns="http://www.w3.org/2000/svg" xmlns:xlink="http://www.w3.org/1999/xlink" xmlns:lucid="lucid" width="1221.01" height="806"><g transform="translate(-559.4999999677948 -1659.4999999905551)" lucid:page-tab-id="0_0"><path d="M860 2013a6 6 0 0 1 6-6h187.98a6 6 0 0 1 6 6v292a6 6 0 0 1-6 6h-188a6 6 0 0 1-6-6z" fill-opacity="0"/><path d="M860 2047v-34a6 6 0 0 1 6-6h187.98a6 6 0 0 1 6 6v34" fill="#0c8ce9"/><path d="M860 2013a6 6 0 0 1 6-6h187.98a6 6 0 0 1 6 6v292a6 6 0 0 1-6 6h-188a6 6 0 0 1-6-6zM860 2047h199.98" stroke="#0c8ce9" fill="none"/><use xlink:href="#a" transform="matrix(1,0,0,1,869.9853769095205,2007) translate(0 27.04)"/><use xlink:href="#b" transform="matrix(1,0,0,1,864.9853769095205,2049.5) translate(0 21.04)"/><use xlink:href="#c" transform="matrix(1,0,0,1,864.9853769095205,2082.5) translate(0 21.04)"/><use xlink:href="#d" transform="matrix(1,0,0,1,864.9853769095205,2115.5) translate(0 21.04)"/><use xlink:href="#e" transform="matrix(1,0,0,1,864.9853769095205,2148.5) translate(0 21.04)"/><use xlink:href="#f" transform="matrix(1,0,0,1,864.9853769095205,2181.5) translate(0 21.04)"/><use xlink:href="#g" transform="matrix(1,0,0,1,864.9853769095205,2214.5) translate(0 21.04)"/><use xlink:href="#h" transform="matrix(1,0,0,1,864.9853769095205,2247.5) translate(0 21.04)"/><use xlink:href="#i" transform="matrix(1,0,0,1,864.9853769095205,2280.5) translate(0 21.04)"/><path d="M1560 1666a6 6 0 0 1 6-6h208a6 6 0 0 1 6 6v457a6 6 0 0 1-6 6h-208a6 6 0 0 1-6-6z" fill-opacity="0"/><path d="M1560 1700v-34a6 6 0 0 1 6-6h208a6 6 0 0 1 6 6v34" fill="#0c8ce9"/><path d="M1560 1666a6 6 0 0 1 6-6h208a6 6 0 0 1 6 6v457a6 6 0 0 1-6 6h-208a6 6 0 0 1-6-6zM1560 1700h220" stroke="#0c8ce9" fill="none"/><use xlink:href="#j" transform="matrix(1,0,0,1,1570,1660) translate(0 27.04)"/><use xlink:href="#b" transform="matrix(1,0,0,1,1565,1702.5) translate(0 21.04)"/><use xlink:href="#k" transform="matrix(1,0,0,1,1565,1735.5) translate(0 21.04)"/><use xlink:href="#l" transform="matrix(1,0,0,1,1565,1768.5) translate(0 21.04)"/><use xlink:href="#m" transform="matrix(1,0,0,1,1565,1801.5) translate(0 21.04)"/><use xlink:href="#n" transform="matrix(1,0,0,1,1565,1834.5) translate(0 21.04)"/><use xlink:href="#o" transform="matrix(1,0,0,1,1565,1867.5) translate(0 21.04)"/><use xlink:href="#p" transform="matrix(1,0,0,1,1565,1900.5) translate(0 21.04)"/><use xlink:href="#q" transform="matrix(1,0,0,1,1565,1933.5) translate(0 21.04)"/><use xlink:href="#r" transform="matrix(1,0,0,1,1565,1966.5) translate(0 21.04)"/><use xlink:href="#s" transform="matrix(1,0,0,1,1565,1999.5) translate(0 21.04)"/><use xlink:href="#t" transform="matrix(1,0,0,1,1565,2032.5) translate(0 21.04)"/><use xlink:href="#u" transform="matrix(1,0,0,1,1565,2065.5) translate(0 21.04)"/><use xlink:href="#v" transform="matrix(1,0,0,1,1565,2098.5) translate(0 21.04)"/><path d="M1220 1986a6 6 0 0 1 6-6h188a6 6 0 0 1 6 6v226a6 6 0 0 1-6 6h-188a6 6 0 0 1-6-6z" fill-opacity="0"/><path d="M1220 2020v-34a6 6 0 0 1 6-6h188a6 6 0 0 1 6 6v34" fill="#0c8ce9"/><path d="M1220 1986a6 6 0 0 1 6-6h188a6 6 0 0 1 6 6v226a6 6 0 0 1-6 6h-188a6 6 0 0 1-6-6zM1220 2020h200" stroke="#0c8ce9" fill="none"/><use xlink:href="#w" transform="matrix(1,0,0,1,1230,1980) translate(0 27.04)"/><use xlink:href="#b" transform="matrix(1,0,0,1,1225,2022.5) translate(0 21.04)"/><use xlink:href="#x" transform="matrix(1,0,0,1,1225,2055.5) translate(0 21.04)"/><use xlink:href="#y" transform="matrix(1,0,0,1,1225,2088.5) translate(0 21.04)"/><use xlink:href="#z" transform="matrix(1,0,0,1,1225,2121.5) translate(0 21.04)"/><use xlink:href="#A" transform="matrix(1,0,0,1,1225,2154.5) translate(0 21.04)"/><use xlink:href="#B" transform="matrix(1,0,0,1,1225,2187.5) translate(0 21.04)"/><path d="M1539.5 1914.6H1496a6 6 0 0 0-6 6v142.75a6 6 0 0 1-6 6h-43.5" stroke="#0c8ce9" stroke-width="2" fill="none"/><path d="M1549.5 1904.6v20M1559.5 1914.6h-20M1539.5 1904.6v20M1430.5 2079.35v-20M1420.5 2069.35h20M1440.5 2079.35v-20" stroke="#0c8ce9" stroke-width="2" fill="#fff"/><path d="M1220 2266a6 6 0 0 1 6-6h188a6 6 0 0 1 6 6v193a6 6 0 0 1-6 6h-188a6 6 0 0 1-6-6z" fill-opacity="0"/><path d="M1220 2300v-34a6 6 0 0 1 6-6h188a6 6 0 0 1 6 6v34" fill="#0c8ce9"/><path d="M1220 2266a6 6 0 0 1 6-6h188a6 6 0 0 1 6 6v193a6 6 0 0 1-6 6h-188a6 6 0 0 1-6-6zM1220 2300h200" stroke="#0c8ce9" fill="none"/><use xlink:href="#C" transform="matrix(1,0,0,1,1230,2260) translate(0 27.04)"/><use xlink:href="#b" transform="matrix(1,0,0,1,1225,2302.5) translate(0 21.04)"/><use xlink:href="#x" transform="matrix(1,0,0,1,1225,2335.5) translate(0 21.04)"/><use xlink:href="#z" transform="matrix(1,0,0,1,1225,2368.5) translate(0 21.04)"/><use xlink:href="#D" transform="matrix(1,0,0,1,1225,2401.5) translate(0 21.04)"/><use xlink:href="#B" transform="matrix(1,0,0,1,1225,2434.5) translate(0 21.04)"/><path d="M1580.02 2206a6 6 0 0 1 6-6h188a6 6 0 0 1 6 6v193a6 6 0 0 1-6 6h-188a6 6 0 0 1-6-6z" fill-opacity="0"/><path d="M1580.02 2240v-34a6 6 0 0 1 6-6h188a6 6 0 0 1 6 6v34" fill="#0c8ce9"/><path d="M1580.02 2206a6 6 0 0 1 6-6h188a6 6 0 0 1 6 6v193a6 6 0 0 1-6 6h-188a6 6 0 0 1-6-6zM1580.02 2240h200" stroke="#0c8ce9" fill="none"/><use xlink:href="#E" transform="matrix(1,0,0,1,1590.0146230904795,2200) translate(0 27.04)"/><use xlink:href="#b" transform="matrix(1,0,0,1,1585.0146230904795,2242.5) translate(0 21.04)"/><use xlink:href="#F" transform="matrix(1,0,0,1,1585.0146230904795,2275.5) translate(0 21.04)"/><use xlink:href="#G" transform="matrix(1,0,0,1,1585.0146230904795,2308.5) translate(0 21.04)"/><use xlink:href="#H" transform="matrix(1,0,0,1,1585.0146230904795,2341.5) translate(0 21.04)"/><use xlink:href="#I" transform="matrix(1,0,0,1,1585.0146230904795,2374.5) translate(0 21.04)"/><path d="M1559.52 2289.43h-53.5a6 6 0 0 0-6 6v48a6 6 0 0 1-6 6h-53.52" stroke="#0c8ce9" stroke-width="2" fill="none"/><path d="M1579.07 2299.43l-20-10 20-10" stroke="#0c8ce9" stroke-width="2" fill="#fff" fill-opacity="0"/><path d="M1579.07 2289.43h-20M1559.07 2279.43v20M1430.5 2359.43v-20M1420.5 2349.43h20M1440.5 2359.43v-20" stroke="#0c8ce9" stroke-width="2" fill="#fff"/><path d="M1206.97 1666a6 6 0 0 1 6-6h248a6 6 0 0 1 6 6v193a6 6 0 0 1-6 6h-248a6 6 0 0 1-6-6z" fill-opacity="0"/><path d="M1206.97 1700v-34a6 6 0 0 1 6-6h248a6 6 0 0 1 6 6v34" fill="#0c8ce9"/><path d="M1206.97 1666a6 6 0 0 1 6-6h248a6 6 0 0 1 6 6v193a6 6 0 0 1-6 6h-248a6 6 0 0 1-6-6zM1206.97 1700h260" stroke="#0c8ce9" fill="none"/><use xlink:href="#J" transform="matrix(1,0,0,1,1216.9705150988239,1660) translate(0 27.04)"/><use xlink:href="#b" transform="matrix(1,0,0,1,1211.9705150988239,1702.5) translate(0 21.04)"/><use xlink:href="#K" transform="matrix(1,0,0,1,1211.9705150988239,1735.5) translate(0 21.04)"/><use xlink:href="#L" transform="matrix(1,0,0,1,1211.9705150988239,1768.5) translate(0 21.04)"/><use xlink:href="#M" transform="matrix(1,0,0,1,1211.9705150988239,1801.5) translate(0 21.04)"/><use xlink:href="#N" transform="matrix(1,0,0,1,1211.9705150988239,1834.5) translate(0 21.04)"/><path d="M1320 1904.5v55" stroke="#0c8ce9" stroke-width="2" fill="none"/><path d="M1330 1865.95l-10 20-10-20" stroke="#0c8ce9" stroke-width="2" fill="#fff" fill-opacity="0"/><path d="M1320 1865.95v20M1330 1895.95c0 5.52-4.48 10-10 10s-10-4.48-10-10c0-5.53 4.48-10 10-10s10 4.47 10 10M1330 1969.5h-20M1320 1979.5v-20M1330 1959.5h-20" stroke="#0c8ce9" stroke-width="2" fill="#fff"/><path d="M853.94 1666a6 6 0 0 1 6-6h248a6 6 0 0 1 6 6v292a6 6 0 0 1-6 6h-248a6 6 0 0 1-6-6z" fill-opacity="0"/><path d="M853.94 1700v-34a6 6 0 0 1 6-6h248a6 6 0 0 1 6 6v34" fill="#0c8ce9"/><path d="M853.94 1666a6 6 0 0 1 6-6h248a6 6 0 0 1 6 6v292a6 6 0 0 1-6 6h-248a6 6 0 0 1-6-6zM853.94 1700h260" stroke="#0c8ce9" fill="none"/><use xlink:href="#O" transform="matrix(1,0,0,1,863.9410301976478,1660) translate(0 27.04)"/><use xlink:href="#b" transform="matrix(1,0,0,1,858.9410301976478,1702.5) translate(0 21.04)"/><use xlink:href="#c" transform="matrix(1,0,0,1,858.9410301976478,1735.5) translate(0 21.04)"/><use xlink:href="#d" transform="matrix(1,0,0,1,858.9410301976478,1768.5) translate(0 21.04)"/><use xlink:href="#e" transform="matrix(1,0,0,1,858.9410301976478,1801.5) translate(0 21.04)"/><use xlink:href="#P" transform="matrix(1,0,0,1,858.9410301976478,1834.5) translate(0 21.04)"/><use xlink:href="#Q" transform="matrix(1,0,0,1,858.9410301976478,1867.5) translate(0 21.04)"/><use xlink:href="#R" transform="matrix(1,0,0,1,858.9410301976478,1900.5) translate(0 21.04)"/><use xlink:href="#h" transform="matrix(1,0,0,1,858.9410301976478,1933.5) translate(0 21.04)"/><path d="M1080.48 2105.14h100.02" stroke="#0c8ce9" stroke-width="2" fill="none"/><path d="M1070.48 2115.14v-20M1060.48 2105.14h20M1080.48 2115.14v-20" stroke="#0c8ce9" stroke-width="2" fill="#fff"/><path d="M1219.05 2115.14l-20-10 20-10" stroke="#0c8ce9" stroke-width="2" fill="#fff" fill-opacity="0"/><path d="M1219.05 2105.14h-20M1199.05 2105.14c0 5.52-4.47 10-10 10-5.52 0-10-4.48-10-10s4.48-10 10-10c5.53 0 10 4.48 10 10" stroke="#0c8ce9" stroke-width="2" fill="#fff"/><path d="M1080.48 2257.34H1134a6 6 0 0 1 6 6v80.1a6 6 0 0 0 6 6h34.5" stroke="#0c8ce9" stroke-width="2" fill="none"/><path d="M1070.48 2267.34v-20M1060.48 2257.34h20M1080.48 2267.34v-20" stroke="#0c8ce9" stroke-width="2" fill="#fff"/><path d="M1219.05 2359.43l-20-10 20-10" stroke="#0c8ce9" stroke-width="2" fill="#fff" fill-opacity="0"/><path d="M1219.05 2349.43h-20M1199.05 2349.43c0 5.53-4.47 10-10 10-5.52 0-10-4.47-10-10 0-5.52 4.48-10 10-10 5.53 0 10 4.48 10 10" stroke="#0c8ce9" stroke-width="2" fill="#fff"/><path d="M1167.47 1788.14h-33.03" stroke="#0c8ce9" stroke-width="2" fill="none"/><path d="M1206.02 1798.14l-20-10 20-10" stroke="#0c8ce9" stroke-width="2" fill="#fff" fill-opacity="0"/><path d="M1206.02 1788.14h-20M1186.02 1788.14c0 5.52-4.47 10-10 10-5.52 0-10-4.48-10-10 0-5.53 4.48-10 10-10 5.53 0 10 4.47 10 10M1124.44 1798.14v-20M1114.44 1788.14h20M1134.44 1798.14v-20" stroke="#0c8ce9" stroke-width="2" fill="#fff"/><path d="M560 2112a6 6 0 0 1 6-6h188a6 6 0 0 1 6 6v94a6 6 0 0 1-6 6H566a6 6 0 0 1-6-6z" fill-opacity="0"/><path d="M560 2146v-34a6 6 0 0 1 6-6h188a6 6 0 0 1 6 6v34" fill="#0c8ce9"/><path d="M560 2112a6 6 0 0 1 6-6h188a6 6 0 0 1 6 6v94a6 6 0 0 1-6 6H566a6 6 0 0 1-6-6zM560 2146h200" stroke="#0c8ce9" fill="none"/><use xlink:href="#S" transform="matrix(1,0,0,1,570,2105.9999998268677) translate(0 27.04)"/><use xlink:href="#T" transform="matrix(1,0,0,1,565,2148.4999998268677) translate(0 21.04)"/><use xlink:href="#U" transform="matrix(1,0,0,1,565,2181.4999998268677) translate(0 21.04)"/><path d="M560 1913a6 6 0 0 1 6-6h188a6 6 0 0 1 6 6v61a6 6 0 0 1-6 6H566a6 6 0 0 1-6-6z" fill-opacity="0"/><path d="M560 1947v-34a6 6 0 0 1 6-6h188a6 6 0 0 1 6 6v34" fill="#0c8ce9"/><path d="M560 1913a6 6 0 0 1 6-6h188a6 6 0 0 1 6 6v61a6 6 0 0 1-6 6H566a6 6 0 0 1-6-6zM560 1947h200" stroke="#0c8ce9" fill="none"/><use xlink:href="#V" transform="matrix(1,0,0,1,570,1907) translate(0 27.04)"/><use xlink:href="#x" transform="matrix(1,0,0,1,565,1949.5) translate(0 21.04)"/><path d="M839.5 2162.52H779.3" stroke="#0c8ce9" stroke-width="2" fill="none"/><path d="M839.5 2152.52v20M859.5 2162.52h-20" stroke="#0c8ce9" stroke-width="2" fill="#fff"/><path d="M760.95 2152.52l20 10-20 10" stroke="#0c8ce9" stroke-width="2" fill="#fff" fill-opacity="0"/><path d="M760.95 2162.52h20" stroke="#0c8ce9" stroke-width="2" fill="#fff"/><path d="M660 2000.5v86.18" stroke="#0c8ce9" stroke-width="2" fill="none"/><path d="M650 2000.5h20M660 1980.5v20" stroke="#0c8ce9" stroke-width="2" fill="#fff"/><path d="M650 2105.05l10-20 10 20" stroke="#0c8ce9" stroke-width="2" fill="#fff" fill-opacity="0"/><path d="M660 2105.05v-20" stroke="#0c8ce9" stroke-width="2" fill="#fff"/><path d="M834.62 1782.4h-15.18a6 6 0 0 0-6 6v301.8a6 6 0 0 0 6 6h20.04" stroke="#0c8ce9" stroke-width="2" fill="none"/><path d="M853 1792.4l-20-10 20-10" stroke="#0c8ce9" stroke-width="2" fill="#fff" fill-opacity="0"/><path d="M853 1782.4h-20M849.5 2086.2v20M859.5 2096.2h-20M839.5 2086.2v20" stroke="#0c8ce9" stroke-width="2" fill="#fff"/><defs><path fill="#fff" d="M609-258C606-86 520 15 346 15S83-86 83-258v-435h97v424c-3 125 55 198 166 198 117 0 165-77 166-198v-424h97v435" id="W"/><path fill="#fff" d="M59-97c36 13 83 32 144 30 63-2 112-9 112-63 0-99-160-93-221-153-24-24-44-52-44-100 0-151 196-178 331-127l-17 80c-60-35-257-49-214 69 69 92 264 59 259 227-2 107-89 146-206 146C133 12 82-2 42-17" id="X"/><path fill="#fff" d="M315 12C141 9 53-87 53-259c0-164 81-274 237-274 163 0 227 118 216 298H150c9 108 58 165 175 165 54 0 101-11 133-25l13 78c-33 16-99 31-156 29zm95-322c8-101-82-177-178-132-47 22-73 71-80 132h258" id="Y"/><path fill="#fff" d="M82-498c73-28 204-47 296-18l-16 81c-44-19-138-19-187-2V0H82v-498" id="Z"/><g id="a"><use transform="matrix(0.02,0,0,0.02,0,0)" xlink:href="#W"/><use transform="matrix(0.02,0,0,0.02,13.84,0)" xlink:href="#X"/><use transform="matrix(0.02,0,0,0.02,22.84,0)" xlink:href="#Y"/><use transform="matrix(0.02,0,0,0.02,34.1,0)" xlink:href="#Z"/></g><path fill="#1d262b" d="M175 0H82v-520h93V0zm13-675c0 35-26 61-60 61s-60-26-60-61 26-61 60-61 60 26 60 61" id="aa"/><path fill="#1d262b" d="M315-70c41 0 75-4 103-11v-329c-24-19-73-42-119-40-110 2-147 80-149 190-2 113 59 189 165 190zm-28-462c51-2 103 18 131 35v-263l93-16v761C458-1 388 13 314 12 145 7 53-90 53-260c0-162 75-266 234-272" id="ab"/><g id="b"><use transform="matrix(0.02,0,0,0.02,0,0)" xlink:href="#aa"/><use transform="matrix(0.02,0,0,0.02,5.14,0)" xlink:href="#ab"/></g><path fill="#1d262b" d="M82-567C68-745 227-812 397-759l-17 80c-21-10-52-17-88-17-102 0-122 72-117 176h200v78H175V0H82v-567" id="ac"/><path fill="#1d262b" d="M82-498c73-28 204-47 296-18l-16 81c-44-19-138-19-187-2V0H82v-498" id="ad"/><path fill="#1d262b" d="M59-97c36 13 83 32 144 30 63-2 112-9 112-63 0-99-160-93-221-153-24-24-44-52-44-100 0-151 196-178 331-127l-17 80c-60-35-257-49-214 69 69 92 264 59 259 227-2 107-89 146-206 146C133 12 82-2 42-17" id="ae"/><path fill="#1d262b" d="M257 11C121 11 76-66 76-201v-464l93-16v161h197v78H169v240c-1 80 17 131 96 131 43 0 79-13 103-23l18 77c-27 12-82 28-129 28" id="af"/><path fill="#1d262b" d="M-2 106h500v79H-2v-79" id="ag"/><path fill="#1d262b" d="M279-449c-36 1-74 4-104 10V0H82v-505c55-13 130-26 207-26 153 0 213 87 213 239V0h-93v-272c1-107-22-180-130-177" id="ah"/><path fill="#1d262b" d="M139-156c0 106 132 93 220 82v-155c-78-22-220-23-220 73zm-94 1c-2-152 173-180 314-148 5-94-26-150-117-150-50 0-101 8-132 20l-11-77c32-13 99-23 151-23 135 0 201 66 200 199V-9C390 1 319 11 247 11 126 11 46-34 45-155" id="ai"/><path fill="#1d262b" d="M278-449c-36 0-74 4-103 10V0H82v-505c94-23 290-55 347 27 41-28 96-52 166-53 149-3 194 91 194 239V0h-93v-272c0-100-11-177-111-177-50 0-96 17-119 35 30 114 10 276 16 414h-93v-272c0-99-12-179-111-177" id="aj"/><path fill="#1d262b" d="M315 12C141 9 53-87 53-259c0-164 81-274 237-274 163 0 227 118 216 298H150c9 108 58 165 175 165 54 0 101-11 133-25l13 78c-33 16-99 31-156 29zm95-322c8-101-82-177-178-132-47 22-73 71-80 132h258" id="ak"/><g id="c"><use transform="matrix(0.02,0,0,0.02,0,0)" xlink:href="#ac"/><use transform="matrix(0.02,0,0,0.02,7.8,0)" xlink:href="#aa"/><use transform="matrix(0.02,0,0,0.02,12.94,0)" xlink:href="#ad"/><use transform="matrix(0.02,0,0,0.02,20.740000000000002,0)" xlink:href="#ae"/><use transform="matrix(0.02,0,0,0.02,29.740000000000002,0)" xlink:href="#af"/><use transform="matrix(0.02,0,0,0.02,37.86,0)" xlink:href="#ag"/><use transform="matrix(0.02,0,0,0.02,47.78,0)" xlink:href="#ah"/><use transform="matrix(0.02,0,0,0.02,59.34,0)" xlink:href="#ai"/><use transform="matrix(0.02,0,0,0.02,69.86,0)" xlink:href="#aj"/><use transform="matrix(0.02,0,0,0.02,87.16,0)" xlink:href="#ak"/></g><path fill="#1d262b" d="M173-151c-3 59 26 79 78 83l-13 78C129 7 80-30 80-136v-624l93-16v625" id="al"/><g id="d"><use transform="matrix(0.02,0,0,0.02,0,0)" xlink:href="#al"/><use transform="matrix(0.02,0,0,0.02,5.54,0)" xlink:href="#ai"/><use transform="matrix(0.02,0,0,0.02,16.06,0)" xlink:href="#ae"/><use transform="matrix(0.02,0,0,0.02,25.060000000000002,0)" xlink:href="#af"/><use transform="matrix(0.02,0,0,0.02,33.18,0)" xlink:href="#ag"/><use transform="matrix(0.02,0,0,0.02,43.1,0)" xlink:href="#ah"/><use transform="matrix(0.02,0,0,0.02,54.660000000000004,0)" xlink:href="#ai"/><use transform="matrix(0.02,0,0,0.02,65.18,0)" xlink:href="#aj"/><use transform="matrix(0.02,0,0,0.02,82.48,0)" xlink:href="#ak"/></g><g id="e"><use transform="matrix(0.02,0,0,0.02,0,0)" xlink:href="#ak"/><use transform="matrix(0.02,0,0,0.02,11.26,0)" xlink:href="#aj"/><use transform="matrix(0.02,0,0,0.02,28.560000000000002,0)" xlink:href="#ai"/><use transform="matrix(0.02,0,0,0.02,39.08,0)" xlink:href="#aa"/><use transform="matrix(0.02,0,0,0.02,44.22,0)" xlink:href="#al"/></g><path fill="#1d262b" d="M294-70c109-2 147-79 149-189 2-113-59-188-165-189-45 0-73 2-103 10v328c24 19 73 42 119 40zm-15-461c169 5 261 102 261 272C540-98 465 6 306 12c-51 2-103-18-131-35v208H82v-689c54-12 122-29 197-27" id="am"/><path fill="#1d262b" d="M761-520C714-334 656-153 588 0h-81c-40-105-86-236-117-357-31 122-76 252-116 357h-81C125-153 67-334 20-520h100c31 138 71 286 118 407 45-126 85-269 117-407h77c30 140 70 281 115 407 46-123 88-268 118-407h96" id="an"/><path fill="#1d262b" d="M297-533c160 0 244 110 244 273S457 13 297 13 53-97 53-260s84-273 244-273zm0 464c98 0 147-85 147-191s-49-191-147-191-147 85-147 191S199-69 297-69" id="ao"/><path fill="#1d262b" d="M279-449c-38 1-76 8-104 17V0H82v-760l93-16v266c32-12 72-21 114-21 153-1 213 87 213 239V0h-93v-272c1-107-22-181-130-177" id="ap"/><g id="f"><use transform="matrix(0.02,0,0,0.02,0,0)" xlink:href="#am"/><use transform="matrix(0.02,0,0,0.02,11.86,0)" xlink:href="#ai"/><use transform="matrix(0.02,0,0,0.02,22.38,0)" xlink:href="#ae"/><use transform="matrix(0.02,0,0,0.02,31.38,0)" xlink:href="#ae"/><use transform="matrix(0.02,0,0,0.02,40.379999999999995,0)" xlink:href="#an"/><use transform="matrix(0.02,0,0,0.02,55.75999999999999,0)" xlink:href="#ao"/><use transform="matrix(0.02,0,0,0.02,67.63999999999999,0)" xlink:href="#ad"/><use transform="matrix(0.02,0,0,0.02,75.43999999999998,0)" xlink:href="#ab"/><use transform="matrix(0.02,0,0,0.02,87.29999999999998,0)" xlink:href="#ag"/><use transform="matrix(0.02,0,0,0.02,97.21999999999998,0)" xlink:href="#ap"/><use transform="matrix(0.02,0,0,0.02,108.71999999999998,0)" xlink:href="#ai"/><use transform="matrix(0.02,0,0,0.02,119.23999999999998,0)" xlink:href="#ae"/><use transform="matrix(0.02,0,0,0.02,128.23999999999998,0)" xlink:href="#ap"/></g><path fill="#1d262b" d="M252 108c114 0 161-44 156-160-25 15-79 35-127 33-151-6-228-96-228-252 0-162 90-254 252-260 75-2 141 15 195 27v464c0 164-85 227-250 228-62 1-124-12-168-27l17-81c38 15 98 28 153 28zm38-207c46 2 92-16 117-35v-304c-29-7-58-11-101-11-102-1-157 76-156 179 2 102 44 167 140 171" id="aq"/><g id="g"><use transform="matrix(0.02,0,0,0.02,0,0)" xlink:href="#aa"/><use transform="matrix(0.02,0,0,0.02,5.14,0)" xlink:href="#aj"/><use transform="matrix(0.02,0,0,0.02,22.44,0)" xlink:href="#ai"/><use transform="matrix(0.02,0,0,0.02,32.96,0)" xlink:href="#aq"/><use transform="matrix(0.02,0,0,0.02,44.6,0)" xlink:href="#ak"/></g><path fill="#1d262b" d="M490-520c-69 78-147 159-220 234 93 75 176 181 240 286H401c-59-95-136-186-226-250V0H82v-760l93-16v474c70-69 142-144 206-218h109" id="ar"/><path fill="#1d262b" d="M266-100c50-137 84-270 119-420h96C435-330 371-148 306 16 261 129 164 226 4 172l17-75c41 21 118 16 149-11 20-17 39-42 56-79C145-149 66-333 18-520h100c37 148 89 293 148 420" id="as"/><g id="h"><use transform="matrix(0.02,0,0,0.02,0,0)" xlink:href="#al"/><use transform="matrix(0.02,0,0,0.02,5.54,0)" xlink:href="#ai"/><use transform="matrix(0.02,0,0,0.02,16.06,0)" xlink:href="#ah"/><use transform="matrix(0.02,0,0,0.02,27.619999999999997,0)" xlink:href="#aq"/><use transform="matrix(0.02,0,0,0.02,39.26,0)" xlink:href="#ag"/><use transform="matrix(0.02,0,0,0.02,49.18,0)" xlink:href="#ar"/><use transform="matrix(0.02,0,0,0.02,59.17999999999999,0)" xlink:href="#ak"/><use transform="matrix(0.02,0,0,0.02,70.44,0)" xlink:href="#as"/></g><path fill="#1d262b" d="M447-14c-35 17-88 26-139 26C139 12 53-90 53-259c0-187 118-299 319-268 23 4 46 10 67 19l-21 79c-28-13-66-22-107-22-111 1-162 75-161 192 1 118 51 189 170 189 43 1 87-10 114-22" id="at"/><path fill="#1d262b" d="M255-109c52-125 101-269 137-411h96C441-339 364-151 295 0h-84C142-151 64-339 18-520h100c36 142 85 286 137 411" id="au"/><g id="i"><use transform="matrix(0.02,0,0,0.02,0,0)" xlink:href="#ai"/><use transform="matrix(0.02,0,0,0.02,10.52,0)" xlink:href="#at"/><use transform="matrix(0.02,0,0,0.02,19.9,0)" xlink:href="#af"/><use transform="matrix(0.02,0,0,0.02,28.02,0)" xlink:href="#aa"/><use transform="matrix(0.02,0,0,0.02,33.16,0)" xlink:href="#au"/><use transform="matrix(0.02,0,0,0.02,43.28,0)" xlink:href="#ai"/><use transform="matrix(0.02,0,0,0.02,53.800000000000004,0)" xlink:href="#af"/><use transform="matrix(0.02,0,0,0.02,61.72,0)" xlink:href="#ak"/><use transform="matrix(0.02,0,0,0.02,72.98,0)" xlink:href="#ab"/></g><path fill="#fff" d="M64-114c42 22 110 45 185 45 127 0 189-72 139-159-74-129-329-76-337-288-8-203 271-234 423-150l-31 79c-73-47-295-73-292 60 2 88 82 103 147 131 102 44 200 79 205 222C510 40 191 50 35-34" id="av"/><path fill="#fff" d="M255-109c52-125 101-269 137-411h96C441-339 364-151 295 0h-84C142-151 64-339 18-520h100c36 142 85 286 137 411" id="aw"/><path fill="#fff" d="M175 0H82v-520h93V0zm13-675c0 35-26 61-60 61s-60-26-60-61 26-61 60-61 60 26 60 61" id="ax"/><path fill="#fff" d="M447-14c-35 17-88 26-139 26C139 12 53-90 53-259c0-187 118-299 319-268 23 4 46 10 67 19l-21 79c-28-13-66-22-107-22-111 1-162 75-161 192 1 118 51 189 170 189 43 1 87-10 114-22" id="ay"/><path fill="#fff" d="M88-683c49-13 125-17 184-17 175 0 303 59 303 221 0 202-179 229-390 222V0H88v-683zm385 203c0-140-156-141-288-132v272c146 2 288 4 288-140" id="az"/><path fill="#fff" d="M297-533c160 0 244 110 244 273S457 13 297 13 53-97 53-260s84-273 244-273zm0 464c98 0 147-85 147-191s-49-191-147-191-147 85-147 191S199-69 297-69" id="aA"/><path fill="#fff" d="M315-70c41 0 75-4 103-11v-329c-24-19-73-42-119-40-110 2-147 80-149 190-2 113 59 189 165 190zm-28-462c51-2 103 18 131 35v-263l93-16v761C458-1 388 13 314 12 145 7 53-90 53-260c0-162 75-266 234-272" id="aB"/><g id="j"><use transform="matrix(0.02,0,0,0.02,0,0)" xlink:href="#av"/><use transform="matrix(0.02,0,0,0.02,10.72,0)" xlink:href="#Y"/><use transform="matrix(0.02,0,0,0.02,21.98,0)" xlink:href="#Z"/><use transform="matrix(0.02,0,0,0.02,30.2,0)" xlink:href="#aw"/><use transform="matrix(0.02,0,0,0.02,40.32000000000001,0)" xlink:href="#ax"/><use transform="matrix(0.02,0,0,0.02,45.46000000000001,0)" xlink:href="#ay"/><use transform="matrix(0.02,0,0,0.02,54.84000000000001,0)" xlink:href="#Y"/><use transform="matrix(0.02,0,0,0.02,66.10000000000001,0)" xlink:href="#az"/><use transform="matrix(0.02,0,0,0.02,78.34,0)" xlink:href="#Z"/><use transform="matrix(0.02,0,0,0.02,86.14,0)" xlink:href="#aA"/><use transform="matrix(0.02,0,0,0.02,97.74000000000001,0)" xlink:href="#aw"/><use transform="matrix(0.02,0,0,0.02,107.86,0)" xlink:href="#ax"/><use transform="matrix(0.02,0,0,0.02,113,0)" xlink:href="#aB"/><use transform="matrix(0.02,0,0,0.02,124.86,0)" xlink:href="#Y"/><use transform="matrix(0.02,0,0,0.02,136.12,0)" xlink:href="#Z"/></g><g id="k"><use transform="matrix(0.02,0,0,0.02,0,0)" xlink:href="#am"/><use transform="matrix(0.02,0,0,0.02,11.86,0)" xlink:href="#ad"/><use transform="matrix(0.02,0,0,0.02,19.66,0)" xlink:href="#ao"/><use transform="matrix(0.02,0,0,0.02,31.259999999999994,0)" xlink:href="#au"/><use transform="matrix(0.02,0,0,0.02,41.37999999999999,0)" xlink:href="#aa"/><use transform="matrix(0.02,0,0,0.02,46.51999999999999,0)" xlink:href="#ab"/><use transform="matrix(0.02,0,0,0.02,58.379999999999995,0)" xlink:href="#ak"/><use transform="matrix(0.02,0,0,0.02,69.64,0)" xlink:href="#ad"/><use transform="matrix(0.02,0,0,0.02,77.44,0)" xlink:href="#ag"/><use transform="matrix(0.02,0,0,0.02,87.36,0)" xlink:href="#aa"/><use transform="matrix(0.02,0,0,0.02,92.5,0)" xlink:href="#ab"/></g><g id="l"><use transform="matrix(0.02,0,0,0.02,0,0)" xlink:href="#ap"/><use transform="matrix(0.02,0,0,0.02,11.5,0)" xlink:href="#ao"/><use transform="matrix(0.02,0,0,0.02,23.38,0)" xlink:href="#ae"/><use transform="matrix(0.02,0,0,0.02,32.38,0)" xlink:href="#af"/></g><g id="m"><use transform="matrix(0.02,0,0,0.02,0,0)" xlink:href="#am"/><use transform="matrix(0.02,0,0,0.02,11.86,0)" xlink:href="#ao"/><use transform="matrix(0.02,0,0,0.02,23.740000000000002,0)" xlink:href="#ad"/><use transform="matrix(0.02,0,0,0.02,31.54,0)" xlink:href="#af"/></g><g id="n"><use transform="matrix(0.02,0,0,0.02,0,0)" xlink:href="#ak"/><use transform="matrix(0.02,0,0,0.02,11.26,0)" xlink:href="#ah"/><use transform="matrix(0.02,0,0,0.02,22.82,0)" xlink:href="#at"/><use transform="matrix(0.02,0,0,0.02,32.2,0)" xlink:href="#ad"/><use transform="matrix(0.02,0,0,0.02,40.42,0)" xlink:href="#as"/><use transform="matrix(0.02,0,0,0.02,50.44,0)" xlink:href="#am"/><use transform="matrix(0.02,0,0,0.02,62.300000000000004,0)" xlink:href="#af"/><use transform="matrix(0.02,0,0,0.02,70.42,0)" xlink:href="#aa"/><use transform="matrix(0.02,0,0,0.02,75.56,0)" xlink:href="#ao"/><use transform="matrix(0.02,0,0,0.02,87.44,0)" xlink:href="#ah"/></g><path fill="#1d262b" d="M300-71c36 0 74-3 103-10v-439h93v505C441-2 367 11 290 11 138 11 76-78 76-228v-292h93v272c2 116 24 177 131 177" id="aC"/><g id="o"><use transform="matrix(0.02,0,0,0.02,0,0)" xlink:href="#aC"/><use transform="matrix(0.02,0,0,0.02,11.56,0)" xlink:href="#ae"/><use transform="matrix(0.02,0,0,0.02,20.56,0)" xlink:href="#ak"/><use transform="matrix(0.02,0,0,0.02,31.82,0)" xlink:href="#ad"/><use transform="matrix(0.02,0,0,0.02,39.62,0)" xlink:href="#ah"/><use transform="matrix(0.02,0,0,0.02,51.18,0)" xlink:href="#ai"/><use transform="matrix(0.02,0,0,0.02,61.7,0)" xlink:href="#aj"/><use transform="matrix(0.02,0,0,0.02,79,0)" xlink:href="#ak"/></g><g id="p"><use transform="matrix(0.02,0,0,0.02,0,0)" xlink:href="#am"/><use transform="matrix(0.02,0,0,0.02,11.86,0)" xlink:href="#ai"/><use transform="matrix(0.02,0,0,0.02,22.38,0)" xlink:href="#ae"/><use transform="matrix(0.02,0,0,0.02,31.38,0)" xlink:href="#ae"/><use transform="matrix(0.02,0,0,0.02,40.379999999999995,0)" xlink:href="#an"/><use transform="matrix(0.02,0,0,0.02,55.75999999999999,0)" xlink:href="#ao"/><use transform="matrix(0.02,0,0,0.02,67.63999999999999,0)" xlink:href="#ad"/><use transform="matrix(0.02,0,0,0.02,75.43999999999998,0)" xlink:href="#ab"/></g><g id="q"><use transform="matrix(0.02,0,0,0.02,0,0)" xlink:href="#ac"/><use transform="matrix(0.02,0,0,0.02,7.8,0)" xlink:href="#ao"/><use transform="matrix(0.02,0,0,0.02,19.68,0)" xlink:href="#ad"/><use transform="matrix(0.02,0,0,0.02,27.48,0)" xlink:href="#aj"/></g><g id="r"><use transform="matrix(0.02,0,0,0.02,0,0)" xlink:href="#aa"/><use transform="matrix(0.02,0,0,0.02,5.14,0)" xlink:href="#ab"/><use transform="matrix(0.02,0,0,0.02,17,0)" xlink:href="#ak"/><use transform="matrix(0.02,0,0,0.02,28.259999999999994,0)" xlink:href="#ah"/><use transform="matrix(0.02,0,0,0.02,39.82,0)" xlink:href="#af"/><use transform="matrix(0.02,0,0,0.02,47.94,0)" xlink:href="#aa"/><use transform="matrix(0.02,0,0,0.02,53.08,0)" xlink:href="#ac"/><use transform="matrix(0.02,0,0,0.02,60.879999999999995,0)" xlink:href="#aa"/><use transform="matrix(0.02,0,0,0.02,66.02,0)" xlink:href="#ak"/><use transform="matrix(0.02,0,0,0.02,77.28,0)" xlink:href="#ad"/></g><g id="s"><use transform="matrix(0.02,0,0,0.02,0,0)" xlink:href="#af"/><use transform="matrix(0.02,0,0,0.02,7.840000000000002,0)" xlink:href="#ao"/><use transform="matrix(0.02,0,0,0.02,19.720000000000002,0)" xlink:href="#ar"/><use transform="matrix(0.02,0,0,0.02,29.72,0)" xlink:href="#ak"/><use transform="matrix(0.02,0,0,0.02,40.980000000000004,0)" xlink:href="#ah"/></g><g id="t"><use transform="matrix(0.02,0,0,0.02,0,0)" xlink:href="#aj"/><use transform="matrix(0.02,0,0,0.02,17.3,0)" xlink:href="#ak"/><use transform="matrix(0.02,0,0,0.02,28.560000000000002,0)" xlink:href="#ae"/><use transform="matrix(0.02,0,0,0.02,37.56,0)" xlink:href="#ae"/><use transform="matrix(0.02,0,0,0.02,46.56,0)" xlink:href="#ai"/><use transform="matrix(0.02,0,0,0.02,57.08,0)" xlink:href="#aq"/><use transform="matrix(0.02,0,0,0.02,68.72,0)" xlink:href="#aa"/><use transform="matrix(0.02,0,0,0.02,73.86,0)" xlink:href="#ah"/><use transform="matrix(0.02,0,0,0.02,85.42,0)" xlink:href="#aq"/><use transform="matrix(0.02,0,0,0.02,97.06,0)" xlink:href="#ag"/><use transform="matrix(0.02,0,0,0.02,106.98,0)" xlink:href="#ae"/><use transform="matrix(0.02,0,0,0.02,115.98,0)" xlink:href="#ak"/><use transform="matrix(0.02,0,0,0.02,127.24000000000001,0)" xlink:href="#ad"/><use transform="matrix(0.02,0,0,0.02,135.46,0)" xlink:href="#au"/><use transform="matrix(0.02,0,0,0.02,145.58,0)" xlink:href="#aa"/><use transform="matrix(0.02,0,0,0.02,150.72,0)" xlink:href="#at"/><use transform="matrix(0.02,0,0,0.02,160.1,0)" xlink:href="#ak"/></g><g id="u"><use transform="matrix(0.02,0,0,0.02,0,0)" xlink:href="#at"/><use transform="matrix(0.02,0,0,0.02,9.38,0)" xlink:href="#ap"/><use transform="matrix(0.02,0,0,0.02,20.88,0)" xlink:href="#ai"/><use transform="matrix(0.02,0,0,0.02,31.400000000000002,0)" xlink:href="#ah"/><use transform="matrix(0.02,0,0,0.02,42.96,0)" xlink:href="#ah"/><use transform="matrix(0.02,0,0,0.02,54.52,0)" xlink:href="#ak"/><use transform="matrix(0.02,0,0,0.02,65.78,0)" xlink:href="#al"/><use transform="matrix(0.02,0,0,0.02,71.32000000000001,0)" xlink:href="#ag"/><use transform="matrix(0.02,0,0,0.02,81.24000000000001,0)" xlink:href="#ae"/><use transform="matrix(0.02,0,0,0.02,90.24,0)" xlink:href="#ak"/><use transform="matrix(0.02,0,0,0.02,101.50000000000001,0)" xlink:href="#at"/><use transform="matrix(0.02,0,0,0.02,110.88,0)" xlink:href="#ad"/><use transform="matrix(0.02,0,0,0.02,118.68,0)" xlink:href="#ak"/><use transform="matrix(0.02,0,0,0.02,129.94,0)" xlink:href="#af"/></g><g id="v"><use transform="matrix(0.02,0,0,0.02,0,0)" xlink:href="#ae"/><use transform="matrix(0.02,0,0,0.02,9,0)" xlink:href="#ak"/><use transform="matrix(0.02,0,0,0.02,20.259999999999998,0)" xlink:href="#ad"/><use transform="matrix(0.02,0,0,0.02,28.48,0)" xlink:href="#au"/><use transform="matrix(0.02,0,0,0.02,38.6,0)" xlink:href="#aa"/><use transform="matrix(0.02,0,0,0.02,43.74,0)" xlink:href="#at"/><use transform="matrix(0.02,0,0,0.02,53.120000000000005,0)" xlink:href="#ak"/><use transform="matrix(0.02,0,0,0.02,64.38000000000001,0)" xlink:href="#ag"/><use transform="matrix(0.02,0,0,0.02,74.30000000000001,0)" xlink:href="#ai"/><use transform="matrix(0.02,0,0,0.02,84.82000000000001,0)" xlink:href="#at"/><use transform="matrix(0.02,0,0,0.02,94.2,0)" xlink:href="#at"/><use transform="matrix(0.02,0,0,0.02,103.32000000000001,0)" xlink:href="#ao"/><use transform="matrix(0.02,0,0,0.02,115.19999999999999,0)" xlink:href="#aC"/><use transform="matrix(0.02,0,0,0.02,126.75999999999999,0)" xlink:href="#ah"/><use transform="matrix(0.02,0,0,0.02,138.32,0)" xlink:href="#af"/></g><path fill="#fff" d="M597-29C545 0 469 15 386 15 168 15 67-125 60-347c-8-284 240-432 510-326 11 4 18 9 22 12l-28 80c-42-23-98-43-163-43-163 0-238 111-238 277 0 165 69 273 232 277 73 3 134-19 177-39" id="aD"/><path fill="#fff" d="M279-449c-38 1-76 8-104 17V0H82v-760l93-16v266c32-12 72-21 114-21 153-1 213 87 213 239V0h-93v-272c1-107-22-181-130-177" id="aE"/><path fill="#fff" d="M139-156c0 106 132 93 220 82v-155c-78-22-220-23-220 73zm-94 1c-2-152 173-180 314-148 5-94-26-150-117-150-50 0-101 8-132 20l-11-77c32-13 99-23 151-23 135 0 201 66 200 199V-9C390 1 319 11 247 11 126 11 46-34 45-155" id="aF"/><path fill="#fff" d="M279-449c-36 1-74 4-104 10V0H82v-505c55-13 130-26 207-26 153 0 213 87 213 239V0h-93v-272c1-107-22-180-130-177" id="aG"/><path fill="#fff" d="M173-151c-3 59 26 79 78 83l-13 78C129 7 80-30 80-136v-624l93-16v625" id="aH"/><g id="w"><use transform="matrix(0.02,0,0,0.02,0,0)" xlink:href="#aD"/><use transform="matrix(0.02,0,0,0.02,12.48,0)" xlink:href="#aE"/><use transform="matrix(0.02,0,0,0.02,23.98,0)" xlink:href="#aF"/><use transform="matrix(0.02,0,0,0.02,34.5,0)" xlink:href="#aG"/><use transform="matrix(0.02,0,0,0.02,46.06,0)" xlink:href="#aG"/><use transform="matrix(0.02,0,0,0.02,57.620000000000005,0)" xlink:href="#Y"/><use transform="matrix(0.02,0,0,0.02,68.88000000000001,0)" xlink:href="#aH"/></g><g id="x"><use transform="matrix(0.02,0,0,0.02,0,0)" xlink:href="#ah"/><use transform="matrix(0.02,0,0,0.02,11.56,0)" xlink:href="#ai"/><use transform="matrix(0.02,0,0,0.02,22.080000000000002,0)" xlink:href="#aj"/><use transform="matrix(0.02,0,0,0.02,39.379999999999995,0)" xlink:href="#ak"/></g><g id="y"><use transform="matrix(0.02,0,0,0.02,0,0)" xlink:href="#at"/><use transform="matrix(0.02,0,0,0.02,9.38,0)" xlink:href="#ap"/><use transform="matrix(0.02,0,0,0.02,20.88,0)" xlink:href="#ai"/><use transform="matrix(0.02,0,0,0.02,31.400000000000002,0)" xlink:href="#ah"/><use transform="matrix(0.02,0,0,0.02,42.96,0)" xlink:href="#ah"/><use transform="matrix(0.02,0,0,0.02,54.52,0)" xlink:href="#ak"/><use transform="matrix(0.02,0,0,0.02,65.78,0)" xlink:href="#al"/><use transform="matrix(0.02,0,0,0.02,71.32000000000001,0)" xlink:href="#ag"/><use transform="matrix(0.02,0,0,0.02,81.24000000000001,0)" xlink:href="#af"/><use transform="matrix(0.02,0,0,0.02,89.36000000000001,0)" xlink:href="#as"/><use transform="matrix(0.02,0,0,0.02,99.38,0)" xlink:href="#am"/><use transform="matrix(0.02,0,0,0.02,111.24000000000001,0)" xlink:href="#ak"/></g><g id="z"><use transform="matrix(0.02,0,0,0.02,0,0)" xlink:href="#at"/><use transform="matrix(0.02,0,0,0.02,9.38,0)" xlink:href="#ad"/><use transform="matrix(0.02,0,0,0.02,17.18,0)" xlink:href="#ak"/><use transform="matrix(0.02,0,0,0.02,28.439999999999998,0)" xlink:href="#ai"/><use transform="matrix(0.02,0,0,0.02,38.959999999999994,0)" xlink:href="#af"/><use transform="matrix(0.02,0,0,0.02,47.08,0)" xlink:href="#aa"/><use transform="matrix(0.02,0,0,0.02,52.22,0)" xlink:href="#ao"/><use transform="matrix(0.02,0,0,0.02,64.1,0)" xlink:href="#ah"/><use transform="matrix(0.02,0,0,0.02,75.66,0)" xlink:href="#ag"/><use transform="matrix(0.02,0,0,0.02,85.58,0)" xlink:href="#ab"/><use transform="matrix(0.02,0,0,0.02,97.44,0)" xlink:href="#ai"/><use transform="matrix(0.02,0,0,0.02,107.96000000000001,0)" xlink:href="#af"/><use transform="matrix(0.02,0,0,0.02,115.88,0)" xlink:href="#ak"/></g><g id="A"><use transform="matrix(0.02,0,0,0.02,0,0)" xlink:href="#ae"/><use transform="matrix(0.02,0,0,0.02,9,0)" xlink:href="#ak"/><use transform="matrix(0.02,0,0,0.02,20.259999999999998,0)" xlink:href="#ad"/><use transform="matrix(0.02,0,0,0.02,28.48,0)" xlink:href="#au"/><use transform="matrix(0.02,0,0,0.02,38.6,0)" xlink:href="#aa"/><use transform="matrix(0.02,0,0,0.02,43.74,0)" xlink:href="#at"/><use transform="matrix(0.02,0,0,0.02,53.120000000000005,0)" xlink:href="#ak"/><use transform="matrix(0.02,0,0,0.02,64.38000000000001,0)" xlink:href="#ag"/><use transform="matrix(0.02,0,0,0.02,74.30000000000001,0)" xlink:href="#am"/><use transform="matrix(0.02,0,0,0.02,86.16,0)" xlink:href="#ad"/><use transform="matrix(0.02,0,0,0.02,93.96000000000001,0)" xlink:href="#ao"/><use transform="matrix(0.02,0,0,0.02,105.56,0)" xlink:href="#au"/><use transform="matrix(0.02,0,0,0.02,115.68,0)" xlink:href="#aa"/><use transform="matrix(0.02,0,0,0.02,120.82000000000001,0)" xlink:href="#ab"/><use transform="matrix(0.02,0,0,0.02,132.68,0)" xlink:href="#ak"/><use transform="matrix(0.02,0,0,0.02,143.94,0)" xlink:href="#ad"/><use transform="matrix(0.02,0,0,0.02,151.74,0)" xlink:href="#ag"/><use transform="matrix(0.02,0,0,0.02,161.66,0)" xlink:href="#aa"/><use transform="matrix(0.02,0,0,0.02,166.79999999999995,0)" xlink:href="#ab"/></g><g id="B"><use transform="matrix(0.02,0,0,0.02,0,0)" xlink:href="#at"/><use transform="matrix(0.02,0,0,0.02,9.38,0)" xlink:href="#ad"/><use transform="matrix(0.02,0,0,0.02,17.18,0)" xlink:href="#ak"/><use transform="matrix(0.02,0,0,0.02,28.439999999999998,0)" xlink:href="#ai"/><use transform="matrix(0.02,0,0,0.02,38.959999999999994,0)" xlink:href="#af"/><use transform="matrix(0.02,0,0,0.02,46.800000000000004,0)" xlink:href="#ao"/><use transform="matrix(0.02,0,0,0.02,58.68,0)" xlink:href="#ad"/><use transform="matrix(0.02,0,0,0.02,66.48,0)" xlink:href="#ag"/><use transform="matrix(0.02,0,0,0.02,76.4,0)" xlink:href="#aa"/><use transform="matrix(0.02,0,0,0.02,81.54,0)" xlink:href="#ab"/></g><path fill="#fff" d="M10 0c89-244 173-472 279-693h89C484-472 568-243 657 0H551c-23-60-41-116-63-177H174L111 0H10zm450-257c-42-112-82-221-129-325-48 103-88 212-129 325h258" id="aI"/><path fill="#fff" d="M300-71c36 0 74-3 103-10v-439h93v505C441-2 367 11 290 11 138 11 76-78 76-228v-292h93v272c2 116 24 177 131 177" id="aJ"/><g id="C"><use transform="matrix(0.02,0,0,0.02,0,0)" xlink:href="#aI"/><use transform="matrix(0.02,0,0,0.02,13.040000000000001,0)" xlink:href="#aJ"/><use transform="matrix(0.02,0,0,0.02,24.6,0)" xlink:href="#aB"/><use transform="matrix(0.02,0,0,0.02,36.46,0)" xlink:href="#ax"/><use transform="matrix(0.02,0,0,0.02,41.6,0)" xlink:href="#Y"/><use transform="matrix(0.02,0,0,0.02,52.86,0)" xlink:href="#aG"/><use transform="matrix(0.02,0,0,0.02,64.42,0)" xlink:href="#ay"/><use transform="matrix(0.02,0,0,0.02,73.8,0)" xlink:href="#Y"/></g><path fill="#1d262b" d="M427-450C332-341 227-207 149-78h286V0H38v-62c75-133 178-267 271-380H52v-78h375v70" id="aK"/><g id="D"><use transform="matrix(0.02,0,0,0.02,0,0)" xlink:href="#ae"/><use transform="matrix(0.02,0,0,0.02,9,0)" xlink:href="#aa"/><use transform="matrix(0.02,0,0,0.02,14.14,0)" xlink:href="#aK"/><use transform="matrix(0.02,0,0,0.02,23.259999999999994,0)" xlink:href="#ak"/><use transform="matrix(0.02,0,0,0.02,34.519999999999996,0)" xlink:href="#ag"/><use transform="matrix(0.02,0,0,0.02,44.44,0)" xlink:href="#ak"/><use transform="matrix(0.02,0,0,0.02,55.69999999999999,0)" xlink:href="#ae"/><use transform="matrix(0.02,0,0,0.02,64.69999999999999,0)" xlink:href="#af"/><use transform="matrix(0.02,0,0,0.02,72.82,0)" xlink:href="#aa"/><use transform="matrix(0.02,0,0,0.02,77.96,0)" xlink:href="#aj"/><use transform="matrix(0.02,0,0,0.02,95.25999999999998,0)" xlink:href="#ai"/><use transform="matrix(0.02,0,0,0.02,105.77999999999999,0)" xlink:href="#af"/><use transform="matrix(0.02,0,0,0.02,113.69999999999999,0)" xlink:href="#ak"/></g><path fill="#fff" d="M257 11C121 11 76-66 76-201v-464l93-16v161h197v78H169v240c-1 80 17 131 96 131 43 0 79-13 103-23l18 77c-27 12-82 28-129 28" id="aL"/><g id="E"><use transform="matrix(0.02,0,0,0.02,0,0)" xlink:href="#aD"/><use transform="matrix(0.02,0,0,0.02,12.48,0)" xlink:href="#Z"/><use transform="matrix(0.02,0,0,0.02,20.28,0)" xlink:href="#ax"/><use transform="matrix(0.02,0,0,0.02,25.42,0)" xlink:href="#aL"/><use transform="matrix(0.02,0,0,0.02,33.34,0)" xlink:href="#Y"/><use transform="matrix(0.02,0,0,0.02,44.6,0)" xlink:href="#Z"/><use transform="matrix(0.02,0,0,0.02,52.4,0)" xlink:href="#ax"/><use transform="matrix(0.02,0,0,0.02,57.54,0)" xlink:href="#aF"/></g><g id="F"><use transform="matrix(0.02,0,0,0.02,0,0)" xlink:href="#ac"/><use transform="matrix(0.02,0,0,0.02,7.8,0)" xlink:href="#aa"/><use transform="matrix(0.02,0,0,0.02,12.94,0)" xlink:href="#al"/><use transform="matrix(0.02,0,0,0.02,18.48,0)" xlink:href="#af"/><use transform="matrix(0.02,0,0,0.02,26.400000000000002,0)" xlink:href="#ak"/><use transform="matrix(0.02,0,0,0.02,37.660000000000004,0)" xlink:href="#ad"/></g><g id="G"><use transform="matrix(0.02,0,0,0.02,0,0)" xlink:href="#ao"/><use transform="matrix(0.02,0,0,0.02,11.88,0)" xlink:href="#am"/><use transform="matrix(0.02,0,0,0.02,23.740000000000002,0)" xlink:href="#ak"/><use transform="matrix(0.02,0,0,0.02,35,0)" xlink:href="#ad"/><use transform="matrix(0.02,0,0,0.02,42.800000000000004,0)" xlink:href="#ai"/><use transform="matrix(0.02,0,0,0.02,53.31999999999999,0)" xlink:href="#af"/><use transform="matrix(0.02,0,0,0.02,61.15999999999999,0)" xlink:href="#ao"/><use transform="matrix(0.02,0,0,0.02,73.03999999999999,0)" xlink:href="#ad"/></g><g id="H"><use transform="matrix(0.02,0,0,0.02,0,0)" xlink:href="#au"/><use transform="matrix(0.02,0,0,0.02,10.120000000000001,0)" xlink:href="#ai"/><use transform="matrix(0.02,0,0,0.02,20.64,0)" xlink:href="#al"/><use transform="matrix(0.02,0,0,0.02,26.18,0)" xlink:href="#aC"/><use transform="matrix(0.02,0,0,0.02,37.74,0)" xlink:href="#ak"/></g><g id="I"><use transform="matrix(0.02,0,0,0.02,0,0)" xlink:href="#ai"/><use transform="matrix(0.02,0,0,0.02,10.52,0)" xlink:href="#aC"/><use transform="matrix(0.02,0,0,0.02,22.080000000000002,0)" xlink:href="#ab"/><use transform="matrix(0.02,0,0,0.02,33.94,0)" xlink:href="#aa"/><use transform="matrix(0.02,0,0,0.02,39.08,0)" xlink:href="#ak"/><use transform="matrix(0.02,0,0,0.02,50.33999999999999,0)" xlink:href="#ah"/><use transform="matrix(0.02,0,0,0.02,61.9,0)" xlink:href="#at"/><use transform="matrix(0.02,0,0,0.02,71.28,0)" xlink:href="#ak"/><use transform="matrix(0.02,0,0,0.02,82.54,0)" xlink:href="#ag"/><use transform="matrix(0.02,0,0,0.02,92.46000000000001,0)" xlink:href="#aa"/><use transform="matrix(0.02,0,0,0.02,97.60000000000001,0)" xlink:href="#ab"/></g><path fill="#fff" d="M563 0C450-189 321-377 183-541V0H88v-693h77c137 151 274 337 384 513v-513h95V0h-81" id="aM"/><path fill="#fff" d="M82-567C68-745 227-812 397-759l-17 80c-21-10-52-17-88-17-102 0-122 72-117 176h200v78H175V0H82v-567" id="aN"/><path fill="#fff" d="M279 12C204 13 135-1 82-15v-745l93-16v279c28-17 80-37 131-35 159 6 234 110 234 272C540-90 448 7 279 12zm15-462c-46-2-95 21-119 40v329c28 7 62 11 103 11 106 0 167-77 165-190-2-110-39-188-149-190" id="aO"/><path fill="#fff" d="M294-70c109-2 147-79 149-189 2-113-59-188-165-189-45 0-73 2-103 10v328c24 19 73 42 119 40zm-15-461c169 5 261 102 261 272C540-98 465 6 306 12c-51 2-103-18-131-35v208H82v-689c54-12 122-29 197-27" id="aP"/><g id="J"><use transform="matrix(0.02,0,0,0.02,0,0)" xlink:href="#aM"/><use transform="matrix(0.02,0,0,0.02,14.64,0)" xlink:href="#aA"/><use transform="matrix(0.02,0,0,0.02,26.520000000000007,0)" xlink:href="#aL"/><use transform="matrix(0.02,0,0,0.02,34.64,0)" xlink:href="#ax"/><use transform="matrix(0.02,0,0,0.02,39.78,0)" xlink:href="#aN"/><use transform="matrix(0.02,0,0,0.02,47.58,0)" xlink:href="#ax"/><use transform="matrix(0.02,0,0,0.02,52.72,0)" xlink:href="#ay"/><use transform="matrix(0.02,0,0,0.02,62.1,0)" xlink:href="#aF"/><use transform="matrix(0.02,0,0,0.02,72.62,0)" xlink:href="#aL"/><use transform="matrix(0.02,0,0,0.02,80.74000000000001,0)" xlink:href="#ax"/><use transform="matrix(0.02,0,0,0.02,85.88,0)" xlink:href="#aA"/><use transform="matrix(0.02,0,0,0.02,97.76,0)" xlink:href="#aG"/><use transform="matrix(0.02,0,0,0.02,109.32000000000001,0)" xlink:href="#av"/><use transform="matrix(0.02,0,0,0.02,120.04,0)" xlink:href="#aJ"/><use transform="matrix(0.02,0,0,0.02,131.6,0)" xlink:href="#aO"/><use transform="matrix(0.02,0,0,0.02,143.45999999999998,0)" xlink:href="#X"/><use transform="matrix(0.02,0,0,0.02,152.45999999999998,0)" xlink:href="#ay"/><use transform="matrix(0.02,0,0,0.02,161.83999999999997,0)" xlink:href="#Z"/><use transform="matrix(0.02,0,0,0.02,169.64000000000001,0)" xlink:href="#ax"/><use transform="matrix(0.02,0,0,0.02,174.77999999999997,0)" xlink:href="#aP"/><use transform="matrix(0.02,0,0,0.02,186.64000000000001,0)" xlink:href="#aL"/><use transform="matrix(0.02,0,0,0.02,194.76,0)" xlink:href="#ax"/><use transform="matrix(0.02,0,0,0.02,199.89999999999998,0)" xlink:href="#aA"/><use transform="matrix(0.02,0,0,0.02,211.77999999999997,0)" xlink:href="#aG"/></g><path fill="#1d262b" d="M279 12C204 13 135-1 82-15v-745l93-16v279c28-17 80-37 131-35 159 6 234 110 234 272C540-90 448 7 279 12zm15-462c-46-2-95 21-119 40v329c28 7 62 11 103 11 106 0 167-77 165-190-2-110-39-188-149-190" id="aQ"/><g id="K"><use transform="matrix(0.02,0,0,0.02,0,0)" xlink:href="#ak"/><use transform="matrix(0.02,0,0,0.02,11.26,0)" xlink:href="#ah"/><use transform="matrix(0.02,0,0,0.02,22.82,0)" xlink:href="#ai"/><use transform="matrix(0.02,0,0,0.02,33.34,0)" xlink:href="#aQ"/><use transform="matrix(0.02,0,0,0.02,45.2,0)" xlink:href="#al"/><use transform="matrix(0.02,0,0,0.02,50.74,0)" xlink:href="#ak"/><use transform="matrix(0.02,0,0,0.02,62,0)" xlink:href="#ab"/></g><g id="L"><use transform="matrix(0.02,0,0,0.02,0,0)" xlink:href="#ab"/><use transform="matrix(0.02,0,0,0.02,11.86,0)" xlink:href="#ak"/><use transform="matrix(0.02,0,0,0.02,23.119999999999997,0)" xlink:href="#au"/><use transform="matrix(0.02,0,0,0.02,33.239999999999995,0)" xlink:href="#aa"/><use transform="matrix(0.02,0,0,0.02,38.379999999999995,0)" xlink:href="#at"/><use transform="matrix(0.02,0,0,0.02,47.76,0)" xlink:href="#ak"/><use transform="matrix(0.02,0,0,0.02,59.01999999999999,0)" xlink:href="#ag"/><use transform="matrix(0.02,0,0,0.02,68.94,0)" xlink:href="#af"/><use transform="matrix(0.02,0,0,0.02,76.78,0)" xlink:href="#ao"/><use transform="matrix(0.02,0,0,0.02,88.66,0)" xlink:href="#ar"/><use transform="matrix(0.02,0,0,0.02,98.66,0)" xlink:href="#ak"/><use transform="matrix(0.02,0,0,0.02,109.92,0)" xlink:href="#ah"/></g><g id="M"><use transform="matrix(0.02,0,0,0.02,0,0)" xlink:href="#ah"/><use transform="matrix(0.02,0,0,0.02,11.56,0)" xlink:href="#ao"/><use transform="matrix(0.02,0,0,0.02,23.44,0)" xlink:href="#af"/><use transform="matrix(0.02,0,0,0.02,31.560000000000002,0)" xlink:href="#aa"/><use transform="matrix(0.02,0,0,0.02,36.7,0)" xlink:href="#ac"/><use transform="matrix(0.02,0,0,0.02,44.5,0)" xlink:href="#aa"/><use transform="matrix(0.02,0,0,0.02,49.64,0)" xlink:href="#at"/><use transform="matrix(0.02,0,0,0.02,59.02,0)" xlink:href="#ai"/><use transform="matrix(0.02,0,0,0.02,69.54,0)" xlink:href="#af"/><use transform="matrix(0.02,0,0,0.02,77.66000000000001,0)" xlink:href="#aa"/><use transform="matrix(0.02,0,0,0.02,82.80000000000003,0)" xlink:href="#ao"/><use transform="matrix(0.02,0,0,0.02,94.68,0)" xlink:href="#ah"/><use transform="matrix(0.02,0,0,0.02,106.24000000000001,0)" xlink:href="#ag"/><use transform="matrix(0.02,0,0,0.02,116.16,0)" xlink:href="#aC"/><use transform="matrix(0.02,0,0,0.02,127.72000000000003,0)" xlink:href="#ae"/><use transform="matrix(0.02,0,0,0.02,136.72000000000003,0)" xlink:href="#ak"/><use transform="matrix(0.02,0,0,0.02,147.98000000000002,0)" xlink:href="#ad"/><use transform="matrix(0.02,0,0,0.02,155.78000000000003,0)" xlink:href="#ag"/><use transform="matrix(0.02,0,0,0.02,165.70000000000002,0)" xlink:href="#aa"/><use transform="matrix(0.02,0,0,0.02,170.84,0)" xlink:href="#ab"/></g><g id="N"><use transform="matrix(0.02,0,0,0.02,0,0)" xlink:href="#at"/><use transform="matrix(0.02,0,0,0.02,9.38,0)" xlink:href="#ap"/><use transform="matrix(0.02,0,0,0.02,20.88,0)" xlink:href="#ai"/><use transform="matrix(0.02,0,0,0.02,31.400000000000002,0)" xlink:href="#ah"/><use transform="matrix(0.02,0,0,0.02,42.96,0)" xlink:href="#ah"/><use transform="matrix(0.02,0,0,0.02,54.52,0)" xlink:href="#ak"/><use transform="matrix(0.02,0,0,0.02,65.78,0)" xlink:href="#al"/><use transform="matrix(0.02,0,0,0.02,71.32000000000001,0)" xlink:href="#ag"/><use transform="matrix(0.02,0,0,0.02,81.24000000000001,0)" xlink:href="#aa"/><use transform="matrix(0.02,0,0,0.02,86.38,0)" xlink:href="#ab"/></g><g id="O"><use transform="matrix(0.02,0,0,0.02,0,0)" xlink:href="#aM"/><use transform="matrix(0.02,0,0,0.02,14.64,0)" xlink:href="#aA"/><use transform="matrix(0.02,0,0,0.02,26.520000000000007,0)" xlink:href="#aL"/><use transform="matrix(0.02,0,0,0.02,34.64,0)" xlink:href="#ax"/><use transform="matrix(0.02,0,0,0.02,39.78,0)" xlink:href="#aN"/><use transform="matrix(0.02,0,0,0.02,47.58,0)" xlink:href="#ax"/><use transform="matrix(0.02,0,0,0.02,52.72,0)" xlink:href="#ay"/><use transform="matrix(0.02,0,0,0.02,62.1,0)" xlink:href="#aF"/><use transform="matrix(0.02,0,0,0.02,72.62,0)" xlink:href="#aL"/><use transform="matrix(0.02,0,0,0.02,80.74000000000001,0)" xlink:href="#ax"/><use transform="matrix(0.02,0,0,0.02,85.88,0)" xlink:href="#aA"/><use transform="matrix(0.02,0,0,0.02,97.76,0)" xlink:href="#aG"/><use transform="matrix(0.02,0,0,0.02,109.32000000000001,0)" xlink:href="#W"/><use transform="matrix(0.02,0,0,0.02,123.16,0)" xlink:href="#X"/><use transform="matrix(0.02,0,0,0.02,132.16000000000003,0)" xlink:href="#Y"/><use transform="matrix(0.02,0,0,0.02,143.42000000000002,0)" xlink:href="#Z"/></g><g id="P"><use transform="matrix(0.02,0,0,0.02,0,0)" xlink:href="#am"/><use transform="matrix(0.02,0,0,0.02,11.86,0)" xlink:href="#ap"/><use transform="matrix(0.02,0,0,0.02,23.36,0)" xlink:href="#ao"/><use transform="matrix(0.02,0,0,0.02,35.24,0)" xlink:href="#ah"/><use transform="matrix(0.02,0,0,0.02,46.800000000000004,0)" xlink:href="#ak"/><use transform="matrix(0.02,0,0,0.02,58.06,0)" xlink:href="#ag"/><use transform="matrix(0.02,0,0,0.02,67.98,0)" xlink:href="#ah"/><use transform="matrix(0.02,0,0,0.02,79.54,0)" xlink:href="#aC"/><use transform="matrix(0.02,0,0,0.02,91.10000000000001,0)" xlink:href="#aj"/><use transform="matrix(0.02,0,0,0.02,108.4,0)" xlink:href="#aQ"/><use transform="matrix(0.02,0,0,0.02,120.26,0)" xlink:href="#ak"/><use transform="matrix(0.02,0,0,0.02,131.52,0)" xlink:href="#ad"/></g><g id="Q"><use transform="matrix(0.02,0,0,0.02,0,0)" xlink:href="#at"/><use transform="matrix(0.02,0,0,0.02,9.120000000000001,0)" xlink:href="#ao"/><use transform="matrix(0.02,0,0,0.02,21,0)" xlink:href="#aC"/><use transform="matrix(0.02,0,0,0.02,32.56,0)" xlink:href="#ah"/><use transform="matrix(0.02,0,0,0.02,44.12,0)" xlink:href="#af"/><use transform="matrix(0.02,0,0,0.02,52.24000000000001,0)" xlink:href="#ad"/><use transform="matrix(0.02,0,0,0.02,60.46000000000001,0)" xlink:href="#as"/></g><g id="R"><use transform="matrix(0.02,0,0,0.02,0,0)" xlink:href="#aQ"/><use transform="matrix(0.02,0,0,0.02,11.86,0)" xlink:href="#aa"/><use transform="matrix(0.02,0,0,0.02,17,0)" xlink:href="#ad"/><use transform="matrix(0.02,0,0,0.02,24.8,0)" xlink:href="#af"/><use transform="matrix(0.02,0,0,0.02,32.92,0)" xlink:href="#ap"/><use transform="matrix(0.02,0,0,0.02,44.42,0)" xlink:href="#ab"/><use transform="matrix(0.02,0,0,0.02,56.28,0)" xlink:href="#ai"/><use transform="matrix(0.02,0,0,0.02,66.8,0)" xlink:href="#af"/><use transform="matrix(0.02,0,0,0.02,74.72,0)" xlink:href="#ak"/></g><path fill="#fff" d="M266-100c50-137 84-270 119-420h96C435-330 371-148 306 16 261 129 164 226 4 172l17-75c41 21 118 16 149-11 20-17 39-42 56-79C145-149 66-333 18-520h100c37 148 89 293 148 420" id="aR"/><g id="S"><use transform="matrix(0.02,0,0,0.02,0,0)" xlink:href="#W"/><use transform="matrix(0.02,0,0,0.02,13.84,0)" xlink:href="#X"/><use transform="matrix(0.02,0,0,0.02,22.84,0)" xlink:href="#Y"/><use transform="matrix(0.02,0,0,0.02,34.1,0)" xlink:href="#Z"/><use transform="matrix(0.02,0,0,0.02,41.9,0)" xlink:href="#aI"/><use transform="matrix(0.02,0,0,0.02,54.94,0)" xlink:href="#aJ"/><use transform="matrix(0.02,0,0,0.02,66.5,0)" xlink:href="#aL"/><use transform="matrix(0.02,0,0,0.02,74.62,0)" xlink:href="#aE"/><use transform="matrix(0.02,0,0,0.02,86.12,0)" xlink:href="#aA"/><use transform="matrix(0.02,0,0,0.02,98,0)" xlink:href="#Z"/><use transform="matrix(0.02,0,0,0.02,105.8,0)" xlink:href="#ax"/><use transform="matrix(0.02,0,0,0.02,110.94,0)" xlink:href="#aL"/><use transform="matrix(0.02,0,0,0.02,119.06,0)" xlink:href="#aR"/></g><g id="T"><use transform="matrix(0.02,0,0,0.02,0,0)" xlink:href="#aC"/><use transform="matrix(0.02,0,0,0.02,11.56,0)" xlink:href="#ae"/><use transform="matrix(0.02,0,0,0.02,20.56,0)" xlink:href="#ak"/><use transform="matrix(0.02,0,0,0.02,31.82,0)" xlink:href="#ad"/><use transform="matrix(0.02,0,0,0.02,39.62,0)" xlink:href="#ag"/><use transform="matrix(0.02,0,0,0.02,49.54,0)" xlink:href="#aa"/><use transform="matrix(0.02,0,0,0.02,54.68,0)" xlink:href="#ab"/></g><g id="U"><use transform="matrix(0.02,0,0,0.02,0,0)" xlink:href="#ai"/><use transform="matrix(0.02,0,0,0.02,10.52,0)" xlink:href="#aC"/><use transform="matrix(0.02,0,0,0.02,22.080000000000002,0)" xlink:href="#af"/><use transform="matrix(0.02,0,0,0.02,30.2,0)" xlink:href="#ap"/><use transform="matrix(0.02,0,0,0.02,41.7,0)" xlink:href="#ao"/><use transform="matrix(0.02,0,0,0.02,53.58,0)" xlink:href="#ad"/><use transform="matrix(0.02,0,0,0.02,61.38,0)" xlink:href="#aa"/><use transform="matrix(0.02,0,0,0.02,66.52,0)" xlink:href="#af"/><use transform="matrix(0.02,0,0,0.02,74.64,0)" xlink:href="#as"/><use transform="matrix(0.02,0,0,0.02,84.66,0)" xlink:href="#ag"/><use transform="matrix(0.02,0,0,0.02,94.58,0)" xlink:href="#ah"/><use transform="matrix(0.02,0,0,0.02,106.14,0)" xlink:href="#ai"/><use transform="matrix(0.02,0,0,0.02,116.66,0)" xlink:href="#aj"/><use transform="matrix(0.02,0,0,0.02,133.96,0)" xlink:href="#ak"/></g><g id="V"><use transform="matrix(0.02,0,0,0.02,0,0)" xlink:href="#aI"/><use transform="matrix(0.02,0,0,0.02,13.040000000000001,0)" xlink:href="#aJ"/><use transform="matrix(0.02,0,0,0.02,24.6,0)" xlink:href="#aL"/><use transform="matrix(0.02,0,0,0.02,32.72,0)" xlink:href="#aE"/><use transform="matrix(0.02,0,0,0.02,44.22,0)" xlink:href="#aA"/><use transform="matrix(0.02,0,0,0.02,56.1,0)" xlink:href="#Z"/><use transform="matrix(0.02,0,0,0.02,63.9,0)" xlink:href="#ax"/><use transform="matrix(0.02,0,0,0.02,69.03999999999999,0)" xlink:href="#aL"/><use transform="matrix(0.02,0,0,0.02,77.16,0)" xlink:href="#aR"/></g></defs></g></svg>