<svg width="500" height="250" viewBox="0 0 500 250" fill="none" xmlns="http://www.w3.org/2000/svg">
<path d="M373.228 16L373.218 234" stroke="#0C8CE9" stroke-linecap="round" stroke-dasharray="5 5"/>
<path d="M134.723 16L134.713 234" stroke="#0C8CE9" stroke-linecap="round" stroke-dasharray="5 5"/>
<rect x="16" y="92.6238" width="85.2574" height="89.5743" rx="4" stroke="#0C8CE9"/>
<path d="M51.16 205.545H50.2793C50.2272 205.291 50.136 205.069 50.0058 204.877C49.878 204.685 49.7217 204.524 49.5371 204.394C49.3548 204.261 49.1524 204.162 48.9298 204.096C48.7073 204.029 48.4753 203.996 48.2338 203.996C47.7935 203.996 47.3946 204.108 47.0371 204.33C46.682 204.553 46.3991 204.88 46.1884 205.314C45.98 205.747 45.8759 206.278 45.8759 206.908C45.8759 207.538 45.98 208.069 46.1884 208.503C46.3991 208.936 46.682 209.264 47.0371 209.486C47.3946 209.709 47.7935 209.82 48.2338 209.82C48.4753 209.82 48.7073 209.787 48.9298 209.721C49.1524 209.654 49.3548 209.556 49.5371 209.426C49.7217 209.293 49.878 209.131 50.0058 208.939C50.136 208.745 50.2272 208.523 50.2793 208.272H51.16C51.0937 208.644 50.9729 208.976 50.7977 209.27C50.6225 209.563 50.4047 209.813 50.1443 210.019C49.8839 210.223 49.5915 210.378 49.2672 210.484C48.9452 210.591 48.6008 210.644 48.2338 210.644C47.6135 210.644 47.0619 210.492 46.579 210.189C46.096 209.886 45.7161 209.456 45.4391 208.897C45.1621 208.338 45.0236 207.675 45.0236 206.908C45.0236 206.141 45.1621 205.478 45.4391 204.92C45.7161 204.361 46.096 203.93 46.579 203.627C47.0619 203.324 47.6135 203.172 48.2338 203.172C48.6008 203.172 48.9452 203.226 49.2672 203.332C49.5915 203.439 49.8839 203.595 50.1443 203.801C50.4047 204.005 50.6225 204.253 50.7977 204.547C50.9729 204.838 51.0937 205.171 51.16 205.545ZM53.3075 203.272V210.545H52.4694V203.272H53.3075ZM54.8425 210.545V205.09H55.6805V210.545H54.8425ZM55.2686 204.181C55.1053 204.181 54.9644 204.125 54.846 204.014C54.73 203.903 54.672 203.769 54.672 203.613C54.672 203.456 54.73 203.323 54.846 203.211C54.9644 203.1 55.1053 203.045 55.2686 203.045C55.432 203.045 55.5716 203.1 55.6876 203.211C55.806 203.323 55.8652 203.456 55.8652 203.613C55.8652 203.769 55.806 203.903 55.6876 204.014C55.5716 204.125 55.432 204.181 55.2686 204.181ZM59.5025 210.658C58.9769 210.658 58.5235 210.542 58.1424 210.31C57.7636 210.076 57.4712 209.749 57.2652 209.33C57.0616 208.909 56.9598 208.419 56.9598 207.86C56.9598 207.301 57.0616 206.809 57.2652 206.383C57.4712 205.954 57.7577 205.62 58.1246 205.381C58.4939 205.14 58.9248 205.019 59.4172 205.019C59.7013 205.019 59.9819 205.066 60.2588 205.161C60.5358 205.256 60.788 205.41 61.0152 205.623C61.2425 205.833 61.4236 206.113 61.5586 206.461C61.6935 206.809 61.761 207.237 61.761 207.746V208.101H57.5564V207.377H60.9087C60.9087 207.069 60.8472 206.795 60.724 206.553C60.6033 206.312 60.4305 206.121 60.2056 205.981C59.983 205.842 59.7203 205.772 59.4172 205.772C59.0834 205.772 58.7946 205.855 58.5508 206.02C58.3093 206.184 58.1234 206.397 57.9932 206.66C57.863 206.922 57.7979 207.204 57.7979 207.505V207.988C57.7979 208.4 57.8689 208.749 58.011 209.035C58.1554 209.319 58.3554 209.536 58.6111 209.685C58.8668 209.832 59.1639 209.905 59.5025 209.905C59.7226 209.905 59.9215 209.875 60.099 209.813C60.279 209.749 60.434 209.654 60.5642 209.529C60.6945 209.401 60.7951 209.242 60.8661 209.053L61.6758 209.28C61.5905 209.555 61.4473 209.796 61.2461 210.005C61.0448 210.211 60.7963 210.372 60.5003 210.488C60.2044 210.601 59.8718 210.658 59.5025 210.658ZM63.8739 207.263V210.545H63.0358V205.09H63.8455V205.942H63.9165C64.0444 205.665 64.2385 205.443 64.4989 205.275C64.7593 205.104 65.0955 205.019 65.5074 205.019C65.8767 205.019 66.1999 205.095 66.4769 205.246C66.7539 205.395 66.9693 205.623 67.1232 205.928C67.2771 206.231 67.354 206.615 67.354 207.079V210.545H66.516V207.135C66.516 206.707 66.4047 206.373 66.1821 206.134C65.9596 205.893 65.6542 205.772 65.266 205.772C64.9984 205.772 64.7593 205.83 64.5486 205.946C64.3403 206.062 64.1758 206.231 64.055 206.454C63.9343 206.676 63.8739 206.946 63.8739 207.263ZM71.2576 205.09V205.8H68.4309V205.09H71.2576ZM69.2548 203.783H70.0928V208.982C70.0928 209.219 70.1272 209.396 70.1958 209.515C70.2668 209.631 70.3568 209.709 70.4657 209.749C70.577 209.787 70.6942 209.806 70.8173 209.806C70.9096 209.806 70.9854 209.801 71.0445 209.792C71.1037 209.78 71.1511 209.77 71.1866 209.763L71.357 210.516C71.3002 210.537 71.2209 210.559 71.1191 210.58C71.0173 210.604 70.8883 210.616 70.732 210.616C70.4953 210.616 70.2633 210.565 70.036 210.463C69.8111 210.361 69.6241 210.206 69.4749 209.998C69.3282 209.789 69.2548 209.527 69.2548 209.209V203.783Z" fill="black"/>
<path d="M36.9304 42.7223H35.3366C35.2912 42.4609 35.2074 42.2294 35.0852 42.0277C34.963 41.8231 34.8111 41.6498 34.6292 41.5078C34.4474 41.3657 34.24 41.2592 34.0071 41.1882C33.777 41.1143 33.5284 41.0774 33.2613 41.0774C32.7869 41.0774 32.3664 41.1967 32 41.4353C31.6335 41.6711 31.3466 42.0177 31.1392 42.4751C30.9318 42.9297 30.8281 43.4851 30.8281 44.1413C30.8281 44.8089 30.9318 45.3714 31.1392 45.8288C31.3494 46.2834 31.6363 46.6271 32 46.8601C32.3664 47.0902 32.7855 47.2052 33.2571 47.2052C33.5184 47.2052 33.7628 47.1711 33.99 47.103C34.2201 47.0319 34.4261 46.9282 34.6079 46.7919C34.7926 46.6555 34.9474 46.4879 35.0724 46.289C35.2003 46.0902 35.2883 45.8629 35.3366 45.6072L36.9304 45.6157C36.8707 46.0305 36.7414 46.4197 36.5426 46.7834C36.3466 47.147 36.0895 47.468 35.7713 47.7464C35.4531 48.022 35.0809 48.2379 34.6548 48.3941C34.2287 48.5476 33.7557 48.6243 33.2358 48.6243C32.4687 48.6243 31.7841 48.4467 31.1818 48.0916C30.5795 47.7365 30.1051 47.2237 29.7585 46.5532C29.4119 45.8828 29.2386 45.0788 29.2386 44.1413C29.2386 43.201 29.4133 42.397 29.7628 41.7294C30.1122 41.0589 30.588 40.5461 31.1903 40.191C31.7926 39.8359 32.4744 39.6584 33.2358 39.6584C33.7216 39.6584 34.1733 39.7265 34.5909 39.8629C35.0085 39.9993 35.3807 40.1995 35.7074 40.4638C36.0341 40.7251 36.3025 41.0461 36.5128 41.4268C36.7258 41.8047 36.865 42.2365 36.9304 42.7223ZM39.8526 39.7777V48.5049H38.31V39.7777H39.8526ZM41.4389 48.5049V41.9595H42.9815V48.5049H41.4389ZM42.2145 41.0305C41.9701 41.0305 41.7599 40.9495 41.5838 40.7876C41.4076 40.6228 41.3196 40.4254 41.3196 40.1953C41.3196 39.9623 41.4076 39.7649 41.5838 39.603C41.7599 39.4382 41.9701 39.3558 42.2145 39.3558C42.4616 39.3558 42.6718 39.4382 42.8451 39.603C43.0213 39.7649 43.1093 39.9623 43.1093 40.1953C43.1093 40.4254 43.0213 40.6228 42.8451 40.7876C42.6718 40.9495 42.4616 41.0305 42.2145 41.0305ZM47.4655 48.6328C46.8093 48.6328 46.2425 48.4964 45.7652 48.2237C45.2908 47.9481 44.9258 47.5589 44.6701 47.0561C44.4144 46.5504 44.2865 45.9552 44.2865 45.2706C44.2865 44.5973 44.4144 44.0064 44.6701 43.4978C44.9286 42.9865 45.2894 42.5888 45.7525 42.3047C46.2155 42.0177 46.7596 41.8743 47.3846 41.8743C47.788 41.8743 48.1687 41.9396 48.5266 42.0703C48.8874 42.1981 49.2056 42.397 49.4812 42.6669C49.7596 42.9368 49.9783 43.2805 50.1374 43.6981C50.2965 44.1129 50.376 44.6072 50.376 45.1811V45.6541H45.011V44.6143H48.8973C48.8945 44.3189 48.8306 44.0561 48.7056 43.826C48.5806 43.593 48.4059 43.4098 48.1814 43.2763C47.9598 43.1427 47.7013 43.076 47.4059 43.076C47.0905 43.076 46.8135 43.1527 46.5749 43.3061C46.3363 43.4566 46.1502 43.6555 46.0167 43.9027C45.886 44.147 45.8192 44.4155 45.8164 44.7081V45.6157C45.8164 45.9964 45.886 46.3231 46.0252 46.5959C46.1644 46.8657 46.359 47.0731 46.609 47.218C46.859 47.3601 47.1516 47.4311 47.4868 47.4311C47.7113 47.4311 47.9144 47.3998 48.0962 47.3373C48.278 47.272 48.4357 47.1768 48.5692 47.0518C48.7027 46.9268 48.8036 46.772 48.8718 46.5873L50.3121 46.7493C50.2212 47.1299 50.0479 47.4623 49.7922 47.7464C49.5394 48.0277 49.2155 48.2464 48.8206 48.4027C48.4258 48.5561 47.974 48.6328 47.4655 48.6328ZM53.2237 44.6697V48.5049H51.6811V41.9595H53.1555V43.0717H53.2322C53.3828 42.7052 53.6228 42.414 53.9524 42.1981C54.2848 41.9822 54.6953 41.8743 55.1839 41.8743C55.6356 41.8743 56.0291 41.9709 56.3643 42.164C56.7024 42.3572 56.9638 42.637 57.1484 43.0035C57.3359 43.37 57.4282 43.8146 57.4254 44.3373V48.5049H55.8828V44.576C55.8828 44.1385 55.7691 43.7961 55.5419 43.549C55.3174 43.3018 55.0064 43.1782 54.6086 43.1782C54.3388 43.1782 54.0987 43.2379 53.8885 43.3572C53.6811 43.4737 53.5177 43.6427 53.3984 43.8643C53.2819 44.0859 53.2237 44.3544 53.2237 44.6697ZM62.262 41.9595V43.1527H58.4993V41.9595H62.262ZM59.4282 40.3913H60.9709V46.5362C60.9709 46.7436 61.0021 46.9027 61.0646 47.0135C61.1299 47.1214 61.2152 47.1953 61.3203 47.2351C61.4254 47.2748 61.5419 47.2947 61.6697 47.2947C61.7663 47.2947 61.8544 47.2876 61.9339 47.2734C62.0163 47.2592 62.0788 47.2464 62.1214 47.2351L62.3814 48.441C62.299 48.4694 62.1811 48.5007 62.0277 48.5348C61.8771 48.5689 61.6924 48.5888 61.4737 48.5944C61.0873 48.6058 60.7393 48.5476 60.4297 48.4197C60.12 48.289 59.8743 48.0873 59.6924 47.8146C59.5135 47.5419 59.4254 47.201 59.4282 46.7919V40.3913ZM66.2134 41.103V39.7777H73.1765V41.103H70.479V48.5049H68.9108V41.103H66.2134ZM74.4506 48.5049V41.9595H75.9932V48.5049H74.4506ZM75.2262 41.0305C74.9819 41.0305 74.7716 40.9495 74.5955 40.7876C74.4194 40.6228 74.3313 40.4254 74.3313 40.1953C74.3313 39.9623 74.4194 39.7649 74.5955 39.603C74.7716 39.4382 74.9819 39.3558 75.2262 39.3558C75.4733 39.3558 75.6836 39.4382 75.8569 39.603C76.033 39.7649 76.1211 39.9623 76.1211 40.1953C76.1211 40.4254 76.033 40.6228 75.8569 40.7876C75.6836 40.9495 75.4733 41.0305 75.2262 41.0305ZM80.4772 48.6328C79.821 48.6328 79.2542 48.4964 78.777 48.2237C78.3025 47.9481 77.9375 47.5589 77.6818 47.0561C77.4261 46.5504 77.2983 45.9552 77.2983 45.2706C77.2983 44.5973 77.4261 44.0064 77.6818 43.4978C77.9403 42.9865 78.3011 42.5888 78.7642 42.3047C79.2272 42.0177 79.7713 41.8743 80.3963 41.8743C80.7997 41.8743 81.1804 41.9396 81.5383 42.0703C81.8991 42.1981 82.2173 42.397 82.4929 42.6669C82.7713 42.9368 82.99 43.2805 83.1491 43.6981C83.3082 44.1129 83.3878 44.6072 83.3878 45.1811V45.6541H78.0227V44.6143H81.9091C81.9062 44.3189 81.8423 44.0561 81.7173 43.826C81.5923 43.593 81.4176 43.4098 81.1932 43.2763C80.9716 43.1427 80.713 43.076 80.4176 43.076C80.1022 43.076 79.8253 43.1527 79.5866 43.3061C79.348 43.4566 79.1619 43.6555 79.0284 43.9027C78.8977 44.147 78.8309 44.4155 78.8281 44.7081V45.6157C78.8281 45.9964 78.8977 46.3231 79.0369 46.5959C79.1761 46.8657 79.3707 47.0731 79.6207 47.218C79.8707 47.3601 80.1633 47.4311 80.4986 47.4311C80.723 47.4311 80.9261 47.3998 81.1079 47.3373C81.2897 47.272 81.4474 47.1768 81.5809 47.0518C81.7145 46.9268 81.8153 46.772 81.8835 46.5873L83.3238 46.7493C83.2329 47.1299 83.0596 47.4623 82.8039 47.7464C82.5511 48.0277 82.2272 48.2464 81.8324 48.4027C81.4375 48.5561 80.9858 48.6328 80.4772 48.6328ZM84.6928 48.5049V41.9595H86.1885V43.0504H86.2567C86.376 42.6726 86.5806 42.3814 86.8704 42.1768C87.163 41.9694 87.4968 41.8657 87.8718 41.8657C87.957 41.8657 88.0522 41.87 88.1573 41.8785C88.2652 41.8842 88.3547 41.8941 88.4258 41.9084V43.3274C88.3604 43.3047 88.2567 43.2848 88.1147 43.2677C87.9755 43.2478 87.8405 43.2379 87.7098 43.2379C87.4286 43.2379 87.1758 43.299 86.9513 43.4211C86.7297 43.5405 86.555 43.7066 86.4272 43.9197C86.2993 44.1328 86.2354 44.3785 86.2354 44.6569V48.5049H84.6928Z" fill="#0C8CE9" fill-opacity="0.6"/>
<path d="M428.858 210.545H426.613V203.272H428.957C429.662 203.272 430.266 203.417 430.768 203.709C431.27 203.997 431.655 204.413 431.922 204.955C432.19 205.495 432.323 206.141 432.323 206.894C432.323 207.652 432.188 208.304 431.919 208.851C431.649 209.395 431.256 209.814 430.74 210.108C430.224 210.399 429.596 210.545 428.858 210.545ZM427.494 209.763H428.801C429.402 209.763 429.9 209.647 430.296 209.415C430.691 209.183 430.986 208.853 431.18 208.425C431.374 207.996 431.471 207.486 431.471 206.894C431.471 206.307 431.375 205.801 431.184 205.378C430.992 204.952 430.705 204.625 430.324 204.398C429.943 204.168 429.468 204.053 428.9 204.053H427.494V209.763ZM435.292 210.672C434.947 210.672 434.633 210.607 434.351 210.477C434.069 210.345 433.846 210.154 433.68 209.905C433.514 209.654 433.431 209.351 433.431 208.996C433.431 208.684 433.493 208.43 433.616 208.236C433.739 208.04 433.904 207.886 434.11 207.775C434.316 207.663 434.543 207.581 434.791 207.526C435.042 207.469 435.295 207.424 435.548 207.391C435.879 207.349 436.148 207.317 436.354 207.295C436.562 207.272 436.714 207.233 436.809 207.178C436.906 207.124 436.954 207.029 436.954 206.894V206.866C436.954 206.515 436.858 206.243 436.666 206.049C436.477 205.855 436.189 205.758 435.804 205.758C435.403 205.758 435.09 205.845 434.862 206.02C434.635 206.196 434.475 206.383 434.383 206.582L433.588 206.297C433.73 205.966 433.919 205.708 434.156 205.523C434.395 205.336 434.655 205.206 434.937 205.133C435.221 205.057 435.501 205.019 435.775 205.019C435.95 205.019 436.152 205.04 436.379 205.083C436.608 205.123 436.83 205.207 437.043 205.335C437.258 205.463 437.437 205.656 437.579 205.914C437.721 206.172 437.792 206.518 437.792 206.951V210.545H436.954V209.806H436.912C436.855 209.924 436.76 210.051 436.627 210.186C436.495 210.321 436.318 210.436 436.098 210.53C435.878 210.625 435.609 210.672 435.292 210.672ZM435.42 209.92C435.751 209.92 436.031 209.854 436.258 209.724C436.488 209.594 436.661 209.426 436.777 209.22C436.895 209.014 436.954 208.797 436.954 208.57V207.803C436.919 207.846 436.84 207.885 436.72 207.92C436.601 207.953 436.464 207.983 436.308 208.009C436.154 208.033 436.004 208.054 435.857 208.073C435.712 208.09 435.595 208.104 435.505 208.116C435.287 208.144 435.084 208.19 434.894 208.254C434.707 208.316 434.556 208.409 434.44 208.535C434.326 208.658 434.269 208.826 434.269 209.039C434.269 209.33 434.377 209.55 434.593 209.699C434.81 209.846 435.086 209.92 435.42 209.92ZM441.694 205.09V205.8H438.867V205.09H441.694ZM439.691 203.783H440.529V208.982C440.529 209.219 440.564 209.396 440.632 209.515C440.703 209.631 440.793 209.709 440.902 209.749C441.013 209.787 441.131 209.806 441.254 209.806C441.346 209.806 441.422 209.801 441.481 209.792C441.54 209.78 441.587 209.77 441.623 209.763L441.793 210.516C441.737 210.537 441.657 210.559 441.556 210.58C441.454 210.604 441.325 210.616 441.168 210.616C440.932 210.616 440.7 210.565 440.472 210.463C440.247 210.361 440.06 210.206 439.911 209.998C439.765 209.789 439.691 209.527 439.691 209.209V203.783ZM444.56 210.672C444.214 210.672 443.9 210.607 443.619 210.477C443.337 210.345 443.113 210.154 442.948 209.905C442.782 209.654 442.699 209.351 442.699 208.996C442.699 208.684 442.761 208.43 442.884 208.236C443.007 208.04 443.171 207.886 443.377 207.775C443.583 207.663 443.81 207.581 444.059 207.526C444.31 207.469 444.562 207.424 444.815 207.391C445.147 207.349 445.416 207.317 445.622 207.295C445.83 207.272 445.981 207.233 446.076 207.178C446.173 207.124 446.222 207.029 446.222 206.894V206.866C446.222 206.515 446.126 206.243 445.934 206.049C445.745 205.855 445.457 205.758 445.071 205.758C444.671 205.758 444.357 205.845 444.13 206.02C443.903 206.196 443.743 206.383 443.651 206.582L442.855 206.297C442.997 205.966 443.187 205.708 443.423 205.523C443.663 205.336 443.923 205.206 444.205 205.133C444.489 205.057 444.768 205.019 445.043 205.019C445.218 205.019 445.419 205.04 445.646 205.083C445.876 205.123 446.097 205.207 446.31 205.335C446.526 205.463 446.705 205.656 446.847 205.914C446.989 206.172 447.06 206.518 447.06 206.951V210.545H446.222V209.806H446.179C446.122 209.924 446.028 210.051 445.895 210.186C445.762 210.321 445.586 210.436 445.366 210.53C445.146 210.625 444.877 210.672 444.56 210.672ZM444.688 209.92C445.019 209.92 445.298 209.854 445.526 209.724C445.755 209.594 445.928 209.426 446.044 209.22C446.163 209.014 446.222 208.797 446.222 208.57V207.803C446.186 207.846 446.108 207.885 445.987 207.92C445.869 207.953 445.732 207.983 445.575 208.009C445.422 208.033 445.271 208.054 445.124 208.073C444.98 208.09 444.863 208.104 444.773 208.116C444.555 208.144 444.351 208.19 444.162 208.254C443.975 208.316 443.823 208.409 443.707 208.535C443.594 208.658 443.537 208.826 443.537 209.039C443.537 209.33 443.645 209.55 443.86 209.699C444.078 209.846 444.354 209.92 444.688 209.92ZM448.703 210.545V203.272H449.541V205.957H449.612C449.674 205.862 449.759 205.741 449.868 205.594C449.979 205.445 450.138 205.313 450.344 205.197C450.552 205.078 450.834 205.019 451.189 205.019C451.648 205.019 452.053 205.134 452.403 205.363C452.754 205.593 453.027 205.919 453.224 206.34C453.42 206.761 453.518 207.259 453.518 207.832C453.518 208.409 453.42 208.91 453.224 209.334C453.027 209.755 452.755 210.082 452.407 210.314C452.059 210.543 451.658 210.658 451.203 210.658C450.853 210.658 450.572 210.6 450.361 210.484C450.151 210.366 449.989 210.232 449.875 210.083C449.761 209.931 449.674 209.806 449.612 209.707H449.513V210.545H448.703ZM449.527 207.817C449.527 208.229 449.587 208.593 449.708 208.907C449.829 209.22 450.005 209.465 450.237 209.643C450.469 209.818 450.753 209.905 451.089 209.905C451.44 209.905 451.732 209.813 451.967 209.628C452.203 209.441 452.381 209.19 452.499 208.876C452.62 208.558 452.68 208.206 452.68 207.817C452.68 207.434 452.621 207.088 452.503 206.78C452.387 206.47 452.21 206.225 451.974 206.045C451.739 205.863 451.445 205.772 451.089 205.772C450.749 205.772 450.462 205.858 450.23 206.031C449.998 206.202 449.823 206.441 449.704 206.748C449.586 207.054 449.527 207.41 449.527 207.817ZM456.405 210.672C456.06 210.672 455.746 210.607 455.464 210.477C455.183 210.345 454.959 210.154 454.793 209.905C454.628 209.654 454.545 209.351 454.545 208.996C454.545 208.684 454.606 208.43 454.729 208.236C454.852 208.04 455.017 207.886 455.223 207.775C455.429 207.663 455.656 207.581 455.905 207.526C456.156 207.469 456.408 207.424 456.661 207.391C456.993 207.349 457.261 207.317 457.467 207.295C457.676 207.272 457.827 207.233 457.922 207.178C458.019 207.124 458.067 207.029 458.067 206.894V206.866C458.067 206.515 457.972 206.243 457.78 206.049C457.59 205.855 457.303 205.758 456.917 205.758C456.517 205.758 456.203 205.845 455.976 206.02C455.749 206.196 455.589 206.383 455.496 206.582L454.701 206.297C454.843 205.966 455.032 205.708 455.269 205.523C455.508 205.336 455.769 205.206 456.05 205.133C456.334 205.057 456.614 205.019 456.888 205.019C457.064 205.019 457.265 205.04 457.492 205.083C457.722 205.123 457.943 205.207 458.156 205.335C458.372 205.463 458.55 205.656 458.692 205.914C458.834 206.172 458.905 206.518 458.905 206.951V210.545H458.067V209.806H458.025C457.968 209.924 457.873 210.051 457.741 210.186C457.608 210.321 457.432 210.436 457.212 210.53C456.991 210.625 456.723 210.672 456.405 210.672ZM456.533 209.92C456.865 209.92 457.144 209.854 457.371 209.724C457.601 209.594 457.774 209.426 457.89 209.22C458.008 209.014 458.067 208.797 458.067 208.57V207.803C458.032 207.846 457.954 207.885 457.833 207.92C457.715 207.953 457.577 207.983 457.421 208.009C457.267 208.033 457.117 208.054 456.97 208.073C456.826 208.09 456.708 208.104 456.619 208.116C456.401 208.144 456.197 208.19 456.008 208.254C455.821 208.316 455.669 208.409 455.553 208.535C455.44 208.658 455.383 208.826 455.383 209.039C455.383 209.33 455.49 209.55 455.706 209.699C455.924 209.846 456.199 209.92 456.533 209.92ZM464.299 206.312L463.546 206.525C463.499 206.399 463.429 206.277 463.336 206.159C463.246 206.038 463.123 205.939 462.967 205.861C462.811 205.782 462.611 205.743 462.367 205.743C462.033 205.743 461.755 205.82 461.532 205.974C461.312 206.126 461.202 206.319 461.202 206.553C461.202 206.761 461.278 206.926 461.429 207.047C461.581 207.167 461.818 207.268 462.14 207.349L462.949 207.547C463.437 207.666 463.8 207.847 464.04 208.091C464.279 208.332 464.398 208.644 464.398 209.025C464.398 209.337 464.308 209.617 464.128 209.863C463.951 210.109 463.702 210.303 463.383 210.445C463.063 210.587 462.691 210.658 462.268 210.658C461.711 210.658 461.251 210.537 460.886 210.296C460.522 210.055 460.291 209.702 460.194 209.238L460.989 209.039C461.065 209.332 461.208 209.553 461.419 209.699C461.632 209.846 461.91 209.92 462.253 209.92C462.644 209.92 462.954 209.837 463.184 209.671C463.416 209.503 463.532 209.302 463.532 209.067C463.532 208.878 463.465 208.719 463.333 208.591C463.2 208.461 462.997 208.364 462.722 208.3L461.813 208.087C461.313 207.969 460.946 207.785 460.712 207.537C460.48 207.286 460.364 206.972 460.364 206.596C460.364 206.288 460.451 206.016 460.623 205.779C460.799 205.542 461.036 205.356 461.337 205.221C461.64 205.086 461.983 205.019 462.367 205.019C462.907 205.019 463.33 205.137 463.638 205.374C463.948 205.611 464.169 205.923 464.299 206.312ZM467.947 210.658C467.421 210.658 466.968 210.542 466.587 210.31C466.208 210.076 465.915 209.749 465.709 209.33C465.506 208.909 465.404 208.419 465.404 207.86C465.404 207.301 465.506 206.809 465.709 206.383C465.915 205.954 466.202 205.62 466.569 205.381C466.938 205.14 467.369 205.019 467.861 205.019C468.146 205.019 468.426 205.066 468.703 205.161C468.98 205.256 469.232 205.41 469.459 205.623C469.687 205.833 469.868 206.113 470.003 206.461C470.138 206.809 470.205 207.237 470.205 207.746V208.101H466.001V207.377H469.353C469.353 207.069 469.291 206.795 469.168 206.553C469.048 206.312 468.875 206.121 468.65 205.981C468.427 205.842 468.164 205.772 467.861 205.772C467.528 205.772 467.239 205.855 466.995 206.02C466.753 206.184 466.568 206.397 466.437 206.66C466.307 206.922 466.242 207.204 466.242 207.505V207.988C466.242 208.4 466.313 208.749 466.455 209.035C466.6 209.319 466.8 209.536 467.055 209.685C467.311 209.832 467.608 209.905 467.947 209.905C468.167 209.905 468.366 209.875 468.543 209.813C468.723 209.749 468.878 209.654 469.008 209.529C469.139 209.401 469.239 209.242 469.31 209.053L470.12 209.28C470.035 209.555 469.891 209.796 469.69 210.005C469.489 210.211 469.24 210.372 468.945 210.488C468.649 210.601 468.316 210.658 467.947 210.658Z" fill="black"/>
<path fill-rule="evenodd" clip-rule="evenodd" d="M414.188 104.014C414.188 102.753 415.022 101.456 416.76 100.195C418.486 98.9421 421.017 97.793 424.189 96.8194C430.527 94.8741 439.313 93.6634 449.039 93.6634C458.766 93.6634 467.552 94.8741 473.89 96.8194C477.062 97.793 479.592 98.9421 481.319 100.195C483.057 101.456 483.891 102.753 483.891 104.014C483.891 105.275 483.057 106.572 481.319 107.833C479.592 109.085 477.062 110.235 473.89 111.208C467.552 113.153 458.766 114.364 449.039 114.364C439.313 114.364 430.527 113.153 424.189 111.208C421.017 110.235 418.486 109.085 416.76 107.833C415.022 106.572 414.188 105.275 414.188 104.014ZM416.173 108.642C415.364 108.055 414.69 107.426 414.188 106.757L414.188 170.925C414.188 172.186 415.022 173.482 416.76 174.743C418.486 175.996 421.017 177.145 424.189 178.119C430.527 180.064 439.313 181.275 449.039 181.275C458.766 181.275 467.552 180.064 473.89 178.119C477.062 177.145 479.592 175.996 481.319 174.743C482.924 173.579 483.758 172.383 483.876 171.214V106.776C483.376 107.438 482.707 108.061 481.906 108.642C480.055 109.985 477.409 111.174 474.183 112.164C467.727 114.146 458.837 115.364 449.039 115.364C439.242 115.364 430.352 114.146 423.896 112.164C420.67 111.174 418.024 109.985 416.173 108.642ZM484.861 104.495C484.881 104.336 484.891 104.176 484.891 104.014C484.891 102.278 483.746 100.721 481.906 99.3856C480.055 98.0423 477.409 96.8533 474.183 95.8634C467.727 93.8816 458.837 92.6634 449.039 92.6634C439.242 92.6634 430.352 93.8816 423.896 95.8634C420.67 96.8533 418.024 98.0423 416.173 99.3856C414.546 100.566 413.464 101.919 413.234 103.416H413.188V104.014V170.925V171.406H413.218C413.408 172.949 414.504 174.342 416.173 175.553C418.024 176.896 420.67 178.085 423.896 179.075C430.352 181.057 439.242 182.275 449.039 182.275C458.837 182.275 467.727 181.057 474.183 179.075C477.409 178.085 480.055 176.896 481.906 175.553C483.575 174.342 484.671 172.949 484.861 171.406H484.876V171.263C484.886 171.151 484.891 171.038 484.891 170.925H484.876V104.495H484.861Z" fill="#0C8CE9"/>
<path d="M425.574 48.505H422.617V39.7777H425.634C426.5 39.7777 427.245 39.9524 427.867 40.3018C428.492 40.6484 428.972 41.147 429.307 41.7976C429.642 42.4481 429.81 43.2265 429.81 44.1328C429.81 45.0419 429.641 45.8231 429.303 46.4765C428.968 47.13 428.483 47.6314 427.85 47.9808C427.219 48.3302 426.461 48.505 425.574 48.505ZM424.198 47.1371H425.497C426.105 47.1371 426.612 47.0263 427.019 46.8047C427.425 46.5802 427.73 46.2464 427.935 45.8033C428.139 45.3572 428.242 44.8004 428.242 44.1328C428.242 43.4652 428.139 42.9112 427.935 42.4709C427.73 42.0277 427.428 41.6967 427.027 41.478C426.63 41.2564 426.135 41.1456 425.544 41.1456H424.198V47.1371ZM433.127 48.6371C432.713 48.6371 432.339 48.5632 432.007 48.4155C431.677 48.2649 431.416 48.0433 431.223 47.7507C431.032 47.4581 430.937 47.0973 430.937 46.6683C430.937 46.299 431.005 45.9936 431.142 45.7521C431.278 45.5106 431.464 45.3175 431.7 45.1726C431.936 45.0277 432.201 44.9183 432.497 44.8444C432.795 44.7677 433.103 44.7123 433.421 44.6783C433.805 44.6385 434.116 44.603 434.355 44.5717C434.593 44.5376 434.767 44.4865 434.875 44.4183C434.985 44.3473 435.041 44.2379 435.041 44.0902V44.0646C435.041 43.7436 434.946 43.495 434.755 43.3189C434.565 43.1427 434.291 43.0547 433.933 43.0547C433.555 43.0547 433.255 43.1371 433.034 43.3018C432.815 43.4666 432.667 43.6612 432.59 43.8856L431.15 43.6811C431.264 43.2834 431.451 42.951 431.713 42.6839C431.974 42.414 432.294 42.2123 432.671 42.0788C433.049 41.9425 433.467 41.8743 433.924 41.8743C434.24 41.8743 434.554 41.9112 434.866 41.9851C435.179 42.0589 435.464 42.1811 435.723 42.3515C435.981 42.5192 436.188 42.7479 436.345 43.0376C436.504 43.3274 436.583 43.6896 436.583 44.1243V48.505H435.1V47.6058H435.049C434.956 47.7876 434.823 47.9581 434.653 48.1172C434.485 48.2734 434.274 48.3998 434.018 48.4964C433.765 48.5902 433.468 48.6371 433.127 48.6371ZM433.528 47.5035C433.838 47.5035 434.106 47.4425 434.333 47.3203C434.561 47.1953 434.735 47.0305 434.858 46.826C434.983 46.6214 435.045 46.3984 435.045 46.1569V45.3856C434.997 45.4254 434.914 45.4623 434.798 45.4964C434.684 45.5305 434.556 45.5604 434.414 45.5859C434.272 45.6115 434.132 45.6342 433.992 45.6541C433.853 45.674 433.733 45.691 433.63 45.7052C433.4 45.7365 433.194 45.7876 433.012 45.8587C432.831 45.9297 432.687 46.0291 432.582 46.1569C432.477 46.2819 432.424 46.4439 432.424 46.6427C432.424 46.9268 432.528 47.1413 432.735 47.2862C432.943 47.4311 433.207 47.5035 433.528 47.5035ZM441.403 41.9595V43.1527H437.64V41.9595H441.403ZM438.569 40.3913H440.112V46.5362C440.112 46.7436 440.143 46.9027 440.206 47.0135C440.271 47.1214 440.356 47.1953 440.461 47.2351C440.566 47.2748 440.683 47.2947 440.811 47.2947C440.907 47.2947 440.995 47.2876 441.075 47.2734C441.157 47.2592 441.22 47.2464 441.262 47.2351L441.522 48.441C441.44 48.4694 441.322 48.5007 441.169 48.5348C441.018 48.5689 440.833 48.5888 440.615 48.5944C440.228 48.6058 439.88 48.5476 439.571 48.4197C439.261 48.2891 439.015 48.0873 438.833 47.8146C438.654 47.5419 438.566 47.201 438.569 46.7919V40.3913ZM444.577 48.6371C444.162 48.6371 443.788 48.5632 443.456 48.4155C443.126 48.2649 442.865 48.0433 442.672 47.7507C442.481 47.4581 442.386 47.0973 442.386 46.6683C442.386 46.299 442.454 45.9936 442.591 45.7521C442.727 45.5106 442.913 45.3175 443.149 45.1726C443.385 45.0277 443.65 44.9183 443.946 44.8444C444.244 44.7677 444.552 44.7123 444.871 44.6783C445.254 44.6385 445.565 44.603 445.804 44.5717C446.043 44.5376 446.216 44.4865 446.324 44.4183C446.435 44.3473 446.49 44.2379 446.49 44.0902V44.0646C446.49 43.7436 446.395 43.495 446.204 43.3189C446.014 43.1427 445.74 43.0547 445.382 43.0547C445.004 43.0547 444.704 43.1371 444.483 43.3018C444.264 43.4666 444.116 43.6612 444.04 43.8856L442.599 43.6811C442.713 43.2834 442.9 42.951 443.162 42.6839C443.423 42.414 443.743 42.2123 444.121 42.0788C444.499 41.9425 444.916 41.8743 445.374 41.8743C445.689 41.8743 446.003 41.9112 446.315 41.9851C446.628 42.0589 446.913 42.1811 447.172 42.3515C447.43 42.5192 447.638 42.7479 447.794 43.0376C447.953 43.3274 448.033 43.6896 448.033 44.1243V48.505H446.55V47.6058H446.499C446.405 47.7876 446.273 47.9581 446.102 48.1172C445.935 48.2734 445.723 48.3998 445.467 48.4964C445.214 48.5902 444.918 48.6371 444.577 48.6371ZM444.977 47.5035C445.287 47.5035 445.555 47.4425 445.783 47.3203C446.01 47.1953 446.185 47.0305 446.307 46.826C446.432 46.6214 446.494 46.3984 446.494 46.1569V45.3856C446.446 45.4254 446.364 45.4623 446.247 45.4964C446.133 45.5305 446.006 45.5604 445.864 45.5859C445.722 45.6115 445.581 45.6342 445.442 45.6541C445.302 45.674 445.182 45.691 445.079 45.7052C444.849 45.7365 444.643 45.7876 444.462 45.8587C444.28 45.9297 444.136 46.0291 444.031 46.1569C443.926 46.2819 443.874 46.4439 443.874 46.6427C443.874 46.9268 443.977 47.1413 444.185 47.2862C444.392 47.4311 444.656 47.5035 444.977 47.5035ZM452.245 41.103V39.7777H459.208V41.103H456.511V48.505H454.942V41.103H452.245ZM460.482 48.505V41.9595H462.025V48.505H460.482ZM461.258 41.0305C461.013 41.0305 460.803 40.9496 460.627 40.7876C460.451 40.6229 460.363 40.4254 460.363 40.1953C460.363 39.9623 460.451 39.7649 460.627 39.603C460.803 39.4382 461.013 39.3558 461.258 39.3558C461.505 39.3558 461.715 39.4382 461.888 39.603C462.065 39.7649 462.153 39.9623 462.153 40.1953C462.153 40.4254 462.065 40.6229 461.888 40.7876C461.715 40.9496 461.505 41.0305 461.258 41.0305ZM466.509 48.6328C465.853 48.6328 465.286 48.4964 464.809 48.2237C464.334 47.9481 463.969 47.5589 463.713 47.0561C463.458 46.5504 463.33 45.9552 463.33 45.2706C463.33 44.5973 463.458 44.0064 463.713 43.4979C463.972 42.9865 464.333 42.5888 464.796 42.3047C465.259 42.0177 465.803 41.8743 466.428 41.8743C466.831 41.8743 467.212 41.9396 467.57 42.0703C467.931 42.1981 468.249 42.397 468.524 42.6669C468.803 42.9368 469.022 43.2805 469.181 43.6981C469.34 44.1129 469.419 44.6072 469.419 45.1811V45.6541H464.054V44.6143H467.941C467.938 44.3189 467.874 44.0561 467.749 43.826C467.624 43.593 467.449 43.4098 467.225 43.2763C467.003 43.1427 466.745 43.076 466.449 43.076C466.134 43.076 465.857 43.1527 465.618 43.3061C465.38 43.4567 465.193 43.6555 465.06 43.9027C464.929 44.147 464.862 44.4155 464.86 44.7081V45.6158C464.86 45.9964 464.929 46.3231 465.068 46.5959C465.208 46.8658 465.402 47.0731 465.652 47.218C465.902 47.3601 466.195 47.4311 466.53 47.4311C466.755 47.4311 466.958 47.3998 467.139 47.3373C467.321 47.272 467.479 47.1768 467.612 47.0518C467.746 46.9268 467.847 46.772 467.915 46.5873L469.355 46.7493C469.264 47.13 469.091 47.4623 468.836 47.7464C468.583 48.0277 468.259 48.2464 467.864 48.4027C467.469 48.5561 467.017 48.6328 466.509 48.6328ZM470.724 48.505V41.9595H472.22V43.0504H472.288C472.408 42.6726 472.612 42.3814 472.902 42.1768C473.195 41.9694 473.528 41.8658 473.903 41.8658C473.989 41.8658 474.084 41.87 474.189 41.8785C474.297 41.8842 474.386 41.8942 474.457 41.9084V43.3274C474.392 43.3047 474.288 43.2848 474.146 43.2677C474.007 43.2479 473.872 43.2379 473.741 43.2379C473.46 43.2379 473.207 43.299 472.983 43.4212C472.761 43.5405 472.587 43.7067 472.459 43.9197C472.331 44.1328 472.267 44.3785 472.267 44.6569V48.505H470.724Z" fill="#0C8CE9" fill-opacity="0.6"/>
<path d="M241.167 205.09C241.124 204.73 240.951 204.451 240.648 204.252C240.345 204.053 239.974 203.954 239.533 203.954C239.211 203.954 238.93 204.006 238.688 204.11C238.449 204.214 238.262 204.357 238.127 204.54C237.994 204.722 237.928 204.929 237.928 205.161C237.928 205.355 237.974 205.522 238.067 205.662C238.161 205.799 238.282 205.914 238.429 206.006C238.576 206.096 238.73 206.171 238.891 206.23C239.052 206.287 239.2 206.333 239.334 206.368L240.073 206.567C240.262 206.617 240.473 206.686 240.705 206.773C240.94 206.861 241.163 206.98 241.376 207.132C241.592 207.281 241.769 207.473 241.909 207.707C242.049 207.942 242.119 208.229 242.119 208.57C242.119 208.963 242.016 209.318 241.81 209.635C241.606 209.953 241.308 210.205 240.915 210.392C240.524 210.579 240.049 210.672 239.491 210.672C238.97 210.672 238.519 210.588 238.138 210.42C237.759 210.252 237.461 210.018 237.243 209.717C237.027 209.416 236.905 209.067 236.877 208.67H237.786C237.81 208.944 237.902 209.171 238.063 209.351C238.226 209.529 238.432 209.662 238.681 209.749C238.932 209.834 239.202 209.877 239.491 209.877C239.827 209.877 240.129 209.822 240.396 209.714C240.664 209.602 240.876 209.448 241.032 209.252C241.188 209.053 241.266 208.821 241.266 208.556C241.266 208.314 241.199 208.118 241.064 207.966C240.929 207.815 240.751 207.692 240.531 207.597C240.311 207.502 240.073 207.42 239.817 207.349L238.923 207.093C238.354 206.929 237.905 206.696 237.573 206.393C237.242 206.09 237.076 205.694 237.076 205.204C237.076 204.796 237.186 204.441 237.406 204.138C237.629 203.833 237.927 203.596 238.301 203.428C238.677 203.258 239.098 203.172 239.562 203.172C240.03 203.172 240.447 203.256 240.812 203.425C241.176 203.59 241.465 203.818 241.678 204.106C241.894 204.395 242.007 204.723 242.019 205.09H241.167ZM245.74 210.658C245.214 210.658 244.761 210.542 244.38 210.31C244.001 210.076 243.709 209.749 243.503 209.33C243.299 208.909 243.197 208.419 243.197 207.86C243.197 207.301 243.299 206.809 243.503 206.383C243.709 205.954 243.995 205.62 244.362 205.381C244.731 205.14 245.162 205.019 245.655 205.019C245.939 205.019 246.219 205.066 246.496 205.161C246.773 205.256 247.025 205.41 247.253 205.623C247.48 205.833 247.661 206.113 247.796 206.461C247.931 206.809 247.998 207.237 247.998 207.746V208.101H243.794V207.377H247.146C247.146 207.069 247.085 206.795 246.961 206.553C246.841 206.312 246.668 206.121 246.443 205.981C246.22 205.842 245.958 205.772 245.655 205.772C245.321 205.772 245.032 205.855 244.788 206.02C244.547 206.184 244.361 206.397 244.231 206.66C244.1 206.922 244.035 207.204 244.035 207.505V207.988C244.035 208.4 244.106 208.749 244.248 209.035C244.393 209.319 244.593 209.536 244.848 209.685C245.104 209.832 245.401 209.905 245.74 209.905C245.96 209.905 246.159 209.875 246.336 209.813C246.516 209.749 246.671 209.654 246.802 209.529C246.932 209.401 247.032 209.242 247.103 209.053L247.913 209.28C247.828 209.555 247.685 209.796 247.483 210.005C247.282 210.211 247.034 210.372 246.738 210.488C246.442 210.601 246.109 210.658 245.74 210.658ZM249.273 210.545V205.09H250.083V205.914H250.14C250.239 205.644 250.419 205.425 250.679 205.257C250.94 205.089 251.233 205.005 251.56 205.005C251.622 205.005 251.699 205.006 251.791 205.008C251.883 205.011 251.953 205.014 252 205.019V205.871C251.972 205.864 251.907 205.854 251.805 205.839C251.706 205.823 251.6 205.814 251.489 205.814C251.224 205.814 250.987 205.87 250.779 205.981C250.573 206.09 250.41 206.242 250.289 206.436C250.17 206.628 250.111 206.847 250.111 207.093V210.545H249.273ZM257.62 205.09L255.603 210.545H254.751L252.734 205.09H253.643L255.149 209.437H255.205L256.711 205.09H257.62ZM260.818 210.658C260.292 210.658 259.839 210.542 259.458 210.31C259.079 210.076 258.787 209.749 258.581 209.33C258.377 208.909 258.275 208.419 258.275 207.86C258.275 207.301 258.377 206.809 258.581 206.383C258.787 205.954 259.073 205.62 259.44 205.381C259.809 205.14 260.24 205.019 260.733 205.019C261.017 205.019 261.297 205.066 261.574 205.161C261.851 205.256 262.103 205.41 262.331 205.623C262.558 205.833 262.739 206.113 262.874 206.461C263.009 206.809 263.076 207.237 263.076 207.746V208.101H258.872V207.377H262.224C262.224 207.069 262.163 206.795 262.04 206.553C261.919 206.312 261.746 206.121 261.521 205.981C261.299 205.842 261.036 205.772 260.733 205.772C260.399 205.772 260.11 205.855 259.866 206.02C259.625 206.184 259.439 206.397 259.309 206.66C259.178 206.922 259.113 207.204 259.113 207.505V207.988C259.113 208.4 259.184 208.749 259.326 209.035C259.471 209.319 259.671 209.536 259.927 209.685C260.182 209.832 260.479 209.905 260.818 209.905C261.038 209.905 261.237 209.875 261.415 209.813C261.594 209.749 261.75 209.654 261.88 209.529C262.01 209.401 262.111 209.242 262.182 209.053L262.991 209.28C262.906 209.555 262.763 209.796 262.562 210.005C262.36 210.211 262.112 210.372 261.816 210.488C261.52 210.601 261.187 210.658 260.818 210.658ZM264.351 210.545V205.09H265.161V205.914H265.218C265.317 205.644 265.497 205.425 265.758 205.257C266.018 205.089 266.312 205.005 266.638 205.005C266.7 205.005 266.777 205.006 266.869 205.008C266.961 205.011 267.031 205.014 267.079 205.019V205.871C267.05 205.864 266.985 205.854 266.883 205.839C266.784 205.823 266.678 205.814 266.567 205.814C266.302 205.814 266.065 205.87 265.857 205.981C265.651 206.09 265.488 206.242 265.367 206.436C265.249 206.628 265.189 206.847 265.189 207.093V210.545H264.351Z" fill="black"/>
<path d="M207.647 49H205.959L209.032 40.2727H210.983L214.06 49H212.372L210.041 42.0625H209.973L207.647 49ZM207.702 45.5781H212.304V46.848H207.702V45.5781ZM215.141 51.4545V42.4545H216.658V43.5369H216.748C216.827 43.3778 216.94 43.2088 217.084 43.0298C217.229 42.848 217.425 42.6932 217.673 42.5653C217.92 42.4347 218.235 42.3693 218.619 42.3693C219.124 42.3693 219.58 42.4986 219.986 42.7571C220.396 43.0128 220.719 43.392 220.958 43.8949C221.199 44.3949 221.32 45.0085 221.32 45.7358C221.32 46.4545 221.202 47.0653 220.967 47.5682C220.731 48.071 220.41 48.4545 220.003 48.7188C219.597 48.983 219.137 49.1151 218.623 49.1151C218.248 49.1151 217.937 49.0526 217.69 48.9276C217.442 48.8026 217.244 48.652 217.093 48.4759C216.945 48.2969 216.83 48.1278 216.748 47.9688H216.684V51.4545H215.141ZM216.654 45.7273C216.654 46.1506 216.714 46.5213 216.833 46.8395C216.955 47.1577 217.13 47.4062 217.357 47.5852C217.587 47.7614 217.866 47.8494 218.192 47.8494C218.533 47.8494 218.819 47.7585 219.049 47.5767C219.279 47.392 219.452 47.1406 219.569 46.8224C219.688 46.5014 219.748 46.1364 219.748 45.7273C219.748 45.321 219.69 44.9602 219.573 44.6449C219.457 44.3295 219.283 44.0824 219.053 43.9034C218.823 43.7244 218.536 43.6349 218.192 43.6349C217.863 43.6349 217.583 43.7216 217.353 43.8949C217.123 44.0682 216.948 44.3111 216.829 44.6236C216.712 44.9361 216.654 45.304 216.654 45.7273ZM222.641 51.4545V42.4545H224.158V43.5369H224.248C224.327 43.3778 224.44 43.2088 224.584 43.0298C224.729 42.848 224.925 42.6932 225.173 42.5653C225.42 42.4347 225.735 42.3693 226.119 42.3693C226.624 42.3693 227.08 42.4986 227.486 42.7571C227.896 43.0128 228.219 43.392 228.458 43.8949C228.699 44.3949 228.82 45.0085 228.82 45.7358C228.82 46.4545 228.702 47.0653 228.467 47.5682C228.231 48.071 227.91 48.4545 227.503 48.7188C227.097 48.983 226.637 49.1151 226.123 49.1151C225.748 49.1151 225.437 49.0526 225.19 48.9276C224.942 48.8026 224.744 48.652 224.593 48.4759C224.445 48.2969 224.33 48.1278 224.248 47.9688H224.184V51.4545H222.641ZM224.154 45.7273C224.154 46.1506 224.214 46.5213 224.333 46.8395C224.455 47.1577 224.63 47.4062 224.857 47.5852C225.087 47.7614 225.366 47.8494 225.692 47.8494C226.033 47.8494 226.319 47.7585 226.549 47.5767C226.779 47.392 226.952 47.1406 227.069 46.8224C227.188 46.5014 227.248 46.1364 227.248 45.7273C227.248 45.321 227.19 44.9602 227.073 44.6449C226.957 44.3295 226.783 44.0824 226.553 43.9034C226.323 43.7244 226.036 43.6349 225.692 43.6349C225.363 43.6349 225.083 43.7216 224.853 43.8949C224.623 44.0682 224.448 44.3111 224.329 44.6236C224.212 44.9361 224.154 45.304 224.154 45.7273ZM231.684 40.2727V49H230.141V40.2727H231.684ZM233.27 49V42.4545H234.813V49H233.27ZM234.046 41.5256C233.801 41.5256 233.591 41.4446 233.415 41.2827C233.239 41.1179 233.151 40.9205 233.151 40.6903C233.151 40.4574 233.239 40.2599 233.415 40.098C233.591 39.9332 233.801 39.8509 234.046 39.8509C234.293 39.8509 234.503 39.9332 234.676 40.098C234.853 40.2599 234.941 40.4574 234.941 40.6903C234.941 40.9205 234.853 41.1179 234.676 41.2827C234.503 41.4446 234.293 41.5256 234.046 41.5256ZM239.254 49.1278C238.601 49.1278 238.04 48.9844 237.571 48.6974C237.105 48.4105 236.746 48.0142 236.493 47.5085C236.243 47 236.118 46.4148 236.118 45.7528C236.118 45.0881 236.246 44.5014 236.501 43.9929C236.757 43.4815 237.118 43.0838 237.584 42.7997C238.052 42.5128 238.606 42.3693 239.246 42.3693C239.777 42.3693 240.247 42.4673 240.656 42.6634C241.068 42.8565 241.396 43.1307 241.641 43.4858C241.885 43.8381 242.024 44.25 242.058 44.7216H240.584C240.524 44.4062 240.382 44.1435 240.158 43.9332C239.936 43.7202 239.639 43.6136 239.267 43.6136C238.952 43.6136 238.675 43.6989 238.436 43.8693C238.197 44.0369 238.011 44.2784 237.878 44.5938C237.747 44.9091 237.682 45.2869 237.682 45.7273C237.682 46.1733 237.747 46.5568 237.878 46.8778C238.008 47.196 238.192 47.4418 238.427 47.6151C238.666 47.7855 238.946 47.8707 239.267 47.8707C239.494 47.8707 239.697 47.8281 239.876 47.7429C240.058 47.6548 240.21 47.5284 240.332 47.3636C240.454 47.1989 240.538 46.9986 240.584 46.7628H242.058C242.021 47.2259 241.885 47.6364 241.649 47.9943C241.413 48.3494 241.092 48.6278 240.686 48.8295C240.28 49.0284 239.802 49.1278 239.254 49.1278ZM245.208 49.1321C244.794 49.1321 244.42 49.0582 244.088 48.9105C243.758 48.7599 243.497 48.5384 243.304 48.2457C243.113 47.9531 243.018 47.5923 243.018 47.1634C243.018 46.794 243.086 46.4886 243.223 46.2472C243.359 46.0057 243.545 45.8125 243.781 45.6676C244.017 45.5227 244.282 45.4134 244.578 45.3395C244.876 45.2628 245.184 45.2074 245.502 45.1733C245.886 45.1335 246.197 45.098 246.436 45.0668C246.674 45.0327 246.848 44.9815 246.956 44.9134C247.066 44.8423 247.122 44.733 247.122 44.5852V44.5597C247.122 44.2386 247.027 43.9901 246.836 43.8139C246.646 43.6378 246.372 43.5497 246.014 43.5497C245.636 43.5497 245.336 43.6321 245.115 43.7969C244.896 43.9616 244.748 44.1562 244.671 44.3807L243.231 44.1761C243.345 43.7784 243.532 43.446 243.794 43.179C244.055 42.9091 244.375 42.7074 244.752 42.5739C245.13 42.4375 245.548 42.3693 246.005 42.3693C246.321 42.3693 246.635 42.4062 246.947 42.4801C247.26 42.554 247.545 42.6761 247.804 42.8466C248.062 43.0142 248.269 43.2429 248.426 43.5327C248.585 43.8224 248.664 44.1847 248.664 44.6193V49H247.181V48.1009H247.13C247.036 48.2827 246.904 48.4531 246.734 48.6122C246.566 48.7685 246.355 48.8949 246.099 48.9915C245.846 49.0852 245.549 49.1321 245.208 49.1321ZM245.609 47.9986C245.919 47.9986 246.187 47.9375 246.414 47.8153C246.642 47.6903 246.816 47.5256 246.938 47.321C247.063 47.1165 247.126 46.8935 247.126 46.652V45.8807C247.078 45.9205 246.995 45.9574 246.879 45.9915C246.765 46.0256 246.637 46.0554 246.495 46.081C246.353 46.1065 246.213 46.1293 246.073 46.1491C245.934 46.169 245.813 46.1861 245.711 46.2003C245.481 46.2315 245.275 46.2827 245.093 46.3537C244.911 46.4247 244.768 46.5241 244.663 46.652C244.558 46.777 244.505 46.9389 244.505 47.1378C244.505 47.4219 244.609 47.6364 244.816 47.7812C245.024 47.9261 245.288 47.9986 245.609 47.9986ZM253.484 42.4545V43.6477H249.721V42.4545H253.484ZM250.65 40.8864H252.193V47.0312C252.193 47.2386 252.224 47.3977 252.286 47.5085C252.352 47.6165 252.437 47.6903 252.542 47.7301C252.647 47.7699 252.764 47.7898 252.892 47.7898C252.988 47.7898 253.076 47.7827 253.156 47.7685C253.238 47.7543 253.301 47.7415 253.343 47.7301L253.603 48.9361C253.521 48.9645 253.403 48.9957 253.25 49.0298C253.099 49.0639 252.914 49.0838 252.696 49.0895C252.309 49.1009 251.961 49.0426 251.652 48.9148C251.342 48.7841 251.096 48.5824 250.914 48.3097C250.735 48.0369 250.647 47.696 250.65 47.2869V40.8864ZM254.774 49V42.4545H256.317V49H254.774ZM255.55 41.5256C255.305 41.5256 255.095 41.4446 254.919 41.2827C254.743 41.1179 254.655 40.9205 254.655 40.6903C254.655 40.4574 254.743 40.2599 254.919 40.098C255.095 39.9332 255.305 39.8509 255.55 39.8509C255.797 39.8509 256.007 39.9332 256.18 40.098C256.356 40.2599 256.445 40.4574 256.445 40.6903C256.445 40.9205 256.356 41.1179 256.18 41.2827C256.007 41.4446 255.797 41.5256 255.55 41.5256ZM260.758 49.1278C260.119 49.1278 259.565 48.9872 259.096 48.706C258.627 48.4247 258.264 48.0312 258.005 47.5256C257.75 47.0199 257.622 46.429 257.622 45.7528C257.622 45.0767 257.75 44.4844 258.005 43.9759C258.264 43.4673 258.627 43.0724 259.096 42.7912C259.565 42.5099 260.119 42.3693 260.758 42.3693C261.397 42.3693 261.951 42.5099 262.42 42.7912C262.889 43.0724 263.251 43.4673 263.507 43.9759C263.765 44.4844 263.894 45.0767 263.894 45.7528C263.894 46.429 263.765 47.0199 263.507 47.5256C263.251 48.0312 262.889 48.4247 262.42 48.706C261.951 48.9872 261.397 49.1278 260.758 49.1278ZM260.767 47.892C261.113 47.892 261.403 47.7969 261.636 47.6065C261.869 47.4134 262.042 47.1548 262.156 46.831C262.272 46.5071 262.331 46.1463 262.331 45.7486C262.331 45.348 262.272 44.9858 262.156 44.6619C262.042 44.3352 261.869 44.0753 261.636 43.8821C261.403 43.6889 261.113 43.5923 260.767 43.5923C260.411 43.5923 260.116 43.6889 259.88 43.8821C259.647 44.0753 259.473 44.3352 259.356 44.6619C259.242 44.9858 259.186 45.348 259.186 45.7486C259.186 46.1463 259.242 46.5071 259.356 46.831C259.473 47.1548 259.647 47.4134 259.88 47.6065C260.116 47.7969 260.411 47.892 260.767 47.892ZM266.746 45.1648V49H265.204V42.4545H266.678V43.5668H266.755C266.905 43.2003 267.146 42.9091 267.475 42.6932C267.807 42.4773 268.218 42.3693 268.707 42.3693C269.158 42.3693 269.552 42.4659 269.887 42.6591C270.225 42.8523 270.486 43.1321 270.671 43.4986C270.859 43.8651 270.951 44.3097 270.948 44.8324V49H269.405V45.071C269.405 44.6335 269.292 44.2912 269.065 44.044C268.84 43.7969 268.529 43.6733 268.131 43.6733C267.861 43.6733 267.621 43.733 267.411 43.8523C267.204 43.9687 267.04 44.1378 266.921 44.3594C266.805 44.581 266.746 44.8494 266.746 45.1648ZM275.177 41.598V40.2727H282.141V41.598H279.443V49H277.875V41.598H275.177ZM283.415 49V42.4545H284.957V49H283.415ZM284.19 41.5256C283.946 41.5256 283.736 41.4446 283.56 41.2827C283.383 41.1179 283.295 40.9205 283.295 40.6903C283.295 40.4574 283.383 40.2599 283.56 40.098C283.736 39.9332 283.946 39.8509 284.19 39.8509C284.437 39.8509 284.648 39.9332 284.821 40.098C284.997 40.2599 285.085 40.4574 285.085 40.6903C285.085 40.9205 284.997 41.1179 284.821 41.2827C284.648 41.4446 284.437 41.5256 284.19 41.5256ZM289.441 49.1278C288.785 49.1278 288.218 48.9915 287.741 48.7188C287.267 48.4432 286.902 48.054 286.646 47.5511C286.39 47.0455 286.262 46.4503 286.262 45.7656C286.262 45.0923 286.39 44.5014 286.646 43.9929C286.904 43.4815 287.265 43.0838 287.728 42.7997C288.191 42.5128 288.735 42.3693 289.36 42.3693C289.764 42.3693 290.144 42.4347 290.502 42.5653C290.863 42.6932 291.181 42.892 291.457 43.1619C291.735 43.4318 291.954 43.7756 292.113 44.1932C292.272 44.608 292.352 45.1023 292.352 45.6761V46.1491H286.987V45.1094H290.873C290.87 44.8139 290.806 44.5511 290.681 44.321C290.556 44.0881 290.382 43.9048 290.157 43.7713C289.936 43.6378 289.677 43.571 289.382 43.571C289.066 43.571 288.789 43.6477 288.551 43.8011C288.312 43.9517 288.126 44.1506 287.992 44.3977C287.862 44.642 287.795 44.9105 287.792 45.2031V46.1108C287.792 46.4915 287.862 46.8182 288.001 47.0909C288.14 47.3608 288.335 47.5682 288.585 47.7131C288.835 47.8551 289.127 47.9261 289.463 47.9261C289.687 47.9261 289.89 47.8949 290.072 47.8324C290.254 47.767 290.411 47.6719 290.545 47.5469C290.679 47.4219 290.779 47.267 290.848 47.0824L292.288 47.2443C292.197 47.625 292.024 47.9574 291.768 48.2415C291.515 48.5227 291.191 48.7415 290.796 48.8977C290.402 49.0511 289.95 49.1278 289.441 49.1278ZM293.657 49V42.4545H295.153V43.5455H295.221C295.34 43.1676 295.545 42.8764 295.834 42.6719C296.127 42.4645 296.461 42.3608 296.836 42.3608C296.921 42.3608 297.016 42.3651 297.121 42.3736C297.229 42.3793 297.319 42.3892 297.39 42.4034V43.8224C297.324 43.7997 297.221 43.7798 297.079 43.7628C296.94 43.7429 296.805 43.733 296.674 43.733C296.393 43.733 296.14 43.794 295.915 43.9162C295.694 44.0355 295.519 44.2017 295.391 44.4148C295.263 44.6278 295.199 44.8736 295.199 45.152V49H293.657Z" fill="#0C8CE9" fill-opacity="0.6"/>
<rect x="169.748" y="93.1238" width="161.96" height="88.5743" rx="3.5" stroke="#0C8CE9"/>
<rect x="194.569" y="110.391" width="112.101" height="55.1188" stroke="#0C8CE9" stroke-linecap="square" stroke-dasharray="5 5"/>
<path d="M224.538 141.634V135.815H226.572C226.977 135.815 227.311 135.886 227.575 136.026C227.838 136.164 228.034 136.351 228.163 136.585C228.292 136.818 228.356 137.077 228.356 137.361C228.356 137.611 228.311 137.817 228.222 137.98C228.135 138.143 228.02 138.272 227.876 138.367C227.734 138.461 227.579 138.531 227.413 138.577V138.634C227.591 138.645 227.77 138.708 227.95 138.821C228.13 138.935 228.28 139.098 228.401 139.31C228.523 139.522 228.583 139.781 228.583 140.088C228.583 140.38 228.517 140.642 228.384 140.875C228.252 141.108 228.042 141.293 227.756 141.429C227.47 141.565 227.098 141.634 226.64 141.634H224.538ZM225.242 141.009H226.64C227.1 141.009 227.427 140.92 227.62 140.742C227.815 140.562 227.913 140.344 227.913 140.088C227.913 139.891 227.863 139.709 227.762 139.543C227.662 139.374 227.519 139.24 227.333 139.139C227.148 139.037 226.928 138.986 226.674 138.986H225.242V141.009ZM225.242 138.372H226.549C226.761 138.372 226.953 138.331 227.123 138.247C227.295 138.164 227.432 138.047 227.532 137.895C227.634 137.744 227.685 137.565 227.685 137.361C227.685 137.105 227.596 136.888 227.418 136.71C227.24 136.53 226.958 136.44 226.572 136.44H225.242V138.372ZM232.4 139.85V137.27H233.07V141.634H232.4V140.895H232.354C232.252 141.117 232.093 141.305 231.877 141.46C231.661 141.614 231.389 141.69 231.059 141.69C230.786 141.69 230.544 141.631 230.332 141.512C230.12 141.39 229.953 141.208 229.832 140.966C229.711 140.722 229.65 140.414 229.65 140.043V137.27H230.32V139.997C230.32 140.315 230.409 140.569 230.587 140.759C230.767 140.948 230.997 141.043 231.275 141.043C231.442 141.043 231.611 141 231.783 140.915C231.958 140.83 232.104 140.699 232.221 140.523C232.34 140.347 232.4 140.122 232.4 139.85ZM237.389 138.247L236.787 138.418C236.749 138.317 236.693 138.22 236.619 138.125C236.547 138.029 236.449 137.949 236.324 137.887C236.199 137.824 236.039 137.793 235.844 137.793C235.577 137.793 235.354 137.854 235.176 137.977C235 138.099 234.912 138.253 234.912 138.44C234.912 138.607 234.973 138.739 235.094 138.835C235.215 138.932 235.404 139.012 235.662 139.077L236.31 139.236C236.7 139.331 236.991 139.476 237.182 139.671C237.373 139.864 237.469 140.113 237.469 140.418C237.469 140.668 237.397 140.891 237.253 141.088C237.111 141.285 236.912 141.44 236.656 141.554C236.401 141.668 236.103 141.725 235.764 141.725C235.319 141.725 234.951 141.628 234.659 141.435C234.368 141.242 234.183 140.959 234.105 140.588L234.742 140.429C234.802 140.664 234.917 140.84 235.085 140.958C235.256 141.075 235.478 141.134 235.753 141.134C236.065 141.134 236.314 141.067 236.497 140.935C236.683 140.8 236.776 140.639 236.776 140.452C236.776 140.3 236.723 140.173 236.617 140.071C236.511 139.967 236.348 139.889 236.128 139.838L235.401 139.668C235.001 139.573 234.707 139.426 234.52 139.227C234.334 139.027 234.242 138.776 234.242 138.475C234.242 138.228 234.311 138.011 234.449 137.821C234.589 137.632 234.779 137.483 235.02 137.375C235.262 137.267 235.537 137.213 235.844 137.213C236.276 137.213 236.615 137.308 236.861 137.497C237.109 137.687 237.285 137.937 237.389 138.247ZM238.478 141.634V137.27H239.149V141.634H238.478ZM238.819 136.543C238.688 136.543 238.576 136.498 238.481 136.409C238.388 136.32 238.342 136.213 238.342 136.088C238.342 135.963 238.388 135.856 238.481 135.767C238.576 135.678 238.688 135.634 238.819 135.634C238.95 135.634 239.061 135.678 239.154 135.767C239.249 135.856 239.296 135.963 239.296 136.088C239.296 136.213 239.249 136.32 239.154 136.409C239.061 136.498 238.95 136.543 238.819 136.543ZM241.047 139.009V141.634H240.377V137.27H241.024V137.952H241.081C241.183 137.73 241.339 137.552 241.547 137.418C241.755 137.281 242.024 137.213 242.354 137.213C242.649 137.213 242.908 137.274 243.129 137.395C243.351 137.514 243.523 137.696 243.646 137.94C243.769 138.183 243.831 138.49 243.831 138.861V141.634H243.161V138.906C243.161 138.564 243.072 138.297 242.894 138.105C242.716 137.912 242.471 137.815 242.161 137.815C241.947 137.815 241.755 137.862 241.587 137.955C241.42 138.047 241.288 138.183 241.192 138.361C241.095 138.539 241.047 138.755 241.047 139.009ZM246.886 141.725C246.465 141.725 246.103 141.632 245.798 141.446C245.495 141.259 245.261 140.997 245.096 140.662C244.933 140.325 244.852 139.933 244.852 139.486C244.852 139.039 244.933 138.645 245.096 138.304C245.261 137.961 245.49 137.694 245.783 137.503C246.079 137.31 246.424 137.213 246.818 137.213C247.045 137.213 247.269 137.251 247.491 137.327C247.712 137.403 247.914 137.526 248.096 137.696C248.278 137.865 248.423 138.088 248.531 138.367C248.639 138.645 248.693 138.988 248.693 139.395V139.679H245.329V139.1H248.011C248.011 138.853 247.961 138.634 247.863 138.44C247.766 138.247 247.628 138.095 247.448 137.983C247.27 137.871 247.06 137.815 246.818 137.815C246.551 137.815 246.319 137.882 246.124 138.014C245.931 138.145 245.783 138.315 245.678 138.526C245.574 138.736 245.522 138.961 245.522 139.202V139.588C245.522 139.918 245.579 140.197 245.693 140.426C245.808 140.654 245.968 140.827 246.173 140.946C246.377 141.064 246.615 141.122 246.886 141.122C247.062 141.122 247.221 141.098 247.363 141.048C247.507 140.997 247.631 140.922 247.735 140.821C247.839 140.719 247.92 140.592 247.977 140.44L248.624 140.622C248.556 140.842 248.442 141.035 248.281 141.202C248.12 141.367 247.921 141.495 247.684 141.588C247.447 141.679 247.181 141.725 246.886 141.725ZM252.803 138.247L252.201 138.418C252.163 138.317 252.107 138.22 252.033 138.125C251.961 138.029 251.863 137.949 251.738 137.887C251.613 137.824 251.453 137.793 251.258 137.793C250.991 137.793 250.768 137.854 250.59 137.977C250.414 138.099 250.326 138.253 250.326 138.44C250.326 138.607 250.387 138.739 250.508 138.835C250.629 138.932 250.819 139.012 251.076 139.077L251.724 139.236C252.114 139.331 252.405 139.476 252.596 139.671C252.787 139.864 252.883 140.113 252.883 140.418C252.883 140.668 252.811 140.891 252.667 141.088C252.525 141.285 252.326 141.44 252.07 141.554C251.815 141.668 251.517 141.725 251.178 141.725C250.733 141.725 250.365 141.628 250.073 141.435C249.782 141.242 249.597 140.959 249.519 140.588L250.156 140.429C250.216 140.664 250.331 140.84 250.499 140.958C250.67 141.075 250.892 141.134 251.167 141.134C251.479 141.134 251.728 141.067 251.911 140.935C252.097 140.8 252.19 140.639 252.19 140.452C252.19 140.3 252.137 140.173 252.031 140.071C251.925 139.967 251.762 139.889 251.542 139.838L250.815 139.668C250.415 139.573 250.122 139.426 249.934 139.227C249.748 139.027 249.656 138.776 249.656 138.475C249.656 138.228 249.725 138.011 249.863 137.821C250.003 137.632 250.194 137.483 250.434 137.375C250.676 137.267 250.951 137.213 251.258 137.213C251.69 137.213 252.029 137.308 252.275 137.497C252.523 137.687 252.699 137.937 252.803 138.247ZM256.983 138.247L256.381 138.418C256.343 138.317 256.287 138.22 256.213 138.125C256.141 138.029 256.043 137.949 255.918 137.887C255.793 137.824 255.633 137.793 255.438 137.793C255.171 137.793 254.948 137.854 254.77 137.977C254.594 138.099 254.506 138.253 254.506 138.44C254.506 138.607 254.566 138.739 254.688 138.835C254.809 138.932 254.998 139.012 255.256 139.077L255.903 139.236C256.294 139.331 256.584 139.476 256.776 139.671C256.967 139.864 257.063 140.113 257.063 140.418C257.063 140.668 256.991 140.891 256.847 141.088C256.705 141.285 256.506 141.44 256.25 141.554C255.994 141.668 255.697 141.725 255.358 141.725C254.913 141.725 254.545 141.628 254.253 141.435C253.961 141.242 253.777 140.959 253.699 140.588L254.335 140.429C254.396 140.664 254.511 140.84 254.679 140.958C254.85 141.075 255.072 141.134 255.347 141.134C255.659 141.134 255.907 141.067 256.091 140.935C256.277 140.8 256.369 140.639 256.369 140.452C256.369 140.3 256.316 140.173 256.21 140.071C256.104 139.967 255.941 139.889 255.722 139.838L254.994 139.668C254.595 139.573 254.301 139.426 254.114 139.227C253.928 139.027 253.835 138.776 253.835 138.475C253.835 138.228 253.904 138.011 254.043 137.821C254.183 137.632 254.373 137.483 254.614 137.375C254.856 137.267 255.131 137.213 255.438 137.213C255.869 137.213 256.208 137.308 256.455 137.497C256.703 137.687 256.879 137.937 256.983 138.247ZM260.992 135.815V141.634H260.322V135.815H260.992ZM263.993 141.725C263.599 141.725 263.253 141.631 262.956 141.443C262.661 141.256 262.43 140.994 262.263 140.656C262.098 140.319 262.016 139.925 262.016 139.475C262.016 139.02 262.098 138.623 262.263 138.284C262.43 137.945 262.661 137.682 262.956 137.494C263.253 137.307 263.599 137.213 263.993 137.213C264.387 137.213 264.732 137.307 265.027 137.494C265.324 137.682 265.555 137.945 265.72 138.284C265.887 138.623 265.97 139.02 265.97 139.475C265.97 139.925 265.887 140.319 265.72 140.656C265.555 140.994 265.324 141.256 265.027 141.443C264.732 141.631 264.387 141.725 263.993 141.725ZM263.993 141.122C264.292 141.122 264.538 141.046 264.732 140.892C264.925 140.739 265.068 140.537 265.161 140.287C265.253 140.037 265.3 139.766 265.3 139.475C265.3 139.183 265.253 138.911 265.161 138.659C265.068 138.407 264.925 138.204 264.732 138.048C264.538 137.893 264.292 137.815 263.993 137.815C263.694 137.815 263.448 137.893 263.254 138.048C263.061 138.204 262.918 138.407 262.825 138.659C262.733 138.911 262.686 139.183 262.686 139.475C262.686 139.766 262.733 140.037 262.825 140.287C262.918 140.537 263.061 140.739 263.254 140.892C263.448 141.046 263.694 141.122 263.993 141.122ZM268.755 143.361C268.431 143.361 268.153 143.319 267.92 143.236C267.687 143.155 267.493 143.047 267.337 142.912C267.184 142.78 267.062 142.637 266.971 142.486L267.505 142.111C267.566 142.19 267.642 142.281 267.735 142.384C267.828 142.488 267.955 142.578 268.116 142.654C268.279 142.731 268.492 142.77 268.755 142.77C269.107 142.77 269.398 142.685 269.627 142.514C269.856 142.344 269.971 142.077 269.971 141.713V140.827H269.914C269.865 140.906 269.795 141.005 269.704 141.122C269.615 141.238 269.486 141.341 269.318 141.432C269.151 141.521 268.926 141.565 268.641 141.565C268.289 141.565 267.973 141.482 267.693 141.315C267.414 141.149 267.194 140.906 267.031 140.588C266.87 140.27 266.789 139.884 266.789 139.429C266.789 138.982 266.868 138.593 267.025 138.262C267.182 137.928 267.401 137.671 267.681 137.489C267.961 137.305 268.285 137.213 268.653 137.213C268.937 137.213 269.162 137.261 269.329 137.355C269.497 137.448 269.626 137.554 269.715 137.673C269.806 137.791 269.876 137.887 269.926 137.963H269.994V137.27H270.641V141.759C270.641 142.134 270.556 142.439 270.386 142.673C270.217 142.91 269.99 143.083 269.704 143.193C269.42 143.305 269.104 143.361 268.755 143.361ZM268.732 140.963C269.001 140.963 269.229 140.902 269.414 140.779C269.6 140.655 269.741 140.478 269.837 140.247C269.934 140.016 269.982 139.74 269.982 139.418C269.982 139.103 269.935 138.826 269.84 138.585C269.746 138.345 269.605 138.156 269.42 138.02C269.234 137.884 269.005 137.815 268.732 137.815C268.448 137.815 268.211 137.887 268.022 138.031C267.835 138.175 267.694 138.369 267.599 138.611C267.506 138.853 267.46 139.122 267.46 139.418C267.46 139.721 267.507 139.989 267.602 140.222C267.698 140.453 267.84 140.635 268.028 140.767C268.217 140.898 268.452 140.963 268.732 140.963ZM271.869 141.634V137.27H272.539V141.634H271.869ZM272.21 136.543C272.079 136.543 271.966 136.498 271.872 136.409C271.779 136.32 271.732 136.213 271.732 136.088C271.732 135.963 271.779 135.856 271.872 135.767C271.966 135.678 272.079 135.634 272.21 135.634C272.34 135.634 272.452 135.678 272.545 135.767C272.64 135.856 272.687 135.963 272.687 136.088C272.687 136.213 272.64 136.32 272.545 136.409C272.452 136.498 272.34 136.543 272.21 136.543ZM275.54 141.725C275.131 141.725 274.778 141.628 274.483 141.435C274.188 141.242 273.96 140.976 273.801 140.637C273.642 140.297 273.563 139.91 273.563 139.475C273.563 139.031 273.644 138.64 273.807 138.301C273.972 137.96 274.201 137.694 274.494 137.503C274.79 137.31 275.135 137.213 275.528 137.213C275.835 137.213 276.112 137.27 276.358 137.384C276.604 137.497 276.806 137.656 276.963 137.861C277.12 138.065 277.218 138.304 277.256 138.577H276.585C276.534 138.378 276.421 138.202 276.244 138.048C276.07 137.893 275.835 137.815 275.54 137.815C275.278 137.815 275.049 137.884 274.852 138.02C274.657 138.155 274.505 138.345 274.395 138.591C274.287 138.835 274.233 139.122 274.233 139.452C274.233 139.789 274.286 140.083 274.392 140.333C274.5 140.583 274.652 140.777 274.847 140.915C275.044 141.053 275.275 141.122 275.54 141.122C275.714 141.122 275.872 141.092 276.014 141.031C276.156 140.971 276.277 140.884 276.375 140.77C276.474 140.656 276.544 140.52 276.585 140.361H277.256C277.218 140.619 277.124 140.851 276.975 141.057C276.827 141.262 276.631 141.424 276.386 141.546C276.144 141.665 275.862 141.725 275.54 141.725Z" fill="black"/>
</svg>
