<svg width="330" height="100" viewBox="0 0 330 100" fill="none" xmlns="http://www.w3.org/2000/svg">
<rect x="1" y="1" width="75.8477" height="79" rx="4" stroke="#0C8CE9"/>
<path d="M29.7044 44C29.2044 42.92 28.7211 41.79 28.2544 40.61C27.7944 39.43 27.3644 38.25 26.9644 37.07H28.3544C28.5144 37.5367 28.6778 38.0133 28.8444 38.5C29.0111 38.9867 29.1778 39.4667 29.3444 39.94C29.5111 40.4067 29.6778 40.86 29.8444 41.3C30.0111 41.74 30.1744 42.1433 30.3344 42.51C30.4878 42.1433 30.6478 41.7433 30.8144 41.31C30.9811 40.87 31.1478 40.4133 31.3144 39.94C31.4878 39.4667 31.6578 38.9867 31.8244 38.5C31.9911 38.0133 32.1511 37.5367 32.3044 37.07H33.6544C33.2478 38.25 32.8144 39.43 32.3544 40.61C31.8944 41.79 31.4144 42.92 30.9144 44H29.7044ZM35.7106 44H34.5006V38.77H35.7106V44ZM35.8406 37.24C35.8406 37.4667 35.7673 37.6467 35.6206 37.78C35.4739 37.9133 35.3006 37.98 35.1006 37.98C34.8939 37.98 34.7173 37.9133 34.5706 37.78C34.4239 37.6467 34.3506 37.4667 34.3506 37.24C34.3506 37.0067 34.4239 36.8233 34.5706 36.69C34.7173 36.5567 34.8939 36.49 35.1006 36.49C35.3006 36.49 35.4739 36.5567 35.6206 36.69C35.7673 36.8233 35.8406 37.0067 35.8406 37.24ZM36.9643 41.41C36.9643 40.95 37.031 40.5467 37.1643 40.2C37.3043 39.8533 37.4876 39.5667 37.7143 39.34C37.941 39.1067 38.201 38.9333 38.4943 38.82C38.7876 38.7 39.0876 38.64 39.3943 38.64C40.1143 38.64 40.6743 38.8633 41.0743 39.31C41.481 39.7567 41.6843 40.4233 41.6843 41.31C41.6843 41.3767 41.681 41.4533 41.6743 41.54C41.6743 41.62 41.671 41.6933 41.6643 41.76H38.2143C38.2476 42.18 38.3943 42.5067 38.6543 42.74C38.921 42.9667 39.3043 43.08 39.8043 43.08C40.0976 43.08 40.3643 43.0533 40.6043 43C40.851 42.9467 41.0443 42.89 41.1843 42.83L41.3443 43.82C41.2776 43.8533 41.1843 43.89 41.0643 43.93C40.951 43.9633 40.8176 43.9933 40.6643 44.02C40.5176 44.0533 40.3576 44.08 40.1843 44.1C40.011 44.12 39.8343 44.13 39.6543 44.13C39.1943 44.13 38.7943 44.0633 38.4543 43.93C38.1143 43.79 37.8343 43.6 37.6143 43.36C37.3943 43.1133 37.231 42.8267 37.1243 42.5C37.0176 42.1667 36.9643 41.8033 36.9643 41.41ZM40.4743 40.87C40.4743 40.7033 40.451 40.5467 40.4043 40.4C40.3576 40.2467 40.2876 40.1167 40.1943 40.01C40.1076 39.8967 39.9976 39.81 39.8643 39.75C39.7376 39.6833 39.5843 39.65 39.4043 39.65C39.2176 39.65 39.0543 39.6867 38.9143 39.76C38.7743 39.8267 38.6543 39.9167 38.5543 40.03C38.461 40.1433 38.3876 40.2733 38.3343 40.42C38.281 40.5667 38.2443 40.7167 38.2243 40.87H40.4743ZM46.0872 40.71C45.9338 41.2967 45.7672 41.87 45.5872 42.43C45.4138 42.9833 45.2405 43.5067 45.0672 44H44.0772C43.9438 43.6933 43.8038 43.3433 43.6572 42.95C43.5105 42.5567 43.3638 42.1367 43.2172 41.69C43.0705 41.2433 42.9238 40.7733 42.7772 40.28C42.6305 39.7867 42.4872 39.2833 42.3472 38.77H43.6272C43.6872 39.05 43.7572 39.3533 43.8372 39.68C43.9172 40 44.0005 40.33 44.0872 40.67C44.1738 41.0033 44.2638 41.33 44.3572 41.65C44.4505 41.97 44.5438 42.2633 44.6372 42.53C44.7372 42.2233 44.8338 41.9067 44.9272 41.58C45.0272 41.2533 45.1205 40.9267 45.2072 40.6C45.2938 40.2733 45.3738 39.9567 45.4472 39.65C45.5272 39.3367 45.5972 39.0433 45.6572 38.77H46.5872C46.6472 39.0433 46.7138 39.3367 46.7872 39.65C46.8605 39.9567 46.9372 40.2733 47.0172 40.6C47.1038 40.9267 47.1938 41.2533 47.2872 41.58C47.3872 41.9067 47.4872 42.2233 47.5872 42.53C47.6738 42.2633 47.7638 41.97 47.8572 41.65C47.9505 41.33 48.0405 41.0033 48.1272 40.67C48.2205 40.33 48.3072 40 48.3872 39.68C48.4672 39.3533 48.5372 39.05 48.5972 38.77H49.8472C49.7072 39.2833 49.5638 39.7867 49.4172 40.28C49.2705 40.7733 49.1238 41.2433 48.9772 41.69C48.8305 42.1367 48.6838 42.5567 48.5372 42.95C48.3905 43.3433 48.2472 43.6933 48.1072 44H47.1272C46.9538 43.5067 46.7738 42.9833 46.5872 42.43C46.4072 41.87 46.2405 41.2967 46.0872 40.71Z" fill="#0C8CE9"/>
<rect x="127" y="1" width="75.8477" height="79" rx="4" stroke="#0C8CE9"/>
<path d="M141.435 44C140.935 42.92 140.452 41.79 139.985 40.61C139.525 39.43 139.095 38.25 138.695 37.07H140.085C140.245 37.5367 140.408 38.0133 140.575 38.5C140.742 38.9867 140.908 39.4667 141.075 39.94C141.242 40.4067 141.408 40.86 141.575 41.3C141.742 41.74 141.905 42.1433 142.065 42.51C142.218 42.1433 142.378 41.7433 142.545 41.31C142.712 40.87 142.878 40.4133 143.045 39.94C143.218 39.4667 143.388 38.9867 143.555 38.5C143.722 38.0133 143.882 37.5367 144.035 37.07H145.385C144.978 38.25 144.545 39.43 144.085 40.61C143.625 41.79 143.145 42.92 142.645 44H141.435ZM147.441 44H146.231V38.77H147.441V44ZM147.571 37.24C147.571 37.4667 147.498 37.6467 147.351 37.78C147.204 37.9133 147.031 37.98 146.831 37.98C146.624 37.98 146.448 37.9133 146.301 37.78C146.154 37.6467 146.081 37.4667 146.081 37.24C146.081 37.0067 146.154 36.8233 146.301 36.69C146.448 36.5567 146.624 36.49 146.831 36.49C147.031 36.49 147.204 36.5567 147.351 36.69C147.498 36.8233 147.571 37.0067 147.571 37.24ZM148.695 41.41C148.695 40.95 148.761 40.5467 148.895 40.2C149.035 39.8533 149.218 39.5667 149.445 39.34C149.671 39.1067 149.931 38.9333 150.225 38.82C150.518 38.7 150.818 38.64 151.125 38.64C151.845 38.64 152.405 38.8633 152.805 39.31C153.211 39.7567 153.415 40.4233 153.415 41.31C153.415 41.3767 153.411 41.4533 153.405 41.54C153.405 41.62 153.401 41.6933 153.395 41.76H149.945C149.978 42.18 150.125 42.5067 150.385 42.74C150.651 42.9667 151.035 43.08 151.535 43.08C151.828 43.08 152.095 43.0533 152.335 43C152.581 42.9467 152.775 42.89 152.915 42.83L153.075 43.82C153.008 43.8533 152.915 43.89 152.795 43.93C152.681 43.9633 152.548 43.9933 152.395 44.02C152.248 44.0533 152.088 44.08 151.915 44.1C151.741 44.12 151.565 44.13 151.385 44.13C150.925 44.13 150.525 44.0633 150.185 43.93C149.845 43.79 149.565 43.6 149.345 43.36C149.125 43.1133 148.961 42.8267 148.855 42.5C148.748 42.1667 148.695 41.8033 148.695 41.41ZM152.205 40.87C152.205 40.7033 152.181 40.5467 152.135 40.4C152.088 40.2467 152.018 40.1167 151.925 40.01C151.838 39.8967 151.728 39.81 151.595 39.75C151.468 39.6833 151.315 39.65 151.135 39.65C150.948 39.65 150.785 39.6867 150.645 39.76C150.505 39.8267 150.385 39.9167 150.285 40.03C150.191 40.1433 150.118 40.2733 150.065 40.42C150.011 40.5667 149.975 40.7167 149.955 40.87H152.205ZM157.818 40.71C157.664 41.2967 157.498 41.87 157.318 42.43C157.144 42.9833 156.971 43.5067 156.798 44H155.808C155.674 43.6933 155.534 43.3433 155.388 42.95C155.241 42.5567 155.094 42.1367 154.948 41.69C154.801 41.2433 154.654 40.7733 154.508 40.28C154.361 39.7867 154.218 39.2833 154.078 38.77H155.358C155.418 39.05 155.488 39.3533 155.568 39.68C155.648 40 155.731 40.33 155.818 40.67C155.904 41.0033 155.994 41.33 156.088 41.65C156.181 41.97 156.274 42.2633 156.368 42.53C156.468 42.2233 156.564 41.9067 156.658 41.58C156.758 41.2533 156.851 40.9267 156.938 40.6C157.024 40.2733 157.104 39.9567 157.178 39.65C157.258 39.3367 157.328 39.0433 157.388 38.77H158.318C158.378 39.0433 158.444 39.3367 158.518 39.65C158.591 39.9567 158.668 40.2733 158.748 40.6C158.834 40.9267 158.924 41.2533 159.018 41.58C159.118 41.9067 159.218 42.2233 159.318 42.53C159.404 42.2633 159.494 41.97 159.588 41.65C159.681 41.33 159.771 41.0033 159.858 40.67C159.951 40.33 160.038 40 160.118 39.68C160.198 39.3533 160.268 39.05 160.328 38.77H161.578C161.438 39.2833 161.294 39.7867 161.148 40.28C161.001 40.7733 160.854 41.2433 160.708 41.69C160.561 42.1367 160.414 42.5567 160.268 42.95C160.121 43.3433 159.978 43.6933 159.838 44H158.858C158.684 43.5067 158.504 42.9833 158.318 42.43C158.138 41.87 157.971 41.2967 157.818 40.71ZM164.07 37.07C164.217 37.3233 164.38 37.6333 164.56 38C164.74 38.3667 164.924 38.7533 165.11 39.16C165.297 39.56 165.48 39.97 165.66 40.39C165.847 40.8033 166.017 41.1867 166.17 41.54C166.324 41.1867 166.49 40.8033 166.67 40.39C166.85 39.97 167.034 39.56 167.22 39.16C167.407 38.7533 167.59 38.3667 167.77 38C167.95 37.6333 168.114 37.3233 168.26 37.07H169.4C169.46 37.5767 169.517 38.1167 169.57 38.69C169.624 39.2567 169.67 39.84 169.71 40.44C169.757 41.0333 169.797 41.6333 169.83 42.24C169.87 42.84 169.904 43.4267 169.93 44H168.69C168.664 43.1933 168.63 42.3633 168.59 41.51C168.557 40.6567 168.504 39.83 168.43 39.03C168.357 39.1833 168.27 39.3667 168.17 39.58C168.07 39.7933 167.964 40.0267 167.85 40.28C167.737 40.5267 167.62 40.7833 167.5 41.05C167.387 41.3167 167.274 41.5767 167.16 41.83C167.054 42.0767 166.954 42.31 166.86 42.53C166.767 42.7433 166.687 42.9267 166.62 43.08H165.68C165.614 42.9267 165.534 42.74 165.44 42.52C165.347 42.3 165.244 42.0667 165.13 41.82C165.024 41.5667 164.91 41.3067 164.79 41.04C164.677 40.7733 164.564 40.5167 164.45 40.27C164.337 40.0233 164.23 39.7933 164.13 39.58C164.03 39.36 163.944 39.1767 163.87 39.03C163.797 39.83 163.74 40.6567 163.7 41.51C163.667 42.3633 163.637 43.1933 163.61 44H162.37C162.397 43.4267 162.427 42.8333 162.46 42.22C162.5 41.6067 162.54 41 162.58 40.4C162.627 39.7933 162.677 39.2067 162.73 38.64C162.784 38.0733 162.84 37.55 162.9 37.07H164.07ZM176.068 41.38C176.068 41.7933 176.008 42.17 175.888 42.51C175.768 42.85 175.598 43.14 175.378 43.38C175.158 43.62 174.892 43.8067 174.578 43.94C174.272 44.0733 173.932 44.14 173.558 44.14C173.185 44.14 172.845 44.0733 172.538 43.94C172.232 43.8067 171.968 43.62 171.748 43.38C171.528 43.14 171.355 42.85 171.228 42.51C171.108 42.17 171.048 41.7933 171.048 41.38C171.048 40.9667 171.108 40.5933 171.228 40.26C171.355 39.92 171.528 39.63 171.748 39.39C171.975 39.15 172.242 38.9667 172.548 38.84C172.855 38.7067 173.192 38.64 173.558 38.64C173.925 38.64 174.262 38.7067 174.568 38.84C174.882 38.9667 175.148 39.15 175.368 39.39C175.588 39.63 175.758 39.92 175.878 40.26C176.005 40.5933 176.068 40.9667 176.068 41.38ZM174.828 41.38C174.828 40.86 174.715 40.45 174.488 40.15C174.268 39.8433 173.958 39.69 173.558 39.69C173.158 39.69 172.845 39.8433 172.618 40.15C172.398 40.45 172.288 40.86 172.288 41.38C172.288 41.9067 172.398 42.3233 172.618 42.63C172.845 42.9367 173.158 43.09 173.558 43.09C173.958 43.09 174.268 42.9367 174.488 42.63C174.715 42.3233 174.828 41.9067 174.828 41.38ZM178.265 41.37C178.265 41.9033 178.391 42.3233 178.645 42.63C178.898 42.93 179.248 43.08 179.695 43.08C179.888 43.08 180.051 43.0733 180.185 43.06C180.325 43.04 180.438 43.02 180.525 43V40C180.418 39.9267 180.275 39.86 180.095 39.8C179.921 39.7333 179.735 39.7 179.535 39.7C179.095 39.7 178.771 39.85 178.565 40.15C178.365 40.45 178.265 40.8567 178.265 41.37ZM181.735 43.84C181.495 43.9133 181.191 43.98 180.825 44.04C180.465 44.1 180.085 44.13 179.685 44.13C179.271 44.13 178.901 44.0667 178.575 43.94C178.248 43.8133 177.968 43.6333 177.735 43.4C177.508 43.16 177.331 42.8733 177.205 42.54C177.085 42.2 177.025 41.82 177.025 41.4C177.025 40.9867 177.075 40.6133 177.175 40.28C177.281 39.94 177.435 39.65 177.635 39.41C177.835 39.17 178.078 38.9867 178.365 38.86C178.651 38.7267 178.981 38.66 179.355 38.66C179.608 38.66 179.831 38.69 180.025 38.75C180.218 38.81 180.385 38.8767 180.525 38.95V36.44L181.735 36.24V43.84ZM182.982 41.41C182.982 40.95 183.049 40.5467 183.182 40.2C183.322 39.8533 183.505 39.5667 183.732 39.34C183.959 39.1067 184.219 38.9333 184.512 38.82C184.805 38.7 185.105 38.64 185.412 38.64C186.132 38.64 186.692 38.8633 187.092 39.31C187.499 39.7567 187.702 40.4233 187.702 41.31C187.702 41.3767 187.699 41.4533 187.692 41.54C187.692 41.62 187.689 41.6933 187.682 41.76H184.232C184.265 42.18 184.412 42.5067 184.672 42.74C184.939 42.9667 185.322 43.08 185.822 43.08C186.115 43.08 186.382 43.0533 186.622 43C186.869 42.9467 187.062 42.89 187.202 42.83L187.362 43.82C187.295 43.8533 187.202 43.89 187.082 43.93C186.969 43.9633 186.835 43.9933 186.682 44.02C186.535 44.0533 186.375 44.08 186.202 44.1C186.029 44.12 185.852 44.13 185.672 44.13C185.212 44.13 184.812 44.0633 184.472 43.93C184.132 43.79 183.852 43.6 183.632 43.36C183.412 43.1133 183.249 42.8267 183.142 42.5C183.035 42.1667 182.982 41.8033 182.982 41.41ZM186.492 40.87C186.492 40.7033 186.469 40.5467 186.422 40.4C186.375 40.2467 186.305 40.1167 186.212 40.01C186.125 39.8967 186.015 39.81 185.882 39.75C185.755 39.6833 185.602 39.65 185.422 39.65C185.235 39.65 185.072 39.6867 184.932 39.76C184.792 39.8267 184.672 39.9167 184.572 40.03C184.479 40.1433 184.405 40.2733 184.352 40.42C184.299 40.5667 184.262 40.7167 184.242 40.87H186.492ZM190.805 44.1C190.445 44.0933 190.145 44.0533 189.905 43.98C189.671 43.9067 189.485 43.8033 189.345 43.67C189.205 43.53 189.105 43.36 189.045 43.16C188.991 42.9533 188.965 42.72 188.965 42.46V36.44L190.175 36.24V42.23C190.175 42.3767 190.185 42.5 190.205 42.6C190.231 42.7 190.275 42.7867 190.335 42.86C190.395 42.9267 190.475 42.98 190.575 43.02C190.681 43.0533 190.815 43.08 190.975 43.1L190.805 44.1Z" fill="#0C8CE9"/>
<rect x="253" y="1" width="75.8477" height="79" rx="4" stroke="#0C8CE9"/>
<path d="M278.672 37.07C278.819 37.3233 278.982 37.6333 279.162 38C279.342 38.3667 279.526 38.7533 279.712 39.16C279.899 39.56 280.082 39.97 280.262 40.39C280.449 40.8033 280.619 41.1867 280.772 41.54C280.926 41.1867 281.092 40.8033 281.272 40.39C281.452 39.97 281.636 39.56 281.822 39.16C282.009 38.7533 282.192 38.3667 282.372 38C282.552 37.6333 282.716 37.3233 282.862 37.07H284.002C284.062 37.5767 284.119 38.1167 284.172 38.69C284.226 39.2567 284.272 39.84 284.312 40.44C284.359 41.0333 284.399 41.6333 284.432 42.24C284.472 42.84 284.506 43.4267 284.532 44H283.292C283.266 43.1933 283.232 42.3633 283.192 41.51C283.159 40.6567 283.106 39.83 283.032 39.03C282.959 39.1833 282.872 39.3667 282.772 39.58C282.672 39.7933 282.566 40.0267 282.452 40.28C282.339 40.5267 282.222 40.7833 282.102 41.05C281.989 41.3167 281.876 41.5767 281.762 41.83C281.656 42.0767 281.556 42.31 281.462 42.53C281.369 42.7433 281.289 42.9267 281.222 43.08H280.282C280.216 42.9267 280.136 42.74 280.042 42.52C279.949 42.3 279.846 42.0667 279.732 41.82C279.626 41.5667 279.512 41.3067 279.392 41.04C279.279 40.7733 279.166 40.5167 279.052 40.27C278.939 40.0233 278.832 39.7933 278.732 39.58C278.632 39.36 278.546 39.1767 278.472 39.03C278.399 39.83 278.342 40.6567 278.302 41.51C278.269 42.3633 278.239 43.1933 278.212 44H276.972C276.999 43.4267 277.029 42.8333 277.062 42.22C277.102 41.6067 277.142 41 277.182 40.4C277.229 39.7933 277.279 39.2067 277.332 38.64C277.386 38.0733 277.442 37.55 277.502 37.07H278.672ZM290.67 41.38C290.67 41.7933 290.61 42.17 290.49 42.51C290.37 42.85 290.2 43.14 289.98 43.38C289.76 43.62 289.494 43.8067 289.18 43.94C288.874 44.0733 288.534 44.14 288.16 44.14C287.787 44.14 287.447 44.0733 287.14 43.94C286.834 43.8067 286.57 43.62 286.35 43.38C286.13 43.14 285.957 42.85 285.83 42.51C285.71 42.17 285.65 41.7933 285.65 41.38C285.65 40.9667 285.71 40.5933 285.83 40.26C285.957 39.92 286.13 39.63 286.35 39.39C286.577 39.15 286.844 38.9667 287.15 38.84C287.457 38.7067 287.794 38.64 288.16 38.64C288.527 38.64 288.864 38.7067 289.17 38.84C289.484 38.9667 289.75 39.15 289.97 39.39C290.19 39.63 290.36 39.92 290.48 40.26C290.607 40.5933 290.67 40.9667 290.67 41.38ZM289.43 41.38C289.43 40.86 289.317 40.45 289.09 40.15C288.87 39.8433 288.56 39.69 288.16 39.69C287.76 39.69 287.447 39.8433 287.22 40.15C287 40.45 286.89 40.86 286.89 41.38C286.89 41.9067 287 42.3233 287.22 42.63C287.447 42.9367 287.76 43.09 288.16 43.09C288.56 43.09 288.87 42.9367 289.09 42.63C289.317 42.3233 289.43 41.9067 289.43 41.38ZM292.867 41.37C292.867 41.9033 292.994 42.3233 293.247 42.63C293.5 42.93 293.85 43.08 294.297 43.08C294.49 43.08 294.654 43.0733 294.787 43.06C294.927 43.04 295.04 43.02 295.127 43V40C295.02 39.9267 294.877 39.86 294.697 39.8C294.524 39.7333 294.337 39.7 294.137 39.7C293.697 39.7 293.374 39.85 293.167 40.15C292.967 40.45 292.867 40.8567 292.867 41.37ZM296.337 43.84C296.097 43.9133 295.794 43.98 295.427 44.04C295.067 44.1 294.687 44.13 294.287 44.13C293.874 44.13 293.504 44.0667 293.177 43.94C292.85 43.8133 292.57 43.6333 292.337 43.4C292.11 43.16 291.934 42.8733 291.807 42.54C291.687 42.2 291.627 41.82 291.627 41.4C291.627 40.9867 291.677 40.6133 291.777 40.28C291.884 39.94 292.037 39.65 292.237 39.41C292.437 39.17 292.68 38.9867 292.967 38.86C293.254 38.7267 293.584 38.66 293.957 38.66C294.21 38.66 294.434 38.69 294.627 38.75C294.82 38.81 294.987 38.8767 295.127 38.95V36.44L296.337 36.24V43.84ZM297.584 41.41C297.584 40.95 297.651 40.5467 297.784 40.2C297.924 39.8533 298.107 39.5667 298.334 39.34C298.561 39.1067 298.821 38.9333 299.114 38.82C299.407 38.7 299.707 38.64 300.014 38.64C300.734 38.64 301.294 38.8633 301.694 39.31C302.101 39.7567 302.304 40.4233 302.304 41.31C302.304 41.3767 302.301 41.4533 302.294 41.54C302.294 41.62 302.291 41.6933 302.284 41.76H298.834C298.867 42.18 299.014 42.5067 299.274 42.74C299.541 42.9667 299.924 43.08 300.424 43.08C300.717 43.08 300.984 43.0533 301.224 43C301.471 42.9467 301.664 42.89 301.804 42.83L301.964 43.82C301.897 43.8533 301.804 43.89 301.684 43.93C301.571 43.9633 301.437 43.9933 301.284 44.02C301.137 44.0533 300.977 44.08 300.804 44.1C300.631 44.12 300.454 44.13 300.274 44.13C299.814 44.13 299.414 44.0633 299.074 43.93C298.734 43.79 298.454 43.6 298.234 43.36C298.014 43.1133 297.851 42.8267 297.744 42.5C297.637 42.1667 297.584 41.8033 297.584 41.41ZM301.094 40.87C301.094 40.7033 301.071 40.5467 301.024 40.4C300.977 40.2467 300.907 40.1167 300.814 40.01C300.727 39.8967 300.617 39.81 300.484 39.75C300.357 39.6833 300.204 39.65 300.024 39.65C299.837 39.65 299.674 39.6867 299.534 39.76C299.394 39.8267 299.274 39.9167 299.174 40.03C299.081 40.1433 299.007 40.2733 298.954 40.42C298.901 40.5667 298.864 40.7167 298.844 40.87H301.094ZM305.407 44.1C305.047 44.0933 304.747 44.0533 304.507 43.98C304.273 43.9067 304.087 43.8033 303.947 43.67C303.807 43.53 303.707 43.36 303.647 43.16C303.593 42.9533 303.567 42.72 303.567 42.46V36.44L304.777 36.24V42.23C304.777 42.3767 304.787 42.5 304.807 42.6C304.833 42.7 304.877 42.7867 304.937 42.86C304.997 42.9267 305.077 42.98 305.177 43.02C305.283 43.0533 305.417 43.08 305.577 43.1L305.407 44.1Z" fill="#0C8CE9"/>
<path d="M77.6464 39.6464C77.4512 39.8417 77.4512 40.1583 77.6464 40.3536L80.8284 43.5355C81.0237 43.7308 81.3403 43.7308 81.5355 43.5355C81.7308 43.3403 81.7308 43.0237 81.5355 42.8284L78.7071 40L81.5355 37.1716C81.7308 36.9763 81.7308 36.6597 81.5355 36.4645C81.3403 36.2692 81.0237 36.2692 80.8284 36.4645L77.6464 39.6464ZM126.354 40.3536C126.549 40.1583 126.549 39.8417 126.354 39.6464L123.172 36.4645C122.976 36.2692 122.66 36.2692 122.464 36.4645C122.269 36.6597 122.269 36.9763 122.464 37.1716L125.293 40L122.464 42.8284C122.269 43.0237 122.269 43.3403 122.464 43.5355C122.66 43.7308 122.976 43.7308 123.172 43.5355L126.354 40.3536ZM78 40.5L126 40.5V39.5L78 39.5V40.5Z" fill="#0C8CE9"/>
<path d="M252.354 21.3536C252.549 21.1583 252.549 20.8417 252.354 20.6464L249.172 17.4645C248.976 17.2692 248.66 17.2692 248.464 17.4645C248.269 17.6597 248.269 17.9763 248.464 18.1716L251.293 21L248.464 23.8284C248.269 24.0237 248.269 24.3403 248.464 24.5355C248.66 24.7308 248.976 24.7308 249.172 24.5355L252.354 21.3536ZM203 21.5L252 21.5V20.5L203 20.5V21.5Z" fill="#0C8CE9"/>
<path d="M202.646 52.6464C202.451 52.8417 202.451 53.1583 202.646 53.3536L205.828 56.5355C206.024 56.7308 206.34 56.7308 206.536 56.5355C206.731 56.3403 206.731 56.0237 206.536 55.8284L203.707 53L206.536 50.1716C206.731 49.9763 206.731 49.6597 206.536 49.4645C206.34 49.2692 206.024 49.2692 205.828 49.4645L202.646 52.6464ZM204.531 53.5C204.807 53.5 205.031 53.2761 205.031 53C205.031 52.7239 204.807 52.5 204.531 52.5V53.5ZM207.594 52.5C207.318 52.5 207.094 52.7239 207.094 53C207.094 53.2761 207.318 53.5 207.594 53.5V52.5ZM210.656 53.5C210.932 53.5 211.156 53.2761 211.156 53C211.156 52.7239 210.932 52.5 210.656 52.5V53.5ZM213.719 52.5C213.443 52.5 213.219 52.7239 213.219 53C213.219 53.2761 213.443 53.5 213.719 53.5V52.5ZM216.781 53.5C217.057 53.5 217.281 53.2761 217.281 53C217.281 52.7239 217.057 52.5 216.781 52.5V53.5ZM219.844 52.5C219.568 52.5 219.344 52.7239 219.344 53C219.344 53.2761 219.568 53.5 219.844 53.5V52.5ZM222.906 53.5C223.182 53.5 223.406 53.2761 223.406 53C223.406 52.7239 223.182 52.5 222.906 52.5V53.5ZM225.969 52.5C225.693 52.5 225.469 52.7239 225.469 53C225.469 53.2761 225.693 53.5 225.969 53.5V52.5ZM229.031 53.5C229.307 53.5 229.531 53.2761 229.531 53C229.531 52.7239 229.307 52.5 229.031 52.5V53.5ZM232.094 52.5C231.818 52.5 231.594 52.7239 231.594 53C231.594 53.2761 231.818 53.5 232.094 53.5V52.5ZM235.156 53.5C235.432 53.5 235.656 53.2761 235.656 53C235.656 52.7239 235.432 52.5 235.156 52.5V53.5ZM238.219 52.5C237.943 52.5 237.719 52.7239 237.719 53C237.719 53.2761 237.943 53.5 238.219 53.5V52.5ZM241.281 53.5C241.557 53.5 241.781 53.2761 241.781 53C241.781 52.7239 241.557 52.5 241.281 52.5V53.5ZM244.344 52.5C244.068 52.5 243.844 52.7239 243.844 53C243.844 53.2761 244.068 53.5 244.344 53.5V52.5ZM247.406 53.5C247.682 53.5 247.906 53.2761 247.906 53C247.906 52.7239 247.682 52.5 247.406 52.5V53.5ZM250.469 52.5C250.193 52.5 249.969 52.7239 249.969 53C249.969 53.2761 250.193 53.5 250.469 53.5V52.5ZM203 53.5H204.531V52.5H203V53.5ZM207.594 53.5H210.656V52.5H207.594V53.5ZM213.719 53.5H216.781V52.5H213.719V53.5ZM219.844 53.5H222.906V52.5H219.844V53.5ZM225.969 53.5H229.031V52.5H225.969V53.5ZM232.094 53.5H235.156V52.5H232.094V53.5ZM238.219 53.5H241.281V52.5H238.219V53.5ZM244.344 53.5L247.406 53.5V52.5L244.344 52.5V53.5ZM250.469 53.5H252V52.5H250.469V53.5Z" fill="#0C8CE9"/>
<path d="M253.321 98.048C253.209 98.048 253.086 98.0453 252.953 98.04C252.825 98.0347 252.694 98.0267 252.561 98.016C252.433 98.0053 252.305 97.992 252.177 97.976C252.049 97.96 251.931 97.9387 251.825 97.912V92.536C251.931 92.5093 252.049 92.488 252.177 92.472C252.305 92.456 252.433 92.4427 252.561 92.432C252.694 92.4213 252.825 92.4133 252.953 92.408C253.081 92.4027 253.201 92.4 253.313 92.4C253.633 92.4 253.931 92.424 254.209 92.472C254.491 92.52 254.734 92.6027 254.937 92.72C255.145 92.832 255.307 92.9813 255.425 93.168C255.542 93.3547 255.601 93.584 255.601 93.856C255.601 94.16 255.529 94.4107 255.385 94.608C255.241 94.8 255.049 94.944 254.809 95.04C255.134 95.136 255.393 95.288 255.585 95.496C255.777 95.704 255.873 95.9973 255.873 96.376C255.873 96.9307 255.667 97.3493 255.257 97.632C254.851 97.9093 254.206 98.048 253.321 98.048ZM252.593 95.416V97.368C252.651 97.3733 252.721 97.3787 252.801 97.384C252.87 97.3893 252.95 97.3947 253.041 97.4C253.137 97.4 253.246 97.4 253.369 97.4C253.598 97.4 253.814 97.3867 254.017 97.36C254.225 97.328 254.406 97.2747 254.561 97.2C254.715 97.1253 254.838 97.0213 254.929 96.888C255.025 96.7547 255.073 96.5867 255.073 96.384C255.073 96.2027 255.038 96.0507 254.969 95.928C254.899 95.8 254.798 95.6987 254.665 95.624C254.537 95.5493 254.382 95.496 254.201 95.464C254.019 95.432 253.817 95.416 253.593 95.416H252.593ZM252.593 94.792H253.409C253.601 94.792 253.782 94.7787 253.953 94.752C254.123 94.7253 254.27 94.6773 254.393 94.608C254.521 94.5387 254.619 94.448 254.689 94.336C254.763 94.224 254.801 94.0827 254.801 93.912C254.801 93.752 254.763 93.6187 254.689 93.512C254.614 93.4 254.51 93.312 254.377 93.248C254.249 93.1787 254.097 93.128 253.921 93.096C253.745 93.064 253.558 93.048 253.361 93.048C253.163 93.048 253.009 93.0507 252.897 93.056C252.785 93.0613 252.683 93.0693 252.593 93.08V94.792ZM260.229 97.88C260.059 97.9227 259.832 97.968 259.549 98.016C259.272 98.064 258.949 98.088 258.581 98.088C258.261 98.088 257.992 98.0427 257.773 97.952C257.555 97.856 257.379 97.7227 257.245 97.552C257.112 97.3813 257.016 97.1813 256.957 96.952C256.899 96.7173 256.869 96.4587 256.869 96.176V93.84H257.613V96.016C257.613 96.5227 257.693 96.8853 257.853 97.104C258.013 97.3227 258.283 97.432 258.661 97.432C258.741 97.432 258.824 97.4293 258.909 97.424C258.995 97.4187 259.075 97.4133 259.149 97.408C259.224 97.3973 259.291 97.3893 259.349 97.384C259.413 97.3733 259.459 97.3627 259.485 97.352V93.84H260.229V97.88ZM262.479 97.464C262.783 97.464 263.007 97.424 263.151 97.344C263.3 97.264 263.375 97.136 263.375 96.96C263.375 96.7787 263.303 96.6347 263.159 96.528C263.015 96.4213 262.778 96.3013 262.447 96.168C262.287 96.104 262.132 96.04 261.983 95.976C261.839 95.9067 261.714 95.8267 261.607 95.736C261.5 95.6453 261.415 95.536 261.351 95.408C261.287 95.28 261.255 95.1227 261.255 94.936C261.255 94.568 261.391 94.2773 261.663 94.064C261.935 93.8453 262.306 93.736 262.775 93.736C262.892 93.736 263.01 93.744 263.127 93.76C263.244 93.7707 263.354 93.7867 263.455 93.808C263.556 93.824 263.644 93.8427 263.719 93.864C263.799 93.8853 263.86 93.904 263.903 93.92L263.767 94.56C263.687 94.5173 263.562 94.4747 263.391 94.432C263.22 94.384 263.015 94.36 262.775 94.36C262.567 94.36 262.386 94.4027 262.231 94.488C262.076 94.568 261.999 94.696 261.999 94.872C261.999 94.9627 262.015 95.0427 262.047 95.112C262.084 95.1813 262.138 95.2453 262.207 95.304C262.282 95.3573 262.372 95.408 262.479 95.456C262.586 95.504 262.714 95.5547 262.863 95.608C263.06 95.6827 263.236 95.7573 263.391 95.832C263.546 95.9013 263.676 95.984 263.783 96.08C263.895 96.176 263.98 96.2933 264.039 96.432C264.098 96.5653 264.127 96.7307 264.127 96.928C264.127 97.312 263.983 97.6027 263.695 97.8C263.412 97.9973 263.007 98.096 262.479 98.096C262.111 98.096 261.823 98.064 261.615 98C261.407 97.9413 261.266 97.896 261.191 97.864L261.327 97.224C261.412 97.256 261.548 97.304 261.735 97.368C261.922 97.432 262.17 97.464 262.479 97.464ZM265.825 98H265.081V93.84H265.825V98ZM265.449 93.088C265.316 93.088 265.201 93.0453 265.105 92.96C265.015 92.8693 264.969 92.7493 264.969 92.6C264.969 92.4507 265.015 92.3333 265.105 92.248C265.201 92.1573 265.316 92.112 265.449 92.112C265.583 92.112 265.695 92.1573 265.785 92.248C265.881 92.3333 265.929 92.4507 265.929 92.6C265.929 92.7493 265.881 92.8693 265.785 92.96C265.695 93.0453 265.583 93.088 265.449 93.088ZM267.105 93.96C267.276 93.9173 267.502 93.872 267.785 93.824C268.068 93.776 268.393 93.752 268.761 93.752C269.092 93.752 269.366 93.8 269.585 93.896C269.804 93.9867 269.977 94.1173 270.105 94.288C270.238 94.4533 270.332 94.6533 270.385 94.888C270.438 95.1227 270.465 95.3813 270.465 95.664V98H269.721V95.824C269.721 95.568 269.702 95.3493 269.665 95.168C269.633 94.9867 269.577 94.84 269.497 94.728C269.417 94.616 269.31 94.536 269.177 94.488C269.044 94.4347 268.878 94.408 268.681 94.408C268.601 94.408 268.518 94.4107 268.433 94.416C268.348 94.4213 268.265 94.4293 268.185 94.44C268.11 94.4453 268.041 94.4533 267.977 94.464C267.918 94.4747 267.876 94.4827 267.849 94.488V98H267.105V93.96ZM271.467 95.928C271.467 95.56 271.52 95.24 271.627 94.968C271.733 94.6907 271.875 94.4613 272.051 94.28C272.227 94.0987 272.429 93.9627 272.659 93.872C272.888 93.7813 273.123 93.736 273.363 93.736C273.923 93.736 274.352 93.912 274.651 94.264C274.949 94.6107 275.099 95.1413 275.099 95.856C275.099 95.888 275.099 95.9307 275.099 95.984C275.099 96.032 275.096 96.0773 275.091 96.12H272.243C272.275 96.552 272.4 96.88 272.619 97.104C272.837 97.328 273.179 97.44 273.643 97.44C273.904 97.44 274.123 97.4187 274.299 97.376C274.48 97.328 274.616 97.2827 274.707 97.24L274.811 97.864C274.72 97.912 274.56 97.9627 274.331 98.016C274.107 98.0693 273.851 98.096 273.563 98.096C273.2 98.096 272.885 98.0427 272.619 97.936C272.357 97.824 272.141 97.672 271.971 97.48C271.8 97.288 271.672 97.0613 271.587 96.8C271.507 96.5333 271.467 96.2427 271.467 95.928ZM274.323 95.52C274.328 95.184 274.243 94.9093 274.067 94.696C273.896 94.4773 273.659 94.368 273.355 94.368C273.184 94.368 273.032 94.4027 272.899 94.472C272.771 94.536 272.661 94.6213 272.571 94.728C272.48 94.8347 272.408 94.9573 272.355 95.096C272.307 95.2347 272.275 95.376 272.259 95.52H274.323ZM277.135 97.464C277.439 97.464 277.663 97.424 277.807 97.344C277.957 97.264 278.031 97.136 278.031 96.96C278.031 96.7787 277.959 96.6347 277.815 96.528C277.671 96.4213 277.434 96.3013 277.103 96.168C276.943 96.104 276.789 96.04 276.639 95.976C276.495 95.9067 276.37 95.8267 276.263 95.736C276.157 95.6453 276.071 95.536 276.007 95.408C275.943 95.28 275.911 95.1227 275.911 94.936C275.911 94.568 276.047 94.2773 276.319 94.064C276.591 93.8453 276.962 93.736 277.431 93.736C277.549 93.736 277.666 93.744 277.783 93.76C277.901 93.7707 278.01 93.7867 278.111 93.808C278.213 93.824 278.301 93.8427 278.375 93.864C278.455 93.8853 278.517 93.904 278.559 93.92L278.423 94.56C278.343 94.5173 278.218 94.4747 278.047 94.432C277.877 94.384 277.671 94.36 277.431 94.36C277.223 94.36 277.042 94.4027 276.887 94.488C276.733 94.568 276.655 94.696 276.655 94.872C276.655 94.9627 276.671 95.0427 276.703 95.112C276.741 95.1813 276.794 95.2453 276.863 95.304C276.938 95.3573 277.029 95.408 277.135 95.456C277.242 95.504 277.37 95.5547 277.519 95.608C277.717 95.6827 277.893 95.7573 278.047 95.832C278.202 95.9013 278.333 95.984 278.439 96.08C278.551 96.176 278.637 96.2933 278.695 96.432C278.754 96.5653 278.783 96.7307 278.783 96.928C278.783 97.312 278.639 97.6027 278.351 97.8C278.069 97.9973 277.663 98.096 277.135 98.096C276.767 98.096 276.479 98.064 276.271 98C276.063 97.9413 275.922 97.896 275.847 97.864L275.983 97.224C276.069 97.256 276.205 97.304 276.391 97.368C276.578 97.432 276.826 97.464 277.135 97.464ZM280.706 97.464C281.01 97.464 281.234 97.424 281.378 97.344C281.527 97.264 281.602 97.136 281.602 96.96C281.602 96.7787 281.53 96.6347 281.386 96.528C281.242 96.4213 281.004 96.3013 280.674 96.168C280.514 96.104 280.359 96.04 280.21 95.976C280.066 95.9067 279.94 95.8267 279.834 95.736C279.727 95.6453 279.642 95.536 279.578 95.408C279.514 95.28 279.482 95.1227 279.482 94.936C279.482 94.568 279.618 94.2773 279.89 94.064C280.162 93.8453 280.532 93.736 281.002 93.736C281.119 93.736 281.236 93.744 281.354 93.76C281.471 93.7707 281.58 93.7867 281.682 93.808C281.783 93.824 281.871 93.8427 281.946 93.864C282.026 93.8853 282.087 93.904 282.13 93.92L281.994 94.56C281.914 94.5173 281.788 94.4747 281.618 94.432C281.447 94.384 281.242 94.36 281.002 94.36C280.794 94.36 280.612 94.4027 280.458 94.488C280.303 94.568 280.226 94.696 280.226 94.872C280.226 94.9627 280.242 95.0427 280.274 95.112C280.311 95.1813 280.364 95.2453 280.434 95.304C280.508 95.3573 280.599 95.408 280.706 95.456C280.812 95.504 280.94 95.5547 281.09 95.608C281.287 95.6827 281.463 95.7573 281.618 95.832C281.772 95.9013 281.903 95.984 282.01 96.08C282.122 96.176 282.207 96.2933 282.266 96.432C282.324 96.5653 282.354 96.7307 282.354 96.928C282.354 97.312 282.21 97.6027 281.922 97.8C281.639 97.9973 281.234 98.096 280.706 98.096C280.338 98.096 280.05 98.064 279.842 98C279.634 97.9413 279.492 97.896 279.418 97.864L279.554 97.224C279.639 97.256 279.775 97.304 279.962 97.368C280.148 97.432 280.396 97.464 280.706 97.464ZM288.544 97.328V98H285.208V92.456H285.984V97.328H288.544ZM292.886 95.92C292.886 96.2507 292.838 96.5493 292.742 96.816C292.646 97.0827 292.51 97.312 292.334 97.504C292.164 97.696 291.958 97.8453 291.718 97.952C291.478 98.0533 291.217 98.104 290.934 98.104C290.652 98.104 290.39 98.0533 290.15 97.952C289.91 97.8453 289.702 97.696 289.526 97.504C289.356 97.312 289.222 97.0827 289.126 96.816C289.03 96.5493 288.982 96.2507 288.982 95.92C288.982 95.5947 289.03 95.2987 289.126 95.032C289.222 94.76 289.356 94.528 289.526 94.336C289.702 94.144 289.91 93.9973 290.15 93.896C290.39 93.7893 290.652 93.736 290.934 93.736C291.217 93.736 291.478 93.7893 291.718 93.896C291.958 93.9973 292.164 94.144 292.334 94.336C292.51 94.528 292.646 94.76 292.742 95.032C292.838 95.2987 292.886 95.5947 292.886 95.92ZM292.11 95.92C292.11 95.4507 292.004 95.08 291.79 94.808C291.582 94.5307 291.297 94.392 290.934 94.392C290.572 94.392 290.284 94.5307 290.07 94.808C289.862 95.08 289.758 95.4507 289.758 95.92C289.758 96.3893 289.862 96.7627 290.07 97.04C290.284 97.312 290.572 97.448 290.934 97.448C291.297 97.448 291.582 97.312 291.79 97.04C292.004 96.7627 292.11 96.3893 292.11 95.92ZM296.541 97.584C296.477 97.6267 296.352 97.6827 296.165 97.752C295.984 97.816 295.77 97.848 295.525 97.848C295.274 97.848 295.037 97.808 294.813 97.728C294.594 97.648 294.402 97.5253 294.237 97.36C294.072 97.1893 293.941 96.9787 293.845 96.728C293.749 96.4773 293.701 96.1787 293.701 95.832C293.701 95.528 293.746 95.2507 293.837 95C293.928 94.744 294.058 94.5253 294.229 94.344C294.405 94.1573 294.618 94.0133 294.869 93.912C295.12 93.8053 295.402 93.752 295.717 93.752C296.064 93.752 296.365 93.7787 296.621 93.832C296.882 93.88 297.101 93.9253 297.277 93.968V97.68C297.277 98.32 297.112 98.784 296.781 99.072C296.45 99.36 295.949 99.504 295.277 99.504C295.016 99.504 294.768 99.4827 294.533 99.44C294.304 99.3973 294.104 99.3467 293.933 99.288L294.069 98.64C294.218 98.6987 294.4 98.7493 294.613 98.792C294.832 98.84 295.058 98.864 295.293 98.864C295.736 98.864 296.053 98.776 296.245 98.6C296.442 98.424 296.541 98.144 296.541 97.76V97.584ZM296.533 94.496C296.458 94.4747 296.357 94.456 296.229 94.44C296.106 94.4187 295.938 94.408 295.725 94.408C295.325 94.408 295.016 94.5387 294.797 94.8C294.584 95.0613 294.477 95.408 294.477 95.84C294.477 96.08 294.506 96.2853 294.565 96.456C294.629 96.6267 294.712 96.768 294.813 96.88C294.92 96.992 295.04 97.0747 295.173 97.128C295.312 97.1813 295.453 97.208 295.597 97.208C295.794 97.208 295.976 97.1813 296.141 97.128C296.306 97.0693 296.437 97.0027 296.533 96.928V94.496ZM299.302 98H298.558V93.84H299.302V98ZM298.926 93.088C298.793 93.088 298.678 93.0453 298.582 92.96C298.491 92.8693 298.446 92.7493 298.446 92.6C298.446 92.4507 298.491 92.3333 298.582 92.248C298.678 92.1573 298.793 92.112 298.926 92.112C299.059 92.112 299.171 92.1573 299.262 92.248C299.358 92.3333 299.406 92.4507 299.406 92.6C299.406 92.7493 299.358 92.8693 299.262 92.96C299.171 93.0453 299.059 93.088 298.926 93.088ZM302.389 98.096C302.053 98.096 301.757 98.0427 301.501 97.936C301.251 97.8293 301.037 97.68 300.861 97.488C300.691 97.296 300.563 97.0693 300.477 96.808C300.392 96.5413 300.349 96.248 300.349 95.928C300.349 95.608 300.395 95.3147 300.485 95.048C300.581 94.7813 300.715 94.552 300.885 94.36C301.056 94.1627 301.264 94.0107 301.509 93.904C301.76 93.792 302.037 93.736 302.341 93.736C302.528 93.736 302.715 93.752 302.901 93.784C303.088 93.816 303.267 93.8667 303.437 93.936L303.269 94.568C303.157 94.5147 303.027 94.472 302.877 94.44C302.733 94.408 302.579 94.392 302.413 94.392C301.997 94.392 301.677 94.5227 301.453 94.784C301.235 95.0453 301.125 95.4267 301.125 95.928C301.125 96.152 301.149 96.3573 301.197 96.544C301.251 96.7307 301.331 96.8907 301.437 97.024C301.549 97.1573 301.691 97.2613 301.861 97.336C302.032 97.4053 302.24 97.44 302.485 97.44C302.683 97.44 302.861 97.4213 303.021 97.384C303.181 97.3467 303.307 97.3067 303.397 97.264L303.501 97.888C303.459 97.9147 303.397 97.9413 303.317 97.968C303.237 97.9893 303.147 98.008 303.045 98.024C302.944 98.0453 302.835 98.0613 302.717 98.072C302.605 98.088 302.496 98.096 302.389 98.096ZM305.88 96.528C305.88 96.32 305.912 96.136 305.976 95.976C306.04 95.8107 306.125 95.664 306.232 95.536C306.344 95.4027 306.472 95.288 306.616 95.192C306.76 95.0907 306.909 95.0027 307.064 94.928C306.669 94.5333 306.472 94.1253 306.472 93.704C306.472 93.4907 306.506 93.2987 306.576 93.128C306.65 92.9573 306.749 92.8133 306.872 92.696C307 92.5787 307.149 92.488 307.32 92.424C307.496 92.36 307.688 92.328 307.896 92.328C308.109 92.328 308.298 92.36 308.464 92.424C308.634 92.488 308.776 92.5733 308.888 92.68C309.005 92.7867 309.093 92.9147 309.152 93.064C309.21 93.2133 309.24 93.3707 309.24 93.536C309.24 93.7227 309.208 93.8907 309.144 94.04C309.085 94.1893 309.002 94.3253 308.896 94.448C308.794 94.5707 308.677 94.6827 308.544 94.784C308.41 94.8853 308.269 94.976 308.12 95.056L309.416 96.376C309.597 96.04 309.714 95.6667 309.768 95.256L310.384 95.336C310.362 95.5547 310.306 95.7947 310.216 96.056C310.13 96.312 310.008 96.568 309.848 96.824C310.034 97.0267 310.205 97.2267 310.36 97.424C310.52 97.6213 310.65 97.8133 310.752 98H309.968C309.904 97.8933 309.824 97.784 309.728 97.672C309.637 97.56 309.541 97.448 309.44 97.336C309.221 97.5547 308.968 97.7333 308.68 97.872C308.392 98.0053 308.061 98.072 307.688 98.072C307.341 98.072 307.053 98.024 306.824 97.928C306.594 97.8267 306.408 97.7013 306.264 97.552C306.125 97.3973 306.026 97.2293 305.968 97.048C305.909 96.8667 305.88 96.6933 305.88 96.528ZM306.624 96.512C306.624 96.608 306.642 96.712 306.68 96.824C306.717 96.936 306.778 97.04 306.864 97.136C306.949 97.2267 307.058 97.304 307.192 97.368C307.33 97.4267 307.501 97.456 307.704 97.456C307.965 97.456 308.205 97.408 308.424 97.312C308.648 97.216 308.845 97.08 309.016 96.904L307.456 95.328C307.36 95.376 307.261 95.432 307.16 95.496C307.064 95.56 306.976 95.64 306.896 95.736C306.816 95.8267 306.749 95.936 306.696 96.064C306.648 96.192 306.624 96.3413 306.624 96.512ZM308.568 93.56C308.568 93.3787 308.506 93.2267 308.384 93.104C308.266 92.976 308.104 92.912 307.896 92.912C307.661 92.912 307.48 92.984 307.352 93.128C307.229 93.2667 307.168 93.44 307.168 93.648C307.168 93.9947 307.349 94.3333 307.712 94.664C307.829 94.6053 307.938 94.5413 308.04 94.472C308.146 94.4027 308.237 94.3227 308.312 94.232C308.392 94.1413 308.453 94.0427 308.496 93.936C308.544 93.824 308.568 93.6987 308.568 93.56ZM317.931 95.224C317.931 95.704 317.857 96.1227 317.707 96.48C317.558 96.832 317.347 97.1253 317.075 97.36C316.803 97.5893 316.478 97.7627 316.099 97.88C315.721 97.992 315.305 98.048 314.851 98.048C314.627 98.048 314.379 98.0373 314.107 98.016C313.841 98 313.598 97.9653 313.379 97.912V92.536C313.598 92.4827 313.841 92.448 314.107 92.432C314.379 92.4107 314.627 92.4 314.851 92.4C315.305 92.4 315.721 92.4587 316.099 92.576C316.478 92.688 316.803 92.8613 317.075 93.096C317.347 93.3253 317.558 93.6187 317.707 93.976C317.857 94.328 317.931 94.744 317.931 95.224ZM314.915 97.368C315.651 97.368 316.201 97.1813 316.563 96.808C316.926 96.4293 317.107 95.9013 317.107 95.224C317.107 94.5467 316.926 94.0213 316.563 93.648C316.201 93.2693 315.651 93.08 314.915 93.08C314.697 93.08 314.526 93.0827 314.403 93.088C314.286 93.0933 314.203 93.0987 314.155 93.104V97.344C314.203 97.3493 314.286 97.3547 314.403 97.36C314.526 97.3653 314.697 97.368 314.915 97.368ZM320.333 97.464C320.509 97.464 320.664 97.4613 320.797 97.456C320.936 97.4453 321.05 97.4293 321.141 97.408V96.168C321.088 96.1413 321 96.12 320.877 96.104C320.76 96.0827 320.616 96.072 320.445 96.072C320.333 96.072 320.213 96.08 320.085 96.096C319.962 96.112 319.848 96.1467 319.741 96.2C319.64 96.248 319.554 96.3173 319.485 96.408C319.416 96.4933 319.381 96.608 319.381 96.752C319.381 97.0187 319.466 97.2053 319.637 97.312C319.808 97.4133 320.04 97.464 320.333 97.464ZM320.269 93.736C320.568 93.736 320.818 93.776 321.021 93.856C321.229 93.9307 321.394 94.04 321.517 94.184C321.645 94.3227 321.736 94.4907 321.789 94.688C321.842 94.88 321.869 95.0933 321.869 95.328V97.928C321.805 97.9387 321.714 97.9547 321.597 97.976C321.485 97.992 321.357 98.008 321.213 98.024C321.069 98.04 320.912 98.0533 320.741 98.064C320.576 98.08 320.41 98.088 320.245 98.088C320.01 98.088 319.794 98.064 319.597 98.016C319.4 97.968 319.229 97.8933 319.085 97.792C318.941 97.6853 318.829 97.5467 318.749 97.376C318.669 97.2053 318.629 97 318.629 96.76C318.629 96.5307 318.674 96.3333 318.765 96.168C318.861 96.0027 318.989 95.8693 319.149 95.768C319.309 95.6667 319.496 95.592 319.709 95.544C319.922 95.496 320.146 95.472 320.381 95.472C320.456 95.472 320.533 95.4773 320.613 95.488C320.693 95.4933 320.768 95.504 320.837 95.52C320.912 95.5307 320.976 95.5413 321.029 95.552C321.082 95.5627 321.12 95.5707 321.141 95.576V95.368C321.141 95.2453 321.128 95.1253 321.101 95.008C321.074 94.8853 321.026 94.7787 320.957 94.688C320.888 94.592 320.792 94.5173 320.669 94.464C320.552 94.4053 320.397 94.376 320.205 94.376C319.96 94.376 319.744 94.3947 319.557 94.432C319.376 94.464 319.24 94.4987 319.149 94.536L319.061 93.92C319.157 93.8773 319.317 93.8373 319.541 93.8C319.765 93.7573 320.008 93.736 320.269 93.736ZM323.801 93.84H325.377V94.464H323.801V96.384C323.801 96.592 323.817 96.7653 323.849 96.904C323.881 97.0373 323.929 97.144 323.993 97.224C324.057 97.2987 324.137 97.352 324.233 97.384C324.329 97.416 324.441 97.432 324.569 97.432C324.793 97.432 324.972 97.408 325.105 97.36C325.244 97.3067 325.34 97.2693 325.393 97.248L325.537 97.864C325.462 97.9013 325.332 97.9467 325.145 98C324.958 98.0587 324.745 98.088 324.505 98.088C324.222 98.088 323.988 98.0533 323.801 97.984C323.62 97.9093 323.473 97.8 323.361 97.656C323.249 97.512 323.169 97.336 323.121 97.128C323.078 96.9147 323.057 96.6693 323.057 96.392V92.68L323.801 92.552V93.84ZM327.732 97.464C327.908 97.464 328.062 97.4613 328.196 97.456C328.334 97.4453 328.449 97.4293 328.54 97.408V96.168C328.486 96.1413 328.398 96.12 328.276 96.104C328.158 96.0827 328.014 96.072 327.844 96.072C327.732 96.072 327.612 96.08 327.484 96.096C327.361 96.112 327.246 96.1467 327.14 96.2C327.038 96.248 326.953 96.3173 326.884 96.408C326.814 96.4933 326.78 96.608 326.78 96.752C326.78 97.0187 326.865 97.2053 327.036 97.312C327.206 97.4133 327.438 97.464 327.732 97.464ZM327.668 93.736C327.966 93.736 328.217 93.776 328.42 93.856C328.628 93.9307 328.793 94.04 328.916 94.184C329.044 94.3227 329.134 94.4907 329.188 94.688C329.241 94.88 329.268 95.0933 329.268 95.328V97.928C329.204 97.9387 329.113 97.9547 328.996 97.976C328.884 97.992 328.756 98.008 328.612 98.024C328.468 98.04 328.31 98.0533 328.14 98.064C327.974 98.08 327.809 98.088 327.644 98.088C327.409 98.088 327.193 98.064 326.996 98.016C326.798 97.968 326.628 97.8933 326.484 97.792C326.34 97.6853 326.228 97.5467 326.148 97.376C326.068 97.2053 326.028 97 326.028 96.76C326.028 96.5307 326.073 96.3333 326.164 96.168C326.26 96.0027 326.388 95.8693 326.548 95.768C326.708 95.6667 326.894 95.592 327.108 95.544C327.321 95.496 327.545 95.472 327.78 95.472C327.854 95.472 327.932 95.4773 328.012 95.488C328.092 95.4933 328.166 95.504 328.236 95.52C328.31 95.5307 328.374 95.5413 328.428 95.552C328.481 95.5627 328.518 95.5707 328.54 95.576V95.368C328.54 95.2453 328.526 95.1253 328.5 95.008C328.473 94.8853 328.425 94.7787 328.356 94.688C328.286 94.592 328.19 94.5173 328.068 94.464C327.95 94.4053 327.796 94.376 327.604 94.376C327.358 94.376 327.142 94.3947 326.956 94.432C326.774 94.464 326.638 94.4987 326.548 94.536L326.46 93.92C326.556 93.8773 326.716 93.8373 326.94 93.8C327.164 93.7573 327.406 93.736 327.668 93.736Z" fill="#242424"/>
<path d="M133.16 92.4C133.939 92.4 134.536 92.5493 134.952 92.848C135.373 93.1413 135.584 93.5813 135.584 94.168C135.584 94.488 135.525 94.7627 135.408 94.992C135.296 95.216 135.131 95.4 134.912 95.544C134.699 95.6827 134.437 95.784 134.128 95.848C133.819 95.912 133.469 95.944 133.08 95.944H132.464V98H131.688V92.536C131.907 92.4827 132.149 92.448 132.416 92.432C132.688 92.4107 132.936 92.4 133.16 92.4ZM133.224 93.08C132.893 93.08 132.64 93.088 132.464 93.104V95.28H133.048C133.315 95.28 133.555 95.264 133.768 95.232C133.981 95.1947 134.16 95.136 134.304 95.056C134.453 94.9707 134.568 94.856 134.648 94.712C134.728 94.568 134.768 94.384 134.768 94.16C134.768 93.9467 134.725 93.7707 134.64 93.632C134.56 93.4933 134.448 93.384 134.304 93.304C134.165 93.2187 134.003 93.16 133.816 93.128C133.629 93.096 133.432 93.08 133.224 93.08ZM138.043 93.752C138.107 93.752 138.179 93.7573 138.259 93.768C138.345 93.7733 138.427 93.784 138.507 93.8C138.587 93.8107 138.659 93.824 138.723 93.84C138.793 93.8507 138.843 93.8613 138.875 93.872L138.747 94.52C138.689 94.4987 138.59 94.4747 138.451 94.448C138.318 94.416 138.145 94.4 137.931 94.4C137.793 94.4 137.654 94.416 137.515 94.448C137.382 94.4747 137.294 94.4933 137.251 94.504V98H136.507V94.016C136.683 93.952 136.902 93.8933 137.163 93.84C137.425 93.7813 137.718 93.752 138.043 93.752ZM139.361 95.928C139.361 95.56 139.414 95.24 139.521 94.968C139.628 94.6907 139.769 94.4613 139.945 94.28C140.121 94.0987 140.324 93.9627 140.553 93.872C140.782 93.7813 141.017 93.736 141.257 93.736C141.817 93.736 142.246 93.912 142.545 94.264C142.844 94.6107 142.993 95.1413 142.993 95.856C142.993 95.888 142.993 95.9307 142.993 95.984C142.993 96.032 142.99 96.0773 142.985 96.12H140.137C140.169 96.552 140.294 96.88 140.513 97.104C140.732 97.328 141.073 97.44 141.537 97.44C141.798 97.44 142.017 97.4187 142.193 97.376C142.374 97.328 142.51 97.2827 142.601 97.24L142.705 97.864C142.614 97.912 142.454 97.9627 142.225 98.016C142.001 98.0693 141.745 98.096 141.457 98.096C141.094 98.096 140.78 98.0427 140.513 97.936C140.252 97.824 140.036 97.672 139.865 97.48C139.694 97.288 139.566 97.0613 139.481 96.8C139.401 96.5333 139.361 96.2427 139.361 95.928ZM142.217 95.52C142.222 95.184 142.137 94.9093 141.961 94.696C141.79 94.4773 141.553 94.368 141.249 94.368C141.078 94.368 140.926 94.4027 140.793 94.472C140.665 94.536 140.556 94.6213 140.465 94.728C140.374 94.8347 140.302 94.9573 140.249 95.096C140.201 95.2347 140.169 95.376 140.153 95.52H142.217ZM145.03 97.464C145.334 97.464 145.558 97.424 145.702 97.344C145.851 97.264 145.926 97.136 145.926 96.96C145.926 96.7787 145.854 96.6347 145.71 96.528C145.566 96.4213 145.329 96.3013 144.998 96.168C144.838 96.104 144.683 96.04 144.534 95.976C144.39 95.9067 144.265 95.8267 144.158 95.736C144.051 95.6453 143.966 95.536 143.902 95.408C143.838 95.28 143.806 95.1227 143.806 94.936C143.806 94.568 143.942 94.2773 144.214 94.064C144.486 93.8453 144.857 93.736 145.326 93.736C145.443 93.736 145.561 93.744 145.678 93.76C145.795 93.7707 145.905 93.7867 146.006 93.808C146.107 93.824 146.195 93.8427 146.27 93.864C146.35 93.8853 146.411 93.904 146.454 93.92L146.318 94.56C146.238 94.5173 146.113 94.4747 145.942 94.432C145.771 94.384 145.566 94.36 145.326 94.36C145.118 94.36 144.937 94.4027 144.782 94.488C144.627 94.568 144.55 94.696 144.55 94.872C144.55 94.9627 144.566 95.0427 144.598 95.112C144.635 95.1813 144.689 95.2453 144.758 95.304C144.833 95.3573 144.923 95.408 145.03 95.456C145.137 95.504 145.265 95.5547 145.414 95.608C145.611 95.6827 145.787 95.7573 145.942 95.832C146.097 95.9013 146.227 95.984 146.334 96.08C146.446 96.176 146.531 96.2933 146.59 96.432C146.649 96.5653 146.678 96.7307 146.678 96.928C146.678 97.312 146.534 97.6027 146.246 97.8C145.963 97.9973 145.558 98.096 145.03 98.096C144.662 98.096 144.374 98.064 144.166 98C143.958 97.9413 143.817 97.896 143.742 97.864L143.878 97.224C143.963 97.256 144.099 97.304 144.286 97.368C144.473 97.432 144.721 97.464 145.03 97.464ZM147.4 95.928C147.4 95.56 147.454 95.24 147.56 94.968C147.667 94.6907 147.808 94.4613 147.984 94.28C148.16 94.0987 148.363 93.9627 148.592 93.872C148.822 93.7813 149.056 93.736 149.296 93.736C149.856 93.736 150.286 93.912 150.584 94.264C150.883 94.6107 151.032 95.1413 151.032 95.856C151.032 95.888 151.032 95.9307 151.032 95.984C151.032 96.032 151.03 96.0773 151.024 96.12H148.176C148.208 96.552 148.334 96.88 148.552 97.104C148.771 97.328 149.112 97.44 149.576 97.44C149.838 97.44 150.056 97.4187 150.232 97.376C150.414 97.328 150.55 97.2827 150.64 97.24L150.744 97.864C150.654 97.912 150.494 97.9627 150.264 98.016C150.04 98.0693 149.784 98.096 149.496 98.096C149.134 98.096 148.819 98.0427 148.552 97.936C148.291 97.824 148.075 97.672 147.904 97.48C147.734 97.288 147.606 97.0613 147.52 96.8C147.44 96.5333 147.4 96.2427 147.4 95.928ZM150.256 95.52C150.262 95.184 150.176 94.9093 150 94.696C149.83 94.4773 149.592 94.368 149.288 94.368C149.118 94.368 148.966 94.4027 148.832 94.472C148.704 94.536 148.595 94.6213 148.504 94.728C148.414 94.8347 148.342 94.9573 148.288 95.096C148.24 95.2347 148.208 95.376 148.192 95.52H150.256ZM152.101 93.96C152.272 93.9173 152.498 93.872 152.781 93.824C153.064 93.776 153.389 93.752 153.757 93.752C154.088 93.752 154.362 93.8 154.581 93.896C154.8 93.9867 154.973 94.1173 155.101 94.288C155.234 94.4533 155.328 94.6533 155.381 94.888C155.434 95.1227 155.461 95.3813 155.461 95.664V98H154.717V95.824C154.717 95.568 154.698 95.3493 154.661 95.168C154.629 94.9867 154.573 94.84 154.493 94.728C154.413 94.616 154.306 94.536 154.173 94.488C154.04 94.4347 153.874 94.408 153.677 94.408C153.597 94.408 153.514 94.4107 153.429 94.416C153.344 94.4213 153.261 94.4293 153.181 94.44C153.106 94.4453 153.037 94.4533 152.973 94.464C152.914 94.4747 152.872 94.4827 152.845 94.488V98H152.101V93.96ZM157.391 93.84H158.967V94.464H157.391V96.384C157.391 96.592 157.407 96.7653 157.439 96.904C157.471 97.0373 157.519 97.144 157.583 97.224C157.647 97.2987 157.727 97.352 157.823 97.384C157.919 97.416 158.031 97.432 158.159 97.432C158.383 97.432 158.561 97.408 158.695 97.36C158.833 97.3067 158.929 97.2693 158.983 97.248L159.127 97.864C159.052 97.9013 158.921 97.9467 158.735 98C158.548 98.0587 158.335 98.088 158.095 98.088C157.812 98.088 157.577 98.0533 157.391 97.984C157.209 97.9093 157.063 97.8 156.951 97.656C156.839 97.512 156.759 97.336 156.711 97.128C156.668 96.9147 156.647 96.6693 156.647 96.392V92.68L157.391 92.552V93.84ZM161.321 97.464C161.497 97.464 161.652 97.4613 161.785 97.456C161.924 97.4453 162.039 97.4293 162.129 97.408V96.168C162.076 96.1413 161.988 96.12 161.865 96.104C161.748 96.0827 161.604 96.072 161.433 96.072C161.321 96.072 161.201 96.08 161.073 96.096C160.951 96.112 160.836 96.1467 160.729 96.2C160.628 96.248 160.543 96.3173 160.473 96.408C160.404 96.4933 160.369 96.608 160.369 96.752C160.369 97.0187 160.455 97.2053 160.625 97.312C160.796 97.4133 161.028 97.464 161.321 97.464ZM161.257 93.736C161.556 93.736 161.807 93.776 162.009 93.856C162.217 93.9307 162.383 94.04 162.505 94.184C162.633 94.3227 162.724 94.4907 162.777 94.688C162.831 94.88 162.857 95.0933 162.857 95.328V97.928C162.793 97.9387 162.703 97.9547 162.585 97.976C162.473 97.992 162.345 98.008 162.201 98.024C162.057 98.04 161.9 98.0533 161.729 98.064C161.564 98.08 161.399 98.088 161.233 98.088C160.999 98.088 160.783 98.064 160.585 98.016C160.388 97.968 160.217 97.8933 160.073 97.792C159.929 97.6853 159.817 97.5467 159.737 97.376C159.657 97.2053 159.617 97 159.617 96.76C159.617 96.5307 159.663 96.3333 159.753 96.168C159.849 96.0027 159.977 95.8693 160.137 95.768C160.297 95.6667 160.484 95.592 160.697 95.544C160.911 95.496 161.135 95.472 161.369 95.472C161.444 95.472 161.521 95.4773 161.601 95.488C161.681 95.4933 161.756 95.504 161.825 95.52C161.9 95.5307 161.964 95.5413 162.017 95.552C162.071 95.5627 162.108 95.5707 162.129 95.576V95.368C162.129 95.2453 162.116 95.1253 162.089 95.008C162.063 94.8853 162.015 94.7787 161.945 94.688C161.876 94.592 161.78 94.5173 161.657 94.464C161.54 94.4053 161.385 94.376 161.193 94.376C160.948 94.376 160.732 94.3947 160.545 94.432C160.364 94.464 160.228 94.4987 160.137 94.536L160.049 93.92C160.145 93.8773 160.305 93.8373 160.529 93.8C160.753 93.7573 160.996 93.736 161.257 93.736ZM164.789 93.84H166.365V94.464H164.789V96.384C164.789 96.592 164.805 96.7653 164.837 96.904C164.869 97.0373 164.917 97.144 164.981 97.224C165.045 97.2987 165.125 97.352 165.221 97.384C165.317 97.416 165.429 97.432 165.557 97.432C165.781 97.432 165.96 97.408 166.093 97.36C166.232 97.3067 166.328 97.2693 166.381 97.248L166.525 97.864C166.45 97.9013 166.32 97.9467 166.133 98C165.946 98.0587 165.733 98.088 165.493 98.088C165.21 98.088 164.976 98.0533 164.789 97.984C164.608 97.9093 164.461 97.8 164.349 97.656C164.237 97.512 164.157 97.336 164.109 97.128C164.066 96.9147 164.045 96.6693 164.045 96.392V92.68L164.789 92.552V93.84ZM168.056 98H167.312V93.84H168.056V98ZM167.68 93.088C167.547 93.088 167.432 93.0453 167.336 92.96C167.245 92.8693 167.2 92.7493 167.2 92.6C167.2 92.4507 167.245 92.3333 167.336 92.248C167.432 92.1573 167.547 92.112 167.68 92.112C167.813 92.112 167.925 92.1573 168.016 92.248C168.112 92.3333 168.16 92.4507 168.16 92.6C168.16 92.7493 168.112 92.8693 168.016 92.96C167.925 93.0453 167.813 93.088 167.68 93.088ZM173.007 95.92C173.007 96.2507 172.959 96.5493 172.863 96.816C172.767 97.0827 172.631 97.312 172.455 97.504C172.285 97.696 172.079 97.8453 171.839 97.952C171.599 98.0533 171.338 98.104 171.055 98.104C170.773 98.104 170.511 98.0533 170.271 97.952C170.031 97.8453 169.823 97.696 169.647 97.504C169.477 97.312 169.343 97.0827 169.247 96.816C169.151 96.5493 169.103 96.2507 169.103 95.92C169.103 95.5947 169.151 95.2987 169.247 95.032C169.343 94.76 169.477 94.528 169.647 94.336C169.823 94.144 170.031 93.9973 170.271 93.896C170.511 93.7893 170.773 93.736 171.055 93.736C171.338 93.736 171.599 93.7893 171.839 93.896C172.079 93.9973 172.285 94.144 172.455 94.336C172.631 94.528 172.767 94.76 172.863 95.032C172.959 95.2987 173.007 95.5947 173.007 95.92ZM172.231 95.92C172.231 95.4507 172.125 95.08 171.911 94.808C171.703 94.5307 171.418 94.392 171.055 94.392C170.693 94.392 170.405 94.5307 170.191 94.808C169.983 95.08 169.879 95.4507 169.879 95.92C169.879 96.3893 169.983 96.7627 170.191 97.04C170.405 97.312 170.693 97.448 171.055 97.448C171.418 97.448 171.703 97.312 171.911 97.04C172.125 96.7627 172.231 96.3893 172.231 95.92ZM174.054 93.96C174.225 93.9173 174.451 93.872 174.734 93.824C175.017 93.776 175.342 93.752 175.71 93.752C176.041 93.752 176.315 93.8 176.534 93.896C176.753 93.9867 176.926 94.1173 177.054 94.288C177.187 94.4533 177.281 94.6533 177.334 94.888C177.387 95.1227 177.414 95.3813 177.414 95.664V98H176.67V95.824C176.67 95.568 176.651 95.3493 176.614 95.168C176.582 94.9867 176.526 94.84 176.446 94.728C176.366 94.616 176.259 94.536 176.126 94.488C175.993 94.4347 175.827 94.408 175.63 94.408C175.55 94.408 175.467 94.4107 175.382 94.416C175.297 94.4213 175.214 94.4293 175.134 94.44C175.059 94.4453 174.99 94.4533 174.926 94.464C174.867 94.4747 174.825 94.4827 174.798 94.488V98H174.054V93.96ZM183.883 97.328V98H180.547V92.456H181.323V97.328H183.883ZM188.226 95.92C188.226 96.2507 188.178 96.5493 188.082 96.816C187.986 97.0827 187.85 97.312 187.674 97.504C187.503 97.696 187.298 97.8453 187.058 97.952C186.818 98.0533 186.557 98.104 186.274 98.104C185.991 98.104 185.73 98.0533 185.49 97.952C185.25 97.8453 185.042 97.696 184.866 97.504C184.695 97.312 184.562 97.0827 184.466 96.816C184.37 96.5493 184.322 96.2507 184.322 95.92C184.322 95.5947 184.37 95.2987 184.466 95.032C184.562 94.76 184.695 94.528 184.866 94.336C185.042 94.144 185.25 93.9973 185.49 93.896C185.73 93.7893 185.991 93.736 186.274 93.736C186.557 93.736 186.818 93.7893 187.058 93.896C187.298 93.9973 187.503 94.144 187.674 94.336C187.85 94.528 187.986 94.76 188.082 95.032C188.178 95.2987 188.226 95.5947 188.226 95.92ZM187.45 95.92C187.45 95.4507 187.343 95.08 187.13 94.808C186.922 94.5307 186.637 94.392 186.274 94.392C185.911 94.392 185.623 94.5307 185.41 94.808C185.202 95.08 185.098 95.4507 185.098 95.92C185.098 96.3893 185.202 96.7627 185.41 97.04C185.623 97.312 185.911 97.448 186.274 97.448C186.637 97.448 186.922 97.312 187.13 97.04C187.343 96.7627 187.45 96.3893 187.45 95.92ZM191.881 97.584C191.817 97.6267 191.691 97.6827 191.505 97.752C191.323 97.816 191.11 97.848 190.865 97.848C190.614 97.848 190.377 97.808 190.153 97.728C189.934 97.648 189.742 97.5253 189.577 97.36C189.411 97.1893 189.281 96.9787 189.185 96.728C189.089 96.4773 189.041 96.1787 189.041 95.832C189.041 95.528 189.086 95.2507 189.177 95C189.267 94.744 189.398 94.5253 189.569 94.344C189.745 94.1573 189.958 94.0133 190.209 93.912C190.459 93.8053 190.742 93.752 191.057 93.752C191.403 93.752 191.705 93.7787 191.961 93.832C192.222 93.88 192.441 93.9253 192.617 93.968V97.68C192.617 98.32 192.451 98.784 192.121 99.072C191.79 99.36 191.289 99.504 190.617 99.504C190.355 99.504 190.107 99.4827 189.873 99.44C189.643 99.3973 189.443 99.3467 189.273 99.288L189.409 98.64C189.558 98.6987 189.739 98.7493 189.953 98.792C190.171 98.84 190.398 98.864 190.633 98.864C191.075 98.864 191.393 98.776 191.585 98.6C191.782 98.424 191.881 98.144 191.881 97.76V97.584ZM191.873 94.496C191.798 94.4747 191.697 94.456 191.569 94.44C191.446 94.4187 191.278 94.408 191.065 94.408C190.665 94.408 190.355 94.5387 190.137 94.8C189.923 95.0613 189.817 95.408 189.817 95.84C189.817 96.08 189.846 96.2853 189.905 96.456C189.969 96.6267 190.051 96.768 190.153 96.88C190.259 96.992 190.379 97.0747 190.513 97.128C190.651 97.1813 190.793 97.208 190.937 97.208C191.134 97.208 191.315 97.1813 191.481 97.128C191.646 97.0693 191.777 97.0027 191.873 96.928V94.496ZM194.642 98H193.898V93.84H194.642V98ZM194.266 93.088C194.132 93.088 194.018 93.0453 193.922 92.96C193.831 92.8693 193.786 92.7493 193.786 92.6C193.786 92.4507 193.831 92.3333 193.922 92.248C194.018 92.1573 194.132 92.112 194.266 92.112C194.399 92.112 194.511 92.1573 194.602 92.248C194.698 92.3333 194.746 92.4507 194.746 92.6C194.746 92.7493 194.698 92.8693 194.602 92.96C194.511 93.0453 194.399 93.088 194.266 93.088ZM197.729 98.096C197.393 98.096 197.097 98.0427 196.841 97.936C196.591 97.8293 196.377 97.68 196.201 97.488C196.031 97.296 195.903 97.0693 195.817 96.808C195.732 96.5413 195.689 96.248 195.689 95.928C195.689 95.608 195.735 95.3147 195.825 95.048C195.921 94.7813 196.055 94.552 196.225 94.36C196.396 94.1627 196.604 94.0107 196.849 93.904C197.1 93.792 197.377 93.736 197.681 93.736C197.868 93.736 198.055 93.752 198.241 93.784C198.428 93.816 198.607 93.8667 198.777 93.936L198.609 94.568C198.497 94.5147 198.367 94.472 198.217 94.44C198.073 94.408 197.919 94.392 197.753 94.392C197.337 94.392 197.017 94.5227 196.793 94.784C196.575 95.0453 196.465 95.4267 196.465 95.928C196.465 96.152 196.489 96.3573 196.537 96.544C196.591 96.7307 196.671 96.8907 196.777 97.024C196.889 97.1573 197.031 97.2613 197.201 97.336C197.372 97.4053 197.58 97.44 197.825 97.44C198.023 97.44 198.201 97.4213 198.361 97.384C198.521 97.3467 198.647 97.3067 198.737 97.264L198.841 97.888C198.799 97.9147 198.737 97.9413 198.657 97.968C198.577 97.9893 198.487 98.008 198.385 98.024C198.284 98.0453 198.175 98.0613 198.057 98.072C197.945 98.088 197.836 98.096 197.729 98.096Z" fill="#242424"/>
<path d="M17.6561 92.4C18.4348 92.4 19.0321 92.5493 19.4481 92.848C19.8694 93.1413 20.0801 93.5813 20.0801 94.168C20.0801 94.488 20.0214 94.7627 19.9041 94.992C19.7921 95.216 19.6268 95.4 19.4081 95.544C19.1948 95.6827 18.9334 95.784 18.6241 95.848C18.3148 95.912 17.9654 95.944 17.5761 95.944H16.9601V98H16.1841V92.536C16.4028 92.4827 16.6454 92.448 16.9121 92.432C17.1841 92.4107 17.4321 92.4 17.6561 92.4ZM17.7201 93.08C17.3894 93.08 17.1361 93.088 16.9601 93.104V95.28H17.5441C17.8108 95.28 18.0508 95.264 18.2641 95.232C18.4774 95.1947 18.6561 95.136 18.8001 95.056C18.9494 94.9707 19.0641 94.856 19.1441 94.712C19.2241 94.568 19.2641 94.384 19.2641 94.16C19.2641 93.9467 19.2214 93.7707 19.1361 93.632C19.0561 93.4933 18.9441 93.384 18.8001 93.304C18.6614 93.2187 18.4988 93.16 18.3121 93.128C18.1254 93.096 17.9281 93.08 17.7201 93.08ZM22.5393 93.752C22.6033 93.752 22.6753 93.7573 22.7553 93.768C22.8406 93.7733 22.9233 93.784 23.0033 93.8C23.0833 93.8107 23.1553 93.824 23.2193 93.84C23.2886 93.8507 23.3393 93.8613 23.3713 93.872L23.2433 94.52C23.1846 94.4987 23.0859 94.4747 22.9473 94.448C22.8139 94.416 22.6406 94.4 22.4273 94.4C22.2886 94.4 22.1499 94.416 22.0113 94.448C21.8779 94.4747 21.7899 94.4933 21.7473 94.504V98H21.0033V94.016C21.1793 93.952 21.3979 93.8933 21.6593 93.84C21.9206 93.7813 22.2139 93.752 22.5393 93.752ZM23.8572 95.928C23.8572 95.56 23.9106 95.24 24.0172 94.968C24.1239 94.6907 24.2652 94.4613 24.4412 94.28C24.6172 94.0987 24.8199 93.9627 25.0492 93.872C25.2786 93.7813 25.5132 93.736 25.7532 93.736C26.3132 93.736 26.7426 93.912 27.0412 94.264C27.3399 94.6107 27.4892 95.1413 27.4892 95.856C27.4892 95.888 27.4892 95.9307 27.4892 95.984C27.4892 96.032 27.4866 96.0773 27.4812 96.12H24.6332C24.6652 96.552 24.7906 96.88 25.0092 97.104C25.2279 97.328 25.5692 97.44 26.0332 97.44C26.2946 97.44 26.5132 97.4187 26.6892 97.376C26.8706 97.328 27.0066 97.2827 27.0972 97.24L27.2012 97.864C27.1106 97.912 26.9506 97.9627 26.7212 98.016C26.4972 98.0693 26.2412 98.096 25.9532 98.096C25.5906 98.096 25.2759 98.0427 25.0092 97.936C24.7479 97.824 24.5319 97.672 24.3612 97.48C24.1906 97.288 24.0626 97.0613 23.9772 96.8C23.8972 96.5333 23.8572 96.2427 23.8572 95.928ZM26.7132 95.52C26.7186 95.184 26.6332 94.9093 26.4572 94.696C26.2866 94.4773 26.0492 94.368 25.7452 94.368C25.5746 94.368 25.4226 94.4027 25.2892 94.472C25.1612 94.536 25.0519 94.6213 24.9612 94.728C24.8706 94.8347 24.7986 94.9573 24.7452 95.096C24.6972 95.2347 24.6652 95.376 24.6492 95.52H26.7132ZM29.526 97.464C29.83 97.464 30.054 97.424 30.198 97.344C30.3473 97.264 30.422 97.136 30.422 96.96C30.422 96.7787 30.35 96.6347 30.206 96.528C30.062 96.4213 29.8246 96.3013 29.494 96.168C29.334 96.104 29.1793 96.04 29.03 95.976C28.886 95.9067 28.7606 95.8267 28.654 95.736C28.5473 95.6453 28.462 95.536 28.398 95.408C28.334 95.28 28.302 95.1227 28.302 94.936C28.302 94.568 28.438 94.2773 28.71 94.064C28.982 93.8453 29.3526 93.736 29.822 93.736C29.9393 93.736 30.0566 93.744 30.174 93.76C30.2913 93.7707 30.4006 93.7867 30.502 93.808C30.6033 93.824 30.6913 93.8427 30.766 93.864C30.846 93.8853 30.9073 93.904 30.95 93.92L30.814 94.56C30.734 94.5173 30.6086 94.4747 30.438 94.432C30.2673 94.384 30.062 94.36 29.822 94.36C29.614 94.36 29.4326 94.4027 29.278 94.488C29.1233 94.568 29.046 94.696 29.046 94.872C29.046 94.9627 29.062 95.0427 29.094 95.112C29.1313 95.1813 29.1846 95.2453 29.254 95.304C29.3286 95.3573 29.4193 95.408 29.526 95.456C29.6326 95.504 29.7606 95.5547 29.91 95.608C30.1073 95.6827 30.2833 95.7573 30.438 95.832C30.5926 95.9013 30.7233 95.984 30.83 96.08C30.942 96.176 31.0273 96.2933 31.086 96.432C31.1446 96.5653 31.174 96.7307 31.174 96.928C31.174 97.312 31.03 97.6027 30.742 97.8C30.4593 97.9973 30.054 98.096 29.526 98.096C29.158 98.096 28.87 98.064 28.662 98C28.454 97.9413 28.3126 97.896 28.238 97.864L28.374 97.224C28.4593 97.256 28.5953 97.304 28.782 97.368C28.9686 97.432 29.2166 97.464 29.526 97.464ZM31.8963 95.928C31.8963 95.56 31.9496 95.24 32.0563 94.968C32.1629 94.6907 32.3043 94.4613 32.4803 94.28C32.6563 94.0987 32.8589 93.9627 33.0883 93.872C33.3176 93.7813 33.5523 93.736 33.7923 93.736C34.3523 93.736 34.7816 93.912 35.0803 94.264C35.3789 94.6107 35.5283 95.1413 35.5283 95.856C35.5283 95.888 35.5283 95.9307 35.5283 95.984C35.5283 96.032 35.5256 96.0773 35.5203 96.12H32.6723C32.7043 96.552 32.8296 96.88 33.0483 97.104C33.2669 97.328 33.6083 97.44 34.0723 97.44C34.3336 97.44 34.5523 97.4187 34.7283 97.376C34.9096 97.328 35.0456 97.2827 35.1363 97.24L35.2403 97.864C35.1496 97.912 34.9896 97.9627 34.7603 98.016C34.5363 98.0693 34.2803 98.096 33.9923 98.096C33.6296 98.096 33.3149 98.0427 33.0483 97.936C32.7869 97.824 32.5709 97.672 32.4003 97.48C32.2296 97.288 32.1016 97.0613 32.0163 96.8C31.9363 96.5333 31.8963 96.2427 31.8963 95.928ZM34.7523 95.52C34.7576 95.184 34.6723 94.9093 34.4963 94.696C34.3256 94.4773 34.0883 94.368 33.7843 94.368C33.6136 94.368 33.4616 94.4027 33.3283 94.472C33.2003 94.536 33.0909 94.6213 33.0003 94.728C32.9096 94.8347 32.8376 94.9573 32.7843 95.096C32.7363 95.2347 32.7043 95.376 32.6883 95.52H34.7523ZM36.597 93.96C36.7677 93.9173 36.9944 93.872 37.277 93.824C37.5597 93.776 37.885 93.752 38.253 93.752C38.5837 93.752 38.8584 93.8 39.077 93.896C39.2957 93.9867 39.469 94.1173 39.597 94.288C39.7304 94.4533 39.8237 94.6533 39.877 94.888C39.9304 95.1227 39.957 95.3813 39.957 95.664V98H39.213V95.824C39.213 95.568 39.1944 95.3493 39.157 95.168C39.125 94.9867 39.069 94.84 38.989 94.728C38.909 94.616 38.8024 94.536 38.669 94.488C38.5357 94.4347 38.3704 94.408 38.173 94.408C38.093 94.408 38.0104 94.4107 37.925 94.416C37.8397 94.4213 37.757 94.4293 37.677 94.44C37.6024 94.4453 37.533 94.4533 37.469 94.464C37.4104 94.4747 37.3677 94.4827 37.341 94.488V98H36.597V93.96ZM41.8868 93.84H43.4628V94.464H41.8868V96.384C41.8868 96.592 41.9028 96.7653 41.9348 96.904C41.9668 97.0373 42.0148 97.144 42.0788 97.224C42.1428 97.2987 42.2228 97.352 42.3188 97.384C42.4148 97.416 42.5268 97.432 42.6548 97.432C42.8788 97.432 43.0574 97.408 43.1908 97.36C43.3294 97.3067 43.4254 97.2693 43.4788 97.248L43.6228 97.864C43.5481 97.9013 43.4174 97.9467 43.2308 98C43.0441 98.0587 42.8308 98.088 42.5908 98.088C42.3081 98.088 42.0734 98.0533 41.8868 97.984C41.7054 97.9093 41.5588 97.8 41.4468 97.656C41.3348 97.512 41.2548 97.336 41.2068 97.128C41.1641 96.9147 41.1428 96.6693 41.1428 96.392V92.68L41.8868 92.552V93.84ZM45.8175 97.464C45.9935 97.464 46.1482 97.4613 46.2815 97.456C46.4202 97.4453 46.5349 97.4293 46.6255 97.408V96.168C46.5722 96.1413 46.4842 96.12 46.3615 96.104C46.2442 96.0827 46.1002 96.072 45.9295 96.072C45.8175 96.072 45.6975 96.08 45.5695 96.096C45.4469 96.112 45.3322 96.1467 45.2255 96.2C45.1242 96.248 45.0389 96.3173 44.9695 96.408C44.9002 96.4933 44.8655 96.608 44.8655 96.752C44.8655 97.0187 44.9509 97.2053 45.1215 97.312C45.2922 97.4133 45.5242 97.464 45.8175 97.464ZM45.7535 93.736C46.0522 93.736 46.3029 93.776 46.5055 93.856C46.7135 93.9307 46.8789 94.04 47.0015 94.184C47.1295 94.3227 47.2202 94.4907 47.2735 94.688C47.3269 94.88 47.3535 95.0933 47.3535 95.328V97.928C47.2895 97.9387 47.1989 97.9547 47.0815 97.976C46.9695 97.992 46.8415 98.008 46.6975 98.024C46.5535 98.04 46.3962 98.0533 46.2255 98.064C46.0602 98.08 45.8949 98.088 45.7295 98.088C45.4949 98.088 45.2789 98.064 45.0815 98.016C44.8842 97.968 44.7135 97.8933 44.5695 97.792C44.4255 97.6853 44.3135 97.5467 44.2335 97.376C44.1535 97.2053 44.1135 97 44.1135 96.76C44.1135 96.5307 44.1589 96.3333 44.2495 96.168C44.3455 96.0027 44.4735 95.8693 44.6335 95.768C44.7935 95.6667 44.9802 95.592 45.1935 95.544C45.4069 95.496 45.6309 95.472 45.8655 95.472C45.9402 95.472 46.0175 95.4773 46.0975 95.488C46.1775 95.4933 46.2522 95.504 46.3215 95.52C46.3962 95.5307 46.4602 95.5413 46.5135 95.552C46.5669 95.5627 46.6042 95.5707 46.6255 95.576V95.368C46.6255 95.2453 46.6122 95.1253 46.5855 95.008C46.5589 94.8853 46.5109 94.7787 46.4415 94.688C46.3722 94.592 46.2762 94.5173 46.1535 94.464C46.0362 94.4053 45.8815 94.376 45.6895 94.376C45.4442 94.376 45.2282 94.3947 45.0415 94.432C44.8602 94.464 44.7242 94.4987 44.6335 94.536L44.5455 93.92C44.6415 93.8773 44.8015 93.8373 45.0255 93.8C45.2495 93.7573 45.4922 93.736 45.7535 93.736ZM49.2852 93.84H50.8612V94.464H49.2852V96.384C49.2852 96.592 49.3012 96.7653 49.3332 96.904C49.3652 97.0373 49.4132 97.144 49.4772 97.224C49.5412 97.2987 49.6212 97.352 49.7172 97.384C49.8132 97.416 49.9252 97.432 50.0532 97.432C50.2772 97.432 50.4559 97.408 50.5892 97.36C50.7279 97.3067 50.8239 97.2693 50.8772 97.248L51.0212 97.864C50.9466 97.9013 50.8159 97.9467 50.6292 98C50.4426 98.0587 50.2292 98.088 49.9892 98.088C49.7066 98.088 49.4719 98.0533 49.2852 97.984C49.1039 97.9093 48.9572 97.8 48.8452 97.656C48.7332 97.512 48.6532 97.336 48.6052 97.128C48.5626 96.9147 48.5412 96.6693 48.5412 96.392V92.68L49.2852 92.552V93.84ZM52.552 98H51.808V93.84H52.552V98ZM52.176 93.088C52.0426 93.088 51.928 93.0453 51.832 92.96C51.7413 92.8693 51.696 92.7493 51.696 92.6C51.696 92.4507 51.7413 92.3333 51.832 92.248C51.928 92.1573 52.0426 92.112 52.176 92.112C52.3093 92.112 52.4213 92.1573 52.512 92.248C52.608 92.3333 52.656 92.4507 52.656 92.6C52.656 92.7493 52.608 92.8693 52.512 92.96C52.4213 93.0453 52.3093 93.088 52.176 93.088ZM57.5034 95.92C57.5034 96.2507 57.4554 96.5493 57.3594 96.816C57.2634 97.0827 57.1274 97.312 56.9514 97.504C56.7807 97.696 56.5754 97.8453 56.3354 97.952C56.0954 98.0533 55.8341 98.104 55.5514 98.104C55.2687 98.104 55.0074 98.0533 54.7674 97.952C54.5274 97.8453 54.3194 97.696 54.1434 97.504C53.9727 97.312 53.8394 97.0827 53.7434 96.816C53.6474 96.5493 53.5994 96.2507 53.5994 95.92C53.5994 95.5947 53.6474 95.2987 53.7434 95.032C53.8394 94.76 53.9727 94.528 54.1434 94.336C54.3194 94.144 54.5274 93.9973 54.7674 93.896C55.0074 93.7893 55.2687 93.736 55.5514 93.736C55.8341 93.736 56.0954 93.7893 56.3354 93.896C56.5754 93.9973 56.7807 94.144 56.9514 94.336C57.1274 94.528 57.2634 94.76 57.3594 95.032C57.4554 95.2987 57.5034 95.5947 57.5034 95.92ZM56.7274 95.92C56.7274 95.4507 56.6207 95.08 56.4074 94.808C56.1994 94.5307 55.9141 94.392 55.5514 94.392C55.1887 94.392 54.9007 94.5307 54.6874 94.808C54.4794 95.08 54.3754 95.4507 54.3754 95.92C54.3754 96.3893 54.4794 96.7627 54.6874 97.04C54.9007 97.312 55.1887 97.448 55.5514 97.448C55.9141 97.448 56.1994 97.312 56.4074 97.04C56.6207 96.7627 56.7274 96.3893 56.7274 95.92ZM58.5502 93.96C58.7208 93.9173 58.9475 93.872 59.2302 93.824C59.5128 93.776 59.8382 93.752 60.2062 93.752C60.5368 93.752 60.8115 93.8 61.0302 93.896C61.2488 93.9867 61.4222 94.1173 61.5502 94.288C61.6835 94.4533 61.7768 94.6533 61.8302 94.888C61.8835 95.1227 61.9102 95.3813 61.9102 95.664V98H61.1662V95.824C61.1662 95.568 61.1475 95.3493 61.1102 95.168C61.0782 94.9867 61.0222 94.84 60.9422 94.728C60.8622 94.616 60.7555 94.536 60.6222 94.488C60.4888 94.4347 60.3235 94.408 60.1262 94.408C60.0462 94.408 59.9635 94.4107 59.8782 94.416C59.7928 94.4213 59.7102 94.4293 59.6302 94.44C59.5555 94.4453 59.4862 94.4533 59.4222 94.464C59.3635 94.4747 59.3208 94.4827 59.2942 94.488V98H58.5502V93.96Z" fill="#242424"/>
<path d="M97.7283 18.224C97.7283 18.704 97.6536 19.1227 97.5043 19.48C97.3549 19.832 97.1443 20.1253 96.8723 20.36C96.6003 20.5893 96.2749 20.7627 95.8963 20.88C95.5176 20.992 95.1016 21.048 94.6483 21.048C94.4243 21.048 94.1763 21.0373 93.9043 21.016C93.6376 21 93.3949 20.9653 93.1763 20.912V15.536C93.3949 15.4827 93.6376 15.448 93.9043 15.432C94.1763 15.4107 94.4243 15.4 94.6483 15.4C95.1016 15.4 95.5176 15.4587 95.8963 15.576C96.2749 15.688 96.6003 15.8613 96.8723 16.096C97.1443 16.3253 97.3549 16.6187 97.5043 16.976C97.6536 17.328 97.7283 17.744 97.7283 18.224ZM94.7123 20.368C95.4483 20.368 95.9976 20.1813 96.3603 19.808C96.7229 19.4293 96.9043 18.9013 96.9043 18.224C96.9043 17.5467 96.7229 17.0213 96.3603 16.648C95.9976 16.2693 95.4483 16.08 94.7123 16.08C94.4936 16.08 94.3229 16.0827 94.2003 16.088C94.0829 16.0933 94.0003 16.0987 93.9523 16.104V20.344C94.0003 20.3493 94.0829 20.3547 94.2003 20.36C94.3229 20.3653 94.4936 20.368 94.7123 20.368ZM100.13 20.464C100.306 20.464 100.461 20.4613 100.594 20.456C100.733 20.4453 100.847 20.4293 100.938 20.408V19.168C100.885 19.1413 100.797 19.12 100.674 19.104C100.557 19.0827 100.413 19.072 100.242 19.072C100.13 19.072 100.01 19.08 99.882 19.096C99.7594 19.112 99.6447 19.1467 99.538 19.2C99.4367 19.248 99.3514 19.3173 99.282 19.408C99.2127 19.4933 99.178 19.608 99.178 19.752C99.178 20.0187 99.2634 20.2053 99.434 20.312C99.6047 20.4133 99.8367 20.464 100.13 20.464ZM100.066 16.736C100.365 16.736 100.615 16.776 100.818 16.856C101.026 16.9307 101.191 17.04 101.314 17.184C101.442 17.3227 101.533 17.4907 101.586 17.688C101.639 17.88 101.666 18.0933 101.666 18.328V20.928C101.602 20.9387 101.511 20.9547 101.394 20.976C101.282 20.992 101.154 21.008 101.01 21.024C100.866 21.04 100.709 21.0533 100.538 21.064C100.373 21.08 100.207 21.088 100.042 21.088C99.8074 21.088 99.5914 21.064 99.394 21.016C99.1967 20.968 99.026 20.8933 98.882 20.792C98.738 20.6853 98.626 20.5467 98.546 20.376C98.466 20.2053 98.426 20 98.426 19.76C98.426 19.5307 98.4714 19.3333 98.562 19.168C98.658 19.0027 98.786 18.8693 98.946 18.768C99.106 18.6667 99.2927 18.592 99.506 18.544C99.7194 18.496 99.9434 18.472 100.178 18.472C100.253 18.472 100.33 18.4773 100.41 18.488C100.49 18.4933 100.565 18.504 100.634 18.52C100.709 18.5307 100.773 18.5413 100.826 18.552C100.879 18.5627 100.917 18.5707 100.938 18.576V18.368C100.938 18.2453 100.925 18.1253 100.898 18.008C100.871 17.8853 100.823 17.7787 100.754 17.688C100.685 17.592 100.589 17.5173 100.466 17.464C100.349 17.4053 100.194 17.376 100.002 17.376C99.7567 17.376 99.5407 17.3947 99.354 17.432C99.1727 17.464 99.0367 17.4987 98.946 17.536L98.858 16.92C98.954 16.8773 99.114 16.8373 99.338 16.8C99.562 16.7573 99.8047 16.736 100.066 16.736ZM103.598 16.84H105.174V17.464H103.598V19.384C103.598 19.592 103.614 19.7653 103.646 19.904C103.678 20.0373 103.726 20.144 103.79 20.224C103.854 20.2987 103.934 20.352 104.03 20.384C104.126 20.416 104.238 20.432 104.366 20.432C104.59 20.432 104.768 20.408 104.902 20.36C105.04 20.3067 105.136 20.2693 105.19 20.248L105.334 20.864C105.259 20.9013 105.128 20.9467 104.942 21C104.755 21.0587 104.542 21.088 104.302 21.088C104.019 21.088 103.784 21.0533 103.598 20.984C103.416 20.9093 103.27 20.8 103.158 20.656C103.046 20.512 102.966 20.336 102.918 20.128C102.875 19.9147 102.854 19.6693 102.854 19.392V15.68L103.598 15.552V16.84ZM107.528 20.464C107.704 20.464 107.859 20.4613 107.992 20.456C108.131 20.4453 108.246 20.4293 108.336 20.408V19.168C108.283 19.1413 108.195 19.12 108.072 19.104C107.955 19.0827 107.811 19.072 107.64 19.072C107.528 19.072 107.408 19.08 107.28 19.096C107.158 19.112 107.043 19.1467 106.936 19.2C106.835 19.248 106.75 19.3173 106.68 19.408C106.611 19.4933 106.576 19.608 106.576 19.752C106.576 20.0187 106.662 20.2053 106.832 20.312C107.003 20.4133 107.235 20.464 107.528 20.464ZM107.464 16.736C107.763 16.736 108.014 16.776 108.216 16.856C108.424 16.9307 108.59 17.04 108.712 17.184C108.84 17.3227 108.931 17.4907 108.984 17.688C109.038 17.88 109.064 18.0933 109.064 18.328V20.928C109 20.9387 108.91 20.9547 108.792 20.976C108.68 20.992 108.552 21.008 108.408 21.024C108.264 21.04 108.107 21.0533 107.936 21.064C107.771 21.08 107.606 21.088 107.44 21.088C107.206 21.088 106.99 21.064 106.792 21.016C106.595 20.968 106.424 20.8933 106.28 20.792C106.136 20.6853 106.024 20.5467 105.944 20.376C105.864 20.2053 105.824 20 105.824 19.76C105.824 19.5307 105.87 19.3333 105.96 19.168C106.056 19.0027 106.184 18.8693 106.344 18.768C106.504 18.6667 106.691 18.592 106.904 18.544C107.118 18.496 107.342 18.472 107.576 18.472C107.651 18.472 107.728 18.4773 107.808 18.488C107.888 18.4933 107.963 18.504 108.032 18.52C108.107 18.5307 108.171 18.5413 108.224 18.552C108.278 18.5627 108.315 18.5707 108.336 18.576V18.368C108.336 18.2453 108.323 18.1253 108.296 18.008C108.27 17.8853 108.222 17.7787 108.152 17.688C108.083 17.592 107.987 17.5173 107.864 17.464C107.747 17.4053 107.592 17.376 107.4 17.376C107.155 17.376 106.939 17.3947 106.752 17.432C106.571 17.464 106.435 17.4987 106.344 17.536L106.256 16.92C106.352 16.8773 106.512 16.8373 106.736 16.8C106.96 16.7573 107.203 16.736 107.464 16.736ZM90.3285 30.048C90.2165 30.048 90.0939 30.0453 89.9605 30.04C89.8325 30.0347 89.7019 30.0267 89.5685 30.016C89.4405 30.0053 89.3125 29.992 89.1845 29.976C89.0565 29.96 88.9392 29.9387 88.8325 29.912V24.536C88.9392 24.5093 89.0565 24.488 89.1845 24.472C89.3125 24.456 89.4405 24.4427 89.5685 24.432C89.7019 24.4213 89.8325 24.4133 89.9605 24.408C90.0885 24.4027 90.2085 24.4 90.3205 24.4C90.6405 24.4 90.9392 24.424 91.2165 24.472C91.4992 24.52 91.7419 24.6027 91.9445 24.72C92.1525 24.832 92.3152 24.9813 92.4325 25.168C92.5499 25.3547 92.6085 25.584 92.6085 25.856C92.6085 26.16 92.5365 26.4107 92.3925 26.608C92.2485 26.8 92.0565 26.944 91.8165 27.04C92.1419 27.136 92.4005 27.288 92.5925 27.496C92.7845 27.704 92.8805 27.9973 92.8805 28.376C92.8805 28.9307 92.6752 29.3493 92.2645 29.632C91.8592 29.9093 91.2139 30.048 90.3285 30.048ZM89.6005 27.416V29.368C89.6592 29.3733 89.7285 29.3787 89.8085 29.384C89.8779 29.3893 89.9579 29.3947 90.0485 29.4C90.1445 29.4 90.2539 29.4 90.3765 29.4C90.6059 29.4 90.8219 29.3867 91.0245 29.36C91.2325 29.328 91.4139 29.2747 91.5685 29.2C91.7232 29.1253 91.8459 29.0213 91.9365 28.888C92.0325 28.7547 92.0805 28.5867 92.0805 28.384C92.0805 28.2027 92.0459 28.0507 91.9765 27.928C91.9072 27.8 91.8059 27.6987 91.6725 27.624C91.5445 27.5493 91.3899 27.496 91.2085 27.464C91.0272 27.432 90.8245 27.416 90.6005 27.416H89.6005ZM89.6005 26.792H90.4165C90.6085 26.792 90.7899 26.7787 90.9605 26.752C91.1312 26.7253 91.2779 26.6773 91.4005 26.608C91.5285 26.5387 91.6272 26.448 91.6965 26.336C91.7712 26.224 91.8085 26.0827 91.8085 25.912C91.8085 25.752 91.7712 25.6187 91.6965 25.512C91.6219 25.4 91.5179 25.312 91.3845 25.248C91.2565 25.1787 91.1045 25.128 90.9285 25.096C90.7525 25.064 90.5659 25.048 90.3685 25.048C90.1712 25.048 90.0165 25.0507 89.9045 25.056C89.7925 25.0613 89.6912 25.0693 89.6005 25.08V26.792ZM94.6692 30H93.9252V25.84H94.6692V30ZM94.2932 25.088C94.1598 25.088 94.0452 25.0453 93.9492 24.96C93.8585 24.8693 93.8132 24.7493 93.8132 24.6C93.8132 24.4507 93.8585 24.3333 93.9492 24.248C94.0452 24.1573 94.1598 24.112 94.2932 24.112C94.4265 24.112 94.5385 24.1573 94.6292 24.248C94.7252 24.3333 94.7732 24.4507 94.7732 24.6C94.7732 24.7493 94.7252 24.8693 94.6292 24.96C94.5385 25.0453 94.4265 25.088 94.2932 25.088ZM95.9486 25.96C96.1193 25.9173 96.3459 25.872 96.6286 25.824C96.9113 25.776 97.2366 25.752 97.6046 25.752C97.9353 25.752 98.2099 25.8 98.4286 25.896C98.6473 25.9867 98.8206 26.1173 98.9486 26.288C99.0819 26.4533 99.1753 26.6533 99.2286 26.888C99.2819 27.1227 99.3086 27.3813 99.3086 27.664V30H98.5646V27.824C98.5646 27.568 98.5459 27.3493 98.5086 27.168C98.4766 26.9867 98.4206 26.84 98.3406 26.728C98.2606 26.616 98.1539 26.536 98.0206 26.488C97.8873 26.4347 97.7219 26.408 97.5246 26.408C97.4446 26.408 97.3619 26.4107 97.2766 26.416C97.1913 26.4213 97.1086 26.4293 97.0286 26.44C96.9539 26.4453 96.8846 26.4533 96.8206 26.464C96.7619 26.4747 96.7193 26.4827 96.6926 26.488V30H95.9486V25.96ZM103.23 26.72C103.14 26.6453 103.009 26.5733 102.838 26.504C102.668 26.4347 102.481 26.4 102.278 26.4C102.065 26.4 101.881 26.44 101.726 26.52C101.577 26.5947 101.454 26.7013 101.358 26.84C101.262 26.9733 101.193 27.1333 101.15 27.32C101.108 27.5067 101.086 27.7067 101.086 27.92C101.086 28.4053 101.206 28.7813 101.446 29.048C101.686 29.3093 102.006 29.44 102.406 29.44C102.609 29.44 102.777 29.432 102.91 29.416C103.049 29.3947 103.156 29.3733 103.23 29.352V26.72ZM103.23 23.92L103.974 23.792V29.88C103.804 29.928 103.585 29.976 103.318 30.024C103.052 30.072 102.745 30.096 102.398 30.096C102.078 30.096 101.79 30.0453 101.534 29.944C101.278 29.8427 101.06 29.6987 100.878 29.512C100.697 29.3253 100.556 29.0987 100.454 28.832C100.358 28.56 100.31 28.256 100.31 27.92C100.31 27.6 100.35 27.3067 100.43 27.04C100.516 26.7733 100.638 26.544 100.798 26.352C100.958 26.16 101.153 26.0107 101.382 25.904C101.617 25.7973 101.884 25.744 102.182 25.744C102.422 25.744 102.633 25.776 102.814 25.84C103.001 25.904 103.14 25.9653 103.23 26.024V23.92ZM105.997 30H105.253V25.84H105.997V30ZM105.621 25.088C105.488 25.088 105.373 25.0453 105.277 24.96C105.187 24.8693 105.141 24.7493 105.141 24.6C105.141 24.4507 105.187 24.3333 105.277 24.248C105.373 24.1573 105.488 24.112 105.621 24.112C105.755 24.112 105.867 24.1573 105.957 24.248C106.053 24.3333 106.101 24.4507 106.101 24.6C106.101 24.7493 106.053 24.8693 105.957 24.96C105.867 25.0453 105.755 25.088 105.621 25.088ZM107.277 25.96C107.447 25.9173 107.674 25.872 107.957 25.824C108.239 25.776 108.565 25.752 108.933 25.752C109.263 25.752 109.538 25.8 109.757 25.896C109.975 25.9867 110.149 26.1173 110.277 26.288C110.41 26.4533 110.503 26.6533 110.557 26.888C110.61 27.1227 110.637 27.3813 110.637 27.664V30H109.893V27.824C109.893 27.568 109.874 27.3493 109.837 27.168C109.805 26.9867 109.749 26.84 109.669 26.728C109.589 26.616 109.482 26.536 109.349 26.488C109.215 26.4347 109.05 26.408 108.853 26.408C108.773 26.408 108.69 26.4107 108.605 26.416C108.519 26.4213 108.437 26.4293 108.357 26.44C108.282 26.4453 108.213 26.4533 108.149 26.464C108.09 26.4747 108.047 26.4827 108.021 26.488V30H107.277V25.96ZM114.478 29.584C114.414 29.6267 114.289 29.6827 114.102 29.752C113.921 29.816 113.708 29.848 113.462 29.848C113.212 29.848 112.974 29.808 112.75 29.728C112.532 29.648 112.34 29.5253 112.174 29.36C112.009 29.1893 111.878 28.9787 111.782 28.728C111.686 28.4773 111.638 28.1787 111.638 27.832C111.638 27.528 111.684 27.2507 111.774 27C111.865 26.744 111.996 26.5253 112.166 26.344C112.342 26.1573 112.556 26.0133 112.806 25.912C113.057 25.8053 113.34 25.752 113.654 25.752C114.001 25.752 114.302 25.7787 114.558 25.832C114.82 25.88 115.038 25.9253 115.214 25.968V29.68C115.214 30.32 115.049 30.784 114.718 31.072C114.388 31.36 113.886 31.504 113.214 31.504C112.953 31.504 112.705 31.4827 112.47 31.44C112.241 31.3973 112.041 31.3467 111.87 31.288L112.006 30.64C112.156 30.6987 112.337 30.7493 112.55 30.792C112.769 30.84 112.996 30.864 113.23 30.864C113.673 30.864 113.99 30.776 114.182 30.6C114.38 30.424 114.478 30.144 114.478 29.76V29.584ZM114.47 26.496C114.396 26.4747 114.294 26.456 114.166 26.44C114.044 26.4187 113.876 26.408 113.662 26.408C113.262 26.408 112.953 26.5387 112.734 26.8C112.521 27.0613 112.414 27.408 112.414 27.84C112.414 28.08 112.444 28.2853 112.502 28.456C112.566 28.6267 112.649 28.768 112.75 28.88C112.857 28.992 112.977 29.0747 113.11 29.128C113.249 29.1813 113.39 29.208 113.534 29.208C113.732 29.208 113.913 29.1813 114.078 29.128C114.244 29.0693 114.374 29.0027 114.47 28.928V26.496Z" fill="#242424"/>
</svg>
