<svg width="487" height="276" viewBox="0 0 487 276" fill="none" xmlns="http://www.w3.org/2000/svg">
<rect x="140.5" y="0.5" width="210.611" height="275" rx="3.5" stroke="#55C1FA"/>
<path d="M5.8198 47.06C5.6798 47.06 5.52647 47.0567 5.3598 47.05C5.1998 47.0433 5.03647 47.0333 4.8698 47.02C4.7098 47.0067 4.5498 46.99 4.3898 46.97C4.2298 46.95 4.08314 46.9233 3.9498 46.89V40.17C4.08314 40.1367 4.2298 40.11 4.3898 40.09C4.5498 40.07 4.7098 40.0533 4.8698 40.04C5.03647 40.0267 5.1998 40.0167 5.3598 40.01C5.5198 40.0033 5.6698 40 5.8098 40C6.2098 40 6.58314 40.03 6.9298 40.09C7.28314 40.15 7.58647 40.2533 7.8398 40.4C8.0998 40.54 8.30314 40.7267 8.4498 40.96C8.59647 41.1933 8.6698 41.48 8.6698 41.82C8.6698 42.2 8.5798 42.5133 8.3998 42.76C8.2198 43 7.9798 43.18 7.6798 43.3C8.08647 43.42 8.4098 43.61 8.6498 43.87C8.8898 44.13 9.0098 44.4967 9.0098 44.97C9.0098 45.6633 8.75314 46.1867 8.2398 46.54C7.73314 46.8867 6.92647 47.06 5.8198 47.06ZM4.9098 43.77V46.21C4.98314 46.2167 5.0698 46.2233 5.1698 46.23C5.25647 46.2367 5.35647 46.2433 5.4698 46.25C5.5898 46.25 5.72647 46.25 5.8798 46.25C6.16647 46.25 6.43647 46.2333 6.6898 46.2C6.9498 46.16 7.17647 46.0933 7.3698 46C7.56314 45.9067 7.71647 45.7767 7.8298 45.61C7.9498 45.4433 8.0098 45.2333 8.0098 44.98C8.0098 44.7533 7.96647 44.5633 7.8798 44.41C7.79314 44.25 7.66647 44.1233 7.4998 44.03C7.3398 43.9367 7.14647 43.87 6.9198 43.83C6.69314 43.79 6.4398 43.77 6.1598 43.77H4.9098ZM4.9098 42.99H5.9298C6.1698 42.99 6.39647 42.9733 6.6098 42.94C6.82314 42.9067 7.00647 42.8467 7.1598 42.76C7.3198 42.6733 7.44314 42.56 7.5298 42.42C7.62314 42.28 7.6698 42.1033 7.6698 41.89C7.6698 41.69 7.62314 41.5233 7.5298 41.39C7.43647 41.25 7.30647 41.14 7.1398 41.06C6.9798 40.9733 6.7898 40.91 6.5698 40.87C6.3498 40.83 6.11647 40.81 5.8698 40.81C5.62314 40.81 5.4298 40.8133 5.2898 40.82C5.1498 40.8267 5.02314 40.8367 4.9098 40.85V42.99ZM14.4556 46.85C14.2423 46.9033 13.9589 46.96 13.6056 47.02C13.2589 47.08 12.8556 47.11 12.3956 47.11C11.9956 47.11 11.6589 47.0533 11.3856 46.94C11.1123 46.82 10.8923 46.6533 10.7256 46.44C10.5589 46.2267 10.4389 45.9767 10.3656 45.69C10.2923 45.3967 10.2556 45.0733 10.2556 44.72V41.8H11.1856V44.52C11.1856 45.1533 11.2856 45.6067 11.4856 45.88C11.6856 46.1533 12.0223 46.29 12.4956 46.29C12.5956 46.29 12.6989 46.2867 12.8056 46.28C12.9123 46.2733 13.0123 46.2667 13.1056 46.26C13.1989 46.2467 13.2823 46.2367 13.3556 46.23C13.4356 46.2167 13.4923 46.2033 13.5256 46.19V41.8H14.4556V46.85ZM17.2678 46.33C17.6478 46.33 17.9278 46.28 18.1078 46.18C18.2944 46.08 18.3878 45.92 18.3878 45.7C18.3878 45.4733 18.2978 45.2933 18.1178 45.16C17.9378 45.0267 17.6411 44.8767 17.2278 44.71C17.0278 44.63 16.8344 44.55 16.6478 44.47C16.4678 44.3833 16.3111 44.2833 16.1778 44.17C16.0444 44.0567 15.9378 43.92 15.8578 43.76C15.7778 43.6 15.7378 43.4033 15.7378 43.17C15.7378 42.71 15.9078 42.3467 16.2478 42.08C16.5878 41.8067 17.0511 41.67 17.6378 41.67C17.7844 41.67 17.9311 41.68 18.0778 41.7C18.2244 41.7133 18.3611 41.7333 18.4878 41.76C18.6144 41.78 18.7244 41.8033 18.8178 41.83C18.9178 41.8567 18.9944 41.88 19.0478 41.9L18.8778 42.7C18.7778 42.6467 18.6211 42.5933 18.4078 42.54C18.1944 42.48 17.9378 42.45 17.6378 42.45C17.3778 42.45 17.1511 42.5033 16.9578 42.61C16.7644 42.71 16.6678 42.87 16.6678 43.09C16.6678 43.2033 16.6878 43.3033 16.7278 43.39C16.7744 43.4767 16.8411 43.5567 16.9278 43.63C17.0211 43.6967 17.1344 43.76 17.2678 43.82C17.4011 43.88 17.5611 43.9433 17.7478 44.01C17.9944 44.1033 18.2144 44.1967 18.4078 44.29C18.6011 44.3767 18.7644 44.48 18.8978 44.6C19.0378 44.72 19.1444 44.8667 19.2178 45.04C19.2911 45.2067 19.3278 45.4133 19.3278 45.66C19.3278 46.14 19.1478 46.5033 18.7878 46.75C18.4344 46.9967 17.9278 47.12 17.2678 47.12C16.8078 47.12 16.4478 47.08 16.1878 47C15.9278 46.9267 15.7511 46.87 15.6578 46.83L15.8278 46.03C15.9344 46.07 16.1044 46.13 16.3378 46.21C16.5711 46.29 16.8811 46.33 17.2678 46.33ZM21.4507 47H20.5207V41.8H21.4507V47ZM20.9807 40.86C20.814 40.86 20.6707 40.8067 20.5507 40.7C20.4373 40.5867 20.3807 40.4367 20.3807 40.25C20.3807 40.0633 20.4373 39.9167 20.5507 39.81C20.6707 39.6967 20.814 39.64 20.9807 39.64C21.1473 39.64 21.2873 39.6967 21.4007 39.81C21.5207 39.9167 21.5807 40.0633 21.5807 40.25C21.5807 40.4367 21.5207 40.5867 21.4007 40.7C21.2873 40.8067 21.1473 40.86 20.9807 40.86ZM23.05 41.95C23.2633 41.8967 23.5466 41.84 23.9 41.78C24.2533 41.72 24.66 41.69 25.12 41.69C25.5333 41.69 25.8766 41.75 26.15 41.87C26.4233 41.9833 26.64 42.1467 26.8 42.36C26.9666 42.5667 27.0833 42.8167 27.15 43.11C27.2166 43.4033 27.25 43.7267 27.25 44.08V47H26.32V44.28C26.32 43.96 26.2966 43.6867 26.25 43.46C26.21 43.2333 26.14 43.05 26.04 42.91C25.94 42.77 25.8066 42.67 25.64 42.61C25.4733 42.5433 25.2666 42.51 25.02 42.51C24.92 42.51 24.8166 42.5133 24.71 42.52C24.6033 42.5267 24.5 42.5367 24.4 42.55C24.3066 42.5567 24.22 42.5667 24.14 42.58C24.0666 42.5933 24.0133 42.6033 23.98 42.61V47H23.05V41.95ZM28.5021 44.41C28.5021 43.95 28.5688 43.55 28.7021 43.21C28.8355 42.8633 29.0121 42.5767 29.2321 42.35C29.4521 42.1233 29.7055 41.9533 29.9921 41.84C30.2788 41.7267 30.5721 41.67 30.8721 41.67C31.5721 41.67 32.1088 41.89 32.4821 42.33C32.8555 42.7633 33.0421 43.4267 33.0421 44.32C33.0421 44.36 33.0421 44.4133 33.0421 44.48C33.0421 44.54 33.0388 44.5967 33.0321 44.65H29.4721C29.5121 45.19 29.6688 45.6 29.9421 45.88C30.2155 46.16 30.6421 46.3 31.2221 46.3C31.5488 46.3 31.8221 46.2733 32.0421 46.22C32.2688 46.16 32.4388 46.1033 32.5521 46.05L32.6821 46.83C32.5688 46.89 32.3688 46.9533 32.0821 47.02C31.8021 47.0867 31.4821 47.12 31.1221 47.12C30.6688 47.12 30.2755 47.0533 29.9421 46.92C29.6155 46.78 29.3455 46.59 29.1321 46.35C28.9188 46.11 28.7588 45.8267 28.6521 45.5C28.5521 45.1667 28.5021 44.8033 28.5021 44.41ZM32.0721 43.9C32.0788 43.48 31.9721 43.1367 31.7521 42.87C31.5388 42.5967 31.2421 42.46 30.8621 42.46C30.6488 42.46 30.4588 42.5033 30.2921 42.59C30.1321 42.67 29.9955 42.7767 29.8821 42.91C29.7688 43.0433 29.6788 43.1967 29.6121 43.37C29.5521 43.5433 29.5121 43.72 29.4921 43.9H32.0721ZM35.5881 46.33C35.9681 46.33 36.2481 46.28 36.4281 46.18C36.6148 46.08 36.7081 45.92 36.7081 45.7C36.7081 45.4733 36.6181 45.2933 36.4381 45.16C36.2581 45.0267 35.9614 44.8767 35.5481 44.71C35.3481 44.63 35.1548 44.55 34.9681 44.47C34.7881 44.3833 34.6314 44.2833 34.4981 44.17C34.3648 44.0567 34.2581 43.92 34.1781 43.76C34.0981 43.6 34.0581 43.4033 34.0581 43.17C34.0581 42.71 34.2281 42.3467 34.5681 42.08C34.9081 41.8067 35.3714 41.67 35.9581 41.67C36.1048 41.67 36.2514 41.68 36.3981 41.7C36.5448 41.7133 36.6814 41.7333 36.8081 41.76C36.9348 41.78 37.0448 41.8033 37.1381 41.83C37.2381 41.8567 37.3148 41.88 37.3681 41.9L37.1981 42.7C37.0981 42.6467 36.9414 42.5933 36.7281 42.54C36.5148 42.48 36.2581 42.45 35.9581 42.45C35.6981 42.45 35.4714 42.5033 35.2781 42.61C35.0848 42.71 34.9881 42.87 34.9881 43.09C34.9881 43.2033 35.0081 43.3033 35.0481 43.39C35.0948 43.4767 35.1614 43.5567 35.2481 43.63C35.3414 43.6967 35.4548 43.76 35.5881 43.82C35.7214 43.88 35.8814 43.9433 36.0681 44.01C36.3148 44.1033 36.5348 44.1967 36.7281 44.29C36.9214 44.3767 37.0848 44.48 37.2181 44.6C37.3581 44.72 37.4648 44.8667 37.5381 45.04C37.6114 45.2067 37.6481 45.4133 37.6481 45.66C37.6481 46.14 37.4681 46.5033 37.1081 46.75C36.7548 46.9967 36.2481 47.12 35.5881 47.12C35.1281 47.12 34.7681 47.08 34.5081 47C34.2481 46.9267 34.0714 46.87 33.9781 46.83L34.1481 46.03C34.2548 46.07 34.4248 46.13 34.6581 46.21C34.8914 46.29 35.2014 46.33 35.5881 46.33ZM40.051 46.33C40.431 46.33 40.711 46.28 40.891 46.18C41.0776 46.08 41.171 45.92 41.171 45.7C41.171 45.4733 41.081 45.2933 40.901 45.16C40.721 45.0267 40.4243 44.8767 40.011 44.71C39.811 44.63 39.6176 44.55 39.431 44.47C39.251 44.3833 39.0943 44.2833 38.961 44.17C38.8276 44.0567 38.721 43.92 38.641 43.76C38.561 43.6 38.521 43.4033 38.521 43.17C38.521 42.71 38.691 42.3467 39.031 42.08C39.371 41.8067 39.8343 41.67 40.421 41.67C40.5676 41.67 40.7143 41.68 40.861 41.7C41.0076 41.7133 41.1443 41.7333 41.271 41.76C41.3976 41.78 41.5076 41.8033 41.601 41.83C41.701 41.8567 41.7776 41.88 41.831 41.9L41.661 42.7C41.561 42.6467 41.4043 42.5933 41.191 42.54C40.9776 42.48 40.721 42.45 40.421 42.45C40.161 42.45 39.9343 42.5033 39.741 42.61C39.5476 42.71 39.451 42.87 39.451 43.09C39.451 43.2033 39.471 43.3033 39.511 43.39C39.5576 43.4767 39.6243 43.5567 39.711 43.63C39.8043 43.6967 39.9176 43.76 40.051 43.82C40.1843 43.88 40.3443 43.9433 40.531 44.01C40.7776 44.1033 40.9976 44.1967 41.191 44.29C41.3843 44.3767 41.5476 44.48 41.681 44.6C41.821 44.72 41.9276 44.8667 42.001 45.04C42.0743 45.2067 42.111 45.4133 42.111 45.66C42.111 46.14 41.931 46.5033 41.571 46.75C41.2176 46.9967 40.711 47.12 40.051 47.12C39.591 47.12 39.231 47.08 38.971 47C38.711 46.9267 38.5343 46.87 38.441 46.83L38.611 46.03C38.7176 46.07 38.8876 46.13 39.121 46.21C39.3543 46.29 39.6643 46.33 40.051 46.33ZM43.0139 44.41C43.0139 43.95 43.0805 43.55 43.2139 43.21C43.3472 42.8633 43.5239 42.5767 43.7439 42.35C43.9639 42.1233 44.2172 41.9533 44.5039 41.84C44.7905 41.7267 45.0839 41.67 45.3839 41.67C46.0839 41.67 46.6205 41.89 46.9939 42.33C47.3672 42.7633 47.5539 43.4267 47.5539 44.32C47.5539 44.36 47.5539 44.4133 47.5539 44.48C47.5539 44.54 47.5505 44.5967 47.5439 44.65H43.9839C44.0239 45.19 44.1805 45.6 44.4539 45.88C44.7272 46.16 45.1539 46.3 45.7339 46.3C46.0605 46.3 46.3339 46.2733 46.5539 46.22C46.7805 46.16 46.9505 46.1033 47.0639 46.05L47.1939 46.83C47.0805 46.89 46.8805 46.9533 46.5939 47.02C46.3139 47.0867 45.9939 47.12 45.6339 47.12C45.1805 47.12 44.7872 47.0533 44.4539 46.92C44.1272 46.78 43.8572 46.59 43.6439 46.35C43.4305 46.11 43.2705 45.8267 43.1639 45.5C43.0639 45.1667 43.0139 44.8033 43.0139 44.41ZM46.5839 43.9C46.5905 43.48 46.4839 43.1367 46.2639 42.87C46.0505 42.5967 45.7539 42.46 45.3739 42.46C45.1605 42.46 44.9705 42.5033 44.8039 42.59C44.6439 42.67 44.5072 42.7767 44.3939 42.91C44.2805 43.0433 44.1905 43.1967 44.1239 43.37C44.0639 43.5433 44.0239 43.72 44.0039 43.9H46.5839ZM50.0998 46.33C50.4798 46.33 50.7598 46.28 50.9398 46.18C51.1265 46.08 51.2198 45.92 51.2198 45.7C51.2198 45.4733 51.1298 45.2933 50.9498 45.16C50.7698 45.0267 50.4731 44.8767 50.0598 44.71C49.8598 44.63 49.6665 44.55 49.4798 44.47C49.2998 44.3833 49.1431 44.2833 49.0098 44.17C48.8765 44.0567 48.7698 43.92 48.6898 43.76C48.6098 43.6 48.5698 43.4033 48.5698 43.17C48.5698 42.71 48.7398 42.3467 49.0798 42.08C49.4198 41.8067 49.8831 41.67 50.4698 41.67C50.6165 41.67 50.7631 41.68 50.9098 41.7C51.0565 41.7133 51.1931 41.7333 51.3198 41.76C51.4465 41.78 51.5565 41.8033 51.6498 41.83C51.7498 41.8567 51.8265 41.88 51.8798 41.9L51.7098 42.7C51.6098 42.6467 51.4531 42.5933 51.2398 42.54C51.0265 42.48 50.7698 42.45 50.4698 42.45C50.2098 42.45 49.9831 42.5033 49.7898 42.61C49.5965 42.71 49.4998 42.87 49.4998 43.09C49.4998 43.2033 49.5198 43.3033 49.5598 43.39C49.6065 43.4767 49.6731 43.5567 49.7598 43.63C49.8531 43.6967 49.9665 43.76 50.0998 43.82C50.2331 43.88 50.3931 43.9433 50.5798 44.01C50.8265 44.1033 51.0465 44.1967 51.2398 44.29C51.4331 44.3767 51.5965 44.48 51.7298 44.6C51.8698 44.72 51.9765 44.8667 52.0498 45.04C52.1231 45.2067 52.1598 45.4133 52.1598 45.66C52.1598 46.14 51.9798 46.5033 51.6198 46.75C51.2665 46.9967 50.7598 47.12 50.0998 47.12C49.6398 47.12 49.2798 47.08 49.0198 47C48.7598 46.9267 48.5831 46.87 48.4898 46.83L48.6598 46.03C48.7665 46.07 48.9365 46.13 49.1698 46.21C49.4031 46.29 49.7131 46.33 50.0998 46.33Z" fill="#242424"/>
<path d="M2 79.549C2 78.4444 2.89543 77.549 4 77.549H25.457C26.5616 77.549 27.457 78.4444 27.457 79.549V136.43C27.457 137.534 26.5616 138.43 25.457 138.43H4C2.89543 138.43 2 137.534 2 136.43V79.549Z" fill="#55C1FA"/>
<path d="M29.0481 90.7639C29.0481 89.6593 29.9435 88.7639 31.0481 88.7639H52.5051C53.6097 88.7639 54.5051 89.6593 54.5051 90.7639V136.43C54.5051 137.534 53.6097 138.43 52.5051 138.43H31.0481C29.9435 138.43 29.0481 137.534 29.0481 136.43V90.7639Z" fill="#55C1FA"/>
<mask id="path-5-inside-1_16_371" fill="white">
<path d="M9.95535 125.613H19.5017V138.43H9.95535V125.613Z"/>
</mask>
<path d="M9.95535 125.613H19.5017V138.43H9.95535V125.613Z" fill="#55C1FA"/>
<path d="M9.95535 125.613V124.613H8.95535V125.613H9.95535ZM19.5017 125.613H20.5017V124.613H19.5017V125.613ZM9.95535 126.613H19.5017V124.613H9.95535V126.613ZM18.5017 125.613V138.43H20.5017V125.613H18.5017ZM10.9554 138.43V125.613H8.95535V138.43H10.9554Z" fill="white" mask="url(#path-5-inside-1_16_371)"/>
<mask id="path-7-inside-2_16_371" fill="white">
<path d="M37.0034 125.613H46.5498V138.43H37.0034V125.613Z"/>
</mask>
<path d="M37.0034 125.613H46.5498V138.43H37.0034V125.613Z" fill="#55C1FA"/>
<path d="M37.0034 125.613V124.613H36.0034V125.613H37.0034ZM46.5498 125.613H47.5498V124.613H46.5498V125.613ZM37.0034 126.613H46.5498V124.613H37.0034V126.613ZM45.5498 125.613V138.43H47.5498V125.613H45.5498ZM38.0034 138.43V125.613H36.0034V138.43H38.0034Z" fill="white" mask="url(#path-7-inside-2_16_371)"/>
<rect x="6.77322" y="85.5596" width="4.77319" height="4.80638" fill="white"/>
<rect x="17.9106" y="85.5596" width="4.77319" height="4.80638" fill="white"/>
<rect x="6.77322" y="114.398" width="4.77319" height="4.80638" fill="white"/>
<rect x="17.9106" y="114.398" width="4.77319" height="4.80638" fill="white"/>
<rect x="33.8213" y="104.785" width="4.77319" height="4.80638" fill="white"/>
<rect x="44.9587" y="104.785" width="4.77319" height="4.80638" fill="white"/>
<rect x="33.8213" y="114.398" width="4.77319" height="4.80638" fill="white"/>
<rect x="44.9587" y="114.398" width="4.77319" height="4.80638" fill="white"/>
<rect x="33.8213" y="95.1724" width="4.77319" height="4.80638" fill="white"/>
<rect x="44.9587" y="95.1724" width="4.77319" height="4.80638" fill="white"/>
<rect x="6.77322" y="104.785" width="4.77319" height="4.80638" fill="white"/>
<rect x="17.9106" y="104.785" width="4.77319" height="4.80638" fill="white"/>
<rect x="6.77322" y="95.1724" width="4.77319" height="4.80638" fill="white"/>
<rect x="17.9106" y="95.1724" width="4.77319" height="4.80638" fill="white"/>
<path d="M2 166.064C2 164.959 2.89543 164.064 4 164.064H25.457C26.5616 164.064 27.457 164.959 27.457 166.064V222.945C27.457 224.049 26.5616 224.945 25.457 224.945H4C2.89543 224.945 2 224.049 2 222.945V166.064Z" fill="#55C1FA"/>
<path d="M29.0481 177.279C29.0481 176.174 29.9435 175.279 31.0481 175.279H52.5051C53.6097 175.279 54.5051 176.174 54.5051 177.279V222.945C54.5051 224.049 53.6097 224.945 52.5051 224.945H31.0481C29.9435 224.945 29.0481 224.049 29.0481 222.945V177.279Z" fill="#55C1FA"/>
<mask id="path-25-inside-3_16_371" fill="white">
<path d="M9.95535 212.128H19.5017V224.945H9.95535V212.128Z"/>
</mask>
<path d="M9.95535 212.128H19.5017V224.945H9.95535V212.128Z" fill="#55C1FA"/>
<path d="M9.95535 212.128V211.128H8.95535V212.128H9.95535ZM19.5017 212.128H20.5017V211.128H19.5017V212.128ZM9.95535 213.128H19.5017V211.128H9.95535V213.128ZM18.5017 212.128V224.945H20.5017V212.128H18.5017ZM10.9554 224.945V212.128H8.95535V224.945H10.9554Z" fill="white" mask="url(#path-25-inside-3_16_371)"/>
<mask id="path-27-inside-4_16_371" fill="white">
<path d="M37.0034 212.128H46.5498V224.945H37.0034V212.128Z"/>
</mask>
<path d="M37.0034 212.128H46.5498V224.945H37.0034V212.128Z" fill="#55C1FA"/>
<path d="M37.0034 212.128V211.128H36.0034V212.128H37.0034ZM46.5498 212.128H47.5498V211.128H46.5498V212.128ZM37.0034 213.128H46.5498V211.128H37.0034V213.128ZM45.5498 212.128V224.945H47.5498V212.128H45.5498ZM38.0034 224.945V212.128H36.0034V224.945H38.0034Z" fill="white" mask="url(#path-27-inside-4_16_371)"/>
<rect x="6.77322" y="172.074" width="4.77319" height="4.80638" fill="white"/>
<rect x="17.9106" y="172.074" width="4.77319" height="4.80638" fill="white"/>
<rect x="6.77322" y="200.913" width="4.77319" height="4.80638" fill="white"/>
<rect x="17.9106" y="200.913" width="4.77319" height="4.80638" fill="white"/>
<rect x="33.8213" y="191.3" width="4.77319" height="4.80638" fill="white"/>
<rect x="44.9587" y="191.3" width="4.77319" height="4.80638" fill="white"/>
<rect x="33.8213" y="200.913" width="4.77319" height="4.80638" fill="white"/>
<rect x="44.9587" y="200.913" width="4.77319" height="4.80638" fill="white"/>
<rect x="33.8213" y="181.687" width="4.77319" height="4.80638" fill="white"/>
<rect x="44.9587" y="181.687" width="4.77319" height="4.80638" fill="white"/>
<rect x="6.77322" y="191.3" width="4.77319" height="4.80638" fill="white"/>
<rect x="17.9106" y="191.3" width="4.77319" height="4.80638" fill="white"/>
<rect x="6.77322" y="181.687" width="4.77319" height="4.80638" fill="white"/>
<rect x="17.9106" y="181.687" width="4.77319" height="4.80638" fill="white"/>
<path d="M67.002 155.5C66.7258 155.499 66.5011 155.722 66.5 155.998C66.4989 156.274 66.7219 156.499 66.998 156.5L67.002 155.5ZM130.604 156.603C130.8 156.408 130.801 156.092 130.606 155.896L127.437 152.701C127.242 152.505 126.926 152.504 126.73 152.699C126.534 152.893 126.532 153.21 126.727 153.406L129.544 156.245L126.705 159.062C126.509 159.257 126.508 159.574 126.702 159.77C126.897 159.966 127.213 159.967 127.409 159.772L130.604 156.603ZM66.998 156.5L130.249 156.748L130.253 155.748L67.002 155.5L66.998 156.5Z" fill="#55C1FA"/>
<path d="M360.002 155.5C359.726 155.499 359.501 155.722 359.5 155.998C359.499 156.274 359.722 156.499 359.998 156.5L360.002 155.5ZM428.483 156.603C428.679 156.408 428.68 156.092 428.485 155.896L425.315 152.702C425.121 152.506 424.804 152.505 424.608 152.7C424.412 152.894 424.411 153.211 424.605 153.407L427.424 156.245L424.585 159.063C424.389 159.258 424.388 159.575 424.582 159.771C424.777 159.967 425.093 159.968 425.289 159.773L428.483 156.603ZM359.998 156.5L428.129 156.748L428.132 155.748L360.002 155.5L359.998 156.5Z" fill="#55C1FA"/>
<path d="M359.689 155.352C359.474 155.526 359.439 155.841 359.611 156.057C359.782 156.274 360.096 156.309 360.311 156.135L359.689 155.352ZM428.453 101.055C428.483 100.78 428.286 100.532 428.013 100.501L423.555 100.006C423.282 99.9757 423.035 100.174 423.005 100.45C422.974 100.725 423.171 100.973 423.445 101.003L427.407 101.444L426.963 105.433C426.933 105.708 427.13 105.956 427.403 105.986C427.677 106.017 427.923 105.818 427.954 105.543L428.453 101.055ZM360.311 156.135L428.268 101.391L427.646 100.609L359.689 155.352L360.311 156.135Z" fill="#55C1FA"/>
<path d="M360.325 155.62C360.116 155.441 359.8 155.465 359.62 155.675C359.441 155.884 359.465 156.2 359.675 156.38L360.325 155.62ZM428.169 214.912C428.444 214.891 428.65 214.65 428.629 214.375L428.285 209.888C428.264 209.613 428.023 209.407 427.748 209.428C427.472 209.449 427.266 209.689 427.288 209.965L427.594 213.953L423.606 214.259C423.33 214.28 423.124 214.521 423.145 214.796C423.166 215.071 423.407 215.277 423.682 215.256L428.169 214.912ZM359.675 156.38L427.805 214.793L428.456 214.034L360.325 155.62L359.675 156.38Z" fill="#55C1FA"/>
<path d="M465.874 153.058C465.874 150.452 467.987 148.339 470.594 148.339H477.402C480.009 148.339 482.122 150.452 482.122 153.058V159.093C482.122 163.579 478.484 167.216 473.998 167.216V167.216C469.511 167.216 465.874 163.579 465.874 159.093V153.058Z" fill="#55C1FA"/>
<ellipse cx="473.998" cy="141.417" rx="4.99916" ry="5.03392" fill="#55C1FA"/>
<path d="M437.495 153.058C437.495 150.452 439.608 148.339 442.214 148.339H449.023C451.629 148.339 453.742 150.452 453.742 153.058V159.093C453.742 163.579 450.105 167.216 445.619 167.216V167.216C441.132 167.216 437.495 163.579 437.495 159.093V153.058Z" fill="#55C1FA"/>
<ellipse cx="445.619" cy="141.417" rx="4.99916" ry="5.03392" fill="#55C1FA"/>
<path d="M464.608 145.662H455.191C451.739 145.662 448.941 148.46 448.941 151.912V159.764C448.941 165.816 453.847 170.722 459.9 170.722C465.952 170.722 470.858 165.816 470.858 159.764V151.912C470.858 148.46 468.06 145.662 464.608 145.662Z" fill="#55C1FA" stroke="white" stroke-width="2.5"/>
<path d="M459.9 145.906C463.898 145.906 467.124 142.644 467.124 138.64C467.124 134.635 463.898 131.373 459.9 131.373C455.902 131.373 452.675 134.635 452.675 138.64C452.675 142.644 455.902 145.906 459.9 145.906Z" fill="#55C1FA" stroke="white" stroke-width="2.5"/>
<path d="M465.874 96.9839C465.874 94.3775 467.987 92.2646 470.594 92.2646H477.402C480.009 92.2646 482.122 94.3775 482.122 96.9839V103.018C482.122 107.505 478.484 111.142 473.998 111.142V111.142C469.511 111.142 465.874 107.505 465.874 103.018V96.9839Z" fill="#55C1FA"/>
<ellipse cx="473.998" cy="85.343" rx="4.99916" ry="5.03392" fill="#55C1FA"/>
<path d="M437.495 96.9839C437.495 94.3775 439.608 92.2646 442.214 92.2646H449.023C451.629 92.2646 453.742 94.3775 453.742 96.9839V103.018C453.742 107.505 450.105 111.142 445.619 111.142V111.142C441.132 111.142 437.495 107.505 437.495 103.018V96.9839Z" fill="#55C1FA"/>
<ellipse cx="445.619" cy="85.343" rx="4.99916" ry="5.03392" fill="#55C1FA"/>
<path d="M464.608 89.5873H455.191C451.739 89.5873 448.941 92.3855 448.941 95.8373V103.689C448.941 109.741 453.847 114.648 459.9 114.648C465.952 114.648 470.858 109.741 470.858 103.689V95.8373C470.858 92.3855 468.06 89.5873 464.608 89.5873Z" fill="#55C1FA" stroke="white" stroke-width="2.5"/>
<path d="M459.9 89.8313C463.898 89.8313 467.124 86.5699 467.124 82.5651C467.124 78.5603 463.898 75.299 459.9 75.299C455.902 75.299 452.675 78.5603 452.675 82.5651C452.675 86.5699 455.902 89.8313 459.9 89.8313Z" fill="#55C1FA" stroke="white" stroke-width="2.5"/>
<path d="M465.874 209.133C465.874 206.526 467.987 204.413 470.594 204.413H477.402C480.009 204.413 482.122 206.526 482.122 209.133V215.167C482.122 219.654 478.484 223.291 473.998 223.291V223.291C469.511 223.291 465.874 219.654 465.874 215.167V209.133Z" fill="#55C1FA"/>
<ellipse cx="473.998" cy="197.492" rx="4.99916" ry="5.03392" fill="#55C1FA"/>
<path d="M437.495 209.133C437.495 206.526 439.608 204.413 442.214 204.413H449.023C451.629 204.413 453.742 206.526 453.742 209.133V215.167C453.742 219.654 450.105 223.291 445.619 223.291V223.291C441.132 223.291 437.495 219.654 437.495 215.167V209.133Z" fill="#55C1FA"/>
<ellipse cx="445.619" cy="197.492" rx="4.99916" ry="5.03392" fill="#55C1FA"/>
<path d="M464.608 201.736H455.191C451.739 201.736 448.941 204.534 448.941 207.986V215.838C448.941 221.89 453.847 226.797 459.9 226.797C465.952 226.797 470.858 221.89 470.858 215.838V207.986C470.858 204.534 468.06 201.736 464.608 201.736Z" fill="#55C1FA" stroke="white" stroke-width="2.5"/>
<path d="M459.9 201.98C463.898 201.98 467.124 198.719 467.124 194.714C467.124 190.709 463.898 187.448 459.9 187.448C455.902 187.448 452.675 190.709 452.675 194.714C452.675 198.719 455.902 201.98 459.9 201.98Z" fill="#55C1FA" stroke="white" stroke-width="2.5"/>
<path d="M442.248 49.15C441.762 49.15 441.318 49.07 440.918 48.91C440.518 48.75 440.175 48.5167 439.888 48.21C439.602 47.9033 439.378 47.5267 439.218 47.08C439.065 46.6267 438.988 46.11 438.988 45.53C438.988 44.95 439.075 44.4367 439.248 43.99C439.428 43.5367 439.668 43.1567 439.968 42.85C440.268 42.5433 440.618 42.31 441.018 42.15C441.418 41.99 441.845 41.91 442.298 41.91C442.585 41.91 442.842 41.93 443.068 41.97C443.302 42.01 443.502 42.0567 443.668 42.11C443.842 42.1633 443.982 42.2167 444.088 42.27C444.195 42.3233 444.268 42.3633 444.308 42.39L444.028 43.19C443.968 43.15 443.882 43.1067 443.768 43.06C443.655 43.0133 443.525 42.9667 443.378 42.92C443.238 42.8733 443.082 42.8367 442.908 42.81C442.742 42.7767 442.572 42.76 442.398 42.76C442.032 42.76 441.702 42.8233 441.408 42.95C441.115 43.0767 440.865 43.26 440.658 43.5C440.452 43.74 440.292 44.0333 440.178 44.38C440.072 44.72 440.018 45.1033 440.018 45.53C440.018 45.9433 440.065 46.32 440.158 46.66C440.258 47 440.405 47.2933 440.598 47.54C440.792 47.78 441.032 47.9667 441.318 48.1C441.612 48.2333 441.952 48.3 442.338 48.3C442.785 48.3 443.155 48.2533 443.448 48.16C443.742 48.0667 443.962 47.9833 444.108 47.91L444.358 48.71C444.312 48.7433 444.228 48.7867 444.108 48.84C443.988 48.8867 443.838 48.9333 443.658 48.98C443.478 49.0267 443.268 49.0667 443.028 49.1C442.788 49.1333 442.528 49.15 442.248 49.15ZM449.354 48.85C449.141 48.9033 448.857 48.96 448.504 49.02C448.157 49.08 447.754 49.11 447.294 49.11C446.894 49.11 446.557 49.0533 446.284 48.94C446.011 48.82 445.791 48.6533 445.624 48.44C445.457 48.2267 445.337 47.9767 445.264 47.69C445.191 47.3967 445.154 47.0733 445.154 46.72V43.8H446.084V46.52C446.084 47.1533 446.184 47.6067 446.384 47.88C446.584 48.1533 446.921 48.29 447.394 48.29C447.494 48.29 447.597 48.2867 447.704 48.28C447.811 48.2733 447.911 48.2667 448.004 48.26C448.097 48.2467 448.181 48.2367 448.254 48.23C448.334 48.2167 448.391 48.2033 448.424 48.19V43.8H449.354V48.85ZM452.166 48.33C452.546 48.33 452.826 48.28 453.006 48.18C453.193 48.08 453.286 47.92 453.286 47.7C453.286 47.4733 453.196 47.2933 453.016 47.16C452.836 47.0267 452.54 46.8767 452.126 46.71C451.926 46.63 451.733 46.55 451.546 46.47C451.366 46.3833 451.21 46.2833 451.076 46.17C450.943 46.0567 450.836 45.92 450.756 45.76C450.676 45.6 450.636 45.4033 450.636 45.17C450.636 44.71 450.806 44.3467 451.146 44.08C451.486 43.8067 451.95 43.67 452.536 43.67C452.683 43.67 452.83 43.68 452.976 43.7C453.123 43.7133 453.26 43.7333 453.386 43.76C453.513 43.78 453.623 43.8033 453.716 43.83C453.816 43.8567 453.893 43.88 453.946 43.9L453.776 44.7C453.676 44.6467 453.52 44.5933 453.306 44.54C453.093 44.48 452.836 44.45 452.536 44.45C452.276 44.45 452.05 44.5033 451.856 44.61C451.663 44.71 451.566 44.87 451.566 45.09C451.566 45.2033 451.586 45.3033 451.626 45.39C451.673 45.4767 451.74 45.5567 451.826 45.63C451.92 45.6967 452.033 45.76 452.166 45.82C452.3 45.88 452.46 45.9433 452.646 46.01C452.893 46.1033 453.113 46.1967 453.306 46.29C453.5 46.3767 453.663 46.48 453.796 46.6C453.936 46.72 454.043 46.8667 454.116 47.04C454.19 47.2067 454.226 47.4133 454.226 47.66C454.226 48.14 454.046 48.5033 453.686 48.75C453.333 48.9967 452.826 49.12 452.166 49.12C451.706 49.12 451.346 49.08 451.086 49C450.826 48.9267 450.65 48.87 450.556 48.83L450.726 48.03C450.833 48.07 451.003 48.13 451.236 48.21C451.47 48.29 451.78 48.33 452.166 48.33ZM456.289 43.8H458.259V44.58H456.289V46.98C456.289 47.24 456.309 47.4567 456.349 47.63C456.389 47.7967 456.449 47.93 456.529 48.03C456.609 48.1233 456.709 48.19 456.829 48.23C456.949 48.27 457.089 48.29 457.249 48.29C457.529 48.29 457.753 48.26 457.919 48.2C458.093 48.1333 458.213 48.0867 458.279 48.06L458.459 48.83C458.366 48.8767 458.203 48.9333 457.969 49C457.736 49.0733 457.469 49.11 457.169 49.11C456.816 49.11 456.523 49.0667 456.289 48.98C456.063 48.8867 455.879 48.75 455.739 48.57C455.599 48.39 455.499 48.17 455.439 47.91C455.386 47.6433 455.359 47.3367 455.359 46.99V42.35L456.289 42.19V43.8ZM463.896 46.4C463.896 46.8133 463.836 47.1867 463.716 47.52C463.596 47.8533 463.426 48.14 463.206 48.38C462.993 48.62 462.736 48.8067 462.436 48.94C462.136 49.0667 461.809 49.13 461.456 49.13C461.103 49.13 460.776 49.0667 460.476 48.94C460.176 48.8067 459.916 48.62 459.696 48.38C459.483 48.14 459.316 47.8533 459.196 47.52C459.076 47.1867 459.016 46.8133 459.016 46.4C459.016 45.9933 459.076 45.6233 459.196 45.29C459.316 44.95 459.483 44.66 459.696 44.42C459.916 44.18 460.176 43.9967 460.476 43.87C460.776 43.7367 461.103 43.67 461.456 43.67C461.809 43.67 462.136 43.7367 462.436 43.87C462.736 43.9967 462.993 44.18 463.206 44.42C463.426 44.66 463.596 44.95 463.716 45.29C463.836 45.6233 463.896 45.9933 463.896 46.4ZM462.926 46.4C462.926 45.8133 462.793 45.35 462.526 45.01C462.266 44.6633 461.909 44.49 461.456 44.49C461.003 44.49 460.643 44.6633 460.376 45.01C460.116 45.35 459.986 45.8133 459.986 46.4C459.986 46.9867 460.116 47.4533 460.376 47.8C460.643 48.14 461.003 48.31 461.456 48.31C461.909 48.31 462.266 48.14 462.526 47.8C462.793 47.4533 462.926 46.9867 462.926 46.4ZM465.204 43.95C465.418 43.8967 465.698 43.84 466.044 43.78C466.398 43.72 466.804 43.69 467.264 43.69C467.598 43.69 467.878 43.7367 468.104 43.83C468.331 43.9167 468.521 44.0467 468.674 44.22C468.721 44.1867 468.794 44.14 468.894 44.08C468.994 44.02 469.118 43.9633 469.264 43.91C469.411 43.85 469.574 43.8 469.754 43.76C469.934 43.7133 470.128 43.69 470.334 43.69C470.734 43.69 471.061 43.75 471.314 43.87C471.568 43.9833 471.764 44.1467 471.904 44.36C472.051 44.5733 472.148 44.8267 472.194 45.12C472.248 45.4133 472.274 45.7333 472.274 46.08V49H471.344V46.28C471.344 45.9733 471.328 45.71 471.294 45.49C471.268 45.27 471.211 45.0867 471.124 44.94C471.044 44.7933 470.931 44.6867 470.784 44.62C470.644 44.5467 470.461 44.51 470.234 44.51C469.921 44.51 469.661 44.5533 469.454 44.64C469.254 44.72 469.118 44.7933 469.044 44.86C469.098 45.0333 469.138 45.2233 469.164 45.43C469.191 45.6367 469.204 45.8533 469.204 46.08V49H468.274V46.28C468.274 45.9733 468.258 45.71 468.224 45.49C468.191 45.27 468.131 45.0867 468.044 44.94C467.964 44.7933 467.851 44.6867 467.704 44.62C467.564 44.5467 467.384 44.51 467.164 44.51C467.071 44.51 466.971 44.5133 466.864 44.52C466.758 44.5267 466.654 44.5367 466.554 44.55C466.461 44.5567 466.374 44.5667 466.294 44.58C466.214 44.5933 466.161 44.6033 466.134 44.61V49H465.204V43.95ZM473.528 46.41C473.528 45.95 473.594 45.55 473.728 45.21C473.861 44.8633 474.038 44.5767 474.258 44.35C474.478 44.1233 474.731 43.9533 475.018 43.84C475.304 43.7267 475.598 43.67 475.898 43.67C476.598 43.67 477.134 43.89 477.508 44.33C477.881 44.7633 478.068 45.4267 478.068 46.32C478.068 46.36 478.068 46.4133 478.068 46.48C478.068 46.54 478.064 46.5967 478.058 46.65H474.498C474.538 47.19 474.694 47.6 474.968 47.88C475.241 48.16 475.668 48.3 476.248 48.3C476.574 48.3 476.848 48.2733 477.068 48.22C477.294 48.16 477.464 48.1033 477.578 48.05L477.708 48.83C477.594 48.89 477.394 48.9533 477.108 49.02C476.828 49.0867 476.508 49.12 476.148 49.12C475.694 49.12 475.301 49.0533 474.968 48.92C474.641 48.78 474.371 48.59 474.158 48.35C473.944 48.11 473.784 47.8267 473.678 47.5C473.578 47.1667 473.528 46.8033 473.528 46.41ZM477.098 45.9C477.104 45.48 476.998 45.1367 476.778 44.87C476.564 44.5967 476.268 44.46 475.888 44.46C475.674 44.46 475.484 44.5033 475.318 44.59C475.158 44.67 475.021 44.7767 474.908 44.91C474.794 45.0433 474.704 45.1967 474.638 45.37C474.578 45.5433 474.538 45.72 474.518 45.9H477.098ZM481.324 43.69C481.404 43.69 481.494 43.6967 481.594 43.71C481.7 43.7167 481.804 43.73 481.904 43.75C482.004 43.7633 482.094 43.78 482.174 43.8C482.26 43.8133 482.324 43.8267 482.364 43.84L482.204 44.65C482.13 44.6233 482.007 44.5933 481.834 44.56C481.667 44.52 481.45 44.5 481.184 44.5C481.01 44.5 480.837 44.52 480.664 44.56C480.497 44.5933 480.387 44.6167 480.334 44.63V49H479.404V44.02C479.624 43.94 479.897 43.8667 480.224 43.8C480.55 43.7267 480.917 43.69 481.324 43.69ZM440.346 59.31C441.359 59.31 441.866 58.9633 441.866 58.27C441.866 58.0567 441.819 57.8767 441.726 57.73C441.639 57.5767 441.519 57.4467 441.366 57.34C441.213 57.2267 441.036 57.13 440.836 57.05C440.643 56.97 440.436 56.89 440.216 56.81C439.963 56.7233 439.723 56.6267 439.496 56.52C439.269 56.4067 439.073 56.2767 438.906 56.13C438.739 55.9767 438.606 55.7967 438.506 55.59C438.413 55.3833 438.366 55.1333 438.366 54.84C438.366 54.2333 438.573 53.76 438.986 53.42C439.399 53.08 439.969 52.91 440.696 52.91C441.116 52.91 441.496 52.9567 441.836 53.05C442.183 53.1367 442.436 53.2333 442.596 53.34L442.286 54.13C442.146 54.0433 441.936 53.96 441.656 53.88C441.383 53.7933 441.063 53.75 440.696 53.75C440.509 53.75 440.336 53.77 440.176 53.81C440.016 53.85 439.876 53.91 439.756 53.99C439.636 54.07 439.539 54.1733 439.466 54.3C439.399 54.42 439.366 54.5633 439.366 54.73C439.366 54.9167 439.403 55.0733 439.476 55.2C439.549 55.3267 439.653 55.44 439.786 55.54C439.919 55.6333 440.073 55.72 440.246 55.8C440.426 55.88 440.623 55.96 440.836 56.04C441.136 56.16 441.409 56.28 441.656 56.4C441.909 56.52 442.126 56.6633 442.306 56.83C442.493 56.9967 442.636 57.1967 442.736 57.43C442.836 57.6567 442.886 57.9333 442.886 58.26C442.886 58.8667 442.663 59.3333 442.216 59.66C441.776 59.9867 441.153 60.15 440.346 60.15C440.073 60.15 439.819 60.13 439.586 60.09C439.359 60.0567 439.156 60.0167 438.976 59.97C438.796 59.9167 438.639 59.8633 438.506 59.81C438.379 59.75 438.279 59.7 438.206 59.66L438.496 58.86C438.649 58.9467 438.883 59.0433 439.196 59.15C439.509 59.2567 439.893 59.31 440.346 59.31ZM443.708 57.41C443.708 56.95 443.775 56.55 443.908 56.21C444.042 55.8633 444.218 55.5767 444.438 55.35C444.658 55.1233 444.912 54.9533 445.198 54.84C445.485 54.7267 445.778 54.67 446.078 54.67C446.778 54.67 447.315 54.89 447.688 55.33C448.062 55.7633 448.248 56.4267 448.248 57.32C448.248 57.36 448.248 57.4133 448.248 57.48C448.248 57.54 448.245 57.5967 448.238 57.65H444.678C444.718 58.19 444.875 58.6 445.148 58.88C445.422 59.16 445.848 59.3 446.428 59.3C446.755 59.3 447.028 59.2733 447.248 59.22C447.475 59.16 447.645 59.1033 447.758 59.05L447.888 59.83C447.775 59.89 447.575 59.9533 447.288 60.02C447.008 60.0867 446.688 60.12 446.328 60.12C445.875 60.12 445.482 60.0533 445.148 59.92C444.822 59.78 444.552 59.59 444.338 59.35C444.125 59.11 443.965 58.8267 443.858 58.5C443.758 58.1667 443.708 57.8033 443.708 57.41ZM447.278 56.9C447.285 56.48 447.178 56.1367 446.958 55.87C446.745 55.5967 446.448 55.46 446.068 55.46C445.855 55.46 445.665 55.5033 445.498 55.59C445.338 55.67 445.202 55.7767 445.088 55.91C444.975 56.0433 444.885 56.1967 444.818 56.37C444.758 56.5433 444.718 56.72 444.698 56.9H447.278ZM452.844 59.48C452.764 59.5333 452.608 59.6033 452.374 59.69C452.148 59.77 451.881 59.81 451.574 59.81C451.261 59.81 450.964 59.76 450.684 59.66C450.411 59.56 450.171 59.4067 449.964 59.2C449.758 58.9867 449.594 58.7233 449.474 58.41C449.354 58.0967 449.294 57.7233 449.294 57.29C449.294 56.91 449.351 56.5633 449.464 56.25C449.578 55.93 449.741 55.6567 449.954 55.43C450.174 55.1967 450.441 55.0167 450.754 54.89C451.068 54.7567 451.421 54.69 451.814 54.69C452.248 54.69 452.624 54.7233 452.944 54.79C453.271 54.85 453.544 54.9067 453.764 54.96V59.6C453.764 60.4 453.558 60.98 453.144 61.34C452.731 61.7 452.104 61.88 451.264 61.88C450.938 61.88 450.628 61.8533 450.334 61.8C450.048 61.7467 449.798 61.6833 449.584 61.61L449.754 60.8C449.941 60.8733 450.168 60.9367 450.434 60.99C450.708 61.05 450.991 61.08 451.284 61.08C451.838 61.08 452.234 60.97 452.474 60.75C452.721 60.53 452.844 60.18 452.844 59.7V59.48ZM452.834 55.62C452.741 55.5933 452.614 55.57 452.454 55.55C452.301 55.5233 452.091 55.51 451.824 55.51C451.324 55.51 450.938 55.6733 450.664 56C450.398 56.3267 450.264 56.76 450.264 57.3C450.264 57.6 450.301 57.8567 450.374 58.07C450.454 58.2833 450.558 58.46 450.684 58.6C450.818 58.74 450.968 58.8433 451.134 58.91C451.308 58.9767 451.484 59.01 451.664 59.01C451.911 59.01 452.138 58.9767 452.344 58.91C452.551 58.8367 452.714 58.7533 452.834 58.66V55.62ZM455.366 54.95C455.579 54.8967 455.859 54.84 456.206 54.78C456.559 54.72 456.966 54.69 457.426 54.69C457.759 54.69 458.039 54.7367 458.266 54.83C458.492 54.9167 458.682 55.0467 458.836 55.22C458.882 55.1867 458.956 55.14 459.056 55.08C459.156 55.02 459.279 54.9633 459.426 54.91C459.572 54.85 459.736 54.8 459.916 54.76C460.096 54.7133 460.289 54.69 460.496 54.69C460.896 54.69 461.222 54.75 461.476 54.87C461.729 54.9833 461.926 55.1467 462.066 55.36C462.212 55.5733 462.309 55.8267 462.356 56.12C462.409 56.4133 462.436 56.7333 462.436 57.08V60H461.506V57.28C461.506 56.9733 461.489 56.71 461.456 56.49C461.429 56.27 461.372 56.0867 461.286 55.94C461.206 55.7933 461.092 55.6867 460.946 55.62C460.806 55.5467 460.622 55.51 460.396 55.51C460.082 55.51 459.822 55.5533 459.616 55.64C459.416 55.72 459.279 55.7933 459.206 55.86C459.259 56.0333 459.299 56.2233 459.326 56.43C459.352 56.6367 459.366 56.8533 459.366 57.08V60H458.436V57.28C458.436 56.9733 458.419 56.71 458.386 56.49C458.352 56.27 458.292 56.0867 458.206 55.94C458.126 55.7933 458.012 55.6867 457.866 55.62C457.726 55.5467 457.546 55.51 457.326 55.51C457.232 55.51 457.132 55.5133 457.026 55.52C456.919 55.5267 456.816 55.5367 456.716 55.55C456.622 55.5567 456.536 55.5667 456.456 55.58C456.376 55.5933 456.322 55.6033 456.296 55.61V60H455.366V54.95ZM463.689 57.41C463.689 56.95 463.755 56.55 463.889 56.21C464.022 55.8633 464.199 55.5767 464.419 55.35C464.639 55.1233 464.892 54.9533 465.179 54.84C465.465 54.7267 465.759 54.67 466.059 54.67C466.759 54.67 467.295 54.89 467.669 55.33C468.042 55.7633 468.229 56.4267 468.229 57.32C468.229 57.36 468.229 57.4133 468.229 57.48C468.229 57.54 468.225 57.5967 468.219 57.65H464.659C464.699 58.19 464.855 58.6 465.129 58.88C465.402 59.16 465.829 59.3 466.409 59.3C466.735 59.3 467.009 59.2733 467.229 59.22C467.455 59.16 467.625 59.1033 467.739 59.05L467.869 59.83C467.755 59.89 467.555 59.9533 467.269 60.02C466.989 60.0867 466.669 60.12 466.309 60.12C465.855 60.12 465.462 60.0533 465.129 59.92C464.802 59.78 464.532 59.59 464.319 59.35C464.105 59.11 463.945 58.8267 463.839 58.5C463.739 58.1667 463.689 57.8033 463.689 57.41ZM467.259 56.9C467.265 56.48 467.159 56.1367 466.939 55.87C466.725 55.5967 466.429 55.46 466.049 55.46C465.835 55.46 465.645 55.5033 465.479 55.59C465.319 55.67 465.182 55.7767 465.069 55.91C464.955 56.0433 464.865 56.1967 464.799 56.37C464.739 56.5433 464.699 56.72 464.679 56.9H467.259ZM469.565 54.95C469.778 54.8967 470.061 54.84 470.415 54.78C470.768 54.72 471.175 54.69 471.635 54.69C472.048 54.69 472.391 54.75 472.665 54.87C472.938 54.9833 473.155 55.1467 473.315 55.36C473.481 55.5667 473.598 55.8167 473.665 56.11C473.731 56.4033 473.765 56.7267 473.765 57.08V60H472.835V57.28C472.835 56.96 472.811 56.6867 472.765 56.46C472.725 56.2333 472.655 56.05 472.555 55.91C472.455 55.77 472.321 55.67 472.155 55.61C471.988 55.5433 471.781 55.51 471.535 55.51C471.435 55.51 471.331 55.5133 471.225 55.52C471.118 55.5267 471.015 55.5367 470.915 55.55C470.821 55.5567 470.735 55.5667 470.655 55.58C470.581 55.5933 470.528 55.6033 470.495 55.61V60H469.565V54.95ZM476.177 54.8H478.147V55.58H476.177V57.98C476.177 58.24 476.197 58.4567 476.237 58.63C476.277 58.7967 476.337 58.93 476.417 59.03C476.497 59.1233 476.597 59.19 476.717 59.23C476.837 59.27 476.977 59.29 477.137 59.29C477.417 59.29 477.64 59.26 477.807 59.2C477.98 59.1333 478.1 59.0867 478.167 59.06L478.347 59.83C478.254 59.8767 478.09 59.9333 477.857 60C477.624 60.0733 477.357 60.11 477.057 60.11C476.704 60.11 476.41 60.0667 476.177 59.98C475.95 59.8867 475.767 59.75 475.627 59.57C475.487 59.39 475.387 59.17 475.327 58.91C475.274 58.6433 475.247 58.3367 475.247 57.99V53.35L476.177 53.19V54.8ZM480.54 59.33C480.92 59.33 481.2 59.28 481.38 59.18C481.567 59.08 481.66 58.92 481.66 58.7C481.66 58.4733 481.57 58.2933 481.39 58.16C481.21 58.0267 480.914 57.8767 480.5 57.71C480.3 57.63 480.107 57.55 479.92 57.47C479.74 57.3833 479.584 57.2833 479.45 57.17C479.317 57.0567 479.21 56.92 479.13 56.76C479.05 56.6 479.01 56.4033 479.01 56.17C479.01 55.71 479.18 55.3467 479.52 55.08C479.86 54.8067 480.324 54.67 480.91 54.67C481.057 54.67 481.204 54.68 481.35 54.7C481.497 54.7133 481.634 54.7333 481.76 54.76C481.887 54.78 481.997 54.8033 482.09 54.83C482.19 54.8567 482.267 54.88 482.32 54.9L482.15 55.7C482.05 55.6467 481.894 55.5933 481.68 55.54C481.467 55.48 481.21 55.45 480.91 55.45C480.65 55.45 480.424 55.5033 480.23 55.61C480.037 55.71 479.94 55.87 479.94 56.09C479.94 56.2033 479.96 56.3033 480 56.39C480.047 56.4767 480.114 56.5567 480.2 56.63C480.294 56.6967 480.407 56.76 480.54 56.82C480.674 56.88 480.834 56.9433 481.02 57.01C481.267 57.1033 481.487 57.1967 481.68 57.29C481.874 57.3767 482.037 57.48 482.17 57.6C482.31 57.72 482.417 57.8667 482.49 58.04C482.564 58.2067 482.6 58.4133 482.6 58.66C482.6 59.14 482.42 59.5033 482.06 59.75C481.707 59.9967 481.2 60.12 480.54 60.12C480.08 60.12 479.72 60.08 479.46 60C479.2 59.9267 479.024 59.87 478.93 59.83L479.1 59.03C479.207 59.07 479.377 59.13 479.61 59.21C479.844 59.29 480.154 59.33 480.54 59.33Z" fill="#242424"/>
<path d="M245.75 188C245.75 187.586 245.414 187.25 245 187.25C244.586 187.25 244.25 187.586 244.25 188H245.75ZM244.47 203.53C244.763 203.823 245.237 203.823 245.53 203.53L250.303 198.757C250.596 198.464 250.596 197.99 250.303 197.697C250.01 197.404 249.536 197.404 249.243 197.697L245 201.939L240.757 197.697C240.464 197.404 239.99 197.404 239.697 197.697C239.404 197.99 239.404 198.464 239.697 198.757L244.47 203.53ZM244.25 188V203H245.75V188H244.25Z" fill="#55C1FA"/>
<path d="M228 242.216V223.414H262.934V242.216C262.934 243.873 261.591 245.216 259.934 245.216H231C229.343 245.216 228 243.873 228 242.216ZM262.934 221.414H228V219.719C228 218.062 229.343 216.719 231 216.719H259.934C261.591 216.719 262.934 218.062 262.934 219.719V221.414Z" fill="#55C1FA" stroke="#55C1FA" stroke-width="2"/>
<line x1="254.809" y1="216.951" x2="254.809" y2="213" stroke="#55C1FA" stroke-width="2" stroke-linecap="round"/>
<line x1="235.842" y1="216.451" x2="235.842" y2="213.5" stroke="#55C1FA" stroke-width="3" stroke-linecap="round"/>
<line x1="227" y1="224.145" x2="263.934" y2="224.145" stroke="white"/>
<rect x="246.206" y="230.596" width="2.95474" height="2.97529" rx="0.5" fill="white"/>
<rect x="241.774" y="230.596" width="2.95474" height="2.97529" rx="0.5" fill="white"/>
<rect x="246.206" y="235.058" width="2.95474" height="2.97529" rx="0.5" fill="white"/>
<rect x="246.206" y="239.521" width="2.95474" height="2.97529" rx="0.5" fill="white"/>
<rect x="250.638" y="230.596" width="2.95474" height="2.97529" rx="0.5" fill="white"/>
<rect x="250.638" y="235.058" width="2.95474" height="2.97529" rx="0.5" fill="white"/>
<rect x="237.342" y="235.058" width="2.95474" height="2.97529" rx="0.5" fill="white"/>
<rect x="237.342" y="239.521" width="2.95474" height="2.97529" rx="0.5" fill="white"/>
<rect x="241.774" y="235.058" width="2.95474" height="2.97529" rx="0.5" fill="white"/>
<rect x="241.774" y="239.521" width="2.95474" height="2.97529" rx="0.5" fill="white"/>
<path d="M234.387 227.376C238.746 227.376 242.274 223.819 242.274 219.438C242.274 215.057 238.746 211.5 234.387 211.5C230.028 211.5 226.5 215.057 226.5 219.438C226.5 223.819 230.028 227.376 234.387 227.376Z" fill="#55C1FA" stroke="white"/>
<path d="M234.387 214.678V218.969C234.387 219.278 234.315 219.582 234.178 219.858L232.909 222.414" stroke="white" stroke-linecap="round"/>
<path d="M219.058 256.636C219.024 256.348 218.886 256.125 218.643 255.966C218.401 255.807 218.104 255.727 217.751 255.727C217.494 255.727 217.268 255.769 217.075 255.852C216.884 255.936 216.734 256.05 216.626 256.196C216.52 256.342 216.467 256.508 216.467 256.693C216.467 256.848 216.504 256.982 216.578 257.094C216.654 257.204 216.75 257.295 216.868 257.369C216.985 257.441 217.108 257.501 217.237 257.548C217.366 257.594 217.484 257.631 217.592 257.659L218.183 257.818C218.335 257.858 218.503 257.913 218.689 257.983C218.876 258.053 219.055 258.149 219.226 258.27C219.398 258.389 219.54 258.543 219.652 258.73C219.764 258.918 219.82 259.148 219.82 259.42C219.82 259.735 219.737 260.019 219.572 260.273C219.41 260.527 219.171 260.728 218.857 260.878C218.544 261.027 218.164 261.102 217.717 261.102C217.301 261.102 216.94 261.035 216.635 260.901C216.332 260.766 216.093 260.579 215.919 260.338C215.747 260.098 215.649 259.818 215.626 259.5H216.354C216.373 259.72 216.446 259.902 216.575 260.045C216.706 260.187 216.871 260.294 217.07 260.364C217.27 260.432 217.486 260.466 217.717 260.466C217.986 260.466 218.228 260.422 218.442 260.335C218.656 260.246 218.825 260.123 218.95 259.966C219.075 259.807 219.138 259.621 219.138 259.409C219.138 259.216 219.084 259.059 218.976 258.938C218.868 258.816 218.726 258.718 218.55 258.642C218.374 258.566 218.183 258.5 217.979 258.443L217.263 258.239C216.808 258.108 216.448 257.921 216.183 257.679C215.918 257.437 215.786 257.119 215.786 256.727C215.786 256.402 215.874 256.117 216.05 255.875C216.228 255.631 216.466 255.441 216.766 255.307C217.067 255.17 217.403 255.102 217.774 255.102C218.149 255.102 218.482 255.17 218.774 255.304C219.066 255.437 219.297 255.618 219.467 255.849C219.64 256.08 219.731 256.343 219.74 256.636H219.058ZM222.66 261.091C222.251 261.091 221.898 260.994 221.603 260.801C221.308 260.608 221.08 260.342 220.921 260.003C220.762 259.664 220.683 259.277 220.683 258.841C220.683 258.398 220.764 258.007 220.927 257.668C221.092 257.327 221.321 257.061 221.614 256.869C221.91 256.676 222.254 256.58 222.648 256.58C222.955 256.58 223.232 256.636 223.478 256.75C223.724 256.864 223.926 257.023 224.083 257.227C224.24 257.432 224.338 257.67 224.376 257.943H223.705C223.654 257.744 223.54 257.568 223.364 257.415C223.19 257.259 222.955 257.182 222.66 257.182C222.398 257.182 222.169 257.25 221.972 257.386C221.777 257.521 221.625 257.711 221.515 257.957C221.407 258.202 221.353 258.489 221.353 258.818C221.353 259.155 221.406 259.449 221.512 259.699C221.62 259.949 221.772 260.143 221.967 260.281C222.164 260.42 222.395 260.489 222.66 260.489C222.834 260.489 222.992 260.458 223.134 260.398C223.276 260.337 223.397 260.25 223.495 260.136C223.594 260.023 223.664 259.886 223.705 259.727H224.376C224.338 259.985 224.244 260.217 224.094 260.423C223.947 260.628 223.751 260.791 223.506 260.912C223.264 261.031 222.982 261.091 222.66 261.091ZM226.026 258.375V261H225.356V255.182H226.026V257.318H226.083C226.185 257.093 226.339 256.914 226.543 256.781C226.75 256.647 227.024 256.58 227.367 256.58C227.665 256.58 227.925 256.639 228.148 256.759C228.372 256.876 228.545 257.057 228.668 257.301C228.793 257.544 228.856 257.852 228.856 258.227V261H228.185V258.273C228.185 257.926 228.095 257.658 227.915 257.469C227.737 257.277 227.49 257.182 227.174 257.182C226.954 257.182 226.757 257.228 226.583 257.321C226.411 257.414 226.274 257.549 226.174 257.727C226.076 257.905 226.026 258.121 226.026 258.375ZM231.912 261.091C231.491 261.091 231.129 260.998 230.824 260.812C230.521 260.625 230.287 260.364 230.122 260.028C229.959 259.691 229.878 259.299 229.878 258.852C229.878 258.405 229.959 258.011 230.122 257.67C230.287 257.328 230.516 257.061 230.81 256.869C231.105 256.676 231.45 256.58 231.844 256.58C232.071 256.58 232.295 256.617 232.517 256.693C232.739 256.769 232.94 256.892 233.122 257.062C233.304 257.231 233.449 257.455 233.557 257.733C233.665 258.011 233.719 258.354 233.719 258.761V259.045H230.355V258.466H233.037C233.037 258.22 232.988 258 232.889 257.807C232.793 257.614 232.654 257.461 232.474 257.349C232.296 257.238 232.086 257.182 231.844 257.182C231.577 257.182 231.346 257.248 231.151 257.381C230.957 257.511 230.809 257.682 230.705 257.892C230.6 258.102 230.548 258.328 230.548 258.568V258.955C230.548 259.284 230.605 259.563 230.719 259.793C230.834 260.02 230.994 260.193 231.199 260.312C231.403 260.43 231.641 260.489 231.912 260.489C232.088 260.489 232.247 260.464 232.389 260.415C232.533 260.364 232.657 260.288 232.761 260.188C232.866 260.085 232.946 259.958 233.003 259.807L233.651 259.989C233.582 260.208 233.468 260.402 233.307 260.568C233.146 260.733 232.947 260.862 232.71 260.955C232.473 261.045 232.207 261.091 231.912 261.091ZM236.386 261.091C236.023 261.091 235.702 260.999 235.423 260.815C235.145 260.63 234.927 260.368 234.77 260.031C234.613 259.692 234.534 259.292 234.534 258.83C234.534 258.371 234.613 257.973 234.77 257.636C234.927 257.299 235.146 257.039 235.426 256.855C235.706 256.671 236.03 256.58 236.398 256.58C236.682 256.58 236.906 256.627 237.071 256.722C237.238 256.814 237.365 256.92 237.452 257.04C237.541 257.157 237.61 257.254 237.659 257.33H237.716V255.182H238.386V261H237.739V260.33H237.659C237.61 260.409 237.54 260.509 237.449 260.631C237.358 260.75 237.228 260.857 237.06 260.952C236.891 261.045 236.667 261.091 236.386 261.091ZM236.477 260.489C236.746 260.489 236.973 260.419 237.159 260.278C237.345 260.136 237.486 259.94 237.582 259.69C237.679 259.438 237.727 259.148 237.727 258.818C237.727 258.492 237.68 258.207 237.585 257.963C237.491 257.717 237.35 257.526 237.165 257.389C236.979 257.251 236.75 257.182 236.477 257.182C236.193 257.182 235.956 257.255 235.767 257.401C235.58 257.545 235.438 257.741 235.344 257.989C235.251 258.235 235.205 258.511 235.205 258.818C235.205 259.129 235.252 259.411 235.347 259.665C235.443 259.917 235.585 260.117 235.773 260.267C235.962 260.415 236.197 260.489 236.477 260.489ZM242.457 259.216V256.636H243.128V261H242.457V260.261H242.412C242.31 260.483 242.151 260.671 241.935 260.827C241.719 260.98 241.446 261.057 241.116 261.057C240.844 261.057 240.601 260.997 240.389 260.878C240.177 260.757 240.01 260.575 239.889 260.332C239.768 260.088 239.707 259.78 239.707 259.409V256.636H240.378V259.364C240.378 259.682 240.467 259.936 240.645 260.125C240.825 260.314 241.054 260.409 241.332 260.409C241.499 260.409 241.669 260.366 241.841 260.281C242.015 260.196 242.161 260.065 242.278 259.889C242.398 259.713 242.457 259.489 242.457 259.216ZM245.026 255.182V261H244.356V255.182H245.026ZM246.254 261V256.636H246.925V261H246.254ZM246.595 255.909C246.464 255.909 246.352 255.865 246.257 255.776C246.164 255.687 246.118 255.58 246.118 255.455C246.118 255.33 246.164 255.223 246.257 255.134C246.352 255.045 246.464 255 246.595 255C246.726 255 246.838 255.045 246.93 255.134C247.025 255.223 247.072 255.33 247.072 255.455C247.072 255.58 247.025 255.687 246.93 255.776C246.838 255.865 246.726 255.909 246.595 255.909ZM248.823 258.375V261H248.153V256.636H248.8V257.318H248.857C248.96 257.097 249.115 256.919 249.323 256.784C249.531 256.648 249.8 256.58 250.13 256.58C250.425 256.58 250.684 256.64 250.906 256.761C251.127 256.881 251.299 257.062 251.423 257.307C251.546 257.549 251.607 257.856 251.607 258.227V261H250.937V258.273C250.937 257.93 250.848 257.663 250.67 257.472C250.492 257.278 250.247 257.182 249.937 257.182C249.723 257.182 249.531 257.228 249.363 257.321C249.196 257.414 249.065 257.549 248.968 257.727C248.871 257.905 248.823 258.121 248.823 258.375ZM254.594 262.727C254.27 262.727 253.991 262.686 253.759 262.602C253.526 262.521 253.331 262.413 253.176 262.278C253.023 262.146 252.901 262.004 252.81 261.852L253.344 261.477C253.404 261.557 253.481 261.648 253.574 261.75C253.667 261.854 253.794 261.944 253.955 262.02C254.117 262.098 254.33 262.136 254.594 262.136C254.946 262.136 255.237 262.051 255.466 261.881C255.695 261.71 255.81 261.443 255.81 261.08V260.193H255.753C255.704 260.273 255.634 260.371 255.543 260.489C255.454 260.604 255.325 260.707 255.156 260.798C254.99 260.887 254.764 260.932 254.48 260.932C254.128 260.932 253.812 260.848 253.531 260.682C253.253 260.515 253.032 260.273 252.869 259.955C252.708 259.636 252.628 259.25 252.628 258.795C252.628 258.348 252.706 257.959 252.864 257.628C253.021 257.295 253.24 257.037 253.52 256.855C253.8 256.671 254.124 256.58 254.491 256.58C254.776 256.58 255.001 256.627 255.168 256.722C255.336 256.814 255.465 256.92 255.554 257.04C255.645 257.157 255.715 257.254 255.764 257.33H255.832V256.636H256.48V261.125C256.48 261.5 256.395 261.805 256.224 262.04C256.056 262.277 255.829 262.45 255.543 262.56C255.259 262.671 254.942 262.727 254.594 262.727ZM254.571 260.33C254.84 260.33 255.067 260.268 255.253 260.145C255.438 260.022 255.58 259.845 255.676 259.614C255.773 259.383 255.821 259.106 255.821 258.784C255.821 258.47 255.774 258.192 255.679 257.952C255.584 257.711 255.444 257.523 255.259 257.386C255.073 257.25 254.844 257.182 254.571 257.182C254.287 257.182 254.05 257.254 253.861 257.398C253.673 257.542 253.532 257.735 253.438 257.977C253.345 258.22 253.298 258.489 253.298 258.784C253.298 259.087 253.346 259.355 253.44 259.588C253.537 259.819 253.679 260.001 253.866 260.134C254.056 260.264 254.291 260.33 254.571 260.33ZM263.048 257.614L262.446 257.784C262.408 257.684 262.352 257.586 262.278 257.491C262.206 257.395 262.108 257.315 261.983 257.253C261.858 257.19 261.698 257.159 261.503 257.159C261.236 257.159 261.013 257.221 260.835 257.344C260.659 257.465 260.571 257.619 260.571 257.807C260.571 257.973 260.632 258.105 260.753 258.202C260.874 258.298 261.063 258.379 261.321 258.443L261.969 258.602C262.359 258.697 262.65 258.842 262.841 259.037C263.032 259.23 263.128 259.479 263.128 259.784C263.128 260.034 263.056 260.258 262.912 260.455C262.77 260.652 262.571 260.807 262.315 260.92C262.06 261.034 261.762 261.091 261.423 261.091C260.978 261.091 260.61 260.994 260.318 260.801C260.027 260.608 259.842 260.326 259.764 259.955L260.401 259.795C260.461 260.03 260.576 260.206 260.744 260.324C260.915 260.441 261.137 260.5 261.412 260.5C261.724 260.5 261.973 260.434 262.156 260.301C262.342 260.167 262.435 260.006 262.435 259.818C262.435 259.667 262.382 259.54 262.276 259.438C262.17 259.333 262.007 259.256 261.787 259.205L261.06 259.034C260.66 258.939 260.366 258.793 260.179 258.594C259.993 258.393 259.901 258.142 259.901 257.841C259.901 257.595 259.97 257.377 260.108 257.188C260.248 256.998 260.438 256.849 260.679 256.741C260.921 256.634 261.196 256.58 261.503 256.58C261.935 256.58 262.274 256.674 262.52 256.864C262.768 257.053 262.944 257.303 263.048 257.614ZM265.967 261.091C265.546 261.091 265.183 260.998 264.879 260.812C264.576 260.625 264.342 260.364 264.177 260.028C264.014 259.691 263.933 259.299 263.933 258.852C263.933 258.405 264.014 258.011 264.177 257.67C264.342 257.328 264.571 257.061 264.864 256.869C265.16 256.676 265.504 256.58 265.898 256.58C266.126 256.58 266.35 256.617 266.572 256.693C266.793 256.769 266.995 256.892 267.177 257.062C267.359 257.231 267.504 257.455 267.612 257.733C267.719 258.011 267.773 258.354 267.773 258.761V259.045H264.41V258.466H267.092C267.092 258.22 267.042 258 266.944 257.807C266.847 257.614 266.709 257.461 266.529 257.349C266.351 257.238 266.141 257.182 265.898 257.182C265.631 257.182 265.4 257.248 265.205 257.381C265.012 257.511 264.863 257.682 264.759 257.892C264.655 258.102 264.603 258.328 264.603 258.568V258.955C264.603 259.284 264.66 259.563 264.773 259.793C264.889 260.02 265.049 260.193 265.254 260.312C265.458 260.43 265.696 260.489 265.967 260.489C266.143 260.489 266.302 260.464 266.444 260.415C266.588 260.364 266.712 260.288 266.816 260.188C266.92 260.085 267.001 259.958 267.058 259.807L267.705 259.989C267.637 260.208 267.522 260.402 267.362 260.568C267.201 260.733 267.002 260.862 266.765 260.955C266.528 261.045 266.262 261.091 265.967 261.091ZM269.464 258.375V261H268.793V256.636H269.441V257.318H269.498C269.6 257.097 269.755 256.919 269.964 256.784C270.172 256.648 270.441 256.58 270.771 256.58C271.066 256.58 271.325 256.64 271.546 256.761C271.768 256.881 271.94 257.062 272.063 257.307C272.186 257.549 272.248 257.856 272.248 258.227V261H271.577V258.273C271.577 257.93 271.488 257.663 271.31 257.472C271.132 257.278 270.888 257.182 270.577 257.182C270.363 257.182 270.172 257.228 270.004 257.321C269.837 257.414 269.705 257.549 269.609 257.727C269.512 257.905 269.464 258.121 269.464 258.375ZM275.121 261.091C274.757 261.091 274.436 260.999 274.158 260.815C273.879 260.63 273.661 260.368 273.504 260.031C273.347 259.692 273.268 259.292 273.268 258.83C273.268 258.371 273.347 257.973 273.504 257.636C273.661 257.299 273.88 257.039 274.161 256.855C274.441 256.671 274.765 256.58 275.132 256.58C275.416 256.58 275.641 256.627 275.805 256.722C275.972 256.814 276.099 256.92 276.186 257.04C276.275 257.157 276.344 257.254 276.393 257.33H276.45V255.182H277.121V261H276.473V260.33H276.393C276.344 260.409 276.274 260.509 276.183 260.631C276.092 260.75 275.963 260.857 275.794 260.952C275.625 261.045 275.401 261.091 275.121 261.091ZM275.212 260.489C275.481 260.489 275.708 260.419 275.893 260.278C276.079 260.136 276.22 259.94 276.317 259.69C276.413 259.438 276.462 259.148 276.462 258.818C276.462 258.492 276.414 258.207 276.32 257.963C276.225 257.717 276.085 257.526 275.899 257.389C275.714 257.251 275.484 257.182 275.212 257.182C274.928 257.182 274.691 257.255 274.501 257.401C274.314 257.545 274.173 257.741 274.078 257.989C273.985 258.235 273.939 258.511 273.939 258.818C273.939 259.129 273.986 259.411 274.081 259.665C274.178 259.917 274.32 260.117 274.507 260.267C274.696 260.415 274.931 260.489 275.212 260.489Z" fill="#242424"/>
<path d="M156.967 21C156.821 20.7533 156.651 20.4767 156.457 20.17C156.271 19.8633 156.067 19.5467 155.847 19.22C155.627 18.8867 155.397 18.55 155.157 18.21C154.924 17.87 154.691 17.5433 154.457 17.23C154.224 16.91 153.997 16.61 153.777 16.33C153.557 16.05 153.354 15.8033 153.167 15.59V21H152.217V14.07H152.987C153.301 14.4033 153.634 14.7933 153.987 15.24C154.347 15.68 154.701 16.1367 155.047 16.61C155.401 17.0767 155.731 17.5367 156.037 17.99C156.351 18.4433 156.614 18.8467 156.827 19.2V14.07H157.777V21H156.967ZM164.023 18.4C164.023 18.8133 163.963 19.1867 163.843 19.52C163.723 19.8533 163.553 20.14 163.333 20.38C163.119 20.62 162.863 20.8067 162.563 20.94C162.263 21.0667 161.936 21.13 161.583 21.13C161.229 21.13 160.903 21.0667 160.603 20.94C160.303 20.8067 160.043 20.62 159.823 20.38C159.609 20.14 159.443 19.8533 159.323 19.52C159.203 19.1867 159.143 18.8133 159.143 18.4C159.143 17.9933 159.203 17.6233 159.323 17.29C159.443 16.95 159.609 16.66 159.823 16.42C160.043 16.18 160.303 15.9967 160.603 15.87C160.903 15.7367 161.229 15.67 161.583 15.67C161.936 15.67 162.263 15.7367 162.563 15.87C162.863 15.9967 163.119 16.18 163.333 16.42C163.553 16.66 163.723 16.95 163.843 17.29C163.963 17.6233 164.023 17.9933 164.023 18.4ZM163.053 18.4C163.053 17.8133 162.919 17.35 162.653 17.01C162.393 16.6633 162.036 16.49 161.583 16.49C161.129 16.49 160.769 16.6633 160.503 17.01C160.243 17.35 160.113 17.8133 160.113 18.4C160.113 18.9867 160.243 19.4533 160.503 19.8C160.769 20.14 161.129 20.31 161.583 20.31C162.036 20.31 162.393 20.14 162.653 19.8C162.919 19.4533 163.053 18.9867 163.053 18.4ZM166.201 15.8H168.171V16.58H166.201V18.98C166.201 19.24 166.221 19.4567 166.261 19.63C166.301 19.7967 166.361 19.93 166.441 20.03C166.521 20.1233 166.621 20.19 166.741 20.23C166.861 20.27 167.001 20.29 167.161 20.29C167.441 20.29 167.665 20.26 167.831 20.2C168.005 20.1333 168.125 20.0867 168.191 20.06L168.371 20.83C168.278 20.8767 168.115 20.9333 167.881 21C167.648 21.0733 167.381 21.11 167.081 21.11C166.728 21.11 166.435 21.0667 166.201 20.98C165.975 20.8867 165.791 20.75 165.651 20.57C165.511 20.39 165.411 20.17 165.351 19.91C165.298 19.6433 165.271 19.3367 165.271 18.99V14.35L166.201 14.19V15.8ZM170.285 21H169.355V15.8H170.285V21ZM169.815 14.86C169.648 14.86 169.505 14.8067 169.385 14.7C169.271 14.5867 169.215 14.4367 169.215 14.25C169.215 14.0633 169.271 13.9167 169.385 13.81C169.505 13.6967 169.648 13.64 169.815 13.64C169.981 13.64 170.121 13.6967 170.235 13.81C170.355 13.9167 170.415 14.0633 170.415 14.25C170.415 14.4367 170.355 14.5867 170.235 14.7C170.121 14.8067 169.981 14.86 169.815 14.86ZM173.914 13.24C174.147 13.24 174.347 13.2567 174.514 13.29C174.681 13.3167 174.801 13.3433 174.874 13.37L174.744 14.17C174.671 14.1433 174.571 14.1167 174.444 14.09C174.317 14.0567 174.164 14.04 173.984 14.04C173.551 14.04 173.247 14.16 173.074 14.4C172.901 14.6333 172.814 14.95 172.814 15.35V15.8H174.814V16.58H172.814V21H171.884V15.33C171.884 14.6633 172.047 14.15 172.374 13.79C172.701 13.4233 173.214 13.24 173.914 13.24ZM176.714 21H175.784V15.8H176.714V21ZM176.244 14.86C176.077 14.86 175.934 14.8067 175.814 14.7C175.701 14.5867 175.644 14.4367 175.644 14.25C175.644 14.0633 175.701 13.9167 175.814 13.81C175.934 13.6967 176.077 13.64 176.244 13.64C176.411 13.64 176.551 13.6967 176.664 13.81C176.784 13.9167 176.844 14.0633 176.844 14.25C176.844 14.4367 176.784 14.5867 176.664 14.7C176.551 14.8067 176.411 14.86 176.244 14.86ZM180.57 21.12C180.15 21.12 179.78 21.0533 179.46 20.92C179.146 20.7867 178.88 20.6 178.66 20.36C178.446 20.12 178.286 19.8367 178.18 19.51C178.073 19.1767 178.02 18.81 178.02 18.41C178.02 18.01 178.076 17.6433 178.19 17.31C178.31 16.9767 178.476 16.69 178.69 16.45C178.903 16.2033 179.163 16.0133 179.47 15.88C179.783 15.74 180.13 15.67 180.51 15.67C180.743 15.67 180.976 15.69 181.21 15.73C181.443 15.77 181.666 15.8333 181.88 15.92L181.67 16.71C181.53 16.6433 181.366 16.59 181.18 16.55C181 16.51 180.806 16.49 180.6 16.49C180.08 16.49 179.68 16.6533 179.4 16.98C179.126 17.3067 178.99 17.7833 178.99 18.41C178.99 18.69 179.02 18.9467 179.08 19.18C179.146 19.4133 179.246 19.6133 179.38 19.78C179.52 19.9467 179.696 20.0767 179.91 20.17C180.123 20.2567 180.383 20.3 180.69 20.3C180.936 20.3 181.16 20.2767 181.36 20.23C181.56 20.1833 181.716 20.1333 181.83 20.08L181.96 20.86C181.906 20.8933 181.83 20.9267 181.73 20.96C181.63 20.9867 181.516 21.01 181.39 21.03C181.263 21.0567 181.126 21.0767 180.98 21.09C180.84 21.11 180.703 21.12 180.57 21.12ZM184.718 20.33C184.938 20.33 185.132 20.3267 185.298 20.32C185.472 20.3067 185.615 20.2867 185.728 20.26V18.71C185.662 18.6767 185.552 18.65 185.398 18.63C185.252 18.6033 185.072 18.59 184.858 18.59C184.718 18.59 184.568 18.6 184.408 18.62C184.255 18.64 184.112 18.6833 183.978 18.75C183.852 18.81 183.745 18.8967 183.658 19.01C183.572 19.1167 183.528 19.26 183.528 19.44C183.528 19.7733 183.635 20.0067 183.848 20.14C184.062 20.2667 184.352 20.33 184.718 20.33ZM184.638 15.67C185.012 15.67 185.325 15.72 185.578 15.82C185.838 15.9133 186.045 16.05 186.198 16.23C186.358 16.4033 186.472 16.6133 186.538 16.86C186.605 17.1 186.638 17.3667 186.638 17.66V20.91C186.558 20.9233 186.445 20.9433 186.298 20.97C186.158 20.99 185.998 21.01 185.818 21.03C185.638 21.05 185.442 21.0667 185.228 21.08C185.022 21.1 184.815 21.11 184.608 21.11C184.315 21.11 184.045 21.08 183.798 21.02C183.552 20.96 183.338 20.8667 183.158 20.74C182.978 20.6067 182.838 20.4333 182.738 20.22C182.638 20.0067 182.588 19.75 182.588 19.45C182.588 19.1633 182.645 18.9167 182.758 18.71C182.878 18.5033 183.038 18.3367 183.238 18.21C183.438 18.0833 183.672 17.99 183.938 17.93C184.205 17.87 184.485 17.84 184.778 17.84C184.872 17.84 184.968 17.8467 185.068 17.86C185.168 17.8667 185.262 17.88 185.348 17.9C185.442 17.9133 185.522 17.9267 185.588 17.94C185.655 17.9533 185.702 17.9633 185.728 17.97V17.71C185.728 17.5567 185.712 17.4067 185.678 17.26C185.645 17.1067 185.585 16.9733 185.498 16.86C185.412 16.74 185.292 16.6467 185.138 16.58C184.992 16.5067 184.798 16.47 184.558 16.47C184.252 16.47 183.982 16.4933 183.748 16.54C183.522 16.58 183.352 16.6233 183.238 16.67L183.128 15.9C183.248 15.8467 183.448 15.7967 183.728 15.75C184.008 15.6967 184.312 15.67 184.638 15.67ZM189.053 15.8H191.023V16.58H189.053V18.98C189.053 19.24 189.073 19.4567 189.113 19.63C189.153 19.7967 189.213 19.93 189.293 20.03C189.373 20.1233 189.473 20.19 189.593 20.23C189.713 20.27 189.853 20.29 190.013 20.29C190.293 20.29 190.516 20.26 190.683 20.2C190.856 20.1333 190.976 20.0867 191.043 20.06L191.223 20.83C191.129 20.8767 190.966 20.9333 190.733 21C190.499 21.0733 190.233 21.11 189.933 21.11C189.579 21.11 189.286 21.0667 189.053 20.98C188.826 20.8867 188.643 20.75 188.503 20.57C188.363 20.39 188.263 20.17 188.203 19.91C188.149 19.6433 188.123 19.3367 188.123 18.99V14.35L189.053 14.19V15.8ZM193.136 21H192.206V15.8H193.136V21ZM192.666 14.86C192.5 14.86 192.356 14.8067 192.236 14.7C192.123 14.5867 192.066 14.4367 192.066 14.25C192.066 14.0633 192.123 13.9167 192.236 13.81C192.356 13.6967 192.5 13.64 192.666 13.64C192.833 13.64 192.973 13.6967 193.086 13.81C193.206 13.9167 193.266 14.0633 193.266 14.25C193.266 14.4367 193.206 14.5867 193.086 14.7C192.973 14.8067 192.833 14.86 192.666 14.86ZM199.326 18.4C199.326 18.8133 199.266 19.1867 199.146 19.52C199.026 19.8533 198.856 20.14 198.636 20.38C198.422 20.62 198.166 20.8067 197.866 20.94C197.566 21.0667 197.239 21.13 196.886 21.13C196.532 21.13 196.206 21.0667 195.906 20.94C195.606 20.8067 195.346 20.62 195.126 20.38C194.912 20.14 194.746 19.8533 194.626 19.52C194.506 19.1867 194.446 18.8133 194.446 18.4C194.446 17.9933 194.506 17.6233 194.626 17.29C194.746 16.95 194.912 16.66 195.126 16.42C195.346 16.18 195.606 15.9967 195.906 15.87C196.206 15.7367 196.532 15.67 196.886 15.67C197.239 15.67 197.566 15.7367 197.866 15.87C198.166 15.9967 198.422 16.18 198.636 16.42C198.856 16.66 199.026 16.95 199.146 17.29C199.266 17.6233 199.326 17.9933 199.326 18.4ZM198.356 18.4C198.356 17.8133 198.222 17.35 197.956 17.01C197.696 16.6633 197.339 16.49 196.886 16.49C196.432 16.49 196.072 16.6633 195.806 17.01C195.546 17.35 195.416 17.8133 195.416 18.4C195.416 18.9867 195.546 19.4533 195.806 19.8C196.072 20.14 196.432 20.31 196.886 20.31C197.339 20.31 197.696 20.14 197.956 19.8C198.222 19.4533 198.356 18.9867 198.356 18.4ZM200.634 15.95C200.847 15.8967 201.131 15.84 201.484 15.78C201.837 15.72 202.244 15.69 202.704 15.69C203.117 15.69 203.461 15.75 203.734 15.87C204.007 15.9833 204.224 16.1467 204.384 16.36C204.551 16.5667 204.667 16.8167 204.734 17.11C204.801 17.4033 204.834 17.7267 204.834 18.08V21H203.904V18.28C203.904 17.96 203.881 17.6867 203.834 17.46C203.794 17.2333 203.724 17.05 203.624 16.91C203.524 16.77 203.391 16.67 203.224 16.61C203.057 16.5433 202.851 16.51 202.604 16.51C202.504 16.51 202.401 16.5133 202.294 16.52C202.187 16.5267 202.084 16.5367 201.984 16.55C201.891 16.5567 201.804 16.5667 201.724 16.58C201.651 16.5933 201.597 16.6033 201.564 16.61V21H200.634V15.95ZM211.731 21.15C211.244 21.15 210.801 21.07 210.401 20.91C210.001 20.75 209.657 20.5167 209.371 20.21C209.084 19.9033 208.861 19.5267 208.701 19.08C208.547 18.6267 208.471 18.11 208.471 17.53C208.471 16.95 208.557 16.4367 208.731 15.99C208.911 15.5367 209.151 15.1567 209.451 14.85C209.751 14.5433 210.101 14.31 210.501 14.15C210.901 13.99 211.327 13.91 211.781 13.91C212.067 13.91 212.324 13.93 212.551 13.97C212.784 14.01 212.984 14.0567 213.151 14.11C213.324 14.1633 213.464 14.2167 213.571 14.27C213.677 14.3233 213.751 14.3633 213.791 14.39L213.511 15.19C213.451 15.15 213.364 15.1067 213.251 15.06C213.137 15.0133 213.007 14.9667 212.861 14.92C212.721 14.8733 212.564 14.8367 212.391 14.81C212.224 14.7767 212.054 14.76 211.881 14.76C211.514 14.76 211.184 14.8233 210.891 14.95C210.597 15.0767 210.347 15.26 210.141 15.5C209.934 15.74 209.774 16.0333 209.661 16.38C209.554 16.72 209.501 17.1033 209.501 17.53C209.501 17.9433 209.547 18.32 209.641 18.66C209.741 19 209.887 19.2933 210.081 19.54C210.274 19.78 210.514 19.9667 210.801 20.1C211.094 20.2333 211.434 20.3 211.821 20.3C212.267 20.3 212.637 20.2533 212.931 20.16C213.224 20.0667 213.444 19.9833 213.591 19.91L213.841 20.71C213.794 20.7433 213.711 20.7867 213.591 20.84C213.471 20.8867 213.321 20.9333 213.141 20.98C212.961 21.0267 212.751 21.0667 212.511 21.1C212.271 21.1333 212.011 21.15 211.731 21.15ZM214.455 18.41C214.455 17.95 214.522 17.55 214.655 17.21C214.789 16.8633 214.965 16.5767 215.185 16.35C215.405 16.1233 215.659 15.9533 215.945 15.84C216.232 15.7267 216.525 15.67 216.825 15.67C217.525 15.67 218.062 15.89 218.435 16.33C218.809 16.7633 218.995 17.4267 218.995 18.32C218.995 18.36 218.995 18.4133 218.995 18.48C218.995 18.54 218.992 18.5967 218.985 18.65H215.425C215.465 19.19 215.622 19.6 215.895 19.88C216.169 20.16 216.595 20.3 217.175 20.3C217.502 20.3 217.775 20.2733 217.995 20.22C218.222 20.16 218.392 20.1033 218.505 20.05L218.635 20.83C218.522 20.89 218.322 20.9533 218.035 21.02C217.755 21.0867 217.435 21.12 217.075 21.12C216.622 21.12 216.229 21.0533 215.895 20.92C215.569 20.78 215.299 20.59 215.085 20.35C214.872 20.11 214.712 19.8267 214.605 19.5C214.505 19.1667 214.455 18.8033 214.455 18.41ZM218.025 17.9C218.032 17.48 217.925 17.1367 217.705 16.87C217.492 16.5967 217.195 16.46 216.815 16.46C216.602 16.46 216.412 16.5033 216.245 16.59C216.085 16.67 215.949 16.7767 215.835 16.91C215.722 17.0433 215.632 17.1967 215.565 17.37C215.505 17.5433 215.465 17.72 215.445 17.9H218.025ZM220.331 15.95C220.545 15.8967 220.828 15.84 221.181 15.78C221.535 15.72 221.941 15.69 222.401 15.69C222.815 15.69 223.158 15.75 223.431 15.87C223.705 15.9833 223.921 16.1467 224.081 16.36C224.248 16.5667 224.365 16.8167 224.431 17.11C224.498 17.4033 224.531 17.7267 224.531 18.08V21H223.601V18.28C223.601 17.96 223.578 17.6867 223.531 17.46C223.491 17.2333 223.421 17.05 223.321 16.91C223.221 16.77 223.088 16.67 222.921 16.61C222.755 16.5433 222.548 16.51 222.301 16.51C222.201 16.51 222.098 16.5133 221.991 16.52C221.885 16.5267 221.781 16.5367 221.681 16.55C221.588 16.5567 221.501 16.5667 221.421 16.58C221.348 16.5933 221.295 16.6033 221.261 16.61V21H220.331V15.95ZM226.943 15.8H228.913V16.58H226.943V18.98C226.943 19.24 226.963 19.4567 227.003 19.63C227.043 19.7967 227.103 19.93 227.183 20.03C227.263 20.1233 227.363 20.19 227.483 20.23C227.603 20.27 227.743 20.29 227.903 20.29C228.183 20.29 228.407 20.26 228.573 20.2C228.747 20.1333 228.867 20.0867 228.933 20.06L229.113 20.83C229.02 20.8767 228.857 20.9333 228.623 21C228.39 21.0733 228.123 21.11 227.823 21.11C227.47 21.11 227.177 21.0667 226.943 20.98C226.717 20.8867 226.533 20.75 226.393 20.57C226.253 20.39 226.153 20.17 226.093 19.91C226.04 19.6433 226.013 19.3367 226.013 18.99V14.35L226.943 14.19V15.8ZM229.709 18.41C229.709 17.95 229.776 17.55 229.909 17.21C230.043 16.8633 230.219 16.5767 230.439 16.35C230.659 16.1233 230.913 15.9533 231.199 15.84C231.486 15.7267 231.779 15.67 232.079 15.67C232.779 15.67 233.316 15.89 233.689 16.33C234.063 16.7633 234.249 17.4267 234.249 18.32C234.249 18.36 234.249 18.4133 234.249 18.48C234.249 18.54 234.246 18.5967 234.239 18.65H230.679C230.719 19.19 230.876 19.6 231.149 19.88C231.423 20.16 231.849 20.3 232.429 20.3C232.756 20.3 233.029 20.2733 233.249 20.22C233.476 20.16 233.646 20.1033 233.759 20.05L233.889 20.83C233.776 20.89 233.576 20.9533 233.289 21.02C233.009 21.0867 232.689 21.12 232.329 21.12C231.876 21.12 231.483 21.0533 231.149 20.92C230.823 20.78 230.553 20.59 230.339 20.35C230.126 20.11 229.966 19.8267 229.859 19.5C229.759 19.1667 229.709 18.8033 229.709 18.41ZM233.279 17.9C233.286 17.48 233.179 17.1367 232.959 16.87C232.746 16.5967 232.449 16.46 232.069 16.46C231.856 16.46 231.666 16.5033 231.499 16.59C231.339 16.67 231.203 16.7767 231.089 16.91C230.976 17.0433 230.886 17.1967 230.819 17.37C230.759 17.5433 230.719 17.72 230.699 17.9H233.279ZM237.505 15.69C237.585 15.69 237.675 15.6967 237.775 15.71C237.882 15.7167 237.985 15.73 238.085 15.75C238.185 15.7633 238.275 15.78 238.355 15.8C238.442 15.8133 238.505 15.8267 238.545 15.84L238.385 16.65C238.312 16.6233 238.188 16.5933 238.015 16.56C237.848 16.52 237.632 16.5 237.365 16.5C237.192 16.5 237.018 16.52 236.845 16.56C236.678 16.5933 236.568 16.6167 236.515 16.63V21H235.585V16.02C235.805 15.94 236.078 15.8667 236.405 15.8C236.732 15.7267 237.098 15.69 237.505 15.69Z" fill="#242424"/>
<path d="M243.662 93.0163L243.662 110.866M167.111 134.684L167.111 114.847C167.111 112.647 168.902 110.866 171.114 110.866L214.206 110.866M243.662 110.866L214.206 110.866M243.662 110.866L272.559 110.866M214.206 110.866L214.206 134.684M317.7 134.684L317.7 114.863C317.7 112.657 315.9 110.866 313.682 110.866L272.559 110.866M272.559 110.866L272.559 134.684" stroke="#55C1FA" stroke-width="0.75"/>
<rect x="231" y="55.3951" width="25.3337" height="30.952" rx="4" fill="#55C1FA" stroke="#55C1FA" stroke-width="0.75"/>
<rect x="234.167" y="69.3235" width="19.0002" height="1.5476" rx="0.773801" fill="white"/>
<rect x="234.167" y="66.2282" width="19.0002" height="1.5476" rx="0.773801" fill="white"/>
<rect x="234.167" y="63.133" width="19.0002" height="1.5476" rx="0.773801" fill="white"/>
<rect x="234.167" y="72.4187" width="19.0002" height="1.5476" rx="0.773801" fill="white"/>
<rect x="234.167" y="75.5139" width="19.0002" height="1.5476" rx="0.773801" fill="white"/>
<rect x="234.167" y="78.6091" width="19.0002" height="1.5476" rx="0.773801" fill="white"/>
<path d="M157.91 141.025H179.905C180.368 141.025 180.811 141.206 181.138 141.526C181.466 141.847 181.65 142.281 181.65 142.734V142.99L170.454 151.594C170.045 151.906 169.54 152.076 169.021 152.076C168.501 152.075 167.997 151.905 167.588 151.591L156.164 142.988V142.734C156.164 142.281 156.348 141.847 156.676 141.526C157.003 141.206 157.447 141.025 157.91 141.025Z" fill="white"/>
<path d="M157.91 141.025H179.905C180.368 141.025 180.811 141.206 181.138 141.526C181.466 141.847 181.65 142.281 181.65 142.734V142.99L170.454 151.594C170.045 151.906 169.54 152.076 169.021 152.076C168.501 152.075 167.997 151.905 167.588 151.591L156.164 142.988V142.734C156.164 142.281 156.348 141.847 156.676 141.526C157.003 141.206 157.447 141.025 157.91 141.025Z" fill="#55C1FA"/>
<path d="M179.905 158.492H157.91C157.611 158.492 157.318 158.417 157.058 158.275C156.798 158.133 156.58 157.927 156.423 157.679L164.223 150.495L166.875 152.492C167.489 152.961 168.245 153.216 169.023 153.216C169.802 153.216 170.558 152.96 171.171 152.491L173.808 150.465L181.394 157.674C181.238 157.924 181.019 158.13 180.758 158.274C180.498 158.417 180.204 158.492 179.905 158.492Z" fill="white"/>
<path d="M179.905 158.492H157.91C157.611 158.492 157.318 158.417 157.058 158.275C156.798 158.133 156.58 157.927 156.423 157.679L164.223 150.495L166.875 152.492C167.489 152.961 168.245 153.216 169.023 153.216C169.802 153.216 170.558 152.96 171.171 152.491L173.808 150.465L181.394 157.674C181.238 157.924 181.019 158.13 180.758 158.274C180.498 158.417 180.204 158.492 179.905 158.492Z" fill="#55C1FA"/>
<path d="M174.732 149.755L181.65 144.438V156.33L174.732 149.755Z" fill="white"/>
<path d="M174.732 149.755L181.65 144.438V156.33L174.732 149.755Z" fill="#55C1FA"/>
<path d="M163.288 149.791L156.164 156.353V144.425L163.288 149.791Z" fill="white"/>
<path d="M163.288 149.791L156.164 156.353V144.425L163.288 149.791Z" fill="#55C1FA"/>
<path fill-rule="evenodd" clip-rule="evenodd" d="M224.843 157.882H205.25L203.704 159.291V143.437H224.843V157.882ZM210.31 149.456H207.668V151.864H210.31V149.456ZM220.88 149.456H218.237V151.864H220.88V149.456ZM215.595 149.456H212.953V151.864H215.595V149.456Z" fill="#55C1FA"/>
<path fill-rule="evenodd" clip-rule="evenodd" d="M224.843 141.03H203.704C202.251 141.03 201.062 142.113 201.062 143.437V165.105L206.347 160.29H224.843C226.297 160.29 227.486 159.206 227.486 157.882V143.437C227.486 142.113 226.297 141.03 224.843 141.03ZM205.25 157.882H224.843V143.437H203.704V159.291L205.25 157.882Z" fill="#55C1FA"/>
<path d="M281.947 153.5V156.282C281.947 157.099 281.62 157.883 281.039 158.461C280.457 159.04 279.668 159.364 278.846 159.364H272.565L265.239 164.596C265.008 164.761 264.735 164.86 264.45 164.881C264.165 164.903 263.88 164.845 263.626 164.716C263.372 164.587 263.159 164.39 263.01 164.148C262.862 163.906 262.783 163.628 262.783 163.344V159.364H260.336C259.513 159.364 258.725 159.04 258.143 158.461C257.561 157.883 257.234 157.099 257.234 156.282V143.762C257.234 142.944 257.561 142.16 258.143 141.582C258.725 141.004 259.513 140.679 260.336 140.679H269.25" stroke="#55C1FA" stroke-linecap="round"/>
<path d="M278.07 151.468C281.924 151.468 285.049 148.363 285.049 144.532C285.049 140.702 281.924 137.597 278.07 137.597C274.216 137.597 271.092 140.702 271.092 144.532C271.092 148.363 274.216 151.468 278.07 151.468Z" fill="#55C1FA" stroke="#55C1FA"/>
<path fill-rule="evenodd" clip-rule="evenodd" d="M328.062 145.89H326.671V141.743C326.671 140.644 326.231 139.589 325.449 138.811C324.667 138.033 323.605 137.597 322.499 137.597H308.592C307.485 137.597 306.424 138.033 305.642 138.811C304.859 139.589 304.42 140.644 304.42 141.743V158.33C304.421 158.603 304.504 158.869 304.657 159.095C304.81 159.322 305.028 159.498 305.282 159.602C305.447 159.679 305.628 159.717 305.81 159.712C305.993 159.713 306.175 159.678 306.344 159.609C306.514 159.541 306.668 159.439 306.798 159.311L310.706 155.413H312.764V157.404C312.764 158.504 313.203 159.558 313.986 160.336C314.768 161.114 315.829 161.55 316.936 161.55H326.56L329.856 164.84C329.986 164.968 330.14 165.07 330.309 165.138C330.479 165.207 330.66 165.242 330.843 165.241C331.025 165.246 331.206 165.208 331.372 165.13C331.625 165.027 331.843 164.851 331.996 164.624C332.15 164.398 332.232 164.132 332.234 163.859V150.037C332.234 148.937 331.794 147.882 331.012 147.104C330.229 146.327 329.168 145.89 328.062 145.89ZM312.764 152.649V150.037C312.764 148.937 313.203 147.882 313.986 147.104C314.768 146.327 315.829 145.89 316.936 145.89H323.89V141.743C323.89 141.377 323.743 141.025 323.482 140.766C323.221 140.507 322.868 140.361 322.499 140.361H308.592C308.223 140.361 307.869 140.507 307.608 140.766C307.348 141.025 307.201 141.377 307.201 141.743V154.999L309.148 153.05C309.278 152.922 309.432 152.82 309.601 152.752C309.771 152.683 309.952 152.648 310.135 152.649H312.764ZM328.062 159.145L329.452 160.528V150.037C329.452 149.67 329.306 149.318 329.045 149.059C328.784 148.8 328.43 148.654 328.062 148.654H316.936C316.567 148.654 316.213 148.8 315.953 149.059C315.692 149.318 315.545 149.67 315.545 150.037V157.349C315.545 157.715 315.692 158.067 315.953 158.326C316.213 158.585 316.567 158.731 316.936 158.731H327.074C327.258 158.731 327.44 158.769 327.61 158.84C327.779 158.911 327.933 159.015 328.062 159.145Z" fill="#55C1FA"/>
<path d="M312.764 152.649V150.037C312.764 148.937 313.203 147.882 313.986 147.104C314.768 146.327 315.829 145.89 316.936 145.89H323.89V141.743C323.89 141.377 323.743 141.025 323.482 140.766C323.221 140.507 322.868 140.361 322.499 140.361H308.592C308.223 140.361 307.869 140.507 307.608 140.766C307.348 141.025 307.201 141.377 307.201 141.743V154.999L309.148 153.05C309.278 152.922 309.432 152.82 309.601 152.752C309.771 152.683 309.952 152.648 310.135 152.649H312.764Z" fill="#55C1FA"/>
<path d="M159.217 177.537V171.719H162.729V172.344H159.922V174.31H162.547V174.935H159.922V176.912H162.774V177.537H159.217ZM163.908 177.537V173.174H164.555V173.855H164.612C164.703 173.622 164.85 173.441 165.053 173.313C165.255 173.182 165.499 173.117 165.783 173.117C166.071 173.117 166.31 173.182 166.501 173.313C166.695 173.441 166.845 173.622 166.953 173.855H166.999C167.11 173.63 167.278 173.451 167.501 173.318C167.725 173.184 167.993 173.117 168.305 173.117C168.696 173.117 169.015 173.239 169.263 173.483C169.511 173.726 169.635 174.103 169.635 174.617V177.537H168.965V174.617C168.965 174.295 168.876 174.065 168.7 173.926C168.524 173.788 168.317 173.719 168.078 173.719C167.771 173.719 167.534 173.812 167.365 173.997C167.197 174.181 167.112 174.414 167.112 174.696V177.537H166.43V174.549C166.43 174.3 166.35 174.101 166.189 173.949C166.028 173.796 165.821 173.719 165.567 173.719C165.393 173.719 165.23 173.765 165.078 173.858C164.929 173.951 164.807 174.08 164.715 174.245C164.624 174.407 164.578 174.596 164.578 174.81V177.537H163.908ZM172.145 177.639C171.868 177.639 171.617 177.587 171.392 177.483C171.167 177.377 170.988 177.225 170.855 177.026C170.723 176.825 170.656 176.583 170.656 176.299C170.656 176.049 170.706 175.846 170.804 175.691C170.903 175.533 171.034 175.41 171.199 175.321C171.364 175.232 171.546 175.166 171.744 175.122C171.945 175.077 172.147 175.041 172.35 175.014C172.615 174.98 172.83 174.955 172.994 174.938C173.161 174.919 173.282 174.888 173.358 174.844C173.436 174.8 173.475 174.725 173.475 174.617V174.594C173.475 174.314 173.398 174.096 173.244 173.941C173.093 173.785 172.863 173.708 172.554 173.708C172.234 173.708 171.983 173.778 171.801 173.918C171.619 174.058 171.492 174.208 171.418 174.367L170.781 174.139C170.895 173.874 171.046 173.668 171.236 173.52C171.427 173.37 171.635 173.266 171.861 173.208C172.088 173.147 172.312 173.117 172.531 173.117C172.671 173.117 172.832 173.134 173.014 173.168C173.198 173.2 173.375 173.267 173.546 173.37C173.718 173.472 173.861 173.626 173.975 173.833C174.088 174.039 174.145 174.316 174.145 174.662V177.537H173.475V176.946H173.44C173.395 177.041 173.319 177.142 173.213 177.25C173.107 177.358 172.966 177.45 172.79 177.526C172.614 177.602 172.399 177.639 172.145 177.639ZM172.247 177.037C172.512 177.037 172.736 176.985 172.918 176.881C173.101 176.777 173.24 176.642 173.332 176.477C173.427 176.313 173.475 176.139 173.475 175.958V175.344C173.446 175.378 173.384 175.409 173.287 175.438C173.192 175.464 173.082 175.488 172.957 175.509C172.834 175.528 172.714 175.545 172.597 175.56C172.481 175.573 172.387 175.584 172.315 175.594C172.141 175.617 171.978 175.654 171.827 175.705C171.677 175.754 171.556 175.829 171.463 175.929C171.372 176.028 171.327 176.162 171.327 176.333C171.327 176.566 171.413 176.742 171.585 176.861C171.76 176.978 171.98 177.037 172.247 177.037ZM175.369 177.537V173.174H176.039V177.537H175.369ZM175.71 172.446C175.579 172.446 175.466 172.402 175.372 172.313C175.279 172.224 175.232 172.117 175.232 171.992C175.232 171.867 175.279 171.76 175.372 171.671C175.466 171.582 175.579 171.537 175.71 171.537C175.84 171.537 175.952 171.582 176.045 171.671C176.14 171.76 176.187 171.867 176.187 171.992C176.187 172.117 176.14 172.224 176.045 172.313C175.952 172.402 175.84 172.446 175.71 172.446ZM177.938 171.719V177.537H177.267V171.719H177.938Z" fill="#242424"/>
<path d="M209.173 173.174C209.139 172.886 209.001 172.662 208.758 172.503C208.516 172.344 208.218 172.264 207.866 172.264C207.609 172.264 207.383 172.306 207.19 172.389C206.999 172.473 206.849 172.587 206.741 172.733C206.635 172.879 206.582 173.045 206.582 173.23C206.582 173.386 206.619 173.519 206.693 173.631C206.769 173.741 206.865 173.833 206.983 173.906C207.1 173.978 207.223 174.038 207.352 174.085C207.481 174.131 207.599 174.168 207.707 174.196L208.298 174.355C208.449 174.395 208.618 174.45 208.804 174.52C208.991 174.59 209.17 174.686 209.341 174.807C209.513 174.926 209.655 175.08 209.767 175.267C209.878 175.455 209.934 175.685 209.934 175.958C209.934 176.272 209.852 176.556 209.687 176.81C209.524 177.064 209.286 177.265 208.971 177.415C208.659 177.565 208.279 177.639 207.832 177.639C207.415 177.639 207.055 177.572 206.75 177.438C206.447 177.303 206.208 177.116 206.034 176.875C205.861 176.635 205.764 176.355 205.741 176.037H206.468C206.487 176.257 206.561 176.439 206.69 176.583C206.821 176.725 206.985 176.831 207.184 176.901C207.385 176.969 207.601 177.003 207.832 177.003C208.101 177.003 208.342 176.959 208.556 176.872C208.77 176.783 208.94 176.66 209.065 176.503C209.19 176.344 209.252 176.158 209.252 175.946C209.252 175.753 209.198 175.596 209.091 175.475C208.983 175.353 208.841 175.255 208.664 175.179C208.488 175.103 208.298 175.037 208.093 174.98L207.377 174.776C206.923 174.645 206.563 174.459 206.298 174.216C206.033 173.974 205.9 173.656 205.9 173.264C205.9 172.939 205.988 172.655 206.164 172.412C206.342 172.168 206.581 171.978 206.88 171.844C207.181 171.708 207.518 171.639 207.889 171.639C208.264 171.639 208.597 171.707 208.889 171.841C209.181 171.974 209.412 172.156 209.582 172.387C209.754 172.618 209.845 172.88 209.855 173.174H209.173ZM211.093 171.719H211.934L213.911 176.549H213.979L215.956 171.719H216.797V177.537H216.138V173.117H216.081L214.263 177.537H213.627L211.809 173.117H211.752V177.537H211.093V171.719ZM221.392 173.174C221.358 172.886 221.219 172.662 220.977 172.503C220.734 172.344 220.437 172.264 220.085 172.264C219.827 172.264 219.602 172.306 219.409 172.389C219.217 172.473 219.068 172.587 218.96 172.733C218.854 172.879 218.801 173.045 218.801 173.23C218.801 173.386 218.838 173.519 218.912 173.631C218.987 173.741 219.084 173.833 219.201 173.906C219.319 173.978 219.442 174.038 219.571 174.085C219.699 174.131 219.818 174.168 219.926 174.196L220.517 174.355C220.668 174.395 220.837 174.45 221.022 174.52C221.21 174.59 221.389 174.686 221.559 174.807C221.732 174.926 221.874 175.08 221.985 175.267C222.097 175.455 222.153 175.685 222.153 175.958C222.153 176.272 222.071 176.556 221.906 176.81C221.743 177.064 221.504 177.265 221.19 177.415C220.877 177.565 220.498 177.639 220.051 177.639C219.634 177.639 219.273 177.572 218.968 177.438C218.665 177.303 218.427 177.116 218.252 176.875C218.08 176.635 217.983 176.355 217.96 176.037H218.687C218.706 176.257 218.78 176.439 218.909 176.583C219.039 176.725 219.204 176.831 219.403 176.901C219.604 176.969 219.82 177.003 220.051 177.003C220.32 177.003 220.561 176.959 220.775 176.872C220.989 176.783 221.159 176.66 221.284 176.503C221.409 176.344 221.471 176.158 221.471 175.946C221.471 175.753 221.417 175.596 221.309 175.475C221.201 175.353 221.059 175.255 220.883 175.179C220.707 175.103 220.517 175.037 220.312 174.98L219.596 174.776C219.142 174.645 218.782 174.459 218.517 174.216C218.252 173.974 218.119 173.656 218.119 173.264C218.119 172.939 218.207 172.655 218.383 172.412C218.561 172.168 218.8 171.978 219.099 171.844C219.4 171.708 219.736 171.639 220.108 171.639C220.483 171.639 220.816 171.707 221.108 171.841C221.399 171.974 221.63 172.156 221.801 172.387C221.973 172.618 222.064 172.88 222.073 173.174H221.392Z" fill="#242424"/>
<path d="M261.598 177.537V171.719H263.564C264.02 171.719 264.393 171.801 264.683 171.966C264.975 172.129 265.191 172.35 265.331 172.628C265.471 172.906 265.541 173.217 265.541 173.56C265.541 173.903 265.471 174.214 265.331 174.495C265.193 174.775 264.979 174.998 264.689 175.165C264.399 175.33 264.028 175.412 263.575 175.412H262.166V174.787H263.552C263.865 174.787 264.116 174.733 264.305 174.625C264.495 174.517 264.632 174.371 264.717 174.188C264.804 174.002 264.848 173.793 264.848 173.56C264.848 173.327 264.804 173.119 264.717 172.935C264.632 172.751 264.494 172.607 264.302 172.503C264.111 172.397 263.857 172.344 263.541 172.344H262.302V177.537H261.598ZM269.335 175.753V173.174H270.006V177.537H269.335V176.799H269.29C269.187 177.02 269.028 177.209 268.812 177.364C268.596 177.517 268.324 177.594 267.994 177.594C267.721 177.594 267.479 177.534 267.267 177.415C267.055 177.294 266.888 177.112 266.767 176.87C266.646 176.625 266.585 176.317 266.585 175.946V173.174H267.256V175.901C267.256 176.219 267.345 176.473 267.523 176.662C267.702 176.852 267.932 176.946 268.21 176.946C268.377 176.946 268.546 176.904 268.719 176.818C268.893 176.733 269.039 176.602 269.156 176.426C269.275 176.25 269.335 176.026 269.335 175.753ZM274.324 174.151L273.722 174.321C273.684 174.221 273.628 174.123 273.555 174.029C273.483 173.932 273.384 173.852 273.259 173.79C273.134 173.727 272.974 173.696 272.779 173.696C272.512 173.696 272.289 173.758 272.111 173.881C271.935 174.002 271.847 174.156 271.847 174.344C271.847 174.511 271.908 174.642 272.029 174.739C272.15 174.835 272.34 174.916 272.597 174.98L273.245 175.139C273.635 175.234 273.926 175.379 274.117 175.574C274.308 175.767 274.404 176.016 274.404 176.321C274.404 176.571 274.332 176.795 274.188 176.992C274.046 177.189 273.847 177.344 273.591 177.458C273.336 177.571 273.038 177.628 272.699 177.628C272.254 177.628 271.886 177.531 271.594 177.338C271.303 177.145 271.118 176.863 271.04 176.492L271.677 176.333C271.737 176.567 271.852 176.744 272.02 176.861C272.191 176.978 272.413 177.037 272.688 177.037C273.001 177.037 273.249 176.971 273.432 176.838C273.618 176.704 273.711 176.543 273.711 176.355C273.711 176.204 273.658 176.077 273.552 175.975C273.446 175.87 273.283 175.793 273.063 175.742L272.336 175.571C271.936 175.477 271.643 175.33 271.455 175.131C271.269 174.93 271.177 174.679 271.177 174.378C271.177 174.132 271.246 173.914 271.384 173.725C271.524 173.535 271.715 173.387 271.955 173.279C272.198 173.171 272.472 173.117 272.779 173.117C273.211 173.117 273.55 173.211 273.796 173.401C274.044 173.59 274.22 173.84 274.324 174.151ZM276.084 174.912V177.537H275.413V171.719H276.084V173.855H276.14C276.243 173.63 276.396 173.451 276.601 173.318C276.807 173.184 277.082 173.117 277.425 173.117C277.722 173.117 277.982 173.176 278.206 173.296C278.429 173.413 278.603 173.594 278.726 173.838C278.851 174.081 278.913 174.389 278.913 174.764V177.537H278.243V174.81C278.243 174.463 278.153 174.195 277.973 174.006C277.795 173.815 277.548 173.719 277.231 173.719C277.012 173.719 276.815 173.765 276.64 173.858C276.468 173.951 276.332 174.086 276.231 174.264C276.133 174.442 276.084 174.658 276.084 174.912Z" fill="#242424"/>
<path d="M317.651 173.537H316.946C316.904 173.334 316.831 173.156 316.727 173.003C316.625 172.85 316.5 172.721 316.352 172.617C316.206 172.511 316.045 172.431 315.866 172.378C315.688 172.325 315.503 172.299 315.31 172.299C314.957 172.299 314.638 172.388 314.352 172.566C314.068 172.744 313.842 173.006 313.673 173.352C313.507 173.699 313.423 174.124 313.423 174.628C313.423 175.132 313.507 175.557 313.673 175.904C313.842 176.25 314.068 176.513 314.352 176.691C314.638 176.869 314.957 176.958 315.31 176.958C315.503 176.958 315.688 176.931 315.866 176.878C316.045 176.825 316.206 176.746 316.352 176.642C316.5 176.536 316.625 176.406 316.727 176.253C316.831 176.098 316.904 175.92 316.946 175.719H317.651C317.598 176.016 317.501 176.282 317.361 176.517C317.221 176.752 317.046 176.952 316.838 177.117C316.63 177.28 316.396 177.404 316.136 177.489C315.879 177.574 315.603 177.617 315.31 177.617C314.813 177.617 314.372 177.495 313.986 177.253C313.599 177.011 313.295 176.666 313.074 176.219C312.852 175.772 312.741 175.242 312.741 174.628C312.741 174.014 312.852 173.484 313.074 173.037C313.295 172.59 313.599 172.245 313.986 172.003C314.372 171.761 314.813 171.639 315.31 171.639C315.603 171.639 315.879 171.682 316.136 171.767C316.396 171.852 316.63 171.977 316.838 172.142C317.046 172.305 317.221 172.504 317.361 172.739C317.501 172.972 317.598 173.238 317.651 173.537ZM319.369 174.912V177.537H318.698V171.719H319.369V173.855H319.425C319.528 173.63 319.681 173.451 319.886 173.318C320.092 173.184 320.367 173.117 320.71 173.117C321.007 173.117 321.267 173.176 321.491 173.296C321.714 173.413 321.888 173.594 322.011 173.838C322.136 174.081 322.198 174.389 322.198 174.764V177.537H321.528V174.81C321.528 174.463 321.438 174.195 321.258 174.006C321.08 173.815 320.833 173.719 320.516 173.719C320.297 173.719 320.1 173.765 319.925 173.858C319.753 173.951 319.617 174.086 319.516 174.264C319.418 174.442 319.369 174.658 319.369 174.912ZM324.709 177.639C324.432 177.639 324.181 177.587 323.956 177.483C323.731 177.377 323.552 177.225 323.419 177.026C323.286 176.825 323.22 176.583 323.22 176.299C323.22 176.049 323.269 175.846 323.368 175.691C323.466 175.533 323.598 175.41 323.763 175.321C323.928 175.232 324.109 175.166 324.308 175.122C324.509 175.077 324.711 175.041 324.913 175.014C325.179 174.98 325.393 174.955 325.558 174.938C325.725 174.919 325.846 174.888 325.922 174.844C326 174.8 326.038 174.725 326.038 174.617V174.594C326.038 174.314 325.962 174.096 325.808 173.941C325.657 173.785 325.427 173.708 325.118 173.708C324.798 173.708 324.547 173.778 324.365 173.918C324.183 174.058 324.055 174.208 323.982 174.367L323.345 174.139C323.459 173.874 323.61 173.668 323.8 173.52C323.991 173.37 324.199 173.266 324.425 173.208C324.652 173.147 324.875 173.117 325.095 173.117C325.235 173.117 325.396 173.134 325.578 173.168C325.762 173.2 325.939 173.267 326.109 173.37C326.282 173.472 326.425 173.626 326.538 173.833C326.652 174.039 326.709 174.316 326.709 174.662V177.537H326.038V176.946H326.004C325.959 177.041 325.883 177.142 325.777 177.25C325.671 177.358 325.53 177.45 325.354 177.526C325.178 177.602 324.963 177.639 324.709 177.639ZM324.811 177.037C325.076 177.037 325.3 176.985 325.482 176.881C325.665 176.777 325.804 176.642 325.896 176.477C325.991 176.313 326.038 176.139 326.038 175.958V175.344C326.01 175.378 325.947 175.409 325.851 175.438C325.756 175.464 325.646 175.488 325.521 175.509C325.398 175.528 325.278 175.545 325.161 175.56C325.045 175.573 324.951 175.584 324.879 175.594C324.705 175.617 324.542 175.654 324.391 175.705C324.241 175.754 324.12 175.829 324.027 175.929C323.936 176.028 323.891 176.162 323.891 176.333C323.891 176.566 323.977 176.742 324.149 176.861C324.323 176.978 324.544 177.037 324.811 177.037ZM329.83 173.174V173.742H327.569V173.174H329.83ZM328.228 172.128H328.898V176.287C328.898 176.477 328.926 176.619 328.981 176.713C329.038 176.806 329.11 176.869 329.197 176.901C329.286 176.931 329.38 176.946 329.478 176.946C329.552 176.946 329.612 176.942 329.66 176.935C329.707 176.925 329.745 176.918 329.773 176.912L329.91 177.514C329.864 177.531 329.801 177.549 329.719 177.566C329.638 177.584 329.535 177.594 329.41 177.594C329.22 177.594 329.035 177.553 328.853 177.472C328.673 177.39 328.523 177.266 328.404 177.1C328.287 176.933 328.228 176.723 328.228 176.469V172.128Z" fill="#242424"/>
<path d="M226.02 42.8068V42.1818H230.384V42.8068H228.554V48H227.85V42.8068H226.02ZM232.577 48.0909C232.157 48.0909 231.794 47.9981 231.489 47.8125C231.186 47.625 230.952 47.3636 230.787 47.0284C230.624 46.6913 230.543 46.2992 230.543 45.8523C230.543 45.4053 230.624 45.0114 230.787 44.6705C230.952 44.3277 231.181 44.0606 231.475 43.8693C231.77 43.6761 232.115 43.5795 232.509 43.5795C232.736 43.5795 232.961 43.6174 233.182 43.6932C233.404 43.7689 233.606 43.892 233.787 44.0625C233.969 44.2311 234.114 44.4545 234.222 44.733C234.33 45.0114 234.384 45.3542 234.384 45.7614V46.0455H231.02V45.4659H233.702C233.702 45.2197 233.653 45 233.554 44.8068C233.458 44.6136 233.32 44.4612 233.14 44.3494C232.962 44.2377 232.751 44.1818 232.509 44.1818C232.242 44.1818 232.011 44.2481 231.816 44.3807C231.623 44.5114 231.474 44.6818 231.37 44.892C231.266 45.1023 231.213 45.3277 231.213 45.5682V45.9545C231.213 46.2841 231.27 46.5634 231.384 46.7926C231.499 47.0199 231.66 47.1932 231.864 47.3125C232.069 47.4299 232.306 47.4886 232.577 47.4886C232.753 47.4886 232.912 47.464 233.054 47.4148C233.198 47.3636 233.322 47.2879 233.427 47.1875C233.531 47.0852 233.611 46.9583 233.668 46.8068L234.316 46.9886C234.248 47.2083 234.133 47.4015 233.972 47.5682C233.811 47.733 233.612 47.8617 233.375 47.9545C233.139 48.0455 232.873 48.0909 232.577 48.0909ZM235.404 48V43.6364H236.052V44.3182H236.108C236.199 44.0852 236.346 43.9044 236.549 43.7756C236.751 43.6449 236.995 43.5795 237.279 43.5795C237.567 43.5795 237.806 43.6449 237.998 43.7756C238.191 43.9044 238.341 44.0852 238.449 44.3182H238.495C238.606 44.0928 238.774 43.9138 238.998 43.7812C239.221 43.6468 239.489 43.5795 239.802 43.5795C240.192 43.5795 240.511 43.7017 240.759 43.946C241.007 44.1884 241.131 44.5663 241.131 45.0795V48H240.461V45.0795C240.461 44.7576 240.373 44.5275 240.196 44.3892C240.02 44.2509 239.813 44.1818 239.574 44.1818C239.267 44.1818 239.03 44.2746 238.861 44.4602C238.693 44.6439 238.608 44.8769 238.608 45.1591V48H237.927V45.0114C237.927 44.7633 237.846 44.5634 237.685 44.4119C237.524 44.2585 237.317 44.1818 237.063 44.1818C236.889 44.1818 236.726 44.2282 236.574 44.321C236.425 44.4138 236.303 44.5426 236.211 44.7074C236.12 44.8703 236.074 45.0587 236.074 45.2727V48H235.404ZM242.357 49.6364V43.6364H243.005V44.3295H243.084C243.133 44.2538 243.202 44.1572 243.289 44.0398C243.378 43.9205 243.505 43.8144 243.669 43.7216C243.836 43.6269 244.062 43.5795 244.346 43.5795C244.713 43.5795 245.037 43.6714 245.317 43.8551C245.597 44.0388 245.816 44.2992 245.973 44.6364C246.131 44.9735 246.209 45.3712 246.209 45.8295C246.209 46.2917 246.131 46.6922 245.973 47.0312C245.816 47.3684 245.598 47.6297 245.32 47.8153C245.042 47.9991 244.721 48.0909 244.357 48.0909C244.077 48.0909 243.852 48.0445 243.684 47.9517C243.515 47.857 243.385 47.75 243.294 47.6307C243.204 47.5095 243.133 47.4091 243.084 47.3295H243.027V49.6364H242.357ZM243.016 45.8182C243.016 46.1477 243.064 46.4384 243.161 46.6903C243.258 46.9403 243.399 47.1364 243.584 47.2784C243.77 47.4186 243.997 47.4886 244.266 47.4886C244.546 47.4886 244.78 47.4148 244.968 47.267C245.157 47.1174 245.299 46.9167 245.394 46.6648C245.49 46.411 245.539 46.1288 245.539 45.8182C245.539 45.5114 245.491 45.2348 245.397 44.9886C245.304 44.7405 245.163 44.5445 244.973 44.4006C244.786 44.2547 244.55 44.1818 244.266 44.1818C243.993 44.1818 243.764 44.2509 243.579 44.3892C243.393 44.5256 243.253 44.7169 243.158 44.9631C243.063 45.2074 243.016 45.4924 243.016 45.8182ZM247.902 42.1818V48H247.232V42.1818H247.902ZM250.414 48.1023C250.138 48.1023 249.887 48.0502 249.662 47.946C249.436 47.84 249.257 47.6875 249.125 47.4886C248.992 47.2879 248.926 47.0455 248.926 46.7614C248.926 46.5114 248.975 46.3087 249.074 46.1534C249.172 45.9962 249.304 45.8731 249.468 45.7841C249.633 45.6951 249.815 45.6288 250.014 45.5852C250.215 45.5398 250.416 45.5038 250.619 45.4773C250.884 45.4432 251.099 45.4176 251.264 45.4006C251.431 45.3816 251.552 45.3504 251.628 45.3068C251.705 45.2633 251.744 45.1875 251.744 45.0795V45.0568C251.744 44.7765 251.667 44.5587 251.514 44.4034C251.362 44.2481 251.132 44.1705 250.824 44.1705C250.503 44.1705 250.253 44.2405 250.071 44.3807C249.889 44.5208 249.761 44.6705 249.687 44.8295L249.051 44.6023C249.164 44.3371 249.316 44.1307 249.505 43.983C249.697 43.8333 249.905 43.7292 250.13 43.6705C250.358 43.6098 250.581 43.5795 250.801 43.5795C250.941 43.5795 251.102 43.5966 251.284 43.6307C251.468 43.6629 251.645 43.7301 251.815 43.8324C251.987 43.9347 252.13 44.089 252.244 44.2955C252.358 44.5019 252.414 44.7784 252.414 45.125V48H251.744V47.4091H251.71C251.664 47.5038 251.589 47.6051 251.483 47.7131C251.377 47.821 251.236 47.9129 251.059 47.9886C250.883 48.0644 250.668 48.1023 250.414 48.1023ZM250.517 47.5C250.782 47.5 251.005 47.4479 251.187 47.3438C251.371 47.2396 251.509 47.1051 251.602 46.9403C251.697 46.7756 251.744 46.6023 251.744 46.4205V45.8068C251.716 45.8409 251.653 45.8722 251.557 45.9006C251.462 45.9271 251.352 45.9508 251.227 45.9716C251.104 45.9905 250.984 46.0076 250.866 46.0227C250.751 46.036 250.657 46.0473 250.585 46.0568C250.411 46.0795 250.248 46.1165 250.096 46.1676C249.947 46.2169 249.825 46.2917 249.733 46.392C249.642 46.4905 249.596 46.625 249.596 46.7955C249.596 47.0284 249.682 47.2045 249.855 47.3239C250.029 47.4413 250.25 47.5 250.517 47.5ZM255.536 43.6364V44.2045H253.275V43.6364H255.536ZM253.934 42.5909H254.604V46.75C254.604 46.9394 254.632 47.0814 254.686 47.1761C254.743 47.2689 254.815 47.3314 254.902 47.3636C254.991 47.3939 255.085 47.4091 255.184 47.4091C255.258 47.4091 255.318 47.4053 255.365 47.3977C255.413 47.3883 255.451 47.3807 255.479 47.375L255.615 47.9773C255.57 47.9943 255.507 48.0114 255.425 48.0284C255.344 48.0473 255.24 48.0568 255.115 48.0568C254.926 48.0568 254.74 48.0161 254.559 47.9347C254.379 47.8532 254.229 47.7292 254.11 47.5625C253.992 47.3958 253.934 47.1856 253.934 46.9318V42.5909ZM258.327 48.0909C257.907 48.0909 257.544 47.9981 257.239 47.8125C256.936 47.625 256.702 47.3636 256.537 47.0284C256.374 46.6913 256.293 46.2992 256.293 45.8523C256.293 45.4053 256.374 45.0114 256.537 44.6705C256.702 44.3277 256.931 44.0606 257.225 43.8693C257.52 43.6761 257.865 43.5795 258.259 43.5795C258.486 43.5795 258.711 43.6174 258.932 43.6932C259.154 43.7689 259.356 43.892 259.537 44.0625C259.719 44.2311 259.864 44.4545 259.972 44.733C260.08 45.0114 260.134 45.3542 260.134 45.7614V46.0455H256.77V45.4659H259.452C259.452 45.2197 259.403 45 259.304 44.8068C259.208 44.6136 259.07 44.4612 258.89 44.3494C258.712 44.2377 258.501 44.1818 258.259 44.1818C257.992 44.1818 257.761 44.2481 257.566 44.3807C257.373 44.5114 257.224 44.6818 257.12 44.892C257.016 45.1023 256.963 45.3277 256.963 45.5682V45.9545C256.963 46.2841 257.02 46.5634 257.134 46.7926C257.249 47.0199 257.41 47.1932 257.614 47.3125C257.819 47.4299 258.056 47.4886 258.327 47.4886C258.503 47.4886 258.662 47.464 258.804 47.4148C258.948 47.3636 259.072 47.2879 259.177 47.1875C259.281 47.0852 259.361 46.9583 259.418 46.8068L260.066 46.9886C259.998 47.2083 259.883 47.4015 259.722 47.5682C259.561 47.733 259.362 47.8617 259.125 47.9545C258.889 48.0455 258.623 48.0909 258.327 48.0909ZM264.245 44.6136L263.642 44.7841C263.605 44.6837 263.549 44.5862 263.475 44.4915C263.403 44.3949 263.304 44.3153 263.179 44.2528C263.054 44.1903 262.894 44.1591 262.699 44.1591C262.432 44.1591 262.21 44.2206 262.032 44.3438C261.856 44.465 261.767 44.6193 261.767 44.8068C261.767 44.9735 261.828 45.1051 261.949 45.2017C262.07 45.2983 262.26 45.3788 262.517 45.4432L263.165 45.6023C263.555 45.697 263.846 45.8419 264.037 46.0369C264.229 46.2301 264.324 46.4792 264.324 46.7841C264.324 47.0341 264.252 47.2576 264.108 47.4545C263.966 47.6515 263.767 47.8068 263.512 47.9205C263.256 48.0341 262.959 48.0909 262.62 48.0909C262.175 48.0909 261.806 47.9943 261.515 47.8011C261.223 47.608 261.038 47.3258 260.961 46.9545L261.597 46.7955C261.658 47.0303 261.772 47.2064 261.941 47.3239C262.111 47.4413 262.334 47.5 262.608 47.5C262.921 47.5 263.169 47.4337 263.353 47.3011C263.538 47.1667 263.631 47.0057 263.631 46.8182C263.631 46.6667 263.578 46.5398 263.472 46.4375C263.366 46.3333 263.203 46.2557 262.983 46.2045L262.256 46.0341C261.856 45.9394 261.563 45.7926 261.375 45.5938C261.19 45.393 261.097 45.142 261.097 44.8409C261.097 44.5947 261.166 44.3769 261.304 44.1875C261.445 43.9981 261.635 43.8494 261.875 43.7415C262.118 43.6335 262.392 43.5795 262.699 43.5795C263.131 43.5795 263.47 43.6742 263.716 43.8636C263.964 44.053 264.141 44.303 264.245 44.6136Z" fill="#242424"/>
</svg>
